<svg xmlns="http://www.w3.org/2000/svg" width="17.652" height="167.672" viewBox="0 0 17.652 167.672">
  <g id="グループ_54" data-name="グループ 54" transform="translate(0.152 0.5)">
    <path id="パス_71" data-name="パス 71" d="M2.839-11.237c-1.309,0-1.717-.034-1.819-.034-.17,0-.187.017-.187.187v1.207c0,.187.017.2.187.2.1,0,.51-.034,1.819-.034H4.777c1.19,0,1.632.034,1.768.034l-.493.306a4.126,4.126,0,0,1,.816.986c.153.272.238.374.357.374.1,0,.2-.068.408-.2a13.687,13.687,0,0,0,3.655-3.757,13.263,13.263,0,0,0,4,3.893,1.2,1.2,0,0,0,.374.17c.119,0,.17-.119.289-.425a5.3,5.3,0,0,1,.7-1.275,11.375,11.375,0,0,1-4.471-3.757.451.451,0,0,1,.1-.085.327.327,0,0,0,.17-.255c0-.119-.085-.2-.238-.255-.544-.119-1.071-.238-1.734-.323a5.55,5.55,0,0,1-.493,1.105,10.856,10.856,0,0,1-3.2,3.349v-1.258c0-.17-.017-.187-.187-.187-.1,0-.51.034-1.819.034Zm3.5,8.483c0-.8.034-1.207.034-1.309,0-.17-.017-.187-.17-.187-.119,0-.476.034-1.581.034H3.247C2.159-4.216,1.8-4.25,1.7-4.25c-.187,0-.2.017-.2.187,0,.119.034.527.034,1.6v1.088C1.53.68,1.5,1.071,1.5,1.173c0,.17.017.187.2.187H2.907c.17,0,.187-.017.187-.187V.34h1.7V.867c0,.17.017.187.187.187H6.2c.153,0,.17-.017.17-.187,0-.1-.034-.476-.034-2.448ZM4.794-2.805v1.734h-1.7V-2.805ZM6.562-.2A5.054,5.054,0,0,1,7.361.85c.17.306.221.408.374.408a1.819,1.819,0,0,0,.391-.085A15.226,15.226,0,0,0,15.47-3.281a2.393,2.393,0,0,1,.544-.527c.1-.051.2-.119.2-.221,0-.119-.068-.17-.2-.289a11.83,11.83,0,0,0-1.275-.935,4.275,4.275,0,0,1-.663.935A13.754,13.754,0,0,1,6.562-.2Zm.493-3.23A4.589,4.589,0,0,1,7.82-2.5c.17.289.238.408.374.408A1.357,1.357,0,0,0,8.6-2.227a14.685,14.685,0,0,0,5.287-3.655,1.768,1.768,0,0,1,.459-.408c.119-.068.2-.136.2-.255,0-.085-.051-.17-.187-.272a14.691,14.691,0,0,0-1.224-.867,3.729,3.729,0,0,1-.476.714A12.418,12.418,0,0,1,7.055-3.434ZM6.9-6.6a4.2,4.2,0,0,1,.748.9c.153.272.221.374.357.374a1.114,1.114,0,0,0,.408-.153,11.211,11.211,0,0,0,3.553-2.5,2.067,2.067,0,0,1,.561-.476c.1-.051.221-.136.221-.221,0-.1-.051-.153-.187-.272a13.157,13.157,0,0,0-1.224-.867,3.07,3.07,0,0,1-.493.68A10.332,10.332,0,0,1,6.9-6.6Zm-3.621-6.97c-1.105,0-1.445-.034-1.547-.034-.17,0-.187.017-.187.187v1.122c0,.17.017.187.187.187.1,0,.442-.034,1.547-.034H4.709c1.105,0,1.445.034,1.53.034.187,0,.2-.017.2-.187v-1.122c0-.17-.017-.187-.2-.187-.085,0-.425.034-1.53.034Zm.068,4.743c-1.037,0-1.343-.034-1.445-.034-.17,0-.187.017-.187.187v1.105c0,.17.017.187.187.187.1,0,.408-.034,1.445-.034H4.556c1.037,0,1.343.034,1.445.034.187,0,.2-.017.2-.187V-8.67c0-.17-.017-.187-.2-.187-.1,0-.408.034-1.445.034Zm0,2.3c-1.037,0-1.343-.034-1.445-.034-.17,0-.187.017-.187.187v1.088c0,.17.017.187.187.187.1,0,.408-.034,1.445-.034H4.556C5.593-5.134,5.9-5.1,6-5.1c.187,0,.2-.017.2-.187V-6.375c0-.17-.017-.187-.2-.187-.1,0-.408.034-1.445.034Zm9.928,15.62c1.666,0,2.244.034,2.346.034.17,0,.187-.017.187-.17v-1c0-.17-.017-.187-.187-.187-.1,0-.68.034-2.346.034H10.336a1.438,1.438,0,0,1,.374-.561.382.382,0,0,0,.153-.306c0-.1-.1-.17-.272-.2-.408-.085-.9-.17-1.36-.238h4.318c1.649,0,2.21.034,2.312.034.17,0,.17-.017.17-.187V5.233c0-.187,0-.2-.17-.2-.1,0-.663.034-2.312.034H10.285V4.876a1.687,1.687,0,0,1,.085-.663.81.81,0,0,0,.1-.306c0-.1-.1-.17-.272-.187-.612-.051-1.173-.085-1.819-.085a6.315,6.315,0,0,1,.136,1.309v.119H5.457c-1.649,0-2.244-.034-2.346-.034-.17,0-.187.017-.187.2,0,.1.034,1.258.034,3.859,0,.85-.017,1.581-.034,2.244a12.268,12.268,0,0,1-1.156.544,9.334,9.334,0,0,1-1.36.425,15.589,15.589,0,0,0,.442,1.53c.034.136.1.187.2.187a.3.3,0,0,0,.255-.136,2.143,2.143,0,0,1,.527-.34c.323-.17.646-.34.969-.527a11.885,11.885,0,0,1-.2,1.207A8.069,8.069,0,0,1,.816,17.915a4.493,4.493,0,0,1,.969.935c.153.2.238.289.323.289.1,0,.187-.1.323-.289a10.819,10.819,0,0,0,1.7-3.944,17.808,17.808,0,0,0,.306-2.363c.119.153.255.323.408.544.1.17.153.238.238.238a.682.682,0,0,0,.289-.136l.884-.578v1.224c0,.969-.034,1.462-.034,1.564,0,.17.017.187.187.187.1,0,.833-.034,2.227-.034h.7v1.8c0,.357-.1.493-.612.493A10.736,10.736,0,0,1,7.548,17.8a3.689,3.689,0,0,1,.357,1c.119.527.119.527.646.51a3.629,3.629,0,0,0,1.853-.255c.408-.2.578-.51.578-1.156,0-.544-.017-.986-.017-1.615v-.731h.544c1.411,0,2.125.034,2.227.034.187,0,.2-.017.2-.187,0-.1-.034-.51-.034-1.377V12.373a11.473,11.473,0,0,0,1.292.663,1.114,1.114,0,0,0,.408.153c.119,0,.187-.119.323-.425a4,4,0,0,1,.561-.918,9.85,9.85,0,0,1-2.176-.9l.442-.374a1.641,1.641,0,0,1,.51-.357.232.232,0,0,0,.17-.2c0-.068-.017-.136-.153-.238-.289-.2-.714-.493-1-.663a2.728,2.728,0,0,1-.391.51,7.646,7.646,0,0,1-.646.595,5.95,5.95,0,0,1-1.054-1.122Zm-5.3,0a6.154,6.154,0,0,1-.986,1.139,10.762,10.762,0,0,0-1-.969.18.18,0,0,0-.153-.085.3.3,0,0,0-.17.085l-.578.493c-.153.119-.2.17-.068.306a8.7,8.7,0,0,1,.952,1.02,14.415,14.415,0,0,1-1.5.918c.051-.765.068-1.632.068-2.6V6.491H9.078A4.627,4.627,0,0,1,8.687,7.8h-1.1c-1.666,0-2.244-.034-2.346-.034-.17,0-.187.017-.187.187v1c0,.153.017.17.187.17.1,0,.68-.034,2.346-.034Zm4.386,2.669v.765H7.752v-.765Zm0,2.618H7.752v-.714h4.607ZM8.636,10.537A8.63,8.63,0,0,0,9.673,9.092h.935a7.319,7.319,0,0,0,1.054,1.445ZM6.9,15.688a3.111,3.111,0,0,1-.663.765,9.015,9.015,0,0,1-2.261,1.326,4.246,4.246,0,0,1,.816.765c.2.238.289.34.408.34a.885.885,0,0,0,.408-.17,9.494,9.494,0,0,0,2.057-1.581,2.325,2.325,0,0,1,.374-.323c.136-.085.221-.153.221-.255s-.068-.187-.2-.272C7.769,16.113,7.31,15.892,6.9,15.688Zm5.049.765c-.187.119-.2.2-.085.323a11.708,11.708,0,0,0,2.482,1.9,1.27,1.27,0,0,0,.408.17c.119,0,.2-.119.374-.391a4.833,4.833,0,0,1,.731-.935,8.329,8.329,0,0,1-2.788-1.632c-.136-.119-.17-.085-.357.034ZM.782,7.069c-.221.119-.221.136-.136.289A17.63,17.63,0,0,1,1.6,9.942c.034.1.068.136.119.136a.616.616,0,0,0,.221-.085l.748-.442c.2-.119.221-.17.17-.34a16.718,16.718,0,0,0-.969-2.482c-.068-.153-.119-.17-.34-.051Zm4.471,18.6c-.085.068-.119.119-.119.17s.034.085.119.136a23.466,23.466,0,0,1,3.213,2.142H3.57c-1.513,0-2.04-.034-2.142-.034-.17,0-.187.017-.187.187v1.326c0,.17.017.187.187.187.1,0,.629-.034,2.142-.034H7.718v5.032c0,.476-.153.612-.646.612q-.79,0-2.091-.1a5.462,5.462,0,0,1,.578,1.36c.136.544.136.544.663.544,1.717,0,2.346-.1,2.839-.442.357-.255.544-.7.544-1.53,0-.629-.017-1.411-.017-2.652V29.744h3.706a11.633,11.633,0,0,1-2.278,2.006,5.909,5.909,0,0,1,1.173.748c.221.187.323.272.408.272.1,0,.2-.085.391-.255A15.435,15.435,0,0,0,15.317,30.1a2.6,2.6,0,0,1,.629-.629c.17-.119.238-.187.238-.323,0-.187-.034-.289-.561-.714-.544-.459-.714-.493-.85-.493a.564.564,0,0,0-.255.085.659.659,0,0,1-.391.085H10.285l.272-.238c.187-.153.187-.17.051-.289l-.6-.493a24.838,24.838,0,0,0,3.519-2.55,2.011,2.011,0,0,1,.629-.442c.2-.085.306-.17.306-.323,0-.187-.1-.34-.612-.833-.425-.425-.663-.544-.8-.544a.506.506,0,0,0-.238.085,1.282,1.282,0,0,1-.442.051H5.253c-1.666,0-2.244-.034-2.346-.034-.153,0-.17.017-.17.187v1.275c0,.17.017.187.17.187.1,0,.68-.034,2.346-.034h6.069a16.9,16.9,0,0,1-2.737,1.955c-.7-.459-1.411-.867-2.142-1.258-.153-.068-.2-.068-.34.068Zm.425,19.819c-.221.085-.255.119-.17.289.17.34.323.7.476,1.071-.663.051-1.36.085-2.023.119.782-1,1.717-2.312,2.584-3.689a2.023,2.023,0,0,1,.561-.7c.136-.068.187-.136.187-.255,0-.1-.051-.17-.2-.255a15.791,15.791,0,0,0-1.428-.731,8.9,8.9,0,0,1-.527,1.173c-.374.646-.748,1.275-1.139,1.887-.238-.289-.493-.561-.748-.85a27.017,27.017,0,0,0,1.5-2.346,1.037,1.037,0,0,1,.323-.408c.085-.068.153-.136.153-.221,0-.1-.068-.187-.221-.272a14.3,14.3,0,0,0-1.479-.629,5.2,5.2,0,0,1-.391,1.054A16.414,16.414,0,0,1,2.21,42.44L1.785,42c-.068-.068-.1-.1-.153-.1s-.1.051-.17.153l-.629.833c-.068.1-.119.17-.119.221s.034.085.1.153a24.2,24.2,0,0,1,2.3,2.482L2.159,47.03A13.447,13.447,0,0,1,.748,47c.085.629.153,1.02.238,1.428.034.17.085.289.2.289a.458.458,0,0,0,.255-.085,1.833,1.833,0,0,1,.629-.136l1.6-.1v4.539c0,1.564-.034,2.125-.034,2.227,0,.17.017.187.187.187H5.117c.17,0,.187-.017.187-.187,0-.085-.034-.663-.034-2.227V48.254c.391-.034.782-.068,1.173-.119l.2.765c.034.153.1.17.289.119l.9-.289c.221-.068.255-.153.2-.34a15.643,15.643,0,0,0-1.258-3.077c-.085-.153-.119-.17-.323-.1Zm8.245-1.377a49.285,49.285,0,0,1-.425,7.905c-.17.9-.459,1.462-1.088,1.462a13.186,13.186,0,0,1-2.159-.153,4.994,4.994,0,0,1,.476,1.292c.119.544.119.544.629.578.442.034.918.017,1.275.017,1.6-.034,2.312-.85,2.584-2.584a54.6,54.6,0,0,0,.493-8.517c0-.476,0-.935.034-1.411,0-.17-.034-.2-.2-.2-.1,0-.493.034-1.717.034H10.608c.153-.34.272-.7.391-1.037a2.183,2.183,0,0,1,.476-.867c.153-.153.17-.2.17-.34,0-.119-.136-.2-.357-.272-.34-.085-1-.238-1.649-.357A8.613,8.613,0,0,1,9.316,41.1a10.317,10.317,0,0,1-2.431,4.114,3.216,3.216,0,0,1,.918.8c.17.2.272.306.357.306.1,0,.187-.1.374-.306a10.405,10.405,0,0,0,1.326-1.9ZM8.891,46.945c-.221.119-.221.17-.1.34a17.81,17.81,0,0,1,1.785,3.281c.068.187.136.221.323.1l1.071-.646c.2-.1.238-.153.153-.323a16.406,16.406,0,0,0-1.938-3.247c-.1-.119-.153-.153-.34-.051ZM.765,53.592a3.523,3.523,0,0,1,.9.408.839.839,0,0,0,.391.2c.1,0,.17-.119.238-.374a19.8,19.8,0,0,0,.646-3.264,1.758,1.758,0,0,1,.1-.544.615.615,0,0,0,.1-.255c0-.085-.085-.17-.289-.2-.34-.068-.8-.119-1.309-.187a5.732,5.732,0,0,1-.034.952A12.907,12.907,0,0,1,.765,53.592Zm5.287-3.978c-.2.068-.221.1-.153.289a26.537,26.537,0,0,1,.765,3.264c.034.17.051.221.306.136l.9-.306c.221-.068.238-.119.2-.306a26.117,26.117,0,0,0-.867-3.213c-.068-.187-.1-.221-.306-.153Zm3.6,11.965a3.861,3.861,0,0,1,3.808,3.944c0,3.213-2.261,4.4-5.134,5.083a3.605,3.605,0,0,1,1.19,1.071c.221.34.374.408.731.306,3.451-1.037,5.236-3.026,5.236-6.188,0-3.383-2.4-5.9-6.477-5.9a7.439,7.439,0,0,0-5.525,2.176,6.263,6.263,0,0,0-1.921,4.42c0,2.771,1.513,4.369,3.009,4.369a3.229,3.229,0,0,0,2.89-1.955,21.287,21.287,0,0,0,2.125-7.327Zm-2.04.1a19.423,19.423,0,0,1-1.8,6.086c-.459.816-.833,1.037-1.275,1.037-.527,0-1.156-.867-1.156-2.431a4.9,4.9,0,0,1,1.326-3.145A5.12,5.12,0,0,1,7.616,61.681ZM3.553,84.509a4.486,4.486,0,0,0-.9,2.431c0,2.21,1.921,3.434,5.848,3.434a26.983,26.983,0,0,0,4.981-.408c.2-.034.306-.1.289-.255a14.215,14.215,0,0,0-.272-1.666c-.034-.153-.119-.2-.357-.153a21.628,21.628,0,0,1-4.607.493c-2.924,0-4.029-.527-4.029-1.6A2.794,2.794,0,0,1,4.947,85.5c.085-.136.068-.221-.085-.306C4.42,84.951,3.995,84.73,3.553,84.509Zm.374-6.426c-.034.612-.068,1.105-.068,1.513,0,.2.068.272.221.306a20.342,20.342,0,0,0,3.128.289,10.38,10.38,0,0,0,1.241-.051c-.6.357-1.343.833-2.227,1.411a4.062,4.062,0,0,1,1.19.544.714.714,0,0,0,.357.1.724.724,0,0,0,.425-.153,9.9,9.9,0,0,1,4.165-1.683c.2-.017.289-.119.289-.357a9.923,9.923,0,0,0-.153-1.445c-.017-.136-.085-.2-.255-.187-1.088.085-2.3.153-3.536.153A21.446,21.446,0,0,1,3.927,78.083Zm8.5-.816a8.435,8.435,0,0,1,1.717,1.972.178.178,0,0,0,.289.051l.714-.527a.171.171,0,0,0,.051-.272,7.824,7.824,0,0,0-1.615-1.819c-.1-.085-.17-.1-.255-.034Zm1.564-1.122a8.042,8.042,0,0,1,1.7,1.955.174.174,0,0,0,.289.051l.68-.527a.2.2,0,0,0,.051-.306A7.1,7.1,0,0,0,15.1,75.567c-.1-.085-.153-.1-.255-.034Zm-.51,22.964c1.547,0,2.074.034,2.176.034.17,0,.187-.017.187-.17V97.936c0-.17-.017-.187-.187-.187-.1,0-.629.034-2.176.034H7.956a1.655,1.655,0,0,1,.476-.527c.119-.068.221-.153.221-.238,0-.119-.085-.187-.2-.221-.51-.119-1.037-.221-1.649-.306a6.808,6.808,0,0,1-.612,1.156l-.085.136H3.6c-1.547,0-2.074-.034-2.176-.034-.187,0-.2.017-.2.187v1.037c0,.153.017.17.2.17.1,0,.629-.034,2.176-.034H5.083l-.459.51c-.289.289-.612.629-.9.884-.119.1-.136.221.1.289l.969.306c.272.085.306.085.425-.034.1-.085.221-.187.34-.306.544.1,1.088.221,1.6.34a27.251,27.251,0,0,1-5.61.629,3.393,3.393,0,0,1,.561,1c.136.374.187.391.612.357a26.378,26.378,0,0,0,4.692-.663,11.343,11.343,0,0,1,.119,1.36H3.349c-1.513,0-2.04-.034-2.142-.034-.187,0-.2.017-.2.187v1.105c0,.17.017.187.2.187.1,0,.629-.034,2.142-.034H6.273a16.5,16.5,0,0,1-5.729,2.448,4.155,4.155,0,0,1,.714,1.037c.153.289.221.391.374.391a1.819,1.819,0,0,0,.391-.085,14.828,14.828,0,0,0,5.542-3.111c-.017,1.751-.085,2.907-.085,3.247,0,.17.017.187.187.187H9.061c.17,0,.187-.017.187-.187,0-.34-.051-1.564-.068-3.281a13.263,13.263,0,0,0,5.712,3.128c.51.136.544.153.748-.34a4.2,4.2,0,0,1,.714-1.139,15.662,15.662,0,0,1-5.95-2.295h3.213c1.513,0,2.04.034,2.142.034.187,0,.2-.017.2-.187v-1.105c0-.17-.017-.187-.2-.187-.1,0-.629.034-2.142.034h-4.4a3.176,3.176,0,0,1,.068-.663,2.831,2.831,0,0,0,.1-.442c0-.085-.085-.17-.255-.187-.527-.051-1-.1-1.547-.119A9.574,9.574,0,0,0,9.4,101.71c1.581.476,3.111,1.054,4.641,1.666.17.068.221.068.357-.136l.68-.9a.4.4,0,0,0,.1-.187c0-.051-.051-.085-.136-.119-1.428-.493-2.771-.9-4.1-1.258a7.4,7.4,0,0,0,1.581-1.666Zm-2.822,0a6.288,6.288,0,0,1-1.513,1.224c-.884-.187-1.785-.374-2.7-.527a8.342,8.342,0,0,0,.561-.7ZM3.281,96.287h10.4v.884c0,.153.017.17.187.17h1.377c.17,0,.187-.017.187-.17,0-.1-.034-.238-.034-1.292v-.323c0-.221.034-.374.034-.476,0-.17-.017-.187-.187-.187-.119,0-.7.034-2.3.034H9.265a1.813,1.813,0,0,1,.068-.629.868.868,0,0,0,.1-.34c0-.085-.1-.153-.255-.17-.6-.051-1.207-.085-1.819-.085a5.751,5.751,0,0,1,.119,1.224H4.029c-1.615,0-2.193-.034-2.3-.034-.187,0-.2.017-.2.187,0,.1.034.255.034.527v.272c0,1.054-.034,1.173-.034,1.292,0,.153.017.17.2.17h1.36c.17,0,.187-.017.187-.17ZM15.368,117.7c0-1.768.034-2.686.034-2.788,0-.17-.017-.187-.187-.187-.1,0-.68.034-2.278.034H9.316c.017-.374.034-.748.034-1.122a6.656,6.656,0,0,1,.085-1.241,1.04,1.04,0,0,0,.1-.357c0-.1-.085-.187-.255-.2-.612-.051-1.275-.1-1.87-.119a13.2,13.2,0,0,1,.1,1.819c0,.425-.017.833-.034,1.224H4.148c-1.615,0-2.176-.034-2.3-.034-.17,0-.187.017-.187.187,0,.119.034.935.034,2.686v6.579c0,1.751-.034,2.55-.034,2.669,0,.153.017.17.187.17H3.332c.187,0,.2-.017.2-.17,0-.1-.034-.884-.034-2.465v-2.363a4.67,4.67,0,0,1,.816.986c.153.238.221.34.323.34.085,0,.187-.068.374-.221A9.112,9.112,0,0,0,8.5,118.843l.051-.136a10.418,10.418,0,0,0,3.451,4.2c.187.136.289.2.374.2.1,0,.187-.119.34-.357a5.01,5.01,0,0,1,.85-1.071v2.89c0,.425-.153.561-.68.578-.323.017-1.071-.017-1.785-.068a4.163,4.163,0,0,1,.476,1.326c.1.527.153.544.646.544,1.666,0,2.261-.153,2.635-.442A1.694,1.694,0,0,0,15.4,125.1c.017-.578-.034-1.479-.034-2.958Zm-1.8,3.876A8.666,8.666,0,0,1,9.214,116.4h4.352ZM3.5,116.4H7.344a8.688,8.688,0,0,1-.527,1.938A7.214,7.214,0,0,1,3.5,121.852Z" transform="translate(0 40.152)" fill="#fff"/>
    <g id="schedule_icon" transform="translate(0.348 0)">
      <path id="パス_15" data-name="パス 15" d="M0,0H16" transform="translate(0.5 6.152)" fill="none" stroke="#fff" stroke-width="1"/>
      <path id="パス_12" data-name="パス 12" d="M12.861,4.445h0A.861.861,0,0,1,12,3.584V1.861a.861.861,0,1,1,1.723,0V3.584A.861.861,0,0,1,12.861,4.445Z" transform="translate(-8.842 -1)" fill="none" stroke="#fff" stroke-miterlimit="10" stroke-width="1"/>
      <path id="パス_13" data-name="パス 13" d="M42.861,4.445h0A.861.861,0,0,1,42,3.584V1.861a.861.861,0,0,1,1.723,0V3.584A.861.861,0,0,1,42.861,4.445Z" transform="translate(-30.229 -1)" fill="none" stroke="#fff" stroke-miterlimit="10" stroke-width="1"/>
      <rect id="長方形_35" data-name="長方形 35" width="2" height="2" transform="translate(7.5 9.152)" fill="none" stroke="#fff" stroke-linejoin="round" stroke-width="1"/>
      <rect id="長方形_38" data-name="長方形 38" width="2" height="2" transform="translate(3.5 9.152)" fill="none" stroke="#fff" stroke-linejoin="round" stroke-width="1"/>
      <rect id="長方形_40" data-name="長方形 40" width="2" height="2" transform="translate(11.5 9.152)" fill="none" stroke="#fff" stroke-linejoin="round" stroke-width="1"/>
      <rect id="長方形_36" data-name="長方形 36" width="2" height="2" transform="translate(7.5 13.152)" fill="none" stroke="#fff" stroke-linejoin="round" stroke-width="1"/>
      <rect id="長方形_37" data-name="長方形 37" width="2" height="2" transform="translate(3.5 13.152)" fill="none" stroke="#fff" stroke-linejoin="round" stroke-width="1"/>
      <rect id="長方形_39" data-name="長方形 39" width="2" height="2" transform="translate(11.5 13.152)" fill="none" stroke="#fff" stroke-linejoin="round" stroke-width="1"/>
      <line id="線_14" data-name="線 14" x2="6.878" transform="translate(4.887 1.723)" fill="none" stroke="#fff" stroke-miterlimit="10" stroke-width="1"/>
      <path id="パス_14" data-name="パス 14" d="M14.494,7H16.5a1.206,1.206,0,0,1,1.148,1.256V22.067A1.206,1.206,0,0,1,16.5,23.323H2.148A1.206,1.206,0,0,1,1,22.067V8.256A1.206,1.206,0,0,1,2.148,7h2.01" transform="translate(-1 -5.277)" fill="none" stroke="#fff" stroke-miterlimit="10" stroke-width="1"/>
    </g>
  </g>
</svg>
