<svg id="グループ_216" data-name="グループ 216" xmlns="http://www.w3.org/2000/svg" xmlns:xlink="http://www.w3.org/1999/xlink" width="47.468" height="16.377" viewBox="0 0 47.468 16.377">
  <defs>
    <clipPath id="clip-path">
      <rect id="長方形_28" data-name="長方形 28" width="15.298" height="16.377" fill="#fff"/>
    </clipPath>
  </defs>
  <path id="パス_85" data-name="パス 85" d="M4.635-9.12c-.075.06-.105.1-.105.15s.03.075.105.12A20.705,20.705,0,0,1,7.47-6.96H3.15c-1.335,0-1.8-.03-1.89-.03-.15,0-.165.015-.165.165v1.17c0,.15.015.165.165.165.09,0,.555-.03,1.89-.03H6.81v4.44c0,.42-.135.54-.57.54q-.7,0-1.845-.09A4.82,4.82,0,0,1,4.9.57c.12.48.12.48.585.48,1.515,0,2.07-.09,2.505-.39.315-.225.48-.615.48-1.35,0-.555-.015-1.245-.015-2.34V-5.52h3.27A10.265,10.265,0,0,1,9.72-3.75a5.214,5.214,0,0,1,1.035.66c.2.165.285.24.36.24.09,0,.18-.075.345-.225A13.619,13.619,0,0,0,13.515-5.2a2.3,2.3,0,0,1,.555-.555c.15-.105.21-.165.21-.285,0-.165-.03-.255-.495-.63-.48-.405-.63-.435-.75-.435a.5.5,0,0,0-.225.075.581.581,0,0,1-.345.075H9.075l.24-.21c.165-.135.165-.15.045-.255L8.835-7.86a21.916,21.916,0,0,0,3.105-2.25,1.774,1.774,0,0,1,.555-.39c.18-.075.27-.15.27-.285,0-.165-.09-.3-.54-.735-.375-.375-.585-.48-.7-.48a.447.447,0,0,0-.21.075,1.131,1.131,0,0,1-.39.045H4.635c-1.47,0-1.98-.03-2.07-.03-.135,0-.15.015-.15.165v1.125c0,.15.015.165.15.165.09,0,.6-.03,2.07-.03H9.99A14.909,14.909,0,0,1,7.575-8.76c-.615-.4-1.245-.765-1.89-1.11-.135-.06-.18-.06-.3.06Zm15.75,1.605c-.195.075-.225.105-.15.255.15.3.285.615.42.945-.585.045-1.2.075-1.785.105.69-.885,1.515-2.04,2.28-3.255a1.785,1.785,0,0,1,.5-.615c.12-.06.165-.12.165-.225s-.045-.15-.18-.225a13.934,13.934,0,0,0-1.26-.645A7.849,7.849,0,0,1,19.9-10.14c-.33.57-.66,1.125-1,1.665-.21-.255-.435-.495-.66-.75a23.839,23.839,0,0,0,1.32-2.07.915.915,0,0,1,.285-.36c.075-.06.135-.12.135-.2,0-.09-.06-.165-.195-.24a12.622,12.622,0,0,0-1.305-.555,4.585,4.585,0,0,1-.345.93,14.483,14.483,0,0,1-.81,1.515l-.375-.39c-.06-.06-.09-.09-.135-.09s-.09.045-.15.135l-.555.735c-.06.09-.105.15-.105.195s.03.075.09.135A21.356,21.356,0,0,1,18.12-7.29l-.84,1.14a11.865,11.865,0,0,1-1.245-.03c.075.555.135.9.21,1.26.03.15.075.255.18.255a.4.4,0,0,0,.225-.075,1.617,1.617,0,0,1,.555-.12l1.41-.09V-.945c0,1.38-.03,1.875-.03,1.965,0,.15.015.165.165.165h1.14c.15,0,.165-.015.165-.165,0-.075-.03-.585-.03-1.965V-5.07c.345-.03.69-.06,1.035-.105l.18.675c.03.135.09.15.255.105l.8-.255c.195-.06.225-.135.18-.3a13.8,13.8,0,0,0-1.11-2.715c-.075-.135-.105-.15-.285-.09ZM27.66-8.73a43.487,43.487,0,0,1-.375,6.975c-.15.795-.4,1.29-.96,1.29A11.635,11.635,0,0,1,24.42-.6,4.407,4.407,0,0,1,24.84.54c.1.48.1.48.555.51.39.03.81.015,1.125.015,1.41-.03,2.04-.75,2.28-2.28a48.18,48.18,0,0,0,.435-7.515c0-.42,0-.825.03-1.245,0-.15-.03-.18-.18-.18-.09,0-.435.03-1.515.03H24.735c.135-.3.24-.615.345-.915a1.926,1.926,0,0,1,.42-.765c.135-.135.15-.18.15-.3s-.12-.18-.315-.24c-.3-.075-.885-.21-1.455-.315a7.6,7.6,0,0,1-.285,1.275,9.1,9.1,0,0,1-2.145,3.63,2.837,2.837,0,0,1,.81.7c.15.18.24.27.315.27s.165-.09.33-.27a9.181,9.181,0,0,0,1.17-1.68ZM23.22-6.225c-.2.105-.2.15-.09.3A15.714,15.714,0,0,1,24.7-3.03c.06.165.12.2.285.09l.945-.57c.18-.09.21-.135.135-.285A14.475,14.475,0,0,0,24.36-6.66c-.09-.105-.135-.135-.3-.045ZM16.05-.36a3.109,3.109,0,0,1,.8.36.74.74,0,0,0,.345.18c.09,0,.15-.105.21-.33a17.467,17.467,0,0,0,.57-2.88,1.551,1.551,0,0,1,.09-.48.543.543,0,0,0,.09-.225c0-.075-.075-.15-.255-.18-.3-.06-.7-.1-1.155-.165a5.057,5.057,0,0,1-.03.84A11.388,11.388,0,0,1,16.05-.36Zm4.665-3.51c-.18.06-.195.09-.135.255a23.414,23.414,0,0,1,.675,2.88c.03.15.045.195.27.12l.8-.27c.195-.06.21-.105.18-.27a23.044,23.044,0,0,0-.765-2.835c-.06-.165-.09-.2-.27-.135Z" transform="translate(18.203 13.734)" fill="#fff"/>
  <g id="グループ_215" data-name="グループ 215">
    <g id="グループ_42" data-name="グループ 42" clip-path="url(#clip-path)">
      <path id="パス_11" data-name="パス 11" d="M11.337,16.378a6,6,0,0,1-1.84-.31,14.229,14.229,0,0,1-3.474-1.845,12.418,12.418,0,0,1-2.541-2.353,12.419,12.419,0,0,1-2-2.828A14.229,14.229,0,0,1,.11,5.354,4.925,4.925,0,0,1,.88,1.4,3.21,3.21,0,0,1,2.081.389,4.239,4.239,0,0,1,3.681,0,1.111,1.111,0,0,1,4.829.7c.231.5.473,1,.707,1.488.168.35.342.711.511,1.069a5.138,5.138,0,0,1,.268.69.968.968,0,0,1-.379,1.129c-.506.4-1,.793-1.472,1.192-.018.016-.055.047-.078.07a1.028,1.028,0,0,0,.051.147A10.17,10.17,0,0,0,6.226,9.453l.011.013a10.168,10.168,0,0,0,2.71,2.163,1.022,1.022,0,0,0,.139.07c.026-.02.062-.052.08-.069.459-.416.912-.853,1.375-1.3A.968.968,0,0,1,11.71,10.1a5.148,5.148,0,0,1,.648.357c.332.214.668.434.992.647.452.3.92.6,1.382.9a1.111,1.111,0,0,1,.537,1.23,4.241,4.241,0,0,1-.593,1.535,3.21,3.21,0,0,1-1.161,1.058,4.451,4.451,0,0,1-2.18.553M3.8.952l-.054,0A3.316,3.316,0,0,0,2.5,1.247a2.279,2.279,0,0,0-.851.72c-1.394,1.89-.435,4.42.687,6.645a11.49,11.49,0,0,0,1.856,2.62l.016.018a11.491,11.491,0,0,0,2.354,2.185c2.058,1.4,4.44,2.688,6.5,1.554a2.279,2.279,0,0,0,.826-.749,3.315,3.315,0,0,0,.453-1.2c.023-.117.024-.151-.114-.239-.468-.3-.939-.606-1.393-.9-.323-.212-.657-.431-.986-.643a4.188,4.188,0,0,0-.527-.291.33.33,0,0,0-.039-.015.5.5,0,0,0-.071.06c-.469.455-.929.9-1.4,1.324a1.142,1.142,0,0,1-.518.3,1.144,1.144,0,0,1-.813-.181,11.107,11.107,0,0,1-2.955-2.364l-.007-.008A11.1,11.1,0,0,1,3.554,6.842a1.144,1.144,0,0,1-.073-.83,1.143,1.143,0,0,1,.367-.474c.483-.409.984-.807,1.5-1.212a.5.5,0,0,0,.069-.063.314.314,0,0,0-.01-.041,4.183,4.183,0,0,0-.219-.561c-.167-.355-.34-.715-.508-1.063-.236-.49-.479-1-.713-1.5C3.908.976,3.874.952,3.8.952m.572,5.4Z" transform="translate(0 0)" fill="#fff"/>
    </g>
  </g>
</svg>
