<svg id="グループ_43" data-name="グループ 43" xmlns="http://www.w3.org/2000/svg" xmlns:xlink="http://www.w3.org/1999/xlink" width="21.881" height="23.425" viewBox="0 0 21.881 23.425">
  <defs>
    <clipPath id="clip-path">
      <rect id="長方形_28" data-name="長方形 28" width="21.881" height="23.425" fill="#1477db"/>
    </clipPath>
  </defs>
  <g id="グループ_42" data-name="グループ 42" transform="translate(0 0)" clip-path="url(#clip-path)">
    <path id="パス_11" data-name="パス 11" d="M16.215,23.425a8.576,8.576,0,0,1-2.632-.444,20.352,20.352,0,0,1-4.969-2.639,17.762,17.762,0,0,1-3.635-3.366A17.764,17.764,0,0,1,2.12,12.931,20.352,20.352,0,0,1,.158,7.659,7.045,7.045,0,0,1,1.258,2,4.591,4.591,0,0,1,2.977.557,6.064,6.064,0,0,1,5.265,0,1.589,1.589,0,0,1,6.908,1c.33.711.676,1.432,1.011,2.128.24.5.489,1.017.731,1.529a7.349,7.349,0,0,1,.384.987,1.384,1.384,0,0,1-.542,1.615c-.724.572-1.43,1.134-2.1,1.705-.026.022-.079.067-.112.1a1.47,1.47,0,0,0,.073.21A14.546,14.546,0,0,0,8.9,13.522l.016.018A14.544,14.544,0,0,0,12.8,16.634a1.462,1.462,0,0,0,.2.1c.037-.028.089-.075.114-.1.656-.595,1.305-1.22,1.967-1.862a1.384,1.384,0,0,1,1.673-.325,7.363,7.363,0,0,1,.927.51c.475.307.955.621,1.419.925.647.424,1.316.862,1.977,1.282a1.589,1.589,0,0,1,.768,1.759,6.066,6.066,0,0,1-.848,2.2,4.592,4.592,0,0,1-1.661,1.513,6.366,6.366,0,0,1-3.118.791M5.431,1.362l-.077,0a4.743,4.743,0,0,0-1.781.418,3.259,3.259,0,0,0-1.217,1.03c-1.994,2.7-.622,6.321.982,9.5a16.435,16.435,0,0,0,2.655,3.748l.023.026a16.435,16.435,0,0,0,3.366,3.125c2.944,2.009,6.35,3.844,9.292,2.223a3.259,3.259,0,0,0,1.181-1.071,4.742,4.742,0,0,0,.648-1.71c.033-.167.034-.216-.163-.341-.67-.426-1.342-.866-1.993-1.293-.462-.3-.94-.616-1.411-.92a5.99,5.99,0,0,0-.754-.416.472.472,0,0,0-.056-.022.718.718,0,0,0-.1.086c-.671.65-1.329,1.285-2,1.894a1.633,1.633,0,0,1-.741.432,1.637,1.637,0,0,1-1.163-.26,15.886,15.886,0,0,1-4.227-3.382l-.01-.012a15.884,15.884,0,0,1-2.8-4.639A1.637,1.637,0,0,1,4.98,8.6a1.634,1.634,0,0,1,.525-.678c.692-.585,1.407-1.154,2.14-1.734a.711.711,0,0,0,.1-.089.449.449,0,0,0-.014-.058,5.983,5.983,0,0,0-.313-.8c-.239-.507-.487-1.022-.726-1.52C6.353,3.016,6,2.291,5.671,1.571c-.082-.176-.129-.209-.24-.209M6.249,9.09Z" transform="translate(0 0)" fill="#1477db"/>
  </g>
</svg>
