<svg xmlns="http://www.w3.org/2000/svg" width="17.652" height="19.045" viewBox="0 0 17.652 19.045">
  <g id="グループ_52" data-name="グループ 52" transform="translate(0.5 0.5)">
    <path id="パス_15" data-name="パス 15" d="M0,0H16" transform="translate(0.5 6.152)" fill="none" stroke="#fff" stroke-width="1"/>
    <path id="パス_12" data-name="パス 12" d="M12.861,4.445h0A.861.861,0,0,1,12,3.584V1.861a.861.861,0,1,1,1.723,0V3.584A.861.861,0,0,1,12.861,4.445Z" transform="translate(-8.842 -1)" fill="none" stroke="#fff" stroke-miterlimit="10" stroke-width="1"/>
    <path id="パス_13" data-name="パス 13" d="M42.861,4.445h0A.861.861,0,0,1,42,3.584V1.861a.861.861,0,0,1,1.723,0V3.584A.861.861,0,0,1,42.861,4.445Z" transform="translate(-30.229 -1)" fill="none" stroke="#fff" stroke-miterlimit="10" stroke-width="1"/>
    <rect id="長方形_35" data-name="長方形 35" width="2" height="2" transform="translate(7.5 9.152)" fill="none" stroke="#fff" stroke-linejoin="round" stroke-width="1"/>
    <rect id="長方形_38" data-name="長方形 38" width="2" height="2" transform="translate(3.5 9.152)" fill="none" stroke="#fff" stroke-linejoin="round" stroke-width="1"/>
    <rect id="長方形_40" data-name="長方形 40" width="2" height="2" transform="translate(11.5 9.152)" fill="none" stroke="#fff" stroke-linejoin="round" stroke-width="1"/>
    <rect id="長方形_36" data-name="長方形 36" width="2" height="2" transform="translate(7.5 13.152)" fill="none" stroke="#fff" stroke-linejoin="round" stroke-width="1"/>
    <rect id="長方形_37" data-name="長方形 37" width="2" height="2" transform="translate(3.5 13.152)" fill="none" stroke="#fff" stroke-linejoin="round" stroke-width="1"/>
    <rect id="長方形_39" data-name="長方形 39" width="2" height="2" transform="translate(11.5 13.152)" fill="none" stroke="#fff" stroke-linejoin="round" stroke-width="1"/>
    <line id="線_14" data-name="線 14" x2="6.878" transform="translate(4.887 1.723)" fill="none" stroke="#fff" stroke-miterlimit="10" stroke-width="1"/>
    <path id="パス_14" data-name="パス 14" d="M14.494,7H16.5a1.206,1.206,0,0,1,1.148,1.256V22.067A1.206,1.206,0,0,1,16.5,23.323H2.148A1.206,1.206,0,0,1,1,22.067V8.256A1.206,1.206,0,0,1,2.148,7h2.01" transform="translate(-1 -5.277)" fill="none" stroke="#fff" stroke-miterlimit="10" stroke-width="1"/>
  </g>
</svg>
