<svg xmlns="http://www.w3.org/2000/svg" xmlns:xlink="http://www.w3.org/1999/xlink" width="297.914" height="51" viewBox="0 0 297.914 51">
  <defs>
    <clipPath id="clip-path">
      <rect id="長方形_100" data-name="長方形 100" width="51" height="51" fill="none"/>
    </clipPath>
  </defs>
  <g id="logo" transform="translate(-29 -34)">
    <g id="グループ_169" data-name="グループ 169" transform="translate(29 34)">
      <g id="グループ_168" data-name="グループ 168" transform="translate(0 0)" clip-path="url(#clip-path)">
        <path id="パス_29" data-name="パス 29" d="M38.205,12.821h0a12.692,12.692,0,0,0-25.383,0h0a12.692,12.692,0,1,0,0,25.385,12.692,12.692,0,1,0,25.383,0,12.692,12.692,0,1,0,0-25.385" transform="translate(-0.013 -0.013)" fill="#038"/>
        <path id="パス_30" data-name="パス 30" d="M38.205,12.821h0a12.692,12.692,0,0,0-25.383,0h0a12.692,12.692,0,1,0,0,25.385,12.692,12.692,0,1,0,25.383,0,12.692,12.692,0,1,0,0-25.385Z" transform="translate(-0.013 -0.013)" fill="none" stroke="#1a1311" stroke-miterlimit="10" stroke-width="0.258"/>
        <path id="パス_31" data-name="パス 31" d="M45.8,19.725H32.649V6.572H19.725V19.725H6.571V32.648H19.725V45.8H32.649V32.648H45.8Z" transform="translate(-0.687 -0.687)" fill="#dc0017"/>
        <path id="パス_32" data-name="パス 32" d="M45.8,19.725H32.649V6.572H19.725V19.725H6.571V32.648H19.725V45.8H32.649V32.648H45.8Z" transform="translate(-0.687 -0.687)" fill="none" stroke="#1a1311" stroke-miterlimit="10" stroke-width="0.258"/>
        <path id="パス_33" data-name="パス 33" d="M32.622,32.219a2.308,2.308,0,1,1-4.182,1.952l-5.266-11.3a2.308,2.308,0,0,1,4.183-1.951Z" transform="translate(-2.399 -2.047)" fill="#fff"/>
        <path id="パス_34" data-name="パス 34" d="M32.622,32.219a2.308,2.308,0,1,1-4.182,1.952l-5.266-11.3a2.308,2.308,0,0,1,4.183-1.951Z" transform="translate(-2.399 -2.047)" fill="none" stroke="#1a1311" stroke-miterlimit="10" stroke-width="0.258"/>
        <path id="パス_35" data-name="パス 35" d="M40.354,32.219a2.308,2.308,0,0,1-4.182,1.952L30.9,22.876a2.308,2.308,0,0,1,4.184-1.951Z" transform="translate(-3.207 -2.047)" fill="#fff"/>
        <path id="パス_36" data-name="パス 36" d="M40.354,32.219a2.308,2.308,0,0,1-4.182,1.952L30.9,22.876a2.308,2.308,0,0,1,4.184-1.951Z" transform="translate(-3.207 -2.047)" fill="none" stroke="#1a1311" stroke-miterlimit="10" stroke-width="0.258"/>
        <path id="パス_37" data-name="パス 37" d="M24.893,32.219a2.308,2.308,0,0,1-4.183,1.952l-5.267-11.3a2.308,2.308,0,0,1,4.184-1.951Z" transform="translate(-1.591 -2.047)" fill="#fff"/>
        <path id="パス_38" data-name="パス 38" d="M24.893,32.219a2.308,2.308,0,0,1-4.183,1.952l-5.267-11.3a2.308,2.308,0,0,1,4.184-1.951Z" transform="translate(-1.591 -2.047)" fill="none" stroke="#1a1311" stroke-miterlimit="10" stroke-width="0.258"/>
      </g>
    </g>
    <path id="パス_63" data-name="パス 63" d="M20.985-23.053l2.464-.765A35.182,35.182,0,0,0,25.5-18.252a27.323,27.323,0,0,0,2.648,4.659,7.69,7.69,0,0,0-2.209,2.209A39.749,39.749,0,0,1,20.985-23.053Zm-5.466-.68,2.775.566q-1.756,7.675-5.041,11.951a10.817,10.817,0,0,0-2.322-1.812Q14.075-16.709,15.52-23.732ZM12.093-8.638,10.507-6.514a31.982,31.982,0,0,0-2.322-4.021v12.8H5.664V-10.309A27.449,27.449,0,0,1,2.209-2.917,15.459,15.459,0,0,0,.878-5.353,20.875,20.875,0,0,0,3.455-10a36.224,36.224,0,0,0,1.9-5.777H1.558v-2.492H5.664v-6.061H8.185v6.061h3.54v2.492H8.185v2.067q.595.68,2.025,2.549T12.093-8.638Zm9.034,1.813,2.322-1.161A41.394,41.394,0,0,1,28.122,1.02L25.6,2.322q-.142-.481-.765-2.1-10.79.821-13.311.991L11.045-1.5l3-.142A74.467,74.467,0,0,0,17.672-13.2l3.059.765A110.95,110.95,0,0,1,16.766-1.784Q18.012-1.841,20.49-2T23.7-2.209Q22.288-4.984,21.127-6.825ZM51.985-14.9H37.258V-10.9q0,.963-.028,1.444H51.985Zm2.747-2.492V-5.268H51.985V-6.938H37.032q-.793,6.117-4.22,9.346a9.341,9.341,0,0,0-.991-1.02,9.9,9.9,0,0,0-1.1-.906,11.3,11.3,0,0,0,2.039-2.605,10.86,10.86,0,0,0,1.175-3.059A23.276,23.276,0,0,0,34.4-8.071q.113-1.274.113-2.889v-6.429ZM31.792-22.741h24.95v2.577H31.792ZM75.224-2.464V-.481H87.062V1.728H60.923V-.481h4.531v-4.7H68v4.7h4.588V-6.344H62.763V-8.5h22.43v2.152H75.224V-4.5h7.958v2.039Zm3.03-16.652v.028a12.706,12.706,0,0,0,2.322,3.682,10.366,10.366,0,0,0,1.926-3.71ZM71.628-15.8v-2.039H68.994V-15.8Zm-7.533-2.039V-15.8h2.521v-2.039Zm22.854-1.274h-1.9a15.105,15.105,0,0,1-2.775,5.353A13.989,13.989,0,0,0,87.43-11.1a6.261,6.261,0,0,0-1.5,2.124,15.751,15.751,0,0,1-5.3-3.144,17.925,17.925,0,0,1-5.607,3.03A6.754,6.754,0,0,0,73.5-11.017a15.32,15.32,0,0,0,5.522-2.775A16.587,16.587,0,0,1,76.9-17.077a12.732,12.732,0,0,1-1.558,1.728,13.839,13.839,0,0,0-1.473-1.586V-14.1h-4.3q2.605,1.246,4.446,2.237L72.676-10.11a42.643,42.643,0,0,0-3.682-2.379v3.257H66.615v-3.229A17.909,17.909,0,0,1,62.2-9.176a7.391,7.391,0,0,0-1.558-1.671A16.126,16.126,0,0,0,65.624-14.1H61.942v-5.381h4.673v-1.274H61.178v-1.9h5.437v-1.671h2.379v1.671h5.438v1.9H68.994v1.274h4.871v2.011a14.167,14.167,0,0,0,3.908-6.854l2.464.566A26.587,26.587,0,0,1,79.3-21.24h7.646ZM113.3-23.874l2.549,1.02a28.12,28.12,0,0,1-8.27,6.967,7.736,7.736,0,0,0-1.926-1.926,27.611,27.611,0,0,0,4.291-2.761A17.428,17.428,0,0,0,113.3-23.874Zm.736,7.9,2.464,1.048a27.18,27.18,0,0,1-3.922,4.064,29.965,29.965,0,0,1-4.659,3.3A9.3,9.3,0,0,0,106-9.487a28.921,28.921,0,0,0,4.531-2.945A17.682,17.682,0,0,0,114.04-15.973Zm-17.53,2.8h4.05v-6.938H96.51Zm9.657,2.521h-2.945V2.294H100.56V-10.648H96.482A28.714,28.714,0,0,1,95.462-3.3a14.279,14.279,0,0,1-3.285,5.792A6.928,6.928,0,0,0,90.195.68a12.726,12.726,0,0,0,2.86-5.027,24.415,24.415,0,0,0,.906-6.3h-3.54v-2.521h3.568v-6.938H90.874V-22.6h14.9v2.492h-2.549v6.938h2.945Zm8.439,2.379,2.549,1.02a22.972,22.972,0,0,1-4.588,5.438,27.178,27.178,0,0,1-6.146,4.078,8.108,8.108,0,0,0-1.9-2.181,23.756,23.756,0,0,0,5.834-3.512A17.793,17.793,0,0,0,114.607-8.27Zm17.434-9.2H127a24.269,24.269,0,0,1-1.954,3.71,41.8,41.8,0,0,1,4.843,3.37A31.592,31.592,0,0,0,132.041-17.474ZM140.99-24.3v13.367a25.8,25.8,0,0,0,6.4,4.248,7.451,7.451,0,0,0-1.926,2.322,24.4,24.4,0,0,1-4.475-3V2.209h-2.775V-10a31.459,31.459,0,0,1-3.965-5.239Q131.163-2.775,122.582,2.1A8.154,8.154,0,0,0,121.548.963,5.709,5.709,0,0,0,120.4.085a20.194,20.194,0,0,0,8.241-8.043,35.82,35.82,0,0,0-4.984-3.767q-.538.708-1.7,2.011a15.175,15.175,0,0,0-2.266-1.784q4.673-4.22,6.854-12.857l2.69.538q-.51,1.9-1.189,3.767h4.786l.481-.085,1.784.623q-.227,1.274-.425,2.464l1.048-.4a23.743,23.743,0,0,0,2.492,3.625V-24.3ZM169.3-18.408l-1.869,1.7a21.183,21.183,0,0,0-4.5-4.191l1.756-1.558A21.437,21.437,0,0,1,169.3-18.408Zm-.793,7.562-1.812,1.756a22.174,22.174,0,0,0-4.843-4.3l1.7-1.558A23.446,23.446,0,0,1,168.506-10.847Zm-7.477,2.152L159.415-6.57a29.858,29.858,0,0,0-2.266-3.852V2.266h-2.605V-9.487a27.657,27.657,0,0,1-3.71,6.769,20.935,20.935,0,0,0-1.3-2.492,21.6,21.6,0,0,0,2.549-3.823,32.67,32.67,0,0,0,2.1-4.673H149.9v-2.521h4.645v-3.908q-1.7.312-3.653.595a6.985,6.985,0,0,0-.765-2.1,38.848,38.848,0,0,0,9.232-2.351l1.529,2.209a25.573,25.573,0,0,1-3.738,1.1v4.446h4.05v2.521h-4.05v.4q.651.68,2.053,2.351T161.029-8.694Zm15.548,2.917-3.568.623v7.42h-2.662V-4.7L161.2-3.172l-.4-2.577,9.544-1.586V-24.327h2.662V-7.76l3.172-.538Zm7.267-7.76-2.1,1.133a19.807,19.807,0,0,0-2.124-5.466l2.011-.963A16.879,16.879,0,0,1,183.844-13.537ZM190.981-9.2V-3.37a7.08,7.08,0,0,0,4.3-5.834Zm-3.144-4.9v-2.322h18.04V-14.1h-8.128v2.577H205V-.481a3.751,3.751,0,0,1-.241,1.515,1.762,1.762,0,0,1-.892.835,13.369,13.369,0,0,1-4.135.4,7.948,7.948,0,0,0-.85-2.351q2.209.085,3.059.028.51-.028.51-.481V-9.2h-4.786q-.142,1.02-.227,1.388A37.527,37.527,0,0,1,202.252-3.2l-1.7,1.558a35.706,35.706,0,0,0-3.908-4.05,9.68,9.68,0,0,1-4.3,4.163,6.842,6.842,0,0,0-1.359-1.586V2.294h-2.407v-13.82h6.8V-14.1Zm7.816-7.023H206.1v2.379H186.591v6.2q0,10.252-4.56,14.783a8.953,8.953,0,0,0-.935-.977,7.262,7.262,0,0,0-1.02-.835,13.9,13.9,0,0,0,3.568-7.618q-.68.4-1.926,1.1t-1.614.906l-.821-2.492q1.246-.51,4.7-2.266.057-1.869.057-2.634v-8.553h8.808v-3.2h2.8Zm37.371,5.183v-2.832H221.414v2.832ZM219.007-21.07h6.684v-3.172H228.3v3.172h7.222v5.409h-2.294v2.067H221.216v-2.067h-2.209Zm-1.756-2.124,1.756,1.02q-1.926,5.721-2.747,7.7a9.028,9.028,0,0,1,2.407,6.032q0,2.662-1.189,3.455a3.753,3.753,0,0,1-1.586.566,12.04,12.04,0,0,1-1.9.028,4.839,4.839,0,0,0-.651-2.322,8.156,8.156,0,0,0,1.5.028,1.59,1.59,0,0,0,.878-.255q.538-.4.538-1.812a8.061,8.061,0,0,0-2.351-5.437q.991-2.634,2.039-6.485h-3.115V2.294h-2.379v-25.4h6.372ZM231.383-.453h1.558q.4,0,.524-.623a20.269,20.269,0,0,0,.156-2.86,5.772,5.772,0,0,0,2.294,1.02,9.89,9.89,0,0,1-.75,3.852,2.053,2.053,0,0,1-1.94,1.02h-2.266a2.711,2.711,0,0,1-2.167-.68,4.294,4.294,0,0,1-.552-2.577v-7.08h-2.8a26.681,26.681,0,0,1-.51,3.7,11.48,11.48,0,0,1-1.09,2.917A7.06,7.06,0,0,1,221.754.609a12.836,12.836,0,0,1-3.342,1.685,4.764,4.764,0,0,0-.637-1.133A4.759,4.759,0,0,0,216.911.2a7.819,7.819,0,0,0,4.5-3.016,12.092,12.092,0,0,0,1.444-5.565h-3.54v-2.464h16.2v2.464h-4.729v7.052a1.613,1.613,0,0,0,.1.736Q230.986-.453,231.383-.453Z" transform="translate(91 80)" fill="#222"/>
    <path id="パス_64" data-name="パス 64" d="M13.316-.766V.479H2.6v.615H1.3V-11.033H12.988v1.244H2.6V-.766Zm-.6-4.047H8.75a5.315,5.315,0,0,0,4.1,2.488,3.516,3.516,0,0,0-.766,1.094,6.276,6.276,0,0,1-4.006-2.5Q7.109-2.092,4.074-1.189a3.911,3.911,0,0,0-.807-.971Q6.6-3.035,7.15-4.812H3.35V-5.934H7.3V-7.342H5.318a8.554,8.554,0,0,1-.984,1.053,5.4,5.4,0,0,0-1.08-.656A6.052,6.052,0,0,0,5.291-9.693l1.23.314a7.992,7.992,0,0,1-.451.93h6.016v1.107h-3.5v1.408h4.129Zm4-1.8-1.025.451a9.8,9.8,0,0,0-.82-2.748l.957-.4A8.768,8.768,0,0,1,16.714-6.617ZM19.872-1.8l1.176.314A7.566,7.566,0,0,1,18.846.9a4.094,4.094,0,0,0-.971-.779A6.056,6.056,0,0,0,19.872-1.8Zm4.525.533,1-.52A13.049,13.049,0,0,1,27.473.355L26.421.916A10.7,10.7,0,0,0,24.4-1.271Zm.533-3.09v-.725H20.856v.725Zm0,1.49V-3.6H20.856v.725ZM23.522-7.328H22.36a9.081,9.081,0,0,1-1.08,1.436h3.295A7.427,7.427,0,0,1,23.522-7.328Zm3.049.055.779.547a6.231,6.231,0,0,1-1.066.916,6.243,6.243,0,0,0,1.531.82,3.49,3.49,0,0,0-.738.93,5.768,5.768,0,0,1-1.012-.561v2.57H23.509V-.082A1.614,1.614,0,0,1,23.4.595a.74.74,0,0,1-.424.349,6.671,6.671,0,0,1-1.914.178,3.614,3.614,0,0,0-.41-1.053Q21.7.1,22.018.068q.246,0,.246-.191V-2.051H19.735V-4.594q-.793.492-1.012.6a2.475,2.475,0,0,0-.738-.807,9.489,9.489,0,0,1-1.969,5.906,3.991,3.991,0,0,0-.93-.875,6.907,6.907,0,0,0,1.6-3.965q-.834.533-1.586.93l-.4-1.162q.465-.191,2.092-1.053.014-.369.014-1.039v-4.484H21.28v-1.2h1.354v1.2h5.031V-9.42H18.026v3.363q0,.342-.027,1.162a7.642,7.642,0,0,0,1.531-.943,10.941,10.941,0,0,0-.971-.766l.7-.588q.109.068,1,.738a6.287,6.287,0,0,0,.752-.875h-2.42v-1h3.035a6.273,6.273,0,0,0,.41-1.094l1.217.15a7.386,7.386,0,0,1-.355.943h4.635v1h-2.8a5.975,5.975,0,0,0,.875.971A8.459,8.459,0,0,0,26.571-7.273Zm6.719-2.98-.752,1.066a9.439,9.439,0,0,0-2.666-1.518l.711-.971A9.3,9.3,0,0,1,33.29-10.254Zm-.766,3.637L31.814-5.51A7.989,7.989,0,0,0,30.6-6.255a11.307,11.307,0,0,0-1.49-.649l.67-1.012A10.325,10.325,0,0,1,32.525-6.617Zm-.492,2.27.984.834A45.34,45.34,0,0,1,30.679.916L29.558.082A37.159,37.159,0,0,0,32.033-4.348ZM42.109.438l-1.217.684a10.433,10.433,0,0,0-.533-1.148Q38.7.109,33.1.506L32.908-.807l1.121-.055A25.631,25.631,0,0,0,35.546-4.8H32.894v-1.23h3.76V-8.354H33.6v-1.23h3.049v-2.16h1.34v2.16h3.2v1.23h-3.2v2.324h3.855V-4.8H37.1A40.745,40.745,0,0,1,35.437-.943q1.654-.082,4.238-.232a17.385,17.385,0,0,0-1.3-1.818L39.5-3.582a19.07,19.07,0,0,1,1.545,2.058A11.244,11.244,0,0,1,42.109.438Zm6.815-11.8H50.4q0,.041-.014.287t-.027.4q.041.52.1,1.053T50.708-8.2a16.7,16.7,0,0,0,.444,1.709A13.1,13.1,0,0,0,51.891-4.7a11.1,11.1,0,0,0,1.08,1.771,9.728,9.728,0,0,0,1.5,1.559A8.479,8.479,0,0,0,56.444-.123,3.947,3.947,0,0,0,55.459.971q-4.2-2.037-5.674-7.547A11.414,11.414,0,0,1,44.4.984a3.649,3.649,0,0,0-1.08-1.025,9.789,9.789,0,0,0,1.75-1.176,8.4,8.4,0,0,0,1.34-1.408,13.23,13.23,0,0,0,.971-1.511,8.53,8.53,0,0,0,.677-1.593q.253-.82.431-1.538a10.439,10.439,0,0,0,.253-1.463q.075-.745.116-1.244t.055-1Q48.924-11.252,48.924-11.361ZM63.655-3.883l-.793,1.066a21.9,21.9,0,0,0-1.531-1.654V1.107H60.046V-4.061a12.023,12.023,0,0,1-1.955,1.572,4.2,4.2,0,0,0-.643-1.2,10.929,10.929,0,0,0,2.324-1.846A11.214,11.214,0,0,0,61.6-7.984H57.927V-9.174h2.119v-2.57h1.285v2.57H62.3l.219-.041.738.492a13.193,13.193,0,0,1-1.736,3.008Q62.7-4.758,63.655-3.883Zm3.9,3.309h3.117V.711H62.835V-.574h3.391V-6.057H63.4V-7.328h2.83v-4.307h1.326v4.307h2.83v1.271h-2.83ZM75.365-5.7l.93-.492a12.317,12.317,0,0,1,.984,1.244,5.668,5.668,0,0,1,.656,1.176l-.984.547a5.946,5.946,0,0,0-.629-1.2A10.769,10.769,0,0,0,75.365-5.7ZM82.42-7.82V-6.7H80.683V-2.57a1.68,1.68,0,0,1-.13.745.857.857,0,0,1-.458.39,7.536,7.536,0,0,1-2.174.191,4.683,4.683,0,0,0-.355-1.121q.342.014,1.627.014.26-.014.26-.232V-6.7H74.49V-7.82h4.963v-1.6h1.23v1.6ZM73.861-.752h9.064V-9.885H73.861Zm-1.3-10.377H84.279V1.094H82.925v-.6H73.861v.6h-1.3ZM89.727-2H95.7v-.848H89.727ZM95.7-4.566H89.727v.834H95.7Zm1.326-.984V-.219a1.541,1.541,0,0,1-.144.745A.873.873,0,0,1,96.371.9a10.554,10.554,0,0,1-2.434.164,4.1,4.1,0,0,0-.4-1.053q.766.027,1.859.027a.426.426,0,0,0,.239-.068A.269.269,0,0,0,95.7-.232v-.889H89.727V1.121H88.442V-5.551ZM93.3-7.3h5.5v1.012H86.569V-7.3h5.414v-.861H87.922v-.957h4.061V-9.9H87.416V-10.91h4.566v-.834H93.3v.834h4.771V-9.9H93.3v.779h4.184v.957H93.3Zm18.217,2.27V-5.8H108.4v.766Zm0,1.559v-.793H108.4v.793Zm0,1.559v-.807H108.4v.807Zm1.682-5.414h-2.639q-.055.137-.15.4t-.123.335h2.447v5.455h-5.5V-6.59h1.887a6.083,6.083,0,0,0,.178-.738h-2.68v-1h6.576ZM112.47-11.4V-9H101.478V-11.4h1.3v1.354h3.5v-1.709H107.6v1.709h3.5V-11.4ZM102.216-5.086v-.752q-.807.643-1.094.834a3.124,3.124,0,0,0-.39-.458,2.823,2.823,0,0,0-.444-.376,8.248,8.248,0,0,0,2.871-2.844h1.148a21.52,21.52,0,0,1,2.639,2.242l-.793.957a16.824,16.824,0,0,0-2.242-2.146,14.385,14.385,0,0,1-1.5,1.613h3.2v.93Zm4.238.807v2.83a1.633,1.633,0,0,1-.1.622A.739.739,0,0,1,106-.465a4.659,4.659,0,0,1-1.545.164,3.8,3.8,0,0,0-.4-1,9.809,9.809,0,0,0,1.08,0q.164,0,.164-.178v-1.75h-1.518v4.32h-1.176v-4.32h-1.682V-4.279Zm1.887,3.336,1.148.369a7.236,7.236,0,0,1-2.584,1.7,7.137,7.137,0,0,0-.957-.793A6.362,6.362,0,0,0,108.341-.943Zm2.051.492L111.376-1A10.5,10.5,0,0,1,113.481.547l-1.039.6A9.955,9.955,0,0,0,110.392-.451Zm7.827-7.055h6.125a13.276,13.276,0,0,1-3.145-2.967A13.275,13.275,0,0,1,118.219-7.506Zm-.273,1.2V-7.314a17.755,17.755,0,0,1-2.434,1.463,3.64,3.64,0,0,0-.766-1.066,14.587,14.587,0,0,0,3.336-2.153,11.5,11.5,0,0,0,2.393-2.659h1.34a13.019,13.019,0,0,0,2.7,2.741,13.592,13.592,0,0,0,3.288,1.88,5.449,5.449,0,0,0-.82,1.176A18.447,18.447,0,0,1,124.508-7.4V-6.3Zm-2.406,2.68V-4.84h11.5v1.217h-6.412q-.916,1.873-1.49,2.885.9-.027,2.7-.109t2.3-.1A20.075,20.075,0,0,0,122.511-2.6l1.121-.6A19.277,19.277,0,0,1,125.5-1.388,12.585,12.585,0,0,1,126.886.4l-1.189.738a10.635,10.635,0,0,0-.615-.916q-5.687.273-9.27.424l-.178-1.271L117.713-.7a21.606,21.606,0,0,0,1.3-2.926Z" transform="translate(91 48)" fill="#222"/>
  </g>
</svg>
