<?xml version="1.0" encoding="UTF-8"?><svg id="_レイヤー_1" xmlns="http://www.w3.org/2000/svg" viewBox="0 0 857.21 92.81"><defs><style>.cls-1{fill:#fff;}</style></defs><path class="cls-1" d="m1.76,29.27c0,.73-.38,1.05-.8,1.05s-.86-.38-.9-1.01c-.03-3-.06-6.63-.06-10.4,0-5.2.03-10.57.1-14.72C.13,1.78,1.34.14,3.71.04c.54-.04,1.06-.04,1.57-.04,1.12,0,2.11.04,3.26.07.61,0,.86.45.86.91s-.29.91-.83.91h-.13c-.19-.03-1.09-.1-4.42-.1-1.28.03-2.21.8-2.27,2.58-.1,2.3-.13,5.44-.13,8.86,0,5.44.1,11.55.13,16.01v.03Z"/><path class="cls-1" d="m33.28,16.78c-.29,2.41-.93,4.57-1.82,6.38,3.14,1.5,7.17,4.33,7.17,6,0,.98-.83,1.85-1.76,1.85-.42,0-.83-.17-1.22-.59-1.7-1.92-3.58-3.49-5.79-4.71-3.94,4.95-10.69,5.83-14.11,5.83-1.18,0-1.79-.87-1.79-1.74,0-.77.54-1.53,1.66-1.53,4.8,0,8.77-1.08,11.33-3.87-1.34-.49-2.78-.87-4.32-1.12-.51,1.36-.9,2.3-2.24,2.3-.8,0-1.5-.49-1.5-1.33,0-.24.06-.49.19-.8.99-2.13,1.86-4.4,2.56-6.66h-6.5c-.93,0-1.38-.73-1.38-1.5s.45-1.46,1.38-1.46h7.36c.35-1.33.67-2.65.93-3.98.19-.91.9-1.29,1.6-1.29.8,0,1.6.52,1.6,1.43,0,.21-.45,2.2-.9,3.84h13.21c.93,0,1.41.73,1.41,1.46s-.48,1.5-1.41,1.5h-5.66Zm-4.54-12.14c2.37,0,4.77.03,7.17.07,1.73.04,3.52,1.57,3.58,3.63.03.52.03,1.12.03,1.67,0,1.29-.06,2.69-1.76,2.69-.8,0-1.6-.49-1.6-1.5v-.07c0-3.03-.06-3.49-1.95-3.52-2.5-.04-5.31-.07-8.06-.07-2.24,0-4.45.03-6.37.07-1.73.03-1.95.59-2.05,1.88v1.67c0,1.01-.8,1.57-1.6,1.57s-1.57-.52-1.6-1.64c0-.45-.03-.91-.03-1.36,0-.49.03-1.01.03-1.57.06-1.71,1.22-3.42,3.68-3.45,2.4-.03,4.8-.07,7.23-.07v-2.55c0-1.05.83-1.57,1.66-1.57s1.63.52,1.63,1.57v2.55Zm-3.84,12.14c-.38,1.29-.86,2.58-1.31,3.87,1.66.24,3.39.7,5.02,1.29.74-1.43,1.18-3.14,1.44-5.16h-5.15Z"/><path class="cls-1" d="m47.78,30.17c-.99,0-1.5-.77-1.5-1.57s.51-1.53,1.5-1.53l9.76.03v-4.46l-6.05.04c-.96,0-1.44-.77-1.44-1.54s.48-1.5,1.44-1.5l6.05.03v-4.08l-5.76.03c-.96,0-1.44-.77-1.44-1.5v-.07c-1.38,1.19-2.21,1.81-3.07,1.81-.99,0-1.7-.84-1.7-1.74,0-.59.29-1.19.99-1.57,3.49-1.92,7.14-5.93,9.41-9.14.74-1.05,1.79-1.64,2.85-1.64s2.18.56,3.14,1.64c2.94,3.38,6.08,6.14,9.66,8.13.61.35.86.87.86,1.43,0,.98-.8,1.99-1.86,1.99-.16,0-.83-.03-2.66-1.46.06.21.13.42.13.63,0,.77-.51,1.5-1.47,1.5l-5.92-.03v4.08l5.86-.03c.96,0,1.47.77,1.47,1.53s-.48,1.5-1.47,1.5l-5.86-.04v4.46l9.73-.03c.93,0,1.44.8,1.44,1.6s-.48,1.5-1.44,1.5h-22.65Zm19.07-17.58c-2.37-1.95-4.9-4.57-6.82-6.91-.38-.49-.67-.73-.96-.73s-.54.24-.9.73c-1.63,2.23-3.9,4.78-6.18,6.91h14.85Z"/><path class="cls-1" d="m88.06,13.26c.32-.66.61-1.22,1.02-1.81.51-.73.35-.7-.26-.49-2.4.84-1.86.84-4.03,1.74-1.02.42-1.92.77-2.88,1.05-2.82.84-3.68-3.17-1.12-3.77.67-.17,2.53-.56,3.55-.84,1.57-.42,4.38-1.12,7.65-2.13,3.3-1.01,5.89-1.85,8.7-2.06,1.98-.14,2.53,1.57,2.18,2.69-.19.59-.9,1.29-3.14,1.15-1.63-.1-3.65.56-4.74.98-1.79.7-3.42,2.79-4.13,4.08-2.82,5.13-.67,12.45,6.5,12.17,3.36-.14,3.58,3.98.19,3.94-9.66-.03-12.99-9.7-9.5-16.71Zm9.86,2.3c-1.7-.8-.42-2.96,1.15-2.34.9.35,2.62,1.33,3.36,2.2,1.31,1.53-.67,3.77-1.79,2.34-.45-.56-2.05-1.88-2.72-2.2Zm3.23-3.03c-1.73-.73-.48-2.96,1.09-2.41.9.31,2.62,1.26,3.39,2.09,1.34,1.47-.54,3.77-1.7,2.37-.45-.56-2.11-1.78-2.78-2.06Z"/><path class="cls-1" d="m122.69,15.7v14.51c0,.98-.64,1.43-1.31,1.43s-1.31-.45-1.31-1.43v-3.1c-2.46.87-8.35,2.86-9.6,2.86-.86,0-1.34-.73-1.34-1.46,0-.63.35-1.29,1.15-1.43.93-.14,1.95-.38,3.01-.63v-10.74h-2.91c-.9,0-1.31-.66-1.31-1.33,0-.73.45-1.47,1.31-1.47h25.41c.83,0,1.25.7,1.25,1.4s-.42,1.4-1.25,1.4h-13.09Zm1.12-4.19c-2.14,0-4.26-.04-6.27-.07-3.3-.04-3.46-1.88-3.46-5.16s.26-4.88,3.36-5.02c1.28-.07,3.23-.1,5.31-.1,2.4,0,4.93.03,6.59.1,2.98.1,3.04,2.65,3.04,4.74,0,3.07-.03,5.34-3.26,5.44-1.79.03-3.55.07-5.31.07Zm-3.74,4.19h-4.16v1.74h4.16v-1.74Zm0,3.84h-4.16v1.71h4.16v-1.71Zm0,3.84h-4.16v2.37c1.54-.42,3.04-.84,4.16-1.19v-1.19Zm-3.2-15.87c0,.21.03.38.03.56.06.91.45,1.12,1.44,1.12,1.54.04,3.52.04,5.5.04,1.47,0,2.98,0,4.35-.04.77,0,1.28-.31,1.31-1.15,0-.17.03-.35.03-.52h-12.67Zm12.67-2.16c0-.17-.03-.35-.03-.49-.06-.84-.32-1.15-1.31-1.19-1.18-.03-2.91-.07-4.64-.07-2.11,0-4.19.04-5.25.07-1.09.04-1.41.59-1.41,1.29v.38h12.64Zm-5.15,14.65c-.74,0-1.09-.66-1.09-1.29,0-.7.35-1.36,1.09-1.4,1.31-.03,2.56-.03,3.81-.03s2.46,0,3.78.07c1.63.07,2.14,1.12,2.14,2.23,0,2.51-2.72,6.28-2.88,6.49,1.34.91,2.82,1.6,4.42,2.02.7.21,1.06.8,1.06,1.4,0,.84-.61,1.71-1.6,1.71-1.34,0-4.16-1.64-5.79-2.96-1.79,1.67-3.94,2.79-4.67,2.79-.83,0-1.41-.77-1.41-1.53,0-.52.26-1.05.9-1.29,1.28-.52,2.34-1.15,3.2-1.88-1.6-1.74-2.91-3.94-2.91-4.64,0-.77.8-1.4,1.54-1.4.35,0,.67.17.86.56.64,1.36,1.44,2.51,2.37,3.49.99-1.4,1.79-3.45,1.79-3.94,0-.31-.26-.45-.48-.45h-1.02c-1.5,0-3.07.04-5.06.07h-.03Z"/><path class="cls-1" d="m143.62,7.22c-.9,0-1.38-.7-1.38-1.43s.48-1.4,1.38-1.4h9.82v-2.23c0-1.15.83-1.74,1.66-1.74s1.66.59,1.66,1.74v2.23h9.79c.83,0,1.25.7,1.25,1.4,0,.73-.42,1.43-1.25,1.43h-22.94Zm20.41,16.74c0-1.12,0-2.34-.06-3.28-.03-.8-.58-1.4-1.47-1.43-2.43-.07-5.15-.07-7.81-.07s-5.15,0-7.23.07c-.8.03-1.38.63-1.41,1.43-.03,1.4-.03,3.14-.03,4.88s0,3.45.03,4.78v.07c0,.94-.74,1.4-1.5,1.4s-1.57-.49-1.6-1.46c-.03-1.53-.03-3.35-.03-5.2s0-3.66.03-5.23c.03-1.92,1.44-3.31,3.74-3.35,2.43-.03,5.22-.07,8.1-.07s5.82.04,8.54.07c2.21.04,3.62,1.4,3.71,3.28.1,1.85.1,3.84.1,4.81,0,.42,0,2.09.03,3.03v.1c0,1.92-1.28,3.7-4.61,3.7-2.5,0-3.3-.52-3.3-1.71,0-.8.54-1.57,1.44-1.57.1,0,.22,0,.32.04.58.1,1.09.17,1.54.17.86,0,1.44-.28,1.44-1.29,0,0,.03-1.47.03-3.17Zm-7.55-8.79c-2.08,0-4.32-.04-6.05-.07-2.53-.04-3.23-.77-3.23-3.14s.29-3.28,3.04-3.31c1.76-.04,3.87-.07,5.92-.07,6.18,0,6.94.07,6.94,3.1,0,3.35-.7,3.49-6.62,3.49Zm-1.54,5.58c5.5,0,6.56,0,6.56,3.28s-.8,3.7-7.23,3.7c-5.41,0-5.66-.73-5.66-3.63,0-1.57.03-3.17,2.59-3.28,1.06-.07,2.4-.07,3.74-.07Zm4.13-9.84c-1.18-.03-2.53-.03-3.87-.03s-2.72,0-4.03.03c-.86,0-1.06.21-1.06.91q0,1.05,5.54,1.05c4.48,0,4.48-.04,4.48-1.05,0-.56,0-.91-1.06-.91Zm-4.06,12c-.99,0-1.98.03-2.66.07-.38.03-.83.14-.83,1.22,0,1.19.22,1.22,3.49,1.22q3.49,0,3.49-1.26t-3.49-1.26Z"/><path class="cls-1" d="m188.38,11.27c-.51,4.43-3.39,11.02-6.46,14.13-2.46,2.48-5.15,1.12-6.56-1.88-2.02-4.33.13-10.81,4.42-14.06,3.94-2.96,9.79-3.45,13.82-.8,4.96,3.24,5.76,9.66,2.98,14.65-1.5,2.69-4.64,4.85-7.81,5.76-2.82.8-3.81-2.72-1.06-3.42,2.43-.59,4.9-2.09,5.95-3.91,2.27-3.91,1.41-8.48-1.76-10.67-1.25-.87-2.59-1.29-3.97-1.4.35.35.54.91.45,1.6Zm-7.1.66c-2.98,2.51-4.58,7.15-3.23,9.84.48,1.01,1.31,1.54,2.11.77,2.4-2.3,4.64-7.85,4.96-11.62.03-.42.13-.8.29-1.08-1.47.35-2.91,1.08-4.13,2.09Z"/><path class="cls-1" d="m213.66,17.16c0,.73-.67,1.12-1.34,1.12s-1.34-.38-1.34-1.12v-.04l.03-2.48c-2.11,2.09-4.61,3.94-5.38,3.94s-1.34-.77-1.34-1.5c0-.49.26-.98.83-1.22,1.57-.66,3.36-1.85,4.96-3.31h-1.22c-2.53-.07-2.53-1.4-2.53-3,0-.45,0-.91.03-1.4.06-.98.99-1.6,2.46-1.64.61,0,1.38-.03,2.14-.03v-1.05h-4.7c-.8,0-1.22-.63-1.22-1.26,0-.66.42-1.29,1.18-1.29h.03l4.7.07v-1.15c0-.91.67-1.36,1.34-1.36s1.34.45,1.34,1.36v1.15l4.67-.07h.03c.83,0,1.22.59,1.22,1.22,0,.66-.42,1.33-1.25,1.33l-4.67-.04v1.08c.8,0,1.57.03,2.21.03,2.46.07,2.56,1.01,2.56,3.31,0,2.76-.9,2.76-4.86,2.76l.03.59c.13-.07.29-.1.45-.1.35,0,1.98.42,3.04,1.08.51.31.74.84.74,1.36,0,.77-.48,1.5-1.09,1.5-.22,0-.48-.1-.74-.35-.67-.63-1.38-1.05-2.37-1.43l.03,1.88v.04Zm-6.82,13.53c-.8,0-1.22-.66-1.22-1.33s.42-1.33,1.22-1.33l3.94.04v-3.94c0-.94.74-1.43,1.44-1.43s1.47.49,1.47,1.43v3.94h3.49v-6.66l-8.48.03c-.83,0-1.25-.63-1.25-1.29,0-.63.42-1.29,1.25-1.29h19.45c.83,0,1.25.66,1.25,1.29,0,.66-.42,1.29-1.25,1.29l-8.16-.03v1.99l6.46-.04c.83,0,1.25.63,1.25,1.26s-.42,1.26-1.25,1.26l-6.46-.03v2.23l9.95-.04c.8,0,1.25.7,1.25,1.36s-.42,1.29-1.25,1.29h-23.1Zm4.26-22.25c-.61,0-1.12.04-1.5.04-.83,0-.9.38-.9,1.01,0,.8.13,1.08.93,1.08h1.47v-2.13Zm2.43.04v2.09c.61,0,1.12-.03,1.5-.03.9-.04.9-.14.9-1.26,0-.49,0-.77-.9-.8h-1.5Zm16.19-1.33c-.45,1.71-1.25,3.66-2.62,5.51,1.34,1.12,2.88,1.88,4.45,2.37.7.21,1.06.84,1.06,1.43,0,.8-.58,1.64-1.54,1.64-1.02,0-3.49-1.29-5.73-3.52-2.37,2.27-5.31,3.59-6.02,3.59-.8,0-1.38-.77-1.38-1.53,0-.52.29-1.01.96-1.26,2.02-.7,3.58-1.64,4.74-2.69-.83-1.08-1.57-2.27-2.08-3.49-.16.21-.29.42-.42.59-.32.42-.74.63-1.12.63-.67,0-1.31-.56-1.31-1.26,0-.35.13-.7.42-1.05,1.31-1.64,2.4-3.98,3.1-6.52.19-.66.7-.94,1.22-.94.67,0,1.41.52,1.41,1.33,0,.28-.16,1.01-.86,2.62l7.01-.07c.8,0,1.18.66,1.18,1.33,0,.63-.38,1.29-1.15,1.29h-1.31Zm-6.37,0c.45,1.4,1.09,2.62,1.92,3.66.8-1.22,1.31-2.48,1.6-3.66h-3.52Z"/><path class="cls-1" d="m246.59,15.42h-3.39c-.38,6.77-1.41,11.44-4.42,15.07-.42.52-.93.73-1.38.73-.86,0-1.6-.7-1.6-1.53,0-.35.13-.73.42-1.08,2.98-3.66,3.9-7.67,4.16-13.19h-2.78c-.9,0-1.34-.73-1.34-1.47s.45-1.46,1.34-1.46h2.85v-2.09c0-1.71,0-3.42-.03-4.78h-1.89c-.9,0-1.34-.73-1.34-1.5s.45-1.46,1.34-1.46h12.73c.9,0,1.34.73,1.34,1.46s-.45,1.5-1.34,1.5h-1.66v6.87h2.53c.9,0,1.31.73,1.31,1.46s-.42,1.47-1.31,1.47h-2.53v14.2c0,.94-.74,1.4-1.5,1.4s-1.5-.45-1.5-1.4v-14.2Zm0-9.8h-3.14c0,1.78-.06,4.4-.13,6.87h3.26v-6.87Zm5.34,25.57c-1.09,0-1.76-.87-1.76-1.74,0-.63.38-1.22,1.22-1.47,4.7-1.33,8.19-4.19,10.88-8.62.38-.63.86-.91,1.31-.91.86,0,1.63.91,1.63,1.92,0,.35-.06.7-.29,1.05-4.1,6.87-11.39,9.77-12.99,9.77Zm1.54-10.08c-.99,0-1.63-.87-1.63-1.71,0-.56.29-1.08.93-1.4,3.81-1.74,6.24-4.33,8.51-7.67.38-.59.86-.8,1.31-.8.86,0,1.66.87,1.66,1.85,0,2.23-8.06,9.73-10.78,9.73Zm.22-9.31c-.96,0-1.6-.8-1.6-1.64,0-.56.29-1.12.93-1.43,3.81-1.92,5.86-4.05,7.84-6.7.38-.52.83-.73,1.28-.73.86,0,1.63.84,1.63,1.81,0,.35-.13.7-.35,1.05-3.39,4.88-8.67,7.64-9.73,7.64Z"/><path class="cls-1" d="m285.73,16.36c-1.22-1.08-2.43-2.27-3.55-3.63l-.03-.03c-1.57,7.01-4.8,13.85-10.14,18.1-.48.38-.96.52-1.38.52-.99,0-1.73-.77-1.73-1.67,0-.49.26-1.05.9-1.5,3.58-2.51,6.11-6.28,7.71-10.15-.96-.59-1.86-.98-2.98-1.36-.64-.21-.93-.7-.93-1.26,0-.91.77-1.92,1.73-1.92.83,0,2.59,1.01,3.26,1.43.26-.87,1.09-3.98,1.09-5.86,0-.63-.19-.91-.8-.91h-.1s-1.6.07-2.85.1c-1.34,3.8-3.04,7.29-4.83,9.94-.48.7-1.06.98-1.6.98-.83,0-1.54-.7-1.54-1.54,0-.35.13-.73.42-1.12,2.82-3.73,4.7-8.2,5.92-13.78.22-1.01.9-1.47,1.57-1.47.8,0,1.57.63,1.57,1.6,0,.17-.19,1.22-.58,2.44,1.22-.04,2.43-.04,2.94-.04,1.76.07,3.07.91,3.07,2.97,0,.1,0,.21-.29,2.16.16-.1.35-.17.51-.17.26,0,.51.14.74.38.64.73,1.28,1.36,1.89,1.95l-.1-9.42v-.04c0-.98.77-1.46,1.54-1.46s1.6.52,1.6,1.5l-.1,11.86c2.21,1.57,4.48,2.65,7.04,3.84.7.31.99.94.99,1.53,0,.94-.67,1.88-1.7,1.88-.9,0-4-1.85-6.34-3.52l.1,11.23c0,.94-.8,1.4-1.57,1.4s-1.57-.45-1.57-1.4l.1-13.6Z"/><path class="cls-1" d="m309.18,30.1c0,.98-.77,1.46-1.57,1.46s-1.57-.49-1.57-1.46v-.04l.13-11.09c-1.09,1.88-2.37,3.63-3.52,4.99-.38.42-.8.63-1.22.63-.86,0-1.63-.8-1.63-1.64,0-.42.16-.8.54-1.19,1.73-1.67,4.32-5.09,5.86-8.3l-.03-.73-3.74.1h-.03c-.96,0-1.41-.73-1.41-1.5s.48-1.54,1.44-1.54h3.71l-.06-3.45c-.61.1-2.75.52-3.1.52-.96,0-1.47-.8-1.47-1.57,0-.7.42-1.4,1.28-1.5,3.01-.31,5.18-.87,7.94-2.06.19-.07.35-.1.51-.1.83,0,1.44.77,1.44,1.6,0,1.22-1.22,1.67-3.52,2.37-.03.73-.03,2.3-.06,4.19h3.26c.96,0,1.44.77,1.44,1.54s-.48,1.5-1.41,1.5h-.03l-3.33-.07v1.71c.13-.04.22-.04.32-.04,1.18,0,3.81,2.51,3.97,2.72.32.38.45.77.45,1.19,0,.87-.67,1.67-1.41,1.67-.35,0-.7-.17-1.02-.59-.54-.77-1.5-1.64-2.3-2.27.03,5.27.16,12.91.16,12.91v.04Zm12.38-7.92l-7.65,2.34c-.19.07-.35.07-.51.07-.86,0-1.34-.73-1.34-1.5,0-.63.35-1.26,1.09-1.5l8.42-2.58-.06-16.53c0-1.01.74-1.5,1.5-1.5s1.57.52,1.57,1.5l-.06,15.66,3.14-.98c.16-.04.32-.07.45-.07.83,0,1.38.8,1.38,1.57,0,.59-.32,1.19-1.02,1.4l-3.94,1.19.06,8.96c0,.91-.77,1.36-1.54,1.36s-1.54-.45-1.54-1.36l.06-8.02Zm-4.22-5.3c-.93-1.05-2.24-1.99-2.94-2.48-.45-.28-.64-.7-.64-1.08,0-.7.64-1.4,1.57-1.4,1.12,0,3.42,1.81,4,2.44.38.42.54.87.54,1.33,0,.94-.67,1.74-1.47,1.74-.35,0-.7-.17-1.06-.56Zm.26-7.4c-.8-1.15-2.02-2.27-2.75-2.83-.35-.28-.51-.59-.51-.91,0-.73.77-1.47,1.6-1.47s4.26,2.37,4.26,4.12c0,.98-.7,1.78-1.47,1.78-.38,0-.77-.21-1.12-.7Z"/><path class="cls-1" d="m358.5,27.1c.96,0,1.41.8,1.41,1.57s-.45,1.6-1.38,1.6c-3.78.1-7.55.14-11.29.14-3.04,0-6.05-.04-8.93-.1-2.78-.07-4.13-1.64-4.22-4.22-.1-2.62-.13-5.58-.13-8.65,0-3.73.06-7.53.13-10.95.03-2.23,1.57-3.77,3.97-3.8,2.78-.07,6.18-.07,9.6-.07s6.94,0,9.92.07c.96,0,1.41.77,1.41,1.53s-.45,1.5-1.41,1.5c-4.13-.03-9.12-.07-13.25-.07-1.86,0-3.55,0-4.93.04-1.82.03-2.3.59-2.34,2.37-.06,2.83-.1,5.72-.1,8.55s.03,5.62.1,8.23c.06,1.99.7,2.3,2.66,2.37,1.92.03,4.06.07,6.34.07,3.9,0,8.19-.07,12.42-.17h.03Zm-2.27-9.63l-6.46-.1c1.5,2.65,4.06,4.5,6.56,5.44.8.31,1.15.98,1.15,1.64,0,.84-.58,1.64-1.54,1.64-1.79,0-6.11-3.21-8.03-6.98-2.82,6.35-8.45,7.15-8.54,7.15-.86,0-1.38-.8-1.38-1.57,0-.63.32-1.26,1.15-1.5,3.78-1.05,5.63-3.38,6.5-5.86l-6.05.14h-.03c-.86,0-1.28-.66-1.28-1.36s.45-1.43,1.31-1.43h6.62l.1-1.05c.03-.7.03-1.53.03-2.37h-3.17c-1.57,2.55-2.18,2.72-2.72,2.72-.77,0-1.5-.59-1.5-1.33,0-.28.1-.56.35-.84,1.44-1.64,2.18-2.97,2.98-5.13.22-.56.64-.77,1.12-.77.77,0,1.57.59,1.57,1.4,0,.07,0,.21-.38,1.19h9.63c.83,0,1.25.7,1.25,1.36,0,.7-.42,1.4-1.25,1.4h-4.9c0,.42-.03,2.58-.16,3.42h7.07c.86,0,1.28.7,1.28,1.4s-.42,1.4-1.25,1.4h-.03Z"/><path class="cls-1" d="m382.53,25.29c0,.73.06,1.81.06,2.65-.03,1.95-.9,3.7-3.84,3.7-1.25,0-2.98-.03-2.98-1.71,0-.73.38-1.43,1.09-1.43.1,0,.16.03.22.03.61.1,1.15.21,1.57.21.77,0,1.22-.31,1.22-1.33v-2.86c-3.84,0-5.47-.21-5.57-3.1v-2.76c-.64.45-1.95,1.36-2.5,1.36-.45,0-.8-.24-1.02-.56-.45,4.01-1.47,7.74-3.52,10.64-.42.59-.93.84-1.41.84-.8,0-1.5-.66-1.5-1.46,0-.28.1-.59.29-.87,1.98-2.83,2.94-5.93,3.39-9.21-1.31.94-2.37,1.36-2.69,1.36-.86,0-1.41-.91-1.41-1.74,0-.59.26-1.15.9-1.36,1.34-.42,2.4-.91,3.46-1.57.03-.73.03-1.43.03-2.16v-.91c-.26.49-.74.77-1.18.77-.38,0-.77-.21-.99-.73-.45-.98-1.02-1.85-1.5-2.3-.32-.31-.45-.63-.45-.94,0-.7.7-1.26,1.38-1.26,1.09,0,2.43,2.16,2.72,2.72-.03-1.08-.1-2.16-.16-3.24v-.45c0-2.58,1.28-3.73,4.03-3.77,1.63-.04,3.71-.04,5.92-.07v-1.26c0-1.15.8-1.71,1.63-1.71s1.63.56,1.63,1.71v1.22c3.3,0,6.56,0,8.9.07,1.02.04,1.47.73,1.47,1.4,0,.73-.51,1.46-1.47,1.46h-.03c-2.24-.04-5.28-.07-8.29-.07.1.17.13.31.13.52,0,.1,0,.21-.03.31l-.38,1.26,8.1-.07c.86,0,1.31.66,1.31,1.33,0,.7-.45,1.36-1.28,1.36h-.03l-5.18-.1c.64,1.01,1.34,1.92,2.18,2.69.74-.56,1.47-1.33,1.92-1.92.22-.28.51-.42.77-.42.7,0,1.38.7,1.38,1.43,0,.91-1.89,2.13-2.24,2.34.93.66,1.89,1.22,2.91,1.67.54.24.77.73.77,1.19,0,.77-.58,1.57-1.41,1.57-.61,0-1.34-.42-3.1-1.78v1.05c0,4.85-.26,5.55-5.18,5.55v.73Zm-10.94,5.79c-.83,0-1.34-.84-1.34-1.6,0-.56.26-1.12.86-1.36,1.92-.73,3.2-1.46,4.74-2.96.22-.21.45-.31.67-.31.64,0,1.25.77,1.25,1.57,0,.35-.1.7-.38.98-2.11,2.2-5.12,3.7-5.79,3.7Zm1.54-19.78h-.03c-.83,0-1.28-.7-1.28-1.36s.42-1.33,1.31-1.33l5.79.04c.16-.56.32-1.08.42-1.64.03-.17.06-.31.13-.42-2.72,0-5.25.03-6.98.07-1.06.03-1.54.52-1.54,1.43v.1c.06,1.74.13,3.52.13,5.34,0,1.43-.03,2.83-.13,4.22.1-.1.22-.21.38-.28,1.15-.56,2.18-1.22,3.04-1.92-.58-.56-1.06-.87-1.7-1.22-.45-.24-.61-.59-.61-.94,0-.66.64-1.36,1.38-1.36s1.79.91,2.72,1.78c.7-.84,1.31-1.71,1.76-2.62l-4.8.1Zm11.94,6.45c-.03-1.15-.61-1.15-3.87-1.15-3.62,0-4.22,0-4.29,1.26v.59h8.16v-.7Zm0,2.69h-8.16v.8c.1,1.08.51,1.08,4.03,1.08s4.06,0,4.13-1.15v-.73Zm-4.45-9.28c-.58,1.15-1.22,2.23-1.98,3.24.74,0,1.47-.03,2.24-.03,1.06,0,2.14.03,3.26.07-.83-1.05-1.57-2.16-2.05-3.28h-1.47Zm8.03,19.32c-1.12-1.26-2.66-2.23-4.03-2.79-.58-.21-.8-.7-.8-1.15,0-.73.54-1.46,1.31-1.46.58,0,5.79,1.81,5.79,4.12,0,.91-.64,1.74-1.38,1.74-.29,0-.61-.14-.9-.45Z"/><path class="cls-1" d="m409.54,5.65c.51-.21.99-.42,1.34-.63,1.76-1.15,3.49,1.74,1.12,3.03-.8.42-2.18.84-3.52,1.15-.42,1.12-.96,2.37-1.54,3.52,2.21-.42,4.32.45,5.38,3.03,1.31-.73,2.66-1.46,3.9-2.06.77-.35,1.63-.77,2.5-1.29,2.4-1.46,3.84,2.02,1.79,3.14-1.02.56-1.76.73-3.46,1.43-1.34.56-2.78,1.26-4.06,1.92.1,1.15.13,2.58.06,3.84-.06,1.4-.9,2.13-1.7,2.16-.8.03-1.54-.63-1.44-1.99.03-.73.06-1.53.06-2.27-.29.17-.58.35-.83.52-3.97,2.79-3.49,4.88-1.7,5.86,1.7.94,4.83.24,6.34-.28,2.82-.94,3.71,2.83.77,3.66-1.89.52-6.24,1.05-8.74-.49-4.32-2.65-3.55-7.36,2.24-11.51.45-.31.96-.7,1.57-1.08-.86-2.93-3.33-2.58-5.41.03-.03.04-.1.1-.13.14-.29.38-.51.7-.74.91-1.76,1.71-4.1-.28-2.18-2.16.83-.84,1.92-2.09,2.59-3.28.54-.98,1.06-2.02,1.5-3.1-1.73.28-2.94.17-3.97-.38-2.3-1.26-.74-4.53,1.5-2.9.61.45,1.89.28,3.01.07.13-.04.32-.04.48-.07.22-1.01.29-1.71.35-2.93.13-2.09,3.14-1.88,3.2-.17.03.7-.1,1.36-.26,2.02l-.06.14Z"/><path class="cls-1" d="m447.26,22.95v4.85c.64.07,1.28.1,1.95.1,1.57,0,3.23-.17,4.99-.28h.1c.83,0,1.31.73,1.31,1.5s-.48,1.57-1.47,1.67c-1.57.17-2.94.28-4.19.28-5.31,0-7.87-1.67-9.28-4.85-1.41,3.21-3.62,5.41-4.7,5.41-.86,0-1.57-.84-1.57-1.67,0-.42.19-.84.58-1.12,3.14-2.34,4.03-5.44,4.22-8.89.06-1.08.77-1.57,1.44-1.57.74,0,1.47.56,1.47,1.53,0,.49-.29,2.44-.35,2.79.61,1.99,1.54,3.28,2.66,4.05l-.03-9.73h-5.7c-.86,0-1.25-.7-1.25-1.36-.13.17-.38.52-3.14,2.16,0,2.27-.03,4.01-.03,4.53,0,.56.1,3.73.13,4.95v.14c0,2.2-1.31,3.91-4.1,3.91-1.7,0-2.88-.31-2.88-1.88,0-.8.45-1.6,1.25-1.6.1,0,.19,0,.29.03.29.07.67.14,1.02.14.67,0,1.31-.24,1.31-1.15v-7.43c-2.3,1.15-2.62,1.26-3.01,1.26-.96,0-1.57-.84-1.57-1.67,0-.63.29-1.22.99-1.5,1.28-.52,2.46-1.05,3.58-1.57v-5.37h-2.72c-.93,0-1.38-.77-1.38-1.53s.45-1.53,1.38-1.53h2.72l-.03-5.23c0-1.08.77-1.64,1.54-1.64s1.5.52,1.5,1.64v5.23h2.3c.96,0,1.41.77,1.41,1.53s-.45,1.53-1.41,1.53h-2.3v3.84c.51-.28.99-.59,1.47-.91.22-.14.45-.21.64-.21.7,0,1.28.73,1.28,1.5.22-.28.54-.49.99-.49h15.13c.86,0,1.28.66,1.28,1.33,0,.7-.42,1.36-1.28,1.36h-6.53l-.03,3.07,4.64-.03c.93,0,1.38.73,1.38,1.46s-.45,1.47-1.38,1.47l-4.64-.04Zm2.27-10.19c-1.06.07-2.34.1-3.62.1-3.97,0-6.5,0-6.62-2.96-.03-.59-.03-1.26-.03-1.92,0-1.08.03-2.2.06-3.21.06-1.5,1.12-2.96,3.14-3.03,1.09-.03,2.34-.07,3.55-.07s2.43.04,3.46.07c1.6.07,2.98,1.36,3.07,2.79.06.98.1,2.06.1,3.1,0,.77,0,1.5-.03,2.2-.06,1.78-1.22,2.83-3.07,2.93Zm.26-7.22c-.06-1.36-.32-1.4-3.81-1.4s-3.94,0-4,1.43c0,.17-.03.38-.03.56h7.84v-.59Zm-7.84,2.86c0,.28.03.56.03.84.03,1.08.32,1.22,3.78,1.22,3.81,0,4-.07,4.03-1.26,0-.24.03-.52.03-.8h-7.87Z"/><path class="cls-1" d="m463.2,14.3c-1.95,2.41-2.69,2.9-3.42,2.9-.86,0-1.5-.73-1.5-1.57,0-.42.16-.84.54-1.22,3.14-3,5.95-7.15,7.65-11.86.29-.77.86-1.08,1.44-1.08.86,0,1.76.7,1.76,1.71,0,.84-1.76,4.15-3.33,6.66l-.35,20.16c-.03,1.05-.83,1.57-1.63,1.57s-1.57-.49-1.57-1.5v-.07l.42-15.7Zm4.99,17.16c-.96,0-1.66-.84-1.66-1.71,0-.56.29-1.08.96-1.43,2.02-.98,4.19-2.69,5.63-4.64.32-.42.7-.63,1.12-.63.8,0,1.6.8,1.6,1.67,0,.35-.1.7-.35,1.01-1.66,2.16-5.86,5.72-7.29,5.72Zm.64-9.73c-.99,0-1.47-.77-1.47-1.5s.48-1.5,1.44-1.5h.03l3.17.04-.03-6.94h-2.11c-.99,0-1.47-.77-1.47-1.5s.48-1.5,1.47-1.5h2.11l-.03-5.51c0-1.01.77-1.5,1.57-1.5s1.57.49,1.57,1.5l-.03,5.55h3.94V3.31c0-1.01.77-1.5,1.57-1.5s1.57.49,1.57,1.5l-.03,5.55,2.78-.03h.03c.99,0,1.5.77,1.5,1.5s-.51,1.5-1.54,1.5h-2.78l-.03,6.94,3.78-.04h.03c.99,0,1.5.73,1.5,1.5s-.51,1.5-1.54,1.5h-16.99Zm10.18-9.91h-3.97l-.03,6.94h4.03l-.03-6.94Zm-.45,12.7c0-.87.77-1.46,1.54-1.46.42,0,.8.17,1.12.56,1.47,1.85,3.49,3.49,5.31,4.4.64.31.9.84.9,1.4,0,.91-.74,1.85-1.7,1.85-1.63,0-7.17-5.02-7.17-6.73Z"/><path class="cls-1" d="m500.8,20.58c-1.12-3.38.61-5.9,2.56-6.56.93-.31,1.89-.45,2.75-.31-.03-.77-.06-1.81-.1-2.83-2.69.28-5.34.7-7.01.98-2.3.38-3.81.84-4.77,1.01-2.14.42-2.78-3.07-.26-3.52,1.28-.24,3.36-.49,4.7-.73,1.6-.28,4.48-.66,7.29-.94v-.63c.03-2.16-.16-2.3-.16-3.42,0-2.55,3.23-2.3,3.36-.1.03.8-.06,2.41-.13,3.35,0,.17-.03.35-.03.52.93-.07,1.76-.1,2.46-.1,1.57,0,2.69-.04,4.86,0,2.69.07,2.56,3.77,0,3.56-2.27-.21-3.04-.21-5.02-.24-.74,0-1.5.04-2.34.07.03,1.12.06,2.2.06,3.21,0,.49.06,1.22.1,1.99,2.85,4.88-.54,12.28-3.94,15.24-2.14,1.85-4.93-.63-2.14-2.79,1.54-1.19,2.88-3.14,3.65-5.13-2.11,1.19-4.9.52-5.92-2.62Zm5.38-3.66c-.45-.42-1.38-.49-2.05-.14-.77.38-1.28,1.46-.93,2.65.58,1.88,3.36,1.88,3.68-.59.1-.73,0-1.05-.19-1.33-.16-.21-.32-.42-.51-.59Z"/><path class="cls-1" d="m538.66,25.53c2.34-2.27,2.24-5.58.42-6.91-1.66-1.22-5.12-1.46-8.35.59-1.28.8-1.95,1.43-2.69,2.62-1.15,1.85-4.35-.21-2.37-2.34,3.52-3.8,6.11-6.49,9.66-11.27.35-.49.03-.35-.22-.21-.9.52-3.01,1.22-5.38,1.78-2.53.59-3.01-2.86-.83-3.14,2.14-.28,5.21-1.12,7.04-1.71,2.56-.8,4.67,1.67,3.07,3.63-1.02,1.26-2.3,2.62-3.58,3.91-1.28,1.29-2.56,2.55-3.71,3.77,2.82-1.64,6.62-1.64,8.99-.1,4.61,3,3.1,9.14-.26,11.79-3.17,2.48-8.16,2.62-10.59.87-3.39-2.41-1.89-6.73,1.89-6.87,2.56-.1,4.96,1.57,5.06,4.71.61-.14,1.28-.56,1.86-1.12Zm-6.82-1.05c-1.41.14-1.47,1.57-.45,2.16.74.42,1.79.56,2.69.52.03-1.6-.83-2.83-2.24-2.69Z"/><path class="cls-1" d="m559.27,2.72c0-.73.38-1.05.8-1.05.45,0,.9.38.93,1.01.03,3,.06,6.63.06,10.39,0,5.2-.03,10.57-.1,14.72-.03,2.41-1.28,4.05-3.65,4.15-.77.04-1.44.04-2.11.04-.9,0-1.76,0-2.72-.04-.58,0-.86-.45-.86-.91s.32-.94.86-.94h.13c.19.03,1.09.1,4.42.1,1.28-.03,2.21-.8,2.27-2.58.06-2.09.1-4.88.1-7.92,0-5.69-.1-12.24-.13-16.95v-.03Z"/><path class="cls-1" d="m579.81,25.5c-1.15-1.78.93-4.19,2.66-2.27,2.72,3.03,7.9,2.79,12.73,1.29,2.66-.8,3.42,2.96.83,3.84-6.33,2.16-14.01.52-16.22-2.86Zm3.58-14.23c-2.53.52-2.94-3.17-.1-3.63,3.04-.49,7.55-.52,10.21.1,2.69.63,1.98,4.22-.61,3.63-2.98-.7-6.37-.77-9.5-.1Z"/><path class="cls-1" d="m608.9,7.36c-1.66-2.23,1.47-4.12,2.75-2.13,1.38,2.13,2.82,5.23,3.74,8.13,1.73-1.33,3.55-2.58,5.63-3.84,2.18-1.33,3.84,2.02,1.38,3.38-3.26,1.81-6.56,3.84-9.09,6.17-3.17,2.93-3.26,5.55-.77,6.87,2.24,1.22,6.82.31,8.74-.45,2.69-1.12,3.65,2.9.8,3.77-2.53.77-7.87,1.47-11.04-.28-4.61-2.55-4.42-8.2.77-12.7.32-.28.61-.56.93-.8-.83-2.76-2.37-6.17-3.84-8.13Z"/><path class="cls-1" d="m643.14,5.65c.51-.21.99-.42,1.34-.63,1.76-1.15,3.49,1.74,1.12,3.03-.8.42-2.18.84-3.52,1.15-.42,1.12-.96,2.37-1.54,3.52,2.21-.42,4.32.45,5.38,3.03,1.31-.73,2.66-1.46,3.9-2.06.77-.35,1.63-.77,2.5-1.29,2.4-1.46,3.84,2.02,1.79,3.14-1.02.56-1.76.73-3.46,1.43-1.34.56-2.78,1.26-4.06,1.92.1,1.15.13,2.58.06,3.84-.06,1.4-.9,2.13-1.7,2.16-.8.03-1.54-.63-1.44-1.99.03-.73.06-1.53.06-2.27-.29.17-.58.35-.83.52-3.97,2.79-3.49,4.88-1.7,5.86,1.7.94,4.83.24,6.34-.28,2.82-.94,3.71,2.83.77,3.66-1.89.52-6.24,1.05-8.74-.49-4.32-2.65-3.55-7.36,2.24-11.51.45-.31.96-.7,1.57-1.08-.86-2.93-3.33-2.58-5.41.03-.03.04-.1.1-.13.14-.29.38-.51.7-.74.91-1.76,1.71-4.1-.28-2.18-2.16.83-.84,1.92-2.09,2.59-3.28.54-.98,1.06-2.02,1.5-3.1-1.73.28-2.94.17-3.97-.38-2.3-1.26-.74-4.53,1.5-2.9.61.45,1.89.28,3.01.07.13-.04.32-.04.48-.07.22-1.01.29-1.71.35-2.93.13-2.09,3.14-1.88,3.2-.17.03.7-.1,1.36-.26,2.02l-.06.14Z"/><path class="cls-1" d="m666.27,14.62h-2.43c-.9,0-1.31-.7-1.31-1.4,0-.77.48-1.53,1.31-1.53h2.43v-5.34h-2.91c-.9,0-1.31-.7-1.31-1.4,0-.77.48-1.54,1.31-1.54h8.54c.83,0,1.25.73,1.25,1.47s-.42,1.46-1.25,1.46h-2.82v5.34h2.24c.83,0,1.25.73,1.25,1.46s-.42,1.47-1.25,1.47h-2.24v5.86c.83-.35,1.63-.73,2.4-1.12.26-.14.48-.17.74-.17.77,0,1.34.66,1.34,1.4,0,.49-.29,1.05-.99,1.4-3.01,1.5-8.29,3.77-9.47,3.77-.93,0-1.41-.8-1.41-1.6,0-.66.35-1.33,1.09-1.53,1.18-.35,2.34-.7,3.49-1.08v-6.91Zm5.38,15.59c-.93,0-1.34-.66-1.34-1.33,0-.73.48-1.47,1.34-1.47h8.03v-3.42h-4.83c-.93,0-1.38-.66-1.38-1.33,0-.7.48-1.43,1.38-1.43h4.83v-3.42c-.9,0-1.76-.04-2.59-.07-2.24-.1-3.33-1.46-3.39-3.38-.03-1.43-.06-3-.06-4.57s.03-3.14.06-4.53c.06-1.57.99-3.17,3.42-3.28,1.28-.07,2.62-.07,4.03-.07s2.82,0,4.22.07c2.14.07,3.39,1.57,3.46,3.24.06,1.57.1,3.21.1,4.85,0,1.4-.03,2.86-.1,4.26-.1,1.81-1.41,3.31-3.46,3.42-.93.03-1.86.07-2.78.07v3.42h5.09c.9,0,1.31.7,1.31,1.36,0,.7-.42,1.4-1.31,1.4h-5.09v3.42h6.88c.86,0,1.28.7,1.28,1.4s-.42,1.4-1.28,1.4h-17.82Zm8.03-25.71c-.64,0-1.25,0-1.79.03-1.41.04-1.47.8-1.47,3.94h3.26v-3.98Zm0,6.52h-3.26c0,.91.03,1.85.06,2.76.06,1.4,1.02,1.4,3.2,1.4v-4.15Zm6.33-2.55c0-.87,0-1.74-.03-2.58-.06-1.43-.8-1.43-3.39-1.43v4.01h3.42Zm-3.42,2.55v4.15c.67,0,1.38,0,2.02-.04,1.38-.07,1.44-.56,1.44-4.12h-3.46Z"/><path class="cls-1" d="m694.75,28.32c0-.49.26-1.05.93-1.47.8-.52,2.43-2.37,2.78-3.63.22-.77.74-1.12,1.31-1.12.74,0,1.5.63,1.5,1.53,0,1.78-2.88,6.24-4.86,6.24-.93,0-1.66-.73-1.66-1.57Zm9.92-17.3c-.9,0-1.34-.7-1.34-1.36,0-.17,0-.35.06-.49-2.62,2.41-6.02,5.02-7.17,5.02-.9,0-1.44-.84-1.44-1.71,0-.59.26-1.22.93-1.53,3.62-1.81,7.71-5.69,10.08-8.69.77-.98,1.7-1.47,2.62-1.47s1.86.45,2.78,1.4c3.04,3.17,6.75,5.96,10.46,7.81.64.31.9.84.9,1.4,0,.91-.7,1.85-1.73,1.85-1.41,0-6.56-3.66-11.2-8.72-.38-.42-.67-.66-.96-.66-.26,0-.54.21-.9.66-.93,1.15-2.11,2.44-3.42,3.73.1-.03.19-.03.32-.03h7.87c.9,0,1.34.7,1.34,1.4s-.45,1.4-1.34,1.4h-7.87Zm-2.98,4.74c-.9,0-1.31-.66-1.31-1.33,0-.73.48-1.46,1.34-1.5,1.76-.07,4.54-.1,7.14-.1,1.86,0,3.62.04,4.83.07,1.63.04,2.59.87,2.59,2.2,0,1.92-2.18,4.88-3.17,5.93-.32.31-.7.45-1.09.45-.86,0-1.76-.73-1.76-1.5,0-.28.13-.59.38-.84,2.02-1.99,2.02-2.93,2.02-3,0-.28-.16-.45-.58-.45h-1.6c-2.62,0-6.69.04-8.77.07h-.03Zm4.1,6.63c-.06,1.22-.16,2.62-.16,3.7,0,2.09.45,2.23,3.17,2.23,2.98,0,4.19-.49,4.19-2.44,0-1.01.74-1.5,1.5-1.5,1.5,0,1.73,1.19,1.73,1.67,0,5.13-4.67,5.23-7.58,5.23-3.62,0-5.98-.28-5.98-3.8v-.1c0-1.5.06-3.42.13-5.06.03-.91.8-1.33,1.54-1.33s1.47.45,1.47,1.33v.07Zm4.06,2.44c-.42,0-.8-.21-1.06-.66-.54-.94-1.31-1.67-2.11-2.37-.29-.24-.42-.56-.42-.84,0-.73.8-1.46,1.6-1.46.64,0,3.65,2.16,3.65,3.59,0,.98-.86,1.74-1.66,1.74Zm9.79,3.17c-.9-1.6-2.11-3-3.65-4.05-.38-.28-.54-.63-.54-.98,0-.77.7-1.54,1.54-1.54,1.15,0,5.6,3.59,5.6,5.69,0,1.05-.77,1.81-1.57,1.81-.51,0-.99-.28-1.38-.94Z"/><path class="cls-1" d="m734.34,7.36c-1.66-2.23,1.47-4.12,2.75-2.13,1.38,2.13,2.82,5.23,3.74,8.13,1.73-1.33,3.55-2.58,5.63-3.84,2.18-1.33,3.84,2.02,1.38,3.38-3.26,1.81-6.56,3.84-9.09,6.17-3.17,2.93-3.26,5.55-.77,6.87,2.24,1.22,6.82.31,8.74-.45,2.69-1.12,3.65,2.9.8,3.77-2.53.77-7.87,1.47-11.04-.28-4.61-2.55-4.42-8.2.77-12.7.32-.28.61-.56.93-.8-.83-2.76-2.37-6.17-3.84-8.13Z"/><path class="cls-1" d="m761.44,23.16c-.13-3.66.22-6.63.38-10.33.1-2.27.32-5.69.26-7.85-.06-2.58,3.55-2.37,3.49-.07-.06,2.2-.29,5.51-.45,7.85-.22,3.7-.7,6.87-.58,10.25.19,5.09,5.89,4.74,11.46-.03,2.08-1.78,4.03,1.43,2.21,3.03-6.24,5.55-16.48,6.56-16.77-2.86Z"/><path class="cls-1" d="m794.78,13.26c.32-.66.61-1.22,1.02-1.81.51-.73.35-.7-.26-.49-2.4.84-1.86.84-4.03,1.74-1.02.42-1.92.77-2.88,1.05-2.82.84-3.65-3.17-1.09-3.77.67-.17,2.53-.56,3.55-.84,1.57-.42,4.35-1.12,7.62-2.13,3.29-1.01,5.92-1.85,8.74-2.06,1.98-.14,2.53,1.57,2.18,2.69-.19.59-.9,1.29-3.14,1.15-1.63-.1-3.68.56-4.77.98-1.79.7-3.39,2.79-4.1,4.08-2.82,5.13-.67,12.45,6.5,12.17,3.36-.14,3.55,3.98.16,3.94-9.66-.03-12.99-9.7-9.5-16.71Z"/><path class="cls-1" d="m17.18,64.94c1.79-.04,3.78-.07,5.28-.07,2.02,0,2.98,1.12,2.98,2.44,0,.63-.22,1.33-.64,1.95-1.22,1.81-2.66,3.63-4.32,5.27,2.69,1.92,6.14,3.45,10.3,4.33.96.21,1.41.94,1.41,1.67,0,.87-.64,1.74-1.76,1.74-.74,0-6.5-1.22-12.06-5.79-6.11,5.23-12.09,6.8-12.73,6.8-.96,0-1.57-.84-1.57-1.64,0-.63.35-1.22,1.22-1.43,4.13-1.01,7.81-2.96,10.98-5.65-1.38-1.4-2.46-2.86-3.26-4.29-1.86,2.09-5.02,5.27-6.4,5.27-.86,0-1.5-.77-1.5-1.57,0-.49.22-1.01.8-1.36,3.65-2.3,6.82-6.14,8.93-9.87.26-.45.64-.66,1.06-.66.86,0,1.82.84,1.82,1.71,0,.24-.06.49-.22.7l-.29.45Zm5.57,26.93c-1.47.07-2.88.1-4.29.1-1.57,0-3.1-.04-4.7-.1-3.46-.17-3.49-2.83-3.49-5.06,0-.91.03-1.81.06-2.58.06-1.53.96-3.14,3.36-3.21,1.25-.03,2.62-.07,4.03-.07,1.73,0,3.49.03,5.15.07,1.86.04,3.17,1.47,3.23,2.93.03.7.06,1.5.06,2.3s-.03,1.6-.06,2.27c-.06,1.74-1.34,3.24-3.36,3.35Zm.42-5.51c0-.49,0-.98-.03-1.4-.06-1.29-.58-1.29-4.38-1.29-1.41,0-2.82,0-4.16.03-1.34,0-1.41,1.08-1.41,2.65,0,.49,0,.98.03,1.4.1,1.36.48,1.4,5.18,1.4,3.9,0,4.7-.03,4.74-1.4.03-.45.03-.91.03-1.4Zm-8.26-18.35c.74,1.64,1.86,3.24,3.36,4.67.54-.59,3.68-4.12,3.68-4.78,0-.21-.16-.31-.42-.31-.67-.03-1.63-.03-2.72-.03s-2.34,0-3.58.03l-.32.42Z"/><path class="cls-1" d="m51.1,77.01c-1.66,12.45-10.72,15.24-11.74,15.24-.96,0-1.6-.84-1.6-1.71,0-.63.35-1.29,1.22-1.57,5.98-2.02,8.22-6.66,8.93-11.96-1.02,0-2.02.04-2.88.04s-1.38-.7-1.38-1.43v-.21c-1.44,1.81-3.71,4.26-5.12,4.26-.99,0-1.73-.87-1.73-1.78,0-.52.26-1.08.86-1.5,3.14-2.13,4.8-4.64,6.34-7.81.38-.77.93-1.08,1.47-1.08.9,0,1.73.8,1.73,1.78,0,1.15-2.43,4.67-2.59,4.88.13-.03.26-.07.42-.07,1.34-.03,2.85-.03,4.38-.03,2.11,0,4.29,0,6.11.03,2.14.04,3.39,1.47,3.39,3.84,0,6.77-.19,14.2-7.26,14.2-.99,0-2.05-.17-3.17-.49-.74-.21-1.09-.91-1.09-1.6,0-.91.58-1.81,1.54-1.81.16,0,.32.03.48.07.96.28,1.79.42,2.5.42,2.24,0,3.84-1.19,3.84-9.8v-.52c0-.98-.45-1.36-1.12-1.36h-3.52Zm-4.16-10.71h-.06c-.99,0-1.5-.8-1.5-1.64s.48-1.64,1.5-1.64l5.25-.1h.13c1.6,0,3.04.56,3.71,2.16,1.86,4.22,4.29,7.6,8.13,10.22.67.45.93,1.05.93,1.67,0,1.05-.83,2.06-1.89,2.06-1.79,0-6.62-4.99-9.63-11.83-.32-.8-.93-1.08-1.82-1.08h-.16l-4.58.17Z"/><path class="cls-1" d="m78.66,82.77v3.1c1.57-.38,3.04-.84,4.35-1.29.13-.03.26-.07.38-.07.67,0,1.12.66,1.12,1.36,0,.56-.29,1.12-.93,1.4-4.42,1.78-11.62,3.14-12.38,3.14-.9,0-1.41-.8-1.41-1.6,0-.73.38-1.4,1.22-1.5,1.66-.17,3.3-.45,4.86-.77v-3.73l-4.06.03h-.03c-.8,0-1.22-.66-1.22-1.33,0-.7.42-1.4,1.25-1.4l4.1-.03v-2.83c-.74-.03-1.47-.07-2.11-.1-1.7-.14-2.88-1.08-2.98-2.9-.03-1.19-.06-2.55-.06-3.94s.03-2.86.06-4.12c.06-1.57.77-3.17,3.17-3.28,1.15-.07,2.27-.07,3.42-.07s2.3,0,3.42.07c1.57.07,2.72,1.12,2.82,2.65.1,1.64.16,3.21.16,4.78,0,1.33-.03,2.62-.13,3.91-.13,1.74-1.15,2.72-3.1,2.9-.58.03-1.25.07-1.92.1v2.79l4.06-.03h.03c.77,0,1.18.66,1.18,1.33,0,.7-.42,1.36-1.22,1.4l-4.06.03Zm-2.69-17.3q-2.56,0-2.56,3.28h2.56v-3.28Zm0,5.83h-2.56c0,.8.03,1.6.06,2.34.06.91.61,1.08,2.5,1.08v-3.42Zm5.18-2.55c0-.8-.06-1.53-.1-2.2-.06-1.08-.54-1.08-2.46-1.08v3.28h2.56Zm-2.56,2.55v3.42c2.53,0,2.56,0,2.56-3.42h-2.56Zm10.72,4.95c-1.34.03-2.72.07-3.94.07h-.03c-.9,0-1.34-.7-1.34-1.4,0-.73.48-1.46,1.38-1.46,1.7-.04,3.49-.04,5.25-.04-.1-.07-.16-.17-.26-.31-.8-1.19-2.21-1.95-3.04-2.41-.45-.24-.61-.59-.61-.94,0-.73.7-1.5,1.54-1.5.54,0,1.44.52,1.95.87.67-.63,2.46-2.62,2.46-2.9,0-.1-.06-.17-.22-.17-1.82,0-4.1.17-6.21.24h-.06c-.9,0-1.34-.73-1.34-1.46s.45-1.47,1.38-1.5c1.76-.04,3.74-.07,5.7-.07h2.11c1.63,0,2.59.98,2.59,2.16,0,.73-.32,2.02-4.26,5.44.06.07.13.1.16.17.26.31.35.63.35.94,0,.56-.35,1.12-.77,1.43,1.25,0,2.43.04,3.42.04,1.73.03,2.75,1.12,2.75,2.72,0,1.71-1.79,4.88-1.86,4.95-.45.63-1.02.91-1.6.91-.8,0-1.5-.56-1.5-1.33,0-.24.06-.52.26-.8.19-.28,1.5-2.51,1.5-3.14,0-.56-.48-.56-2.88-.56v6.59l.06,4.92v.07c0,1.99-.99,4.53-4.61,4.53-1.82,0-3.2-.24-3.2-1.99,0-.8.42-1.57,1.22-1.57.1,0,.22,0,.32.03.58.14,1.15.24,1.63.24,1.02,0,1.7-.45,1.7-2.09v-10.71Z"/><path class="cls-1" d="m117.98,72.27c-.51,4.43-3.39,11.02-6.46,14.13-2.46,2.48-5.15,1.12-6.56-1.88-2.02-4.33.13-10.81,4.42-14.06,3.94-2.96,9.79-3.45,13.82-.8,4.96,3.24,5.76,9.66,2.98,14.65-1.5,2.69-4.64,4.85-7.81,5.76-2.82.8-3.81-2.72-1.06-3.42,2.43-.59,4.9-2.09,5.95-3.91,2.27-3.91,1.41-8.48-1.76-10.67-1.25-.87-2.59-1.29-3.97-1.4.35.35.54.91.45,1.6Zm-7.1.66c-2.98,2.51-4.58,7.15-3.23,9.84.48,1.01,1.31,1.54,2.11.77,2.4-2.3,4.64-7.85,4.96-11.62.03-.42.13-.8.29-1.08-1.47.35-2.91,1.08-4.13,2.09Z"/><path class="cls-1" d="m159.04,84.86l-5.66-.14v.87l.03,2.69v.07c0,1.81-1.12,4.19-4.67,4.19-2.5,0-3.1-.66-3.1-1.74,0-.8.45-1.6,1.25-1.6.1,0,.19,0,.29.03.58.14,1.15.24,1.66.24.93,0,1.6-.38,1.6-1.74v-.07l-.03-2.97-16.03.17h-.03c-.86,0-1.28-.7-1.28-1.43s.45-1.5,1.31-1.5l16.03.03-.03-1.19c0-.31.06-.59.19-.8-.99.04-2.02.04-3.04.04-2.43,0-4.9-.07-7.26-.1-2.18-.07-3.26-1.26-3.33-2.93-.03-1.01-.03-1.88-.03-2.72s0-1.67.03-2.51c.06-1.36.9-2.79,3.26-2.86,1.15-.03,2.94-.03,4.9-.03v-1.74l-9.28.03c-.93,0-1.41-.7-1.41-1.4s.48-1.4,1.41-1.4l9.28.04v-1.4c0-1.01.77-1.53,1.54-1.53s1.54.52,1.54,1.53v1.4l9.5-.04c.9,0,1.31.7,1.31,1.4s-.42,1.4-1.31,1.4l-9.5-.03v1.74c1.92,0,3.81,0,5.18.03,1.79.04,3.01,1.36,3.1,2.65.03.77.06,1.57.06,2.37,0,1.01-.03,2.02-.06,3-.06,1.57-1.28,2.93-3.26,3h-.1c.16.21.22.52.22.87l.03,1.19,5.7-.03c.9,0,1.34.7,1.34,1.43s-.45,1.5-1.31,1.5h-.03Zm-15.93,4.74c-.99-.94-2.11-1.36-3.14-1.71-.48-.17-.67-.59-.67-1.05,0-.77.54-1.64,1.38-1.64.58,0,4.74.98,4.74,3,0,.91-.7,1.74-1.47,1.74-.29,0-.58-.1-.83-.35Zm2.14-18.52c-1.7,0-3.26.03-4.29.07-.99.03-1.38.63-1.41,1.29,0,.24-.06.52-.06.77h5.76v-2.13Zm0,4.33h-5.76c0,.28.06.59.06.87.06,1.01.51,1.29,1.44,1.33,1.12.03,2.66.03,4.26.03v-2.23Zm8.51-2.2c0-.24-.03-.52-.03-.77-.06-1.36-.45-1.36-5.73-1.36v2.13h5.76Zm-5.76,2.2v2.23c1.6,0,3.1,0,4.32-.03.83,0,1.34-.35,1.41-1.33,0-.28.06-.59.06-.87h-5.79Z"/><path class="cls-1" d="m172.77,62.74c1.28,0,2.59,0,3.2.04,1.6.07,2.72,1.26,2.78,2.9.03,1.26.06,2.69.06,4.01,0,4.78-.03,5.58-6.37,5.58-.83,0-1.63-.03-2.21-.07v3.1c0,3.59-.03,7.88-.13,12.8,0,1.01-.77,1.5-1.54,1.5s-1.54-.49-1.54-1.43v-.07c.22-6.38.16-16.85.22-24.8,0-3.56,2.27-3.56,5.5-3.56Zm3.23,5.06c0-.45-.03-.84-.03-1.22-.06-1.15-.45-1.19-2.78-1.19-2.56,0-2.85.14-2.91,1.47,0,.28-.03.59-.03.94h5.76Zm-5.76,2.51v2.3c.45.04,1.41.04,2.37.04,3.1,0,3.33-.1,3.36-1.19,0-.35.03-.73.03-1.15h-5.76Zm17.34,4.95c-3.87,0-6.43,0-6.53-3.17-.03-.73-.03-1.57-.03-2.41,0-1.33.03-2.76.06-4.01.06-1.64,1.12-2.83,2.72-2.9.61-.04,1.98-.04,3.3-.04.96,0,1.86,0,2.4.04,2.37.14,3.36,1.6,3.36,3.24v2.69c0,5.37.06,10.39.06,14.82,0,1.64.03,3.1.03,4.33,0,2.48-1.12,4.64-4.77,4.64-2.24,0-3.39-.31-3.39-1.85,0-.8.45-1.53,1.25-1.53.1,0,.16.03.26.03.61.1,1.18.21,1.7.21,1.06,0,1.86-.42,1.89-2.13.03-1.4.06-2.79.06-4.19,0-2.09-.03-4.22-.03-6.38v-1.47c-.58.04-1.41.07-2.34.07Zm2.27-7.46c0-2.37-.03-2.41-3.01-2.41-2.27,0-2.91.04-2.98,1.22,0,.35-.03.77-.03,1.19h6.02Zm.06,2.51h-6.08c0,.42.03.8.03,1.15.03,1.12.32,1.19,3.52,1.19,1.06,0,2.08,0,2.53-.04v-2.3Z"/><path class="cls-1" d="m214.69,63.06c.16-.84.77-1.22,1.41-1.22.8,0,1.63.59,1.63,1.57,0,.38-.51,2.27-1.28,4.29,1.41-.03,3.3-.07,4.74-.07,1.6,0,4.74.04,4.96,4.12.06,1.22.13,2.86.13,4.64,0,8.55-1.38,15.87-8.1,15.87-.96,0-1.98-.17-3.1-.45-.86-.24-1.28-1.05-1.28-1.81,0-.84.48-1.64,1.44-1.64.16,0,.32.04.51.07.9.24,1.73.38,2.43.38,2.11,0,4.96-1.19,4.96-12.45,0-4.5-.06-5.65-1.6-5.65h-6.37c-1.73,3.8-2.56,4.46-3.39,4.46-.42,0-.8-.17-1.09-.45v3.07c0,2.83-.03,5.62-.06,7.71-.06,3.14-2.82,3.28-5.22,3.28-.74,0-1.47-.04-2.18-.1-1.6-.17-2.75-1.43-2.75-3.21-.03-2.41-.03-5.65-.03-8.72,0-2.23,0-4.36.03-5.96.03-1.74,1.09-2.9,2.98-3h.42c.38-1.36.77-3.03.93-4.29.13-.94.77-1.36,1.44-1.36.83,0,1.73.63,1.73,1.57,0,.52-.61,2.34-1.22,4.05,3.3,0,3.84,1.81,3.87,2.9.03.63.03,1.33.03,2.02,1.86-2.51,3.39-6.63,4.03-9.59Zm-6.91,13.32c0-5.41,0-5.86-.93-5.86-.35-.04-.83-.04-1.31-.04s-.96,0-1.31.04c-.54,0-.9.49-.9.98-.03,1.22-.03,3-.03,4.88h4.48Zm-4.48,2.76c0,2.13,0,4.19.03,5.65,0,.77.38,1.05,2.11,1.05,1.38,0,2.18,0,2.24-1.08.06-1.57.13-3.56.13-5.62h-4.51Zm13.95,2.02c-.86-1.22-2.3-2.41-3.65-3.14-.58-.31-.8-.8-.8-1.26,0-.77.61-1.53,1.5-1.53,1.09,0,5.7,2.62,5.7,4.71,0,1.01-.8,1.85-1.63,1.85-.42,0-.8-.17-1.12-.63Z"/><path class="cls-1" d="m237.31,71.19c-1.95-.59-1.34-3.8.93-3,1.06.38,2.72.35,4.38-.1.32-1.15.48-2.27.64-3.52.29-2.06,3.1-1.67,3.04.31-.03.52-.22,1.29-.45,2.13.38-.21.74-.38,1.02-.59,1.44-1.12,3.46,1.05,1.41,2.65-.8.63-2.11,1.19-3.42,1.6-1.5,3.94-3.68,8.13-5.73,11.75-1.18,2.09-4.26.73-2.85-1.53,1.79-2.9,3.68-5.86,5.25-9.52-1.63.35-3.01.21-4.22-.17Zm5.5,19.64c-2.98-1.64-3.33-5.41-.03-7.01,1.98-.98,4.16-1.05,6.14-.66v-1.22c0-.87-.06-1.74-.1-2.62-.03-.7.03-1.67.16-2.34.38-1.92,3.2-1.47,2.88.63-.1.52-.19.91-.19,1.64,0,.8,0,1.67.03,2.69.03.66.1,1.4.13,2.16,1.7.77,3.1,1.85,3.9,2.79,1.82,2.2-.77,4.67-2.3,2.65-.48-.63-1.09-1.26-1.82-1.81-.93,2.79-4.93,5.23-8.8,3.1Zm1.02-4.57c-.86.49-.93,1.5.03,2.02,1.92,1.05,4.51.03,4.86-1.85.03-.1,0-.24.03-.35-1.63-.59-3.36-.66-4.93.17Zm7.14-12.87c-1.76.1-1.89-2.79.16-3,2.11-.21,4.35.21,5.89,1.22,2.18,1.43.51,4.33-1.06,3.24-1.5-1.05-3.14-1.57-4.99-1.46Z"/><path class="cls-1" d="m267.27,89.6c-2.34.94-3.42-2.48-1.02-3.38,5.82-2.2,10.88-7.78,13.41-12.98.29-.59.16-1.15-.54-1.15-2.02-.03-6.43.14-9.25.21-1.92.07-2.05-3.28,0-3.38,2.34-.1,7.04-.17,10.27-.17,2.88,0,4.51,1.99,3.26,4.36-1.09,2.06-2.24,4.05-3.55,5.93,2.66,1.74,6.72,4.67,8.19,6.91,1.28,1.95-1.12,4.67-2.62,2.62-1.57-2.13-4.86-5.3-7.49-7.01-2.82,3.42-6.27,6.24-10.66,8.06Z"/><path class="cls-1" d="m297.15,91.28c-2.56,1.08-3.81-2.2-1.38-3.07,4.42-1.6,7.97-4.6,10.69-7.95-1.15-.77-2.34-1.36-3.36-1.67-1.79-.52-.96-3.49,1.28-2.79,1.18.35,2.62,1.01,4.03,1.81,1.09-1.67,1.98-3.38,2.69-4.99.61-1.43.48-1.6-.35-1.57-1.28.04-4.58.38-5.66.52-2.24,3.21-5.18,6.87-7.33,8.51-2.14,1.6-4.03-1.43-1.86-2.9,3.1-2.09,7.39-7.99,8.54-10.99,1.12-2.97,4.42-.8,3.3,1.22-.16.28-.35.59-.58.94,1.57-.14,3.33-.31,4.86-.38,3.3-.1,3.87,2.41,2.62,4.88-1.18,2.34-2.37,4.5-3.62,6.49.9.7,1.73,1.43,2.3,2.2.74.94.51,2.06-.06,2.65-.58.59-1.54.77-2.27-.1-.48-.56-1.15-1.22-1.92-1.88-2.85,3.73-6.43,6.77-11.94,9.07Z"/><path class="cls-1" d="m324.19,81.55c-.45-.98-1.12-2.02-1.82-2.69-1.31-1.22.54-3.42,2.05-1.95.86.84,1.76,1.95,2.37,3.1,1.02,1.88-1.63,3.59-2.59,1.53Zm-.64,9.45c-.29-.73-.1-1.67.8-2.09,5.34-2.44,8.8-7.36,10.08-13.19.51-2.27,3.62-1.22,3.01.91-1.82,6.59-5.38,11.93-11.68,15.03-1.09.52-1.89.1-2.21-.66Zm4.93-11.37c-.32-1.05-.9-2.16-1.5-2.93-1.15-1.4.99-3.31,2.3-1.6.74.98,1.44,2.23,1.92,3.45.77,2.06-2.05,3.31-2.72,1.08Z"/><path class="cls-1" d="m346.94,87.37c7.07-2.44,11.26-8.79,12.7-13.92.26-.94.16-1.81-1.02-1.85-3.14-.1-8.19.1-12.8.28-2.11.07-2.34-3.35-.06-3.45,4.22-.21,10.21-.24,14.27-.17,2.59.04,4.42,2.16,3.49,5.02-2.24,6.98-6.14,13.74-15.1,17.48-2.72,1.12-3.9-2.55-1.47-3.38Z"/><path class="cls-1" d="m381.47,71.88c2.69-.24,4.74,1.46,4.86,5.37.06,2.44-.26,5.58-1.09,7.78-1.31,3.45-4.45,5.16-7.52,4.19-2.53-.8-1.5-4.01.45-3.49,1.82.49,3.17.17,4.06-1.88.74-1.71,1.02-4.19,1.02-6.03,0-2.13-.67-3.14-2.14-3-.48.03-.96.1-1.47.17-1.57,5.41-3.71,10.15-6.21,14.02-1.54,2.37-4.86.35-2.78-2.2,2.21-2.69,4.19-6.66,5.66-11.34l-.38.07c-1.38.28-2.62.49-3.46.49-2.18,0-2.14-3.14-.1-3.35.99-.1,1.98-.07,3.14-.17l1.6-.17c.38-1.54.8-3.59.99-5.55.22-2.27,3.49-2.06,3.23.28-.13,1.19-.54,3.28-.93,4.92l1.06-.1Zm11.78,7.85c-.77-1.92-2.21-4.57-4.58-6-1.57-.94-.16-3.56,1.82-2.3,2.56,1.64,4.83,4.12,5.7,6.63.8,2.3-2.08,3.84-2.94,1.67Zm-2.91-10.74c-1.66-.66-.51-2.83.99-2.3.86.28,2.53,1.19,3.26,1.95,1.31,1.36-.42,3.56-1.54,2.27-.45-.52-2.08-1.67-2.72-1.92Zm2.75-3.1c-1.66-.59-.64-2.83.9-2.37.86.24,2.59,1.08,3.36,1.81,1.34,1.33-.35,3.59-1.5,2.34-.45-.49-2.08-1.53-2.75-1.78Z"/><path class="cls-1" d="m404.26,91.17c-.99,0-1.5-.77-1.5-1.57s.51-1.53,1.5-1.53l9.76.03v-4.46l-6.05.04c-.96,0-1.44-.77-1.44-1.54s.48-1.5,1.44-1.5l6.05.03v-4.08l-5.76.03c-.96,0-1.44-.77-1.44-1.5v-.07c-1.38,1.19-2.21,1.81-3.07,1.81-.99,0-1.7-.84-1.7-1.74,0-.59.29-1.19.99-1.57,3.49-1.92,7.14-5.93,9.41-9.14.74-1.05,1.79-1.64,2.85-1.64s2.18.56,3.14,1.64c2.94,3.38,6.08,6.14,9.66,8.13.61.35.86.87.86,1.43,0,.98-.8,1.99-1.86,1.99-.16,0-.83-.03-2.66-1.46.06.21.13.42.13.63,0,.77-.51,1.5-1.47,1.5l-5.92-.03v4.08l5.86-.03c.96,0,1.47.77,1.47,1.53s-.48,1.5-1.47,1.5l-5.86-.04v4.46l9.73-.03c.93,0,1.44.8,1.44,1.6s-.48,1.5-1.44,1.5h-22.65Zm19.07-17.58c-2.37-1.95-4.9-4.57-6.82-6.91-.38-.49-.67-.73-.96-.73s-.54.24-.9.73c-1.63,2.23-3.9,4.78-6.18,6.91h14.85Z"/><path class="cls-1" d="m454.91,69.02c2.37.03,4.1,1.26,4.26,4.33.03.91.1,2.13.1,3.49,0,8.41-1.44,15.24-8.7,15.24-1.15,0-2.4-.17-3.71-.56-.83-.24-1.25-1.01-1.25-1.78,0-.91.54-1.74,1.5-1.74.16,0,.35,0,.54.07,1.02.31,1.98.49,2.88.49,2.37,0,5.47-1.05,5.47-11.58,0-3.73-.06-4.78-1.6-4.78-.58-.04-1.44-.04-2.46-.04s-2.21,0-3.46.04c-.86,8.62-3.74,16.43-12.22,20.23-.26.1-.51.17-.77.17-.99,0-1.66-.98-1.66-1.92,0-.63.32-1.29,1.06-1.6,7.23-3.17,9.6-9.59,10.3-16.85-4.32.04-8.38.1-8.38.1h-.03c-.93,0-1.41-.8-1.41-1.6s.48-1.6,1.44-1.6c0,0,4.16-.03,8.58-.07.06-1.71.06-3.49.06-5.23v-.04c0-1.12.86-1.71,1.73-1.71s1.63.56,1.63,1.64c0,1.78,0,3.52-.1,5.3h6.21Z"/><path class="cls-1" d="m474.62,74.26c.32-.66.61-1.22,1.02-1.81.51-.73.35-.7-.26-.49-2.4.84-1.86.84-4.03,1.74-1.02.42-1.92.77-2.88,1.05-2.82.84-3.68-3.17-1.12-3.77.67-.17,2.53-.56,3.55-.84,1.57-.42,4.38-1.12,7.65-2.13,3.3-1.01,5.89-1.85,8.7-2.06,1.98-.14,2.53,1.57,2.18,2.69-.19.59-.9,1.29-3.14,1.15-1.63-.1-3.65.56-4.74.98-1.79.7-3.42,2.79-4.13,4.08-2.82,5.13-.67,12.45,6.5,12.17,3.36-.14,3.58,3.98.19,3.94-9.66-.03-12.99-9.7-9.5-16.71Zm9.85,2.3c-1.7-.8-.42-2.96,1.15-2.34.9.35,2.62,1.33,3.36,2.2,1.31,1.53-.67,3.77-1.79,2.34-.45-.56-2.05-1.88-2.72-2.2Zm3.23-3.03c-1.73-.73-.48-2.96,1.09-2.41.9.31,2.62,1.26,3.39,2.09,1.34,1.47-.54,3.77-1.7,2.37-.45-.56-2.11-1.78-2.78-2.06Z"/><path class="cls-1" d="m506.69,85c-4.77,1.99-8.67,3-8.9,3-.8,0-1.31-.87-1.31-1.67,0-.66.32-1.26.99-1.43.67-.14,1.38-.31,2.05-.49v-18.24h-1.28c-.9,0-1.38-.7-1.38-1.4s.48-1.4,1.38-1.4h12.96c.93,0,1.38.7,1.38,1.4s-.45,1.4-1.38,1.4h-1.57v22.99c.1-.14.22-.24.38-.35,2.24-1.43,4.06-3.17,5.5-5.13-2.56-4.57-3.46-9.21-3.46-10.26,0-.98.8-1.53,1.54-1.53.58,0,1.12.31,1.25,1.05.48,2.9,1.22,5.55,2.4,7.88,2.14-4.22,2.66-8.48,2.66-9.17s-.1-.7-3.78-.7c-1.5,0-3.14,0-4.51.07h-.06c-.93,0-1.41-.73-1.41-1.5s.51-1.57,1.47-1.57c1.15-.03,2.46-.03,3.74-.03,1.76,0,3.46,0,4.61.03,2.08.04,3.1,1.05,3.1,3.07,0,1.5-.8,7.33-4,12.77,1.41,1.81,3.2,3.35,5.38,4.46.67.35.93.91.93,1.5,0,.98-.7,1.92-1.73,1.92-.74,0-3.52-1.43-6.37-5.23-2.24,2.9-5.22,5.44-6.27,5.44-.58,0-1.09-.35-1.38-.8-.03,1.01-.77,1.5-1.47,1.5s-1.47-.52-1.47-1.6v-5.96Zm.03-18.84h-4.29v3.8h4.26l.03-3.8Zm-.03,6.45h-4.26v3.56h4.26v-3.56Zm0,6.21h-4.26v4.71c1.47-.49,2.88-1.01,4.26-1.53v-3.17Z"/><path class="cls-1" d="m536.58,89.32c4.96-3.52,7.78-11.06,5.57-18.35-1.06-3.49-4.1-2.2-5.02-.03-.93,2.13-.99,3.56-.83,6.59.16,3.38-3.3,3.35-3.49.84-.19-2.76.35-6.1.74-8.06.35-1.78.96-4.08,1.22-6.21.26-2.2,3.36-1.78,3.2.31-.1,1.19-.48,2.41-.83,3.24-.42.94-.1.49.22.03,2.34-3.28,6.5-1.85,7.81,2.09,2.34,7.05,1.18,16.22-6.34,22.25-2.59,2.09-4.93-.8-2.24-2.72Z"/><path class="cls-1" d="m556.06,90.23c-.7,0-1.41-.56-1.41-1.36,0-.28.06-.59.26-.91.86-1.54,1.66-4.01,1.86-6.03.1-.84.64-1.22,1.22-1.22.7,0,1.41.56,1.41,1.53,0,1.05-.99,5.41-2.08,7.22-.32.52-.8.77-1.25.77Zm4.03.7l.1-12.1c-1.63.24-3.58.49-3.78.49-.77,0-1.18-.7-1.18-1.4,0-.63.35-1.26,1.02-1.29.38-.03.86-.07,1.41-.1.58-.73,1.25-1.6,1.89-2.58-.99-1.12-2.88-2.69-3.62-3.24-.42-.31-.61-.73-.61-1.15,0-.7.54-1.36,1.28-1.36.19,0,.38.07.86.31.9-1.53,2.02-4.12,2.46-5.96.16-.7.7-.98,1.28-.98.77,0,1.6.56,1.6,1.43,0,.52-1.22,3.94-3.26,7.15.51.45,1.02.98,1.44,1.4,1.02-1.81,1.92-3.66,2.43-5.02.22-.63.7-.87,1.18-.87.77,0,1.6.63,1.6,1.53,0,1.15-3.14,6.24-5.09,9,1.22-.14,2.4-.28,3.2-.38-.13-.24-.32-.49-.45-.66-.19-.28-.29-.56-.29-.84,0-.63.58-1.12,1.22-1.12,1.57,0,3.17,3.94,3.17,4.85,0,1.01-.7,1.67-1.41,1.67-.77,0-.96-.45-1.31-1.78-.51.1-1.34.28-2.3.45l.06,12.56c0,1.05-.77,1.6-1.5,1.6s-1.41-.52-1.41-1.57v-.03Zm6.3-3.56c-.54,0-1.09-.35-1.22-1.19-.22-1.4-.74-2.76-1.38-3.87-.16-.28-.22-.52-.22-.77,0-.66.54-1.12,1.18-1.12,1.89,0,3.1,4.85,3.1,5.37,0,.98-.74,1.57-1.47,1.57Zm.26,3.87c-.93,0-1.38-.73-1.38-1.47s.45-1.5,1.38-1.5h2.59c0-5.23-.06-19.64-.06-21.8,0-3.45,2.27-3.52,6.05-3.52.9,0,1.82.03,2.62.07,2.11.1,3.42,1.15,3.46,3.45v21.8h1.31c.93,0,1.41.77,1.41,1.5s-.48,1.47-1.41,1.47h-15.97Zm11.68-20.2c0-2.06-.03-3.59-.03-4.08-.03-.8-.48-1.12-1.18-1.12-.54-.03-1.22-.03-1.89-.03s-1.38,0-1.92.03c-.7,0-1.12.31-1.15,1.12-.03.56-.03,2.09-.03,4.08h6.21Zm0,2.97h-6.21v5.27h6.24l-.03-5.27Zm.03,8.23h-6.24v6.03h6.24v-6.03Z"/><path class="cls-1" d="m601.44,85.63c0-1.6.22-2.58.16-4.15-.16-3.87-5.02-.59-5.92,1.15-.77,1.5-1.66,3.03-2.02,4.74-.58,2.69-1.28,2.86-1.92,2.96-1.12.17-2.62-.66-1.89-2.69,1.44-3.94,3.26-7.43,5.12-10.57,1.86-3.14,3.52-6.1,5.09-8.83.54-.98,1.41-2.2,1.76-2.9,1.06-2.06,4.03-.31,2.98,1.88-.26.49-.48.87-.74,1.22s-.58.73-.93,1.19c-1.54,1.88-2.56,3.35-3.39,4.64-.83,1.29-1.47,2.41-2.18,3.56-.22.35-.13.28.1.07,1.15-1.12,6.69-2.76,7.14,3.14.1,1.36-.16,2.55-.16,3.84,0,3.1,2.75,2.72,4.64.87,1.63-1.6,2.34-3.28,2.91-4.88.93-2.58,4.29-.8,3.07,1.81-.9,1.92-2.14,4.19-4.03,5.79-3.46,2.96-9.85,3.73-9.79-2.86Z"/><path class="cls-1" d="m630.15,74.26c.32-.66.61-1.22,1.02-1.81.51-.73.35-.7-.26-.49-2.4.84-1.86.84-4.03,1.74-1.02.42-1.92.77-2.88,1.05-2.82.84-3.68-3.17-1.12-3.77.67-.17,2.53-.56,3.55-.84,1.57-.42,4.38-1.12,7.65-2.13,3.3-1.01,5.89-1.85,8.7-2.06,1.98-.14,2.53,1.57,2.18,2.69-.19.59-.9,1.29-3.14,1.15-1.63-.1-3.65.56-4.74.98-1.79.7-3.42,2.79-4.13,4.08-2.82,5.13-.67,12.45,6.5,12.17,3.36-.14,3.58,3.98.19,3.94-9.66-.03-12.99-9.7-9.5-16.71Zm9.85,2.3c-1.7-.8-.42-2.96,1.15-2.34.9.35,2.62,1.33,3.36,2.2,1.31,1.53-.67,3.77-1.79,2.34-.45-.56-2.05-1.88-2.72-2.2Zm3.23-3.03c-1.73-.73-.48-2.96,1.09-2.41.9.31,2.62,1.26,3.39,2.09,1.34,1.47-.54,3.77-1.7,2.37-.45-.56-2.11-1.78-2.78-2.06Z"/><path class="cls-1" d="m658.63,86.5c-2.3-2.72-3.36-6.77-3.62-11.16-.13-1.99-.19-2.62-.16-3.87.06-2.2,3.17-2.65,3.26-.04.06,1.36-.06,1.43,0,3.03.13,3.66.74,7.12,2.53,9,.83.87,1.25.98,1.95-.07.38-.59.83-1.5,1.06-2.06.86-2.02,3.52-.56,2.91,1.26-.32.98-.9,2.06-1.25,2.69-2.05,3.63-4.9,3.31-6.69,1.22Zm17.31-6.14c-.51-2.79-1.82-5.48-3.55-6.77-1.54-1.15.19-3.73,2.11-2.16,2.27,1.85,4.48,5.13,4.8,8.09.26,2.55-2.91,3.24-3.36.84Z"/><path class="cls-1" d="m695.42,71.67c-1.66.28-3.26.45-5.02.42-2.46-.07-2.59-3.7.32-3.31,1.31.17,2.78.1,4.96-.24-.03-1.85-.03-3.49,0-4.6.06-2.69,3.39-2.06,3.26-.03-.1,1.26-.16,2.65-.19,4.05.67-.14,1.41-.35,2.18-.52,2.11-.52,2.98,2.72.19,3.21-.86.14-1.66.31-2.4.45,0,1.29,0,2.58.03,3.87.77-.24,1.57-.49,2.43-.8,2.37-.84,3.58,2.37.74,3.24-1.12.35-2.14.66-3.07.91.06,1.19.13,2.27.22,3.28.1.94.19,2.2.26,3.45,1.6.66,2.98,1.6,3.97,2.48,2.14,1.92.06,5.09-1.95,3.07-.67-.66-1.47-1.33-2.34-1.88-1.12,2.96-5.02,5.3-8.96,3.17-3.04-1.64-3.23-5.55.26-7.15,1.95-.91,4.1-.98,6.11-.59-.03-.73-.1-1.46-.16-2.27-.06-.84-.13-1.81-.19-2.9-2.53.52-4.22.63-5.82.38-2.27-.35-1.89-3.94.67-3.35.93.21,2.53.21,4.99-.31-.06-1.33-.13-2.69-.16-4.05l-.32.03Zm-4.13,15.56c-.83.38-.99,1.5-.1,1.99,1.95,1.05,4.45,0,4.93-1.95-1.73-.59-3.42-.7-4.83-.04Z"/><path class="cls-1" d="m722.24,81.58c-1.12-3.38.61-5.9,2.56-6.56.93-.31,1.89-.45,2.75-.31-.03-.77-.06-1.81-.1-2.83-2.69.28-5.34.7-7.01.98-2.3.38-3.81.84-4.77,1.01-2.14.42-2.78-3.07-.26-3.52,1.28-.24,3.36-.49,4.7-.73,1.6-.28,4.48-.66,7.29-.94v-.63c.03-2.16-.16-2.3-.16-3.42,0-2.55,3.23-2.3,3.36-.1.03.8-.06,2.41-.13,3.35,0,.17-.03.35-.03.52.93-.07,1.76-.1,2.46-.1,1.57,0,2.69-.04,4.86,0,2.69.07,2.56,3.77,0,3.56-2.27-.21-3.04-.21-5.02-.24-.74,0-1.5.04-2.34.07.03,1.12.06,2.2.06,3.21,0,.49.06,1.22.1,1.99,2.85,4.88-.54,12.28-3.94,15.24-2.14,1.85-4.93-.63-2.14-2.79,1.54-1.19,2.88-3.14,3.65-5.13-2.11,1.19-4.9.52-5.92-2.62Zm5.38-3.66c-.45-.42-1.38-.49-2.05-.14-.77.38-1.28,1.46-.93,2.65.58,1.88,3.36,1.88,3.68-.59.1-.73,0-1.05-.19-1.33-.16-.21-.32-.42-.51-.59Z"/><path class="cls-1" d="m747.87,92.81c-2.02,0-3.65-1.78-3.65-3.98s1.63-3.98,3.65-3.98,3.65,1.78,3.65,3.98-1.63,3.98-3.65,3.98Zm0-6.59c-1.34,0-2.43,1.15-2.43,2.62s1.09,2.65,2.43,2.65,2.43-1.19,2.43-2.65-1.09-2.62-2.43-2.62Z"/></svg>