<svg xmlns="http://www.w3.org/2000/svg" width="202.617" height="42.227" viewBox="0 0 202.617 42.227">
  <g id="logo-markoff" transform="translate(-27.757 -35.707)">
    <path id="パス_65" data-name="パス 65" d="M18.091-19.873l2.124-.659a30.329,30.329,0,0,0,1.77,4.8,23.554,23.554,0,0,0,2.283,4.016,6.629,6.629,0,0,0-1.9,1.9A34.266,34.266,0,0,1,18.091-19.873Zm-4.712-.586,2.393.488a26.611,26.611,0,0,1-4.346,10.3,9.325,9.325,0,0,0-2-1.562Q12.134-14.4,13.379-20.459ZM10.425-7.446,9.058-5.615a27.571,27.571,0,0,0-2-3.467V1.953H4.883V-8.887A23.663,23.663,0,0,1,1.9-2.515a13.327,13.327,0,0,0-1.147-2.1,18,18,0,0,0,2.222-4A31.227,31.227,0,0,0,4.614-13.6H1.343v-2.148h3.54v-5.225H7.056v5.225h3.052V-13.6H7.056v1.782q.513.586,1.746,2.2T10.425-7.446Zm7.788,1.563,2-1A35.685,35.685,0,0,1,24.243.879L22.07,2Q21.948,1.587,21.411.2,12.109.9,9.937,1.05L9.521-1.294l2.588-.122a64.2,64.2,0,0,0,3.125-9.961l2.637.659a95.647,95.647,0,0,1-3.418,9.18q1.074-.049,3.21-.183T20.435-1.9Q19.214-4.3,18.213-5.884Zm26.6-6.958h-12.7V-9.4q0,.83-.024,1.245h12.72Zm2.368-2.148V-4.541H44.814v-1.44H31.924Q31.24-.708,28.286,2.075a8.052,8.052,0,0,0-.854-.879,8.537,8.537,0,0,0-.952-.781,9.745,9.745,0,0,0,1.758-2.246A9.362,9.362,0,0,0,29.25-4.468a20.066,20.066,0,0,0,.4-2.49q.1-1.1.1-2.49V-14.99ZM27.407-19.6H48.916v2.222H27.407ZM64.849-2.124V-.415H75.054v1.9H52.52v-1.9h3.906V-4.468h2.2V-.415h3.955V-5.469H54.106V-7.324H73.442v1.855H64.849v1.587h6.86v1.758Zm2.612-14.355v.024a10.953,10.953,0,0,0,2,3.174,8.937,8.937,0,0,0,1.66-3.2Zm-5.713,2.856v-1.758H59.478v1.758Zm-6.494-1.758v1.758h2.173v-1.758Zm19.7-1.1H73.32a13.022,13.022,0,0,1-2.393,4.614A12.059,12.059,0,0,0,75.371-9.57a5.4,5.4,0,0,0-1.294,1.831,13.579,13.579,0,0,1-4.565-2.71,15.452,15.452,0,0,1-4.834,2.612A5.822,5.822,0,0,0,63.359-9.5,13.206,13.206,0,0,0,68.12-11.89a14.3,14.3,0,0,1-1.831-2.832,10.976,10.976,0,0,1-1.343,1.489,11.931,11.931,0,0,0-1.27-1.367v2.441H59.966q2.246,1.074,3.833,1.929L62.651-8.716a36.761,36.761,0,0,0-3.174-2.051v2.808H57.427v-2.783A15.439,15.439,0,0,1,53.618-7.91a6.372,6.372,0,0,0-1.343-1.44,13.9,13.9,0,0,0,4.3-2.808H53.4V-16.8h4.028v-1.1H52.739v-1.636h4.688v-1.44h2.051v1.44h4.688V-17.9H59.478v1.1h4.2v1.733a12.213,12.213,0,0,0,3.369-5.908l2.124.488a22.92,22.92,0,0,1-.806,2.173h6.592Zm22.72-4.1,2.2.879A24.241,24.241,0,0,1,92.744-13.7a6.668,6.668,0,0,0-1.66-1.66,23.8,23.8,0,0,0,3.7-2.38A15.024,15.024,0,0,0,97.676-20.581Zm.635,6.812,2.124.9a23.43,23.43,0,0,1-3.381,3.5,25.832,25.832,0,0,1-4.016,2.844,8.019,8.019,0,0,0-1.66-1.66,24.931,24.931,0,0,0,3.906-2.539A15.244,15.244,0,0,0,98.311-13.77ZM83.2-11.353h3.491v-5.981H83.2ZM91.523-9.18H88.984V1.978H86.689V-9.18H83.174a24.753,24.753,0,0,1-.879,6.335,12.31,12.31,0,0,1-2.832,4.993A5.973,5.973,0,0,0,77.754.586,10.971,10.971,0,0,0,80.22-3.748,21.047,21.047,0,0,0,81-9.18H77.949v-2.173h3.076v-5.981H78.34v-2.148H91.182v2.148h-2.2v5.981h2.539ZM98.8-7.129l2.2.879a19.8,19.8,0,0,1-3.955,4.688,23.429,23.429,0,0,1-5.3,3.516A6.99,6.99,0,0,0,90.107.073a20.479,20.479,0,0,0,5.029-3.027A15.339,15.339,0,0,0,98.8-7.129Zm15.029-7.935h-4.346a20.922,20.922,0,0,1-1.685,3.2,36.031,36.031,0,0,1,4.175,2.905A27.235,27.235,0,0,0,113.828-15.063Zm7.715-5.884V-9.424a22.243,22.243,0,0,0,5.518,3.662,6.424,6.424,0,0,0-1.66,2,21.038,21.038,0,0,1-3.857-2.588V1.9H119.15V-8.618a27.12,27.12,0,0,1-3.418-4.517Q113.071-2.393,105.674,1.807a7.029,7.029,0,0,0-.891-.977,4.921,4.921,0,0,0-.989-.757,17.409,17.409,0,0,0,7.1-6.934,30.879,30.879,0,0,0-4.3-3.247q-.464.61-1.465,1.733a13.081,13.081,0,0,0-1.953-1.538Q107.212-13.55,109.092-21l2.319.464q-.439,1.636-1.025,3.247h4.126l.415-.073,1.538.537q-.2,1.1-.366,2.124l.9-.342a20.468,20.468,0,0,0,2.148,3.125v-9.033Zm24.4,5.078L144.336-14.4a18.261,18.261,0,0,0-3.882-3.613l1.514-1.343A18.48,18.48,0,0,1,145.947-15.869Zm-.684,6.519L143.7-7.837a19.115,19.115,0,0,0-4.175-3.711l1.465-1.343A20.212,20.212,0,0,1,145.264-9.351ZM138.818-7.5l-1.392,1.831a25.74,25.74,0,0,0-1.953-3.32V1.953h-2.246V-8.179a23.842,23.842,0,0,1-3.2,5.835,18.048,18.048,0,0,0-1.123-2.148,18.623,18.623,0,0,0,2.2-3.3,28.162,28.162,0,0,0,1.807-4.028h-3.687v-2.173h4v-3.369q-1.465.269-3.149.513a6.021,6.021,0,0,0-.659-1.807,33.49,33.49,0,0,0,7.959-2.026l1.318,1.9a22.045,22.045,0,0,1-3.223.952v3.833h3.491v2.173h-3.491v.342q.562.586,1.77,2.026T138.818-7.5Zm13.4,2.515-3.076.537v6.4h-2.295V-4.053l-7.886,1.318-.342-2.222,8.228-1.367V-20.972h2.295V-6.689l2.734-.464Zm6.265-6.689-1.807.977a17.074,17.074,0,0,0-1.831-4.712l1.733-.83A14.55,14.55,0,0,1,158.486-11.67Zm6.152,3.735v5.029a6.1,6.1,0,0,0,3.711-5.029Zm-2.71-4.224v-2H177.48v2h-7.007v2.222h6.25V-.415a3.234,3.234,0,0,1-.208,1.306,1.519,1.519,0,0,1-.769.72,11.525,11.525,0,0,1-3.564.342,6.852,6.852,0,0,0-.732-2.026q1.9.073,2.637.024.439-.024.439-.415V-7.935H170.4q-.122.879-.2,1.2a32.351,32.351,0,0,1,4.15,3.979l-1.465,1.343a30.78,30.78,0,0,0-3.369-3.491,8.345,8.345,0,0,1-3.711,3.589,5.9,5.9,0,0,0-1.172-1.367V1.978h-2.075V-9.937h5.859v-2.222Zm6.738-6.055h9.009v2.051H160.854v5.347q0,8.838-3.931,12.744a7.72,7.72,0,0,0-.806-.842,6.259,6.259,0,0,0-.879-.72A11.982,11.982,0,0,0,158.315-6.2q-.586.342-1.66.952t-1.392.781l-.708-2.148q1.074-.439,4.053-1.953.049-1.611.049-2.271v-7.373h7.593v-2.759h2.417Zm32.217,4.468v-2.441h-10.01v2.441ZM188.8-18.164h5.762V-20.9h2.246v2.734h6.226V-13.5h-1.978v1.782H190.7V-13.5h-1.9ZM187.285-20l1.514.879q-1.66,4.932-2.368,6.641a7.783,7.783,0,0,1,2.075,5.2q0,2.295-1.025,2.979a3.236,3.236,0,0,1-1.367.488,10.38,10.38,0,0,1-1.636.024,4.171,4.171,0,0,0-.562-2,7.031,7.031,0,0,0,1.294.024,1.371,1.371,0,0,0,.757-.22q.464-.342.464-1.562a6.949,6.949,0,0,0-2.026-4.687q.854-2.271,1.758-5.591h-2.686v19.8h-2.051v-21.9h5.493Zm12.183,19.6h1.343q.342,0,.452-.537a17.475,17.475,0,0,0,.134-2.466,4.976,4.976,0,0,0,1.978.879,8.526,8.526,0,0,1-.647,3.32,1.77,1.77,0,0,1-1.672.879H199.1a2.337,2.337,0,0,1-1.868-.586,3.7,3.7,0,0,1-.476-2.222v-6.1h-2.417a23,23,0,0,1-.439,3.186,9.9,9.9,0,0,1-.94,2.515A6.086,6.086,0,0,1,191.167.525a11.065,11.065,0,0,1-2.881,1.453A4.107,4.107,0,0,0,187.737,1a4.1,4.1,0,0,0-.745-.83,6.74,6.74,0,0,0,3.882-2.6,10.424,10.424,0,0,0,1.245-4.8h-3.052V-9.351h13.965v2.124h-4.077v6.079a1.391,1.391,0,0,0,.085.635Q199.126-.391,199.468-.391Z" transform="translate(27 75.785)" fill="#222"/>
    <path id="パス_66" data-name="パス 66" d="M11.414-.656V.41H2.227V.938H1.113V-9.457h10.02v1.066H2.227V-.656ZM10.9-4.125H7.5a4.556,4.556,0,0,0,3.516,2.133,3.014,3.014,0,0,0-.656.938A5.38,5.38,0,0,1,6.926-3.2,5.658,5.658,0,0,1,3.492-1.02,3.353,3.353,0,0,0,2.8-1.852Q5.66-2.6,6.129-4.125H2.871v-.961H6.258V-6.293h-1.7a7.332,7.332,0,0,1-.844.9,4.63,4.63,0,0,0-.926-.562A5.188,5.188,0,0,0,4.535-8.309l1.055.27a6.85,6.85,0,0,1-.387.8h5.156v.949h-3v1.207H10.9Zm3.427-1.547-.879.387a8.4,8.4,0,0,0-.7-2.355l.82-.34A7.516,7.516,0,0,1,14.326-5.672Zm2.707,4.125,1.008.27A6.485,6.485,0,0,1,16.154.773a3.509,3.509,0,0,0-.832-.668A5.191,5.191,0,0,0,17.033-1.547Zm3.879.457.855-.445A11.185,11.185,0,0,1,23.549.3l-.9.48A9.175,9.175,0,0,0,20.912-1.09Zm.457-2.648v-.621H17.877v.621Zm0,1.277v-.621H17.877v.621Zm-1.207-3.82h-1a7.784,7.784,0,0,1-.926,1.23h2.824A6.366,6.366,0,0,1,20.162-6.281Zm2.613.047.668.469a5.341,5.341,0,0,1-.914.785,5.352,5.352,0,0,0,1.313.7,2.991,2.991,0,0,0-.633.8,4.944,4.944,0,0,1-.867-.48v2.2H20.15V-.07a1.384,1.384,0,0,1-.094.58.635.635,0,0,1-.363.3,5.718,5.718,0,0,1-1.641.152,3.1,3.1,0,0,0-.352-.9q.9.023,1.172,0,.211,0,.211-.164V-1.758H16.916v-2.18q-.68.422-.867.516a2.121,2.121,0,0,0-.633-.691A8.133,8.133,0,0,1,13.728.949a3.421,3.421,0,0,0-.8-.75A5.92,5.92,0,0,0,14.3-3.2q-.715.457-1.359.8l-.34-1q.4-.164,1.793-.9.012-.316.012-.891V-9.035H18.24v-1.031H19.4v1.031h4.313v.961H15.451v2.883q0,.293-.023,1A6.55,6.55,0,0,0,16.74-5a9.378,9.378,0,0,0-.832-.656l.6-.5q.094.059.855.633a5.389,5.389,0,0,0,.645-.75H15.931v-.855h2.6a5.376,5.376,0,0,0,.352-.937l1.043.129a6.331,6.331,0,0,1-.3.809H23.6v.855h-2.4a5.122,5.122,0,0,0,.75.832A7.251,7.251,0,0,0,22.775-6.234Zm5.76-2.555-.645.914a8.091,8.091,0,0,0-2.285-1.3l.609-.832A7.971,7.971,0,0,1,28.535-8.789Zm-.656,3.117-.609.949a6.848,6.848,0,0,0-1.043-.639,9.692,9.692,0,0,0-1.277-.557l.574-.867A8.85,8.85,0,0,1,27.878-5.672Zm-.422,1.945.844.715a38.863,38.863,0,0,1-2,3.8L25.335.07A31.851,31.851,0,0,0,27.457-3.727Zm8.637,4.1L35.05.961a8.943,8.943,0,0,0-.457-.984q-1.418.117-6.223.457L28.207-.691l.961-.047a21.969,21.969,0,0,0,1.3-3.375H28.195V-5.168h3.223V-7.16H28.8V-8.215h2.613v-1.852h1.148v1.852h2.742V-7.16H32.566v1.992h3.3v1.055H31.8a34.924,34.924,0,0,1-1.43,3.3q1.418-.07,3.633-.2a14.9,14.9,0,0,0-1.113-1.559l.961-.5a16.346,16.346,0,0,1,1.324,1.764A9.638,9.638,0,0,1,36.093.375ZM41.935-9.738H43.2q0,.035-.012.246t-.023.34q.035.445.088.9t.211,1.225a14.311,14.311,0,0,0,.381,1.465,11.227,11.227,0,0,0,.633,1.529A9.517,9.517,0,0,0,45.4-2.514a8.338,8.338,0,0,0,1.283,1.336A7.268,7.268,0,0,0,48.38-.105a3.383,3.383,0,0,0-.844.938q-3.6-1.746-4.863-6.469A9.784,9.784,0,0,1,38.056.844a3.128,3.128,0,0,0-.926-.879,8.391,8.391,0,0,0,1.5-1.008A7.2,7.2,0,0,0,39.779-2.25a11.34,11.34,0,0,0,.832-1.295,7.311,7.311,0,0,0,.58-1.365q.217-.7.369-1.318a8.948,8.948,0,0,0,.217-1.254q.064-.639.1-1.066t.047-.861Q41.935-9.645,41.935-9.738Zm12.627,6.41-.68.914a18.771,18.771,0,0,0-1.312-1.418V.949h-1.1V-3.48a10.305,10.305,0,0,1-1.676,1.348,3.6,3.6,0,0,0-.551-1.031,9.368,9.368,0,0,0,1.992-1.582,9.612,9.612,0,0,0,1.57-2.1H49.651v-1.02h1.816v-2.2h1.1v2.2H53.4l.188-.035.633.422A11.308,11.308,0,0,1,52.733-4.9Q53.741-4.078,54.562-3.328ZM57.9-.492h2.672v1.1H53.858v-1.1h2.906v-4.7H54.339v-1.09h2.426V-9.973H57.9v3.691h2.426v1.09H57.9Zm6.7-4.395.8-.422a10.556,10.556,0,0,1,.844,1.066A4.859,4.859,0,0,1,66.8-3.234l-.844.469A5.1,5.1,0,0,0,65.419-3.8,9.231,9.231,0,0,0,64.6-4.887ZM70.645-6.7v.961H69.157V-2.2a1.44,1.44,0,0,1-.111.639.735.735,0,0,1-.393.334,6.459,6.459,0,0,1-1.863.164,4.014,4.014,0,0,0-.3-.961q.293.012,1.395.012.223-.012.223-.2V-5.742H63.848V-6.7H68.1V-8.074h1.055V-6.7ZM63.309-.645h7.77V-8.473h-7.77ZM62.2-9.539H72.239V.938h-1.16V.422h-7.77V.938H62.2ZM76.909-1.711H82.03v-.727H76.909Zm5.121-2.2H76.909V-3.2H82.03Zm1.137-.844v4.57a1.321,1.321,0,0,1-.123.639A.748.748,0,0,1,82.6.773a9.046,9.046,0,0,1-2.086.141,3.517,3.517,0,0,0-.34-.9q.656.023,1.594.023a.365.365,0,0,0,.205-.059A.23.23,0,0,0,82.03-.2V-.961H76.909V.961h-1.1V-4.758Zm-3.2-1.5h4.711v.867H74.2v-.867h4.641V-7h-3.48v-.82h3.48v-.668H74.928v-.867h3.914v-.715h1.125v.715h4.09v.867h-4.09v.668h3.586V-7H79.967ZM95.582-4.312v-.656H92.91v.656Zm0,1.336v-.68H92.91v.68Zm0,1.336v-.691H92.91v.691Zm1.441-4.641H94.762q-.047.117-.129.346t-.105.287h2.1V-.973H91.914V-5.648h1.617a5.213,5.213,0,0,0,.152-.633h-2.3v-.855h5.637ZM96.4-9.773v2.063H86.981V-9.773h1.113v1.16h3v-1.465h1.137v1.465h3v-1.16ZM87.614-4.359V-5q-.691.551-.937.715a2.678,2.678,0,0,0-.334-.393A2.42,2.42,0,0,0,85.961-5a7.07,7.07,0,0,0,2.461-2.437h.984A18.446,18.446,0,0,1,91.668-5.52l-.68.82a14.42,14.42,0,0,0-1.922-1.84,12.33,12.33,0,0,1-1.289,1.383H90.52v.8Zm3.633.691v2.426a1.4,1.4,0,0,1-.082.533.633.633,0,0,1-.3.311,3.994,3.994,0,0,1-1.324.141,3.258,3.258,0,0,0-.34-.855,8.407,8.407,0,0,0,.926,0q.141,0,.141-.152v-1.5h-1.3v3.7H87.953v-3.7H86.512v-.9ZM92.864-.809l.984.316A6.2,6.2,0,0,1,91.633.961a6.118,6.118,0,0,0-.82-.68A5.453,5.453,0,0,0,92.864-.809Zm1.758.422.844-.469A9,9,0,0,1,97.27.469l-.891.516A8.533,8.533,0,0,0,94.621-.387Zm6.709-6.047h5.25a11.379,11.379,0,0,1-2.7-2.543A11.378,11.378,0,0,1,101.33-6.434ZM101.1-5.4V-6.27A15.218,15.218,0,0,1,99.01-5.016a3.12,3.12,0,0,0-.656-.914,12.5,12.5,0,0,0,2.859-1.846,9.858,9.858,0,0,0,2.051-2.279h1.148a11.159,11.159,0,0,0,2.314,2.35,11.65,11.65,0,0,0,2.818,1.611,4.671,4.671,0,0,0-.7,1.008,15.812,15.812,0,0,1-2.121-1.254V-5.4Zm-2.062,2.3V-4.148h9.855v1.043h-5.5q-.785,1.605-1.277,2.473.773-.023,2.314-.094T106.4-.809a17.207,17.207,0,0,0-1.395-1.418l.961-.516a16.524,16.524,0,0,1,1.6,1.553A10.787,10.787,0,0,1,108.76.34l-1.02.633a9.115,9.115,0,0,0-.527-.785q-4.875.234-7.945.363l-.152-1.09L100.9-.6a18.52,18.52,0,0,0,1.113-2.508Z" transform="translate(27 45.785)" fill="#222"/>
  </g>
</svg>
