<?xml version="1.0" encoding="UTF-8"?><svg id="_レイヤー_1" xmlns="http://www.w3.org/2000/svg" viewBox="0 0 297.53 131.85"><defs><style>.cls-1{fill:#fff;}</style></defs><path class="cls-1" d="m2.59,21.94c0,.55-.29.78-.6.78s-.65-.29-.67-.76c-.02-2.25-.05-4.97-.05-7.79,0-3.9.02-7.92.07-11.04C1.37,1.33,2.28.1,4.06.03c.41-.03.79-.03,1.18-.03.84,0,1.58.03,2.45.05.46,0,.65.34.65.68s-.22.68-.62.68h-.1c-.14-.03-.82-.08-3.31-.08-.96.03-1.66.6-1.7,1.94-.07,1.73-.1,4.08-.1,6.64,0,4.08.07,8.66.1,12v.03Z"/><path class="cls-1" d="m26.23,12.58c-.22,1.8-.7,3.43-1.37,4.79,2.35,1.12,5.38,3.24,5.38,4.5,0,.73-.62,1.39-1.32,1.39-.31,0-.62-.13-.91-.44-1.27-1.44-2.69-2.62-4.34-3.53-2.95,3.71-8.02,4.37-10.58,4.37-.89,0-1.34-.65-1.34-1.31,0-.58.41-1.15,1.25-1.15,3.6,0,6.58-.81,8.5-2.9-1.01-.37-2.09-.65-3.24-.84-.38,1.02-.67,1.73-1.68,1.73-.6,0-1.13-.37-1.13-.99,0-.18.05-.37.14-.6.74-1.6,1.39-3.3,1.92-5h-4.87c-.7,0-1.03-.55-1.03-1.12s.34-1.1,1.03-1.1h5.52c.26-.99.5-1.99.7-2.98.14-.68.67-.97,1.2-.97.6,0,1.2.39,1.2,1.07,0,.16-.34,1.65-.67,2.88h9.91c.7,0,1.06.55,1.06,1.1s-.36,1.12-1.06,1.12h-4.25Zm-3.41-9.1c1.78,0,3.58.03,5.38.05,1.3.03,2.64,1.18,2.69,2.72.02.39.02.84.02,1.26,0,.97-.05,2.01-1.32,2.01-.6,0-1.2-.37-1.2-1.12v-.05c0-2.28-.05-2.62-1.46-2.64-1.87-.03-3.98-.05-6.05-.05-1.68,0-3.34.03-4.78.05-1.3.03-1.46.44-1.54,1.41v1.26c0,.76-.6,1.18-1.2,1.18s-1.18-.39-1.2-1.23c0-.34-.02-.68-.02-1.02,0-.37.02-.76.02-1.18.05-1.28.91-2.56,2.76-2.59,1.8-.03,3.6-.05,5.42-.05v-1.91c0-.78.62-1.18,1.25-1.18s1.22.39,1.22,1.18v1.91Zm-2.88,9.1c-.29.97-.65,1.94-.98,2.9,1.25.18,2.54.52,3.77.97.55-1.07.89-2.35,1.08-3.87h-3.86Z"/><path class="cls-1" d="m37.1,22.62c-.74,0-1.13-.58-1.13-1.18s.38-1.15,1.13-1.15l7.32.03v-3.35l-4.54.03c-.72,0-1.08-.58-1.08-1.15s.36-1.12,1.08-1.12l4.54.03v-3.06l-4.32.03c-.72,0-1.08-.58-1.08-1.12v-.05c-1.03.89-1.66,1.36-2.3,1.36-.74,0-1.27-.63-1.27-1.31,0-.44.22-.89.74-1.18,2.62-1.44,5.35-4.45,7.06-6.85.55-.78,1.34-1.23,2.14-1.23s1.63.42,2.35,1.23c2.21,2.54,4.56,4.6,7.25,6.09.46.26.65.65.65,1.07,0,.73-.6,1.49-1.39,1.49-.12,0-.62-.03-1.99-1.1.05.16.1.31.1.47,0,.58-.38,1.12-1.1,1.12l-4.44-.03v3.06l4.39-.03c.72,0,1.1.58,1.1,1.15s-.36,1.12-1.1,1.12l-4.39-.03v3.35l7.3-.03c.7,0,1.08.6,1.08,1.2s-.36,1.12-1.08,1.12h-16.99Zm14.3-13.18c-1.78-1.46-3.67-3.43-5.11-5.18-.29-.37-.5-.55-.72-.55s-.41.18-.67.55c-1.22,1.67-2.93,3.58-4.63,5.18h11.14Z"/><path class="cls-1" d="m67.32,9.94c.24-.5.46-.92.77-1.36.38-.55.26-.52-.19-.37-1.8.63-1.39.63-3.02,1.31-.77.31-1.44.58-2.16.78-2.11.63-2.76-2.38-.84-2.82.5-.13,1.9-.42,2.66-.63,1.18-.31,3.29-.84,5.74-1.6,2.47-.76,4.42-1.39,6.53-1.54,1.49-.1,1.9,1.18,1.63,2.01-.14.44-.67.97-2.35.86-1.22-.08-2.74.42-3.55.73-1.34.52-2.57,2.09-3.1,3.06-2.11,3.84-.5,9.34,4.87,9.13,2.52-.1,2.69,2.98.14,2.96-7.25-.03-9.75-7.27-7.13-12.53Zm7.39,1.73c-1.27-.6-.31-2.22.86-1.75.67.26,1.97.99,2.52,1.65.98,1.15-.5,2.82-1.34,1.75-.34-.42-1.54-1.41-2.04-1.65Zm2.42-2.27c-1.3-.55-.36-2.22.82-1.8.67.24,1.97.94,2.54,1.57,1.01,1.1-.41,2.82-1.27,1.78-.34-.42-1.58-1.33-2.09-1.54Z"/><path class="cls-1" d="m93.29,11.77v10.88c0,.73-.48,1.07-.98,1.07s-.98-.34-.98-1.07v-2.33c-1.85.65-6.26,2.14-7.2,2.14-.65,0-1.01-.55-1.01-1.1,0-.47.26-.97.86-1.07.7-.1,1.46-.29,2.26-.47v-8.06h-2.18c-.67,0-.98-.5-.98-.99,0-.55.34-1.1.98-1.1h19.06c.62,0,.94.52.94,1.05s-.31,1.05-.94,1.05h-9.82Zm.84-3.14c-1.61,0-3.19-.03-4.7-.05-2.47-.03-2.59-1.41-2.59-3.87s.19-3.66,2.52-3.77c.96-.05,2.42-.08,3.98-.08,1.8,0,3.7.03,4.94.08,2.23.08,2.28,1.99,2.28,3.56,0,2.3-.02,4-2.45,4.08-1.34.03-2.66.05-3.98.05Zm-2.81,3.14h-3.12v1.31h3.12v-1.31Zm0,2.88h-3.12v1.28h3.12v-1.28Zm0,2.88h-3.12v1.78c1.15-.31,2.28-.63,3.12-.89v-.89Zm-2.4-11.9c0,.16.02.29.02.42.05.68.34.84,1.08.84,1.15.03,2.64.03,4.13.03,1.1,0,2.23,0,3.26-.03.58,0,.96-.24.98-.86,0-.13.02-.26.02-.39h-9.5Zm9.5-1.62c0-.13-.02-.26-.02-.37-.05-.63-.24-.86-.98-.89-.89-.03-2.18-.05-3.48-.05-1.58,0-3.14.03-3.94.05-.82.03-1.06.44-1.06.97v.29h9.48Zm-3.86,10.98c-.55,0-.82-.5-.82-.97,0-.52.26-1.02.82-1.05.98-.03,1.92-.03,2.86-.03s1.85,0,2.83.05c1.22.05,1.61.84,1.61,1.67,0,1.88-2.04,4.71-2.16,4.86,1.01.68,2.11,1.2,3.31,1.52.53.16.79.6.79,1.05,0,.63-.46,1.28-1.2,1.28-1.01,0-3.12-1.23-4.34-2.22-1.34,1.26-2.95,2.09-3.5,2.09-.62,0-1.06-.58-1.06-1.15,0-.39.19-.78.67-.97.96-.39,1.75-.86,2.4-1.41-1.2-1.31-2.18-2.96-2.18-3.48,0-.58.6-1.05,1.15-1.05.26,0,.5.13.65.42.48,1.02,1.08,1.88,1.78,2.62.74-1.05,1.34-2.59,1.34-2.96,0-.24-.19-.34-.36-.34h-.77c-1.13,0-2.3.03-3.79.05h-.02Z"/><path class="cls-1" d="m108.98,5.41c-.67,0-1.03-.52-1.03-1.07s.36-1.05,1.03-1.05h7.37v-1.67c0-.86.62-1.31,1.25-1.31s1.25.44,1.25,1.31v1.67h7.34c.62,0,.94.52.94,1.05,0,.55-.31,1.07-.94,1.07h-17.21Zm15.31,12.55c0-.84,0-1.75-.05-2.46-.02-.6-.43-1.05-1.1-1.07-1.82-.05-3.86-.05-5.86-.05s-3.86,0-5.42.05c-.6.03-1.03.47-1.06,1.07-.02,1.05-.02,2.35-.02,3.66s0,2.59.02,3.58v.05c0,.71-.55,1.05-1.13,1.05s-1.18-.37-1.2-1.1c-.02-1.15-.02-2.51-.02-3.9s0-2.75.02-3.92c.02-1.44,1.08-2.48,2.81-2.51,1.82-.03,3.91-.05,6.07-.05s4.37.03,6.41.05c1.66.03,2.71,1.05,2.78,2.46.07,1.39.07,2.88.07,3.61,0,.31,0,1.57.02,2.28v.08c0,1.44-.96,2.77-3.46,2.77-1.87,0-2.47-.39-2.47-1.28,0-.6.41-1.18,1.08-1.18.07,0,.17,0,.24.03.43.08.82.13,1.15.13.65,0,1.08-.21,1.08-.97,0,0,.02-1.1.02-2.38Zm-5.67-6.59c-1.56,0-3.24-.03-4.54-.05-1.9-.03-2.42-.58-2.42-2.35s.22-2.46,2.28-2.48c1.32-.03,2.9-.05,4.44-.05,4.63,0,5.21.05,5.21,2.33,0,2.51-.53,2.62-4.97,2.62Zm-1.15,4.18c4.13,0,4.92,0,4.92,2.46s-.6,2.77-5.42,2.77c-4.06,0-4.25-.55-4.25-2.72,0-1.18.02-2.38,1.94-2.46.79-.05,1.8-.05,2.81-.05Zm3.1-7.38c-.89-.03-1.9-.03-2.9-.03s-2.04,0-3.02.03c-.65,0-.79.16-.79.68q0,.78,4.15.78c3.36,0,3.36-.03,3.36-.78,0-.42,0-.68-.79-.68Zm-3.05,9c-.74,0-1.49.03-1.99.05-.29.03-.62.1-.62.92,0,.89.17.92,2.62.92q2.62,0,2.62-.94t-2.62-.94Z"/><path class="cls-1" d="m142.56,8.45c-.38,3.32-2.54,8.26-4.85,10.59-1.85,1.86-3.86.84-4.92-1.41-1.51-3.24.1-8.11,3.31-10.54,2.95-2.22,7.34-2.59,10.37-.6,3.72,2.43,4.32,7.24,2.23,10.98-1.13,2.01-3.48,3.64-5.86,4.32-2.11.6-2.86-2.04-.79-2.56,1.82-.44,3.67-1.57,4.46-2.93,1.7-2.93,1.06-6.36-1.32-8-.94-.65-1.94-.97-2.98-1.05.26.26.41.68.34,1.2Zm-5.33.5c-2.23,1.88-3.43,5.36-2.42,7.38.36.76.98,1.15,1.58.58,1.8-1.73,3.48-5.88,3.72-8.71.02-.31.1-.6.22-.81-1.1.26-2.18.81-3.1,1.57Z"/><path class="cls-1" d="m161.52,12.87c0,.55-.5.84-1.01.84s-1.01-.29-1.01-.84v-.03l.02-1.86c-1.58,1.57-3.46,2.96-4.03,2.96s-1.01-.58-1.01-1.12c0-.37.19-.73.62-.92,1.18-.5,2.52-1.39,3.72-2.48h-.91c-1.9-.05-1.9-1.05-1.9-2.25,0-.34,0-.68.02-1.05.05-.73.74-1.2,1.85-1.23.46,0,1.03-.03,1.61-.03v-.78h-3.53c-.6,0-.91-.47-.91-.94,0-.5.31-.97.89-.97h.02l3.53.05v-.86c0-.68.5-1.02,1.01-1.02s1.01.34,1.01,1.02v.86l3.5-.05h.02c.62,0,.91.44.91.92,0,.5-.31.99-.94.99l-3.5-.03v.81c.6,0,1.18.03,1.66.03,1.85.05,1.92.76,1.92,2.48,0,2.07-.67,2.07-3.65,2.07l.02.44c.1-.05.22-.08.34-.08.26,0,1.49.31,2.28.81.38.24.55.63.55,1.02,0,.58-.36,1.12-.82,1.12-.17,0-.36-.08-.55-.26-.5-.47-1.03-.78-1.78-1.07l.02,1.41v.03Zm-5.11,10.15c-.6,0-.91-.5-.91-.99s.31-.99.91-.99l2.95.03v-2.96c0-.71.55-1.07,1.08-1.07s1.1.37,1.1,1.07v2.96h2.62v-5l-6.36.03c-.62,0-.94-.47-.94-.97,0-.47.31-.97.94-.97h14.59c.62,0,.94.5.94.97,0,.5-.31.97-.94.97l-6.12-.03v1.49l4.85-.03c.62,0,.94.47.94.94s-.31.94-.94.94l-4.85-.03v1.67l7.46-.03c.6,0,.94.52.94,1.02s-.31.97-.94.97h-17.33Zm3.19-16.69c-.46,0-.84.03-1.13.03-.62,0-.67.29-.67.76,0,.6.1.81.7.81h1.1v-1.6Zm1.82.03v1.57c.46,0,.84-.03,1.13-.03.67-.03.67-.1.67-.94,0-.37,0-.58-.67-.6h-1.13Zm12.15-.99c-.34,1.28-.94,2.75-1.97,4.13,1.01.84,2.16,1.41,3.34,1.78.53.16.79.63.79,1.07,0,.6-.43,1.23-1.15,1.23-.77,0-2.62-.97-4.3-2.64-1.78,1.7-3.98,2.69-4.51,2.69-.6,0-1.03-.58-1.03-1.15,0-.39.22-.76.72-.94,1.51-.52,2.69-1.23,3.55-2.01-.62-.81-1.18-1.7-1.56-2.62-.12.16-.22.31-.31.44-.24.31-.55.47-.84.47-.5,0-.98-.42-.98-.94,0-.26.1-.52.31-.78.98-1.23,1.8-2.98,2.33-4.89.14-.5.53-.71.91-.71.5,0,1.06.39,1.06.99,0,.21-.12.76-.65,1.96l5.26-.05c.6,0,.89.5.89.99,0,.47-.29.97-.86.97h-.98Zm-4.78,0c.34,1.05.82,1.96,1.44,2.75.6-.92.98-1.86,1.2-2.75h-2.64Z"/><path class="cls-1" d="m186.22,11.56h-2.54c-.29,5.07-1.06,8.58-3.31,11.3-.31.39-.7.55-1.03.55-.65,0-1.2-.52-1.2-1.15,0-.26.1-.55.31-.81,2.23-2.75,2.93-5.75,3.12-9.89h-2.09c-.67,0-1.01-.55-1.01-1.1s.34-1.1,1.01-1.1h2.14v-1.57c0-1.28,0-2.56-.02-3.58h-1.42c-.67,0-1.01-.55-1.01-1.12s.34-1.1,1.01-1.1h9.55c.67,0,1.01.55,1.01,1.1s-.34,1.12-1.01,1.12h-1.25v5.15h1.9c.67,0,.98.55.98,1.1s-.31,1.1-.98,1.1h-1.9v10.64c0,.71-.55,1.05-1.13,1.05s-1.13-.34-1.13-1.05v-10.64Zm0-7.35h-2.35c0,1.33-.05,3.3-.1,5.15h2.45v-5.15Zm4.01,19.17c-.82,0-1.32-.65-1.32-1.31,0-.47.29-.92.91-1.1,3.53-.99,6.14-3.14,8.16-6.46.29-.47.65-.68.98-.68.65,0,1.22.68,1.22,1.44,0,.26-.05.52-.22.78-3.07,5.15-8.54,7.32-9.75,7.32Zm1.15-7.56c-.74,0-1.22-.65-1.22-1.28,0-.42.22-.81.7-1.05,2.86-1.31,4.68-3.24,6.38-5.75.29-.44.65-.6.98-.6.65,0,1.25.65,1.25,1.39,0,1.67-6.05,7.3-8.09,7.3Zm.17-6.98c-.72,0-1.2-.6-1.2-1.23,0-.42.22-.84.7-1.07,2.86-1.44,4.39-3.03,5.88-5.02.29-.39.62-.55.96-.55.65,0,1.22.63,1.22,1.36,0,.26-.1.52-.26.78-2.54,3.66-6.5,5.73-7.3,5.73Z"/><path class="cls-1" d="m215.57,12.27c-.91-.81-1.82-1.7-2.66-2.72l-.02-.03c-1.18,5.26-3.6,10.38-7.61,13.57-.36.29-.72.39-1.03.39-.74,0-1.3-.58-1.3-1.25,0-.37.19-.78.67-1.12,2.69-1.88,4.58-4.71,5.79-7.61-.72-.44-1.39-.73-2.23-1.02-.48-.16-.7-.52-.7-.94,0-.68.58-1.44,1.3-1.44.62,0,1.94.76,2.45,1.07.19-.65.82-2.98.82-4.39,0-.47-.14-.68-.6-.68h-.07s-1.2.05-2.14.08c-1.01,2.85-2.28,5.47-3.62,7.45-.36.52-.79.73-1.2.73-.62,0-1.15-.52-1.15-1.15,0-.26.1-.55.31-.84,2.11-2.8,3.53-6.15,4.44-10.33.17-.76.67-1.1,1.18-1.1.6,0,1.18.47,1.18,1.2,0,.13-.14.92-.43,1.83.91-.03,1.82-.03,2.21-.03,1.32.05,2.3.68,2.3,2.22,0,.08,0,.16-.22,1.62.12-.08.26-.13.38-.13.19,0,.38.1.55.29.48.55.96,1.02,1.42,1.46l-.07-7.06v-.03c0-.73.58-1.1,1.15-1.1s1.2.39,1.2,1.12l-.07,8.89c1.66,1.18,3.36,1.99,5.28,2.88.53.24.74.71.74,1.15,0,.71-.5,1.41-1.27,1.41-.67,0-3-1.39-4.75-2.64l.07,8.42c0,.71-.6,1.05-1.18,1.05s-1.18-.34-1.18-1.05l.07-10.2Z"/><path class="cls-1" d="m233.16,22.57c0,.73-.58,1.1-1.18,1.1s-1.18-.37-1.18-1.1v-.03l.1-8.32c-.82,1.41-1.78,2.72-2.64,3.74-.29.31-.6.47-.91.47-.65,0-1.22-.6-1.22-1.23,0-.31.12-.6.41-.89,1.3-1.26,3.24-3.82,4.39-6.22l-.02-.55-2.81.08h-.02c-.72,0-1.06-.55-1.06-1.12s.36-1.15,1.08-1.15h2.78l-.05-2.59c-.46.08-2.06.39-2.33.39-.72,0-1.1-.6-1.1-1.18,0-.52.31-1.05.96-1.12,2.26-.24,3.89-.65,5.95-1.54.14-.05.26-.08.38-.08.62,0,1.08.58,1.08,1.2,0,.92-.91,1.26-2.64,1.78-.02.55-.02,1.73-.05,3.14h2.45c.72,0,1.08.58,1.08,1.15s-.36,1.12-1.06,1.12h-.02l-2.5-.05v1.28c.1-.03.17-.03.24-.03.89,0,2.86,1.88,2.98,2.04.24.29.34.58.34.89,0,.65-.5,1.25-1.06,1.25-.26,0-.53-.13-.77-.44-.41-.58-1.13-1.23-1.73-1.7.02,3.95.12,9.68.12,9.68v.03Zm9.29-5.94l-5.74,1.75c-.14.05-.26.05-.38.05-.65,0-1.01-.55-1.01-1.12,0-.47.26-.94.82-1.12l6.31-1.94-.05-12.4c0-.76.55-1.12,1.13-1.12s1.18.39,1.18,1.12l-.05,11.74,2.35-.73c.12-.03.24-.05.34-.05.62,0,1.03.6,1.03,1.18,0,.44-.24.89-.77,1.05l-2.95.89.05,6.72c0,.68-.58,1.02-1.15,1.02s-1.15-.34-1.15-1.02l.05-6.02Zm-3.17-3.98c-.7-.78-1.68-1.49-2.21-1.86-.34-.21-.48-.52-.48-.81,0-.52.48-1.05,1.18-1.05.84,0,2.57,1.36,3,1.83.29.31.41.65.41.99,0,.71-.5,1.31-1.1,1.31-.26,0-.53-.13-.79-.42Zm.19-5.54c-.6-.86-1.51-1.7-2.06-2.12-.26-.21-.38-.44-.38-.68,0-.55.58-1.1,1.2-1.1s3.19,1.78,3.19,3.09c0,.73-.53,1.33-1.1,1.33-.29,0-.58-.16-.84-.52Z"/><path class="cls-1" d="m270.15,20.32c.72,0,1.06.6,1.06,1.18s-.34,1.2-1.03,1.2c-2.83.08-5.66.1-8.47.1-2.28,0-4.54-.03-6.7-.08-2.09-.05-3.1-1.23-3.17-3.17-.07-1.96-.1-4.18-.1-6.49,0-2.8.05-5.65.1-8.21.02-1.67,1.18-2.82,2.98-2.85,2.09-.05,4.63-.05,7.2-.05s5.21,0,7.44.05c.72,0,1.06.58,1.06,1.15s-.34,1.12-1.06,1.12c-3.1-.03-6.84-.05-9.94-.05-1.39,0-2.66,0-3.7.03-1.37.03-1.73.44-1.75,1.78-.05,2.12-.07,4.29-.07,6.41s.02,4.21.07,6.17c.05,1.49.53,1.73,1.99,1.78,1.44.03,3.05.05,4.75.05,2.93,0,6.14-.05,9.31-.13h.02Zm-1.7-7.22l-4.85-.08c1.13,1.99,3.05,3.37,4.92,4.08.6.24.86.73.86,1.23,0,.63-.43,1.23-1.15,1.23-1.34,0-4.58-2.41-6.02-5.23-2.11,4.76-6.34,5.36-6.41,5.36-.65,0-1.03-.6-1.03-1.18,0-.47.24-.94.86-1.12,2.83-.78,4.22-2.54,4.87-4.39l-4.54.1h-.02c-.65,0-.96-.5-.96-1.02s.34-1.07.98-1.07h4.97l.07-.78c.02-.52.02-1.15.02-1.78h-2.38c-1.18,1.91-1.63,2.04-2.04,2.04-.58,0-1.13-.44-1.13-.99,0-.21.07-.42.26-.63,1.08-1.23,1.63-2.22,2.23-3.84.17-.42.48-.58.84-.58.58,0,1.18.44,1.18,1.05,0,.05,0,.16-.29.89h7.22c.62,0,.94.52.94,1.02,0,.52-.31,1.05-.94,1.05h-3.67c0,.31-.02,1.94-.12,2.56h5.3c.65,0,.96.52.96,1.05s-.31,1.05-.94,1.05h-.02Z"/><path class="cls-1" d="m288.17,18.96c0,.55.05,1.36.05,1.99-.02,1.46-.67,2.77-2.88,2.77-.94,0-2.23-.03-2.23-1.28,0-.55.29-1.07.82-1.07.07,0,.12.03.17.03.46.08.86.16,1.18.16.58,0,.91-.24.91-.99v-2.14c-2.88,0-4.1-.16-4.18-2.33v-2.07c-.48.34-1.46,1.02-1.87,1.02-.34,0-.6-.18-.77-.42-.34,3.01-1.1,5.81-2.64,7.98-.31.44-.7.63-1.06.63-.6,0-1.13-.5-1.13-1.1,0-.21.07-.44.22-.65,1.49-2.12,2.21-4.45,2.54-6.9-.98.71-1.78,1.02-2.02,1.02-.65,0-1.06-.68-1.06-1.31,0-.44.19-.86.67-1.02,1.01-.31,1.8-.68,2.59-1.18.02-.55.02-1.07.02-1.62v-.68c-.19.37-.55.58-.89.58-.29,0-.58-.16-.74-.55-.34-.73-.77-1.39-1.13-1.73-.24-.24-.34-.47-.34-.71,0-.52.53-.94,1.03-.94.82,0,1.82,1.62,2.04,2.04-.02-.81-.07-1.62-.12-2.43v-.34c0-1.94.96-2.8,3.02-2.82,1.22-.03,2.78-.03,4.44-.05v-.94c0-.86.6-1.28,1.22-1.28s1.22.42,1.22,1.28v.92c2.47,0,4.92,0,6.67.05.77.03,1.1.55,1.1,1.05,0,.55-.38,1.1-1.1,1.1h-.02c-1.68-.03-3.96-.05-6.22-.05.07.13.1.24.1.39,0,.08,0,.16-.02.24l-.29.94,6.07-.05c.65,0,.98.5.98.99,0,.52-.34,1.02-.96,1.02h-.02l-3.89-.08c.48.76,1.01,1.44,1.63,2.01.55-.42,1.1-.99,1.44-1.44.17-.21.38-.31.58-.31.53,0,1.03.52,1.03,1.07,0,.68-1.42,1.6-1.68,1.75.7.5,1.42.92,2.18,1.26.41.18.58.55.58.89,0,.58-.43,1.18-1.06,1.18-.46,0-1.01-.31-2.33-1.33v.78c0,3.64-.19,4.16-3.89,4.16v.55Zm-8.21,4.34c-.62,0-1.01-.63-1.01-1.2,0-.42.19-.84.65-1.02,1.44-.55,2.4-1.1,3.55-2.22.17-.16.34-.24.5-.24.48,0,.94.58.94,1.18,0,.26-.07.52-.29.73-1.58,1.65-3.84,2.77-4.34,2.77Zm1.15-14.83h-.02c-.62,0-.96-.52-.96-1.02s.31-.99.98-.99l4.34.03c.12-.42.24-.81.31-1.23.02-.13.05-.24.1-.31-2.04,0-3.94.03-5.23.05-.79.03-1.15.39-1.15,1.07v.08c.05,1.31.1,2.64.1,4,0,1.07-.02,2.12-.1,3.16.07-.08.17-.16.29-.21.86-.42,1.63-.92,2.28-1.44-.43-.42-.79-.65-1.27-.92-.34-.18-.46-.44-.46-.71,0-.5.48-1.02,1.03-1.02s1.34.68,2.04,1.33c.53-.63.98-1.28,1.32-1.96l-3.6.08Zm8.95,4.84c-.02-.86-.46-.86-2.9-.86-2.71,0-3.17,0-3.22.94v.44h6.12v-.52Zm0,2.01h-6.12v.6c.07.81.38.81,3.02.81s3.05,0,3.1-.86v-.55Zm-3.34-6.96c-.43.86-.91,1.67-1.49,2.43.55,0,1.1-.03,1.68-.03.79,0,1.61.03,2.45.05-.62-.78-1.18-1.62-1.54-2.46h-1.1Zm6.02,14.49c-.84-.94-1.99-1.67-3.02-2.09-.43-.16-.6-.52-.6-.86,0-.55.41-1.1.98-1.1.43,0,4.34,1.36,4.34,3.09,0,.68-.48,1.31-1.03,1.31-.22,0-.46-.1-.67-.34Z"/><path class="cls-1" d="m7.46,40.24c.38-.16.74-.31,1.01-.47,1.32-.86,2.62,1.31.84,2.28-.6.31-1.63.63-2.64.86-.31.84-.72,1.78-1.15,2.64,1.66-.31,3.24.34,4.03,2.28.98-.55,1.99-1.1,2.93-1.54.58-.26,1.22-.58,1.87-.97,1.8-1.1,2.88,1.52,1.34,2.35-.77.42-1.32.55-2.59,1.07-1.01.42-2.09.94-3.05,1.44.07.86.1,1.94.05,2.88-.05,1.05-.67,1.59-1.27,1.62-.6.03-1.15-.47-1.08-1.49.02-.55.05-1.15.05-1.7-.22.13-.43.26-.62.39-2.98,2.09-2.62,3.66-1.27,4.39,1.27.71,3.62.18,4.75-.21,2.11-.71,2.79,2.12.58,2.75-1.42.39-4.68.78-6.55-.37-3.24-1.99-2.67-5.52,1.68-8.63.34-.24.72-.52,1.18-.81-.65-2.2-2.5-1.94-4.06.03-.02.03-.07.08-.1.11-.22.29-.38.52-.55.68-1.32,1.28-3.07-.21-1.63-1.62.62-.63,1.44-1.57,1.94-2.46.41-.73.79-1.52,1.13-2.33-1.3.21-2.21.13-2.98-.29-1.73-.94-.55-3.4,1.13-2.17.46.34,1.42.21,2.26.05.1-.03.24-.03.36-.05.17-.76.22-1.28.26-2.2.1-1.57,2.35-1.41,2.4-.13.02.52-.07,1.02-.19,1.52l-.05.1Z"/><path class="cls-1" d="m35.76,53.21v3.64c.48.05.96.08,1.46.08,1.18,0,2.42-.13,3.75-.21h.07c.62,0,.98.55.98,1.12s-.36,1.18-1.1,1.25c-1.18.13-2.21.21-3.14.21-3.98,0-5.91-1.25-6.96-3.63-1.06,2.41-2.71,4.05-3.53,4.05-.65,0-1.18-.63-1.18-1.26,0-.31.14-.63.43-.84,2.35-1.75,3.02-4.08,3.17-6.67.05-.81.58-1.18,1.08-1.18.55,0,1.1.42,1.1,1.15,0,.37-.22,1.83-.26,2.09.46,1.49,1.15,2.46,1.99,3.03l-.02-7.3h-4.27c-.65,0-.94-.52-.94-1.02-.1.13-.29.39-2.35,1.62,0,1.7-.02,3.01-.02,3.4,0,.42.07,2.8.1,3.71v.1c0,1.65-.98,2.93-3.07,2.93-1.27,0-2.16-.24-2.16-1.41,0-.6.34-1.2.94-1.2.07,0,.14,0,.22.03.22.05.5.1.77.1.5,0,.98-.18.98-.86v-5.57c-1.73.86-1.97.94-2.26.94-.72,0-1.18-.63-1.18-1.25,0-.47.22-.92.74-1.12.96-.39,1.85-.78,2.69-1.18v-4.03h-2.04c-.7,0-1.03-.58-1.03-1.15s.34-1.15,1.03-1.15h2.04l-.02-3.92c0-.81.58-1.23,1.15-1.23s1.13.39,1.13,1.23v3.92h1.73c.72,0,1.06.58,1.06,1.15s-.34,1.15-1.06,1.15h-1.73v2.88c.38-.21.74-.45,1.1-.68.17-.1.34-.16.48-.16.53,0,.96.55.96,1.12.17-.21.41-.37.74-.37h11.35c.65,0,.96.5.96.99,0,.52-.31,1.02-.96,1.02h-4.9l-.02,2.3,3.48-.03c.7,0,1.03.55,1.03,1.1s-.34,1.1-1.03,1.1l-3.48-.03Zm1.7-7.64c-.79.05-1.75.08-2.71.08-2.98,0-4.87,0-4.97-2.22-.02-.44-.02-.94-.02-1.44,0-.81.02-1.65.05-2.41.05-1.12.84-2.22,2.35-2.28.82-.03,1.75-.05,2.67-.05s1.82.03,2.59.05c1.2.05,2.23,1.02,2.3,2.09.05.73.07,1.54.07,2.33,0,.58,0,1.12-.02,1.65-.05,1.33-.91,2.12-2.3,2.2Zm.19-5.41c-.05-1.02-.24-1.05-2.86-1.05s-2.95,0-3,1.07c0,.13-.02.29-.02.42h5.88v-.44Zm-5.88,2.14c0,.21.02.42.02.63.02.81.24.92,2.83.92,2.86,0,3-.05,3.02-.94,0-.18.02-.39.02-.6h-5.9Z"/><path class="cls-1" d="m47.71,46.72c-1.46,1.8-2.02,2.17-2.57,2.17-.65,0-1.13-.55-1.13-1.18,0-.31.12-.63.41-.92,2.35-2.25,4.46-5.36,5.74-8.89.22-.58.65-.81,1.08-.81.65,0,1.32.52,1.32,1.28,0,.63-1.32,3.11-2.5,5l-.26,15.12c-.02.79-.62,1.18-1.22,1.18s-1.18-.37-1.18-1.12v-.05l.31-11.77Zm3.74,12.87c-.72,0-1.25-.63-1.25-1.28,0-.42.22-.81.72-1.07,1.51-.73,3.14-2.01,4.22-3.48.24-.31.53-.47.84-.47.6,0,1.2.6,1.2,1.25,0,.26-.07.52-.26.76-1.25,1.62-4.39,4.29-5.47,4.29Zm.48-7.3c-.74,0-1.1-.58-1.1-1.12s.36-1.12,1.08-1.12h.02l2.38.03-.02-5.21h-1.58c-.74,0-1.1-.58-1.1-1.12,0-.58.36-1.12,1.1-1.12h1.58l-.02-4.13c0-.76.58-1.12,1.18-1.12s1.18.37,1.18,1.12l-.02,4.16h2.95v-4.16c0-.76.58-1.12,1.18-1.12s1.18.37,1.18,1.12l-.02,4.16,2.09-.03h.02c.74,0,1.13.58,1.13,1.12s-.38,1.12-1.15,1.12h-2.09l-.02,5.21,2.83-.03h.02c.74,0,1.13.55,1.13,1.12s-.38,1.12-1.15,1.12h-12.75Zm7.63-7.43h-2.98l-.02,5.21h3.02l-.02-5.21Zm-.34,9.52c0-.65.58-1.1,1.15-1.1.31,0,.6.13.84.42,1.1,1.39,2.62,2.62,3.98,3.3.48.24.67.63.67,1.05,0,.68-.55,1.39-1.27,1.39-1.22,0-5.38-3.77-5.38-5.05Z"/><path class="cls-1" d="m76.39,51.43c-.84-2.54.46-4.42,1.92-4.92.7-.24,1.42-.34,2.06-.24-.02-.58-.05-1.36-.07-2.12-2.02.21-4.01.52-5.26.73-1.73.29-2.86.63-3.58.76-1.61.31-2.09-2.3-.19-2.64.96-.18,2.52-.37,3.53-.55,1.2-.21,3.36-.5,5.47-.71v-.47c.02-1.62-.12-1.73-.12-2.56,0-1.91,2.42-1.73,2.52-.08.02.6-.05,1.8-.1,2.51,0,.13-.02.26-.02.39.7-.05,1.32-.08,1.85-.08,1.18,0,2.02-.03,3.65,0,2.02.05,1.92,2.82,0,2.67-1.7-.16-2.28-.16-3.77-.18-.55,0-1.13.03-1.75.05.02.84.05,1.65.05,2.41,0,.37.05.92.07,1.49,2.14,3.66-.41,9.21-2.95,11.43-1.61,1.39-3.7-.47-1.61-2.09,1.15-.89,2.16-2.35,2.74-3.84-1.58.89-3.67.39-4.44-1.96Zm4.03-2.75c-.34-.31-1.03-.37-1.54-.1-.58.29-.96,1.1-.7,1.99.43,1.41,2.52,1.41,2.76-.44.07-.55,0-.78-.14-.99-.12-.16-.24-.31-.38-.45Z"/><path class="cls-1" d="m104.79,55.14c1.75-1.7,1.68-4.18.31-5.18-1.25-.92-3.84-1.1-6.26.45-.96.6-1.46,1.07-2.02,1.96-.86,1.39-3.26-.16-1.78-1.75,2.64-2.85,4.58-4.86,7.25-8.45.26-.37.02-.26-.17-.16-.67.39-2.26.92-4.03,1.33-1.9.44-2.26-2.14-.62-2.35,1.61-.21,3.91-.84,5.28-1.28,1.92-.6,3.5,1.26,2.3,2.72-.77.94-1.73,1.96-2.69,2.93s-1.92,1.91-2.78,2.82c2.11-1.23,4.97-1.23,6.75-.08,3.46,2.25,2.33,6.85-.19,8.84-2.38,1.86-6.12,1.96-7.94.65-2.54-1.8-1.42-5.05,1.42-5.15,1.92-.08,3.72,1.18,3.79,3.53.46-.1.96-.42,1.39-.84Zm-5.11-.78c-1.06.1-1.1,1.18-.34,1.62.55.31,1.34.42,2.02.39.02-1.2-.62-2.12-1.68-2.01Z"/><path class="cls-1" d="m119.76,38.04c0-.55.29-.78.6-.78.34,0,.67.29.7.76.02,2.25.05,4.97.05,7.79,0,3.9-.02,7.92-.07,11.04-.02,1.8-.96,3.03-2.74,3.11-.58.03-1.08.03-1.58.03-.67,0-1.32,0-2.04-.03-.43,0-.65-.34-.65-.68s.24-.71.65-.71h.1c.14.03.82.08,3.31.08.96-.03,1.66-.6,1.7-1.94.05-1.57.07-3.66.07-5.94,0-4.26-.07-9.18-.1-12.71v-.03Z"/><path class="cls-1" d="m130.85,55.12c-.86-1.33.7-3.14,1.99-1.7,2.04,2.28,5.93,2.09,9.55.97,1.99-.6,2.57,2.22.62,2.88-4.75,1.62-10.51.39-12.17-2.14Zm2.69-10.67c-1.9.39-2.21-2.38-.07-2.72,2.28-.37,5.67-.39,7.66.08,2.02.47,1.49,3.16-.46,2.72-2.23-.52-4.78-.58-7.13-.08Z"/><path class="cls-1" d="m151.7,41.52c-1.25-1.67,1.1-3.09,2.06-1.6,1.03,1.6,2.11,3.92,2.81,6.09,1.3-.99,2.66-1.94,4.22-2.88,1.63-.99,2.88,1.52,1.03,2.54-2.45,1.36-4.92,2.88-6.82,4.63-2.38,2.2-2.45,4.16-.58,5.15,1.68.92,5.11.24,6.55-.34,2.02-.84,2.74,2.17.6,2.83-1.9.58-5.9,1.1-8.28-.21-3.46-1.91-3.31-6.15.58-9.52.24-.21.46-.42.7-.6-.62-2.07-1.78-4.63-2.88-6.09Z"/><path class="cls-1" d="m176.42,40.24c.38-.16.74-.31,1.01-.47,1.32-.86,2.62,1.31.84,2.28-.6.31-1.63.63-2.64.86-.31.84-.72,1.78-1.15,2.64,1.66-.31,3.24.34,4.03,2.28.98-.55,1.99-1.1,2.93-1.54.58-.26,1.22-.58,1.87-.97,1.8-1.1,2.88,1.52,1.34,2.35-.77.42-1.32.55-2.59,1.07-1.01.42-2.09.94-3.05,1.44.07.86.1,1.94.05,2.88-.05,1.05-.67,1.59-1.27,1.62-.6.03-1.15-.47-1.08-1.49.02-.55.05-1.15.05-1.7-.22.13-.43.26-.62.39-2.98,2.09-2.62,3.66-1.27,4.39,1.27.71,3.62.18,4.75-.21,2.11-.71,2.79,2.12.58,2.75-1.42.39-4.68.78-6.55-.37-3.24-1.99-2.67-5.52,1.68-8.63.34-.24.72-.52,1.18-.81-.65-2.2-2.5-1.94-4.06.03-.02.03-.07.08-.1.11-.22.29-.38.52-.55.68-1.32,1.28-3.07-.21-1.63-1.62.62-.63,1.44-1.57,1.94-2.46.41-.73.79-1.52,1.13-2.33-1.3.21-2.21.13-2.98-.29-1.73-.94-.55-3.4,1.13-2.17.46.34,1.42.21,2.26.05.1-.03.24-.03.36-.05.17-.76.22-1.28.26-2.2.1-1.57,2.35-1.41,2.4-.13.02.52-.07,1.02-.19,1.52l-.05.1Z"/><path class="cls-1" d="m193.3,46.96h-1.82c-.67,0-.98-.52-.98-1.05,0-.58.36-1.15.98-1.15h1.82v-4h-2.18c-.67,0-.98-.52-.98-1.05,0-.58.36-1.15.98-1.15h6.41c.62,0,.94.55.94,1.1s-.31,1.1-.94,1.1h-2.11v4h1.68c.62,0,.94.55.94,1.1s-.31,1.1-.94,1.1h-1.68v4.39c.62-.26,1.22-.55,1.8-.84.19-.1.36-.13.55-.13.58,0,1.01.5,1.01,1.05,0,.37-.22.79-.74,1.05-2.26,1.12-6.22,2.82-7.1,2.82-.7,0-1.06-.6-1.06-1.2,0-.5.26-.99.82-1.15.89-.26,1.75-.52,2.62-.81v-5.18Zm4.03,11.69c-.7,0-1.01-.5-1.01-.99,0-.55.36-1.1,1.01-1.1h6.03v-2.56h-3.62c-.7,0-1.03-.5-1.03-.99,0-.52.36-1.07,1.03-1.07h3.62v-2.56c-.67,0-1.32-.03-1.94-.05-1.68-.08-2.5-1.1-2.54-2.54-.02-1.07-.05-2.25-.05-3.43s.02-2.35.05-3.4c.05-1.18.74-2.38,2.57-2.46.96-.05,1.97-.05,3.02-.05s2.11,0,3.17.05c1.61.05,2.54,1.18,2.59,2.43.05,1.18.07,2.41.07,3.64,0,1.05-.02,2.14-.07,3.19-.07,1.36-1.06,2.49-2.59,2.56-.7.03-1.39.05-2.09.05v2.56h3.82c.67,0,.98.52.98,1.02,0,.52-.31,1.05-.98,1.05h-3.82v2.56h5.16c.65,0,.96.52.96,1.05s-.31,1.05-.96,1.05h-13.37Zm6.03-19.28c-.48,0-.94,0-1.34.03-1.06.03-1.1.6-1.1,2.96h2.45v-2.98Zm0,4.89h-2.45c0,.68.02,1.39.05,2.07.05,1.05.77,1.05,2.4,1.05v-3.11Zm4.75-1.91c0-.65,0-1.31-.02-1.94-.05-1.07-.6-1.07-2.54-1.07v3.01h2.57Zm-2.57,1.91v3.11c.5,0,1.03,0,1.51-.03,1.03-.05,1.08-.42,1.08-3.09h-2.59Z"/><path class="cls-1" d="m214.18,57.24c0-.37.19-.79.7-1.1.6-.39,1.82-1.78,2.09-2.72.17-.58.55-.84.98-.84.55,0,1.13.47,1.13,1.15,0,1.33-2.16,4.68-3.65,4.68-.7,0-1.25-.55-1.25-1.18Zm7.44-12.97c-.67,0-1.01-.52-1.01-1.02,0-.13,0-.26.05-.37-1.97,1.8-4.51,3.77-5.38,3.77-.67,0-1.08-.63-1.08-1.28,0-.44.19-.92.7-1.15,2.71-1.36,5.79-4.26,7.56-6.51.58-.73,1.27-1.1,1.97-1.1s1.39.34,2.09,1.05c2.28,2.38,5.06,4.47,7.85,5.86.48.24.67.63.67,1.05,0,.68-.53,1.39-1.3,1.39-1.06,0-4.92-2.75-8.4-6.54-.29-.31-.5-.5-.72-.5-.19,0-.41.16-.67.5-.7.86-1.58,1.83-2.57,2.8.07-.03.14-.03.24-.03h5.91c.67,0,1.01.52,1.01,1.05s-.34,1.05-1.01,1.05h-5.91Zm-2.23,3.56c-.67,0-.98-.5-.98-.99,0-.55.36-1.1,1.01-1.12,1.32-.05,3.41-.08,5.35-.08,1.39,0,2.71.03,3.62.05,1.22.03,1.94.65,1.94,1.65,0,1.44-1.63,3.66-2.38,4.45-.24.24-.53.34-.82.34-.65,0-1.32-.55-1.32-1.12,0-.21.1-.44.29-.63,1.51-1.49,1.51-2.2,1.51-2.25,0-.21-.12-.34-.43-.34h-1.2c-1.97,0-5.02.03-6.58.05h-.02Zm3.07,4.97c-.05.92-.12,1.96-.12,2.77,0,1.57.34,1.67,2.38,1.67,2.23,0,3.14-.37,3.14-1.83,0-.76.55-1.12,1.13-1.12,1.13,0,1.3.89,1.3,1.26,0,3.84-3.5,3.92-5.69,3.92-2.71,0-4.49-.21-4.49-2.85v-.08c0-1.12.05-2.56.1-3.79.02-.68.6-.99,1.15-.99s1.1.34,1.1.99v.05Zm3.05,1.83c-.31,0-.6-.16-.79-.5-.41-.71-.98-1.26-1.58-1.78-.22-.18-.31-.42-.31-.63,0-.55.6-1.1,1.2-1.1.48,0,2.74,1.62,2.74,2.69,0,.73-.65,1.31-1.25,1.31Zm7.34,2.38c-.67-1.2-1.58-2.25-2.74-3.03-.29-.21-.41-.47-.41-.73,0-.58.53-1.15,1.15-1.15.86,0,4.2,2.69,4.2,4.26,0,.79-.58,1.36-1.18,1.36-.38,0-.74-.21-1.03-.71Z"/><path class="cls-1" d="m243.38,41.52c-1.25-1.67,1.1-3.09,2.06-1.6,1.03,1.6,2.11,3.92,2.81,6.09,1.3-.99,2.66-1.94,4.22-2.88,1.63-.99,2.88,1.52,1.03,2.54-2.45,1.36-4.92,2.88-6.82,4.63-2.38,2.2-2.45,4.16-.58,5.15,1.68.92,5.11.24,6.55-.34,2.02-.84,2.74,2.17.6,2.83-1.9.58-5.9,1.1-8.28-.21-3.46-1.91-3.31-6.15.58-9.52.24-.21.46-.42.7-.6-.62-2.07-1.78-4.63-2.88-6.09Z"/><path class="cls-1" d="m262.75,53.37c-.1-2.75.17-4.97.29-7.74.07-1.7.24-4.26.19-5.88-.05-1.94,2.66-1.78,2.62-.05-.05,1.65-.22,4.13-.34,5.88-.17,2.77-.53,5.15-.43,7.69.14,3.82,4.42,3.56,8.59-.03,1.56-1.33,3.02,1.07,1.66,2.28-4.68,4.16-12.36,4.92-12.58-2.14Z"/><path class="cls-1" d="m286.32,45.94c.24-.5.46-.92.77-1.36.38-.55.26-.52-.19-.37-1.8.63-1.39.63-3.02,1.31-.77.31-1.44.58-2.16.78-2.11.63-2.74-2.38-.82-2.82.5-.13,1.9-.42,2.66-.63,1.18-.31,3.26-.84,5.71-1.6,2.47-.76,4.44-1.39,6.55-1.54,1.49-.1,1.9,1.18,1.63,2.01-.14.45-.67.97-2.35.86-1.22-.08-2.76.42-3.58.73-1.34.52-2.54,2.09-3.07,3.06-2.11,3.84-.5,9.34,4.87,9.13,2.52-.1,2.66,2.98.12,2.96-7.25-.03-9.75-7.27-7.13-12.53Z"/><path class="cls-1" d="m9.84,74.96c1.34-.03,2.83-.05,3.96-.05,1.51,0,2.23.84,2.23,1.83,0,.47-.17.99-.48,1.46-.91,1.36-1.99,2.72-3.24,3.95,2.02,1.44,4.61,2.59,7.73,3.24.72.16,1.06.71,1.06,1.26,0,.65-.48,1.31-1.32,1.31-.55,0-4.87-.92-9.05-4.34-4.58,3.92-9.07,5.1-9.55,5.1-.72,0-1.18-.63-1.18-1.23,0-.47.26-.92.91-1.07,3.1-.76,5.86-2.22,8.23-4.24-1.03-1.05-1.85-2.14-2.45-3.22-1.39,1.57-3.77,3.95-4.8,3.95-.65,0-1.13-.58-1.13-1.18,0-.37.17-.76.6-1.02,2.74-1.73,5.11-4.6,6.7-7.4.19-.34.48-.5.79-.5.65,0,1.37.63,1.37,1.28,0,.18-.05.37-.17.52l-.22.34Zm4.18,20.19c-1.1.05-2.16.08-3.22.08-1.18,0-2.33-.03-3.53-.08-2.59-.13-2.62-2.12-2.62-3.79,0-.68.02-1.36.05-1.93.05-1.15.72-2.35,2.52-2.41.94-.03,1.97-.05,3.02-.05,1.3,0,2.62.03,3.86.05,1.39.03,2.38,1.1,2.42,2.2.02.52.05,1.12.05,1.73s-.02,1.2-.05,1.7c-.05,1.31-1.01,2.43-2.52,2.51Zm.31-4.13c0-.37,0-.73-.02-1.05-.05-.97-.43-.97-3.29-.97-1.06,0-2.11,0-3.12.03-1.01,0-1.06.81-1.06,1.99,0,.37,0,.73.02,1.05.07,1.02.36,1.05,3.89,1.05,2.93,0,3.53-.03,3.55-1.05.02-.34.02-.68.02-1.05Zm-6.19-13.76c.55,1.23,1.39,2.43,2.52,3.5.41-.44,2.76-3.09,2.76-3.58,0-.16-.12-.24-.31-.24-.5-.03-1.22-.03-2.04-.03s-1.75,0-2.69.03l-.24.31Z"/><path class="cls-1" d="m35.28,84c-1.25,9.34-8.04,11.43-8.81,11.43-.72,0-1.2-.63-1.2-1.28,0-.47.26-.97.91-1.18,4.49-1.52,6.17-5,6.7-8.97-.77,0-1.51.03-2.16.03s-1.03-.52-1.03-1.07v-.16c-1.08,1.36-2.78,3.19-3.84,3.19-.74,0-1.3-.65-1.3-1.33,0-.39.19-.81.65-1.12,2.35-1.6,3.6-3.48,4.75-5.86.29-.58.7-.81,1.1-.81.67,0,1.3.6,1.3,1.33,0,.86-1.82,3.5-1.94,3.66.1-.03.19-.05.31-.05,1.01-.03,2.14-.03,3.29-.03,1.58,0,3.22,0,4.58.03,1.61.03,2.54,1.1,2.54,2.88,0,5.07-.14,10.64-5.45,10.64-.74,0-1.54-.13-2.38-.37-.55-.16-.82-.68-.82-1.2,0-.68.43-1.36,1.15-1.36.12,0,.24.03.36.05.72.21,1.34.31,1.87.31,1.68,0,2.88-.89,2.88-7.35v-.39c0-.73-.34-1.02-.84-1.02h-2.64Zm-3.12-8.03h-.05c-.74,0-1.13-.6-1.13-1.23s.36-1.23,1.13-1.23l3.94-.08h.1c1.2,0,2.28.42,2.78,1.62,1.39,3.16,3.22,5.7,6.1,7.66.5.34.7.78.7,1.25,0,.79-.62,1.54-1.42,1.54-1.34,0-4.97-3.74-7.22-8.87-.24-.6-.7-.81-1.37-.81h-.12l-3.43.13Z"/><path class="cls-1" d="m55.94,88.32v2.33c1.18-.29,2.28-.63,3.26-.97.1-.03.19-.05.29-.05.5,0,.84.5.84,1.02,0,.42-.22.84-.7,1.05-3.31,1.33-8.71,2.35-9.29,2.35-.67,0-1.06-.6-1.06-1.2,0-.55.29-1.05.91-1.12,1.25-.13,2.47-.34,3.65-.58v-2.8l-3.05.03h-.02c-.6,0-.91-.5-.91-.99,0-.52.31-1.05.94-1.05l3.07-.03v-2.12c-.55-.03-1.1-.05-1.58-.08-1.27-.1-2.16-.81-2.23-2.17-.02-.89-.05-1.91-.05-2.96s.02-2.14.05-3.09c.05-1.18.58-2.38,2.38-2.46.86-.05,1.7-.05,2.57-.05s1.73,0,2.57.05c1.18.05,2.04.84,2.11,1.99.07,1.23.12,2.41.12,3.58,0,.99-.02,1.96-.1,2.93-.1,1.31-.86,2.04-2.33,2.17-.43.03-.94.05-1.44.08v2.09l3.05-.03h.02c.58,0,.89.5.89.99,0,.52-.31,1.02-.91,1.05l-3.05.03Zm-2.02-12.97q-1.92,0-1.92,2.46h1.92v-2.46Zm0,4.37h-1.92c0,.6.02,1.2.05,1.75.05.68.46.81,1.87.81v-2.56Zm3.89-1.91c0-.6-.05-1.15-.07-1.65-.05-.81-.41-.81-1.85-.81v2.46h1.92Zm-1.92,1.91v2.56c1.9,0,1.92,0,1.92-2.56h-1.92Zm8.04,3.71c-1.01.03-2.04.05-2.95.05h-.02c-.67,0-1.01-.52-1.01-1.05s.36-1.1,1.03-1.1c1.27-.03,2.62-.03,3.94-.03-.07-.05-.12-.13-.19-.24-.6-.89-1.66-1.46-2.28-1.8-.34-.18-.46-.44-.46-.71,0-.55.53-1.12,1.15-1.12.41,0,1.08.39,1.46.65.5-.47,1.85-1.96,1.85-2.17,0-.08-.05-.13-.17-.13-1.37,0-3.07.13-4.66.18h-.05c-.67,0-1.01-.55-1.01-1.1s.34-1.1,1.03-1.12c1.32-.03,2.81-.05,4.27-.05h1.58c1.22,0,1.94.73,1.94,1.62,0,.55-.24,1.52-3.19,4.08.05.05.1.08.12.13.19.24.26.47.26.71,0,.42-.26.84-.58,1.07.94,0,1.82.03,2.57.03,1.3.03,2.06.84,2.06,2.04,0,1.28-1.34,3.66-1.39,3.71-.34.47-.77.68-1.2.68-.6,0-1.13-.42-1.13-.99,0-.18.05-.39.19-.6.14-.21,1.13-1.88,1.13-2.35,0-.42-.36-.42-2.16-.42v4.94l.05,3.69v.05c0,1.49-.74,3.4-3.46,3.4-1.37,0-2.4-.18-2.4-1.49,0-.6.31-1.18.91-1.18.07,0,.17,0,.24.03.43.1.86.18,1.22.18.77,0,1.27-.34,1.27-1.57v-8.03Z"/><path class="cls-1" d="m85.44,80.45c-.38,3.32-2.54,8.26-4.85,10.59-1.85,1.86-3.86.84-4.92-1.41-1.51-3.24.1-8.11,3.31-10.54,2.95-2.22,7.34-2.59,10.37-.6,3.72,2.43,4.32,7.24,2.23,10.98-1.13,2.01-3.48,3.64-5.86,4.32-2.11.6-2.86-2.04-.79-2.56,1.82-.45,3.67-1.57,4.46-2.93,1.7-2.93,1.06-6.36-1.32-8-.94-.65-1.94-.97-2.98-1.05.26.26.41.68.34,1.2Zm-5.33.5c-2.23,1.88-3.43,5.36-2.42,7.38.36.76.98,1.15,1.58.58,1.8-1.73,3.48-5.88,3.72-8.71.02-.31.1-.6.22-.81-1.1.26-2.18.81-3.1,1.57Z"/><path class="cls-1" d="m116.23,89.89l-4.25-.1v.65l.02,2.01v.05c0,1.36-.84,3.14-3.5,3.14-1.87,0-2.33-.5-2.33-1.31,0-.6.34-1.2.94-1.2.07,0,.14,0,.22.03.43.1.86.18,1.25.18.7,0,1.2-.29,1.2-1.31v-.05l-.02-2.22-12.03.13h-.02c-.65,0-.96-.52-.96-1.07s.34-1.12.98-1.12l12.03.03-.02-.89c0-.24.05-.44.14-.6-.74.03-1.51.03-2.28.03-1.82,0-3.67-.05-5.45-.08-1.63-.05-2.45-.94-2.5-2.2-.02-.76-.02-1.41-.02-2.04s0-1.25.02-1.88c.05-1.02.67-2.09,2.45-2.14.86-.03,2.21-.03,3.67-.03v-1.31l-6.96.03c-.7,0-1.06-.52-1.06-1.05s.36-1.05,1.06-1.05l6.96.03v-1.05c0-.76.58-1.15,1.15-1.15s1.15.39,1.15,1.15v1.05l7.13-.03c.67,0,.98.52.98,1.05s-.31,1.05-.98,1.05l-7.13-.03v1.31c1.44,0,2.86,0,3.89.03,1.34.03,2.26,1.02,2.33,1.99.02.58.05,1.18.05,1.78,0,.76-.02,1.52-.05,2.25-.05,1.18-.96,2.2-2.45,2.25h-.07c.12.16.17.39.17.65l.02.89,4.27-.03c.67,0,1.01.52,1.01,1.07s-.34,1.12-.98,1.12h-.02Zm-11.95,3.56c-.74-.71-1.58-1.02-2.35-1.28-.36-.13-.5-.45-.5-.79,0-.58.41-1.23,1.03-1.23.43,0,3.55.73,3.55,2.25,0,.68-.53,1.31-1.1,1.31-.22,0-.43-.08-.62-.26Zm1.61-13.89c-1.27,0-2.45.03-3.22.05-.74.03-1.03.47-1.06.97,0,.18-.05.39-.05.58h4.32v-1.6Zm0,3.24h-4.32c0,.21.05.44.05.65.05.76.38.97,1.08.99.84.03,1.99.03,3.19.03v-1.67Zm6.38-1.65c0-.18-.02-.39-.02-.58-.05-1.02-.34-1.02-4.3-1.02v1.6h4.32Zm-4.32,1.65v1.67c1.2,0,2.33,0,3.24-.03.62,0,1.01-.26,1.06-.99,0-.21.05-.45.05-.65h-4.34Z"/><path class="cls-1" d="m126.53,73.31c.96,0,1.94,0,2.4.03,1.2.05,2.04.94,2.09,2.17.02.94.05,2.01.05,3.01,0,3.58-.02,4.18-4.78,4.18-.62,0-1.22-.03-1.66-.05v2.33c0,2.69-.02,5.91-.1,9.6,0,.76-.58,1.12-1.15,1.12s-1.15-.37-1.15-1.07v-.05c.17-4.79.12-12.63.17-18.6,0-2.67,1.7-2.67,4.13-2.67Zm2.42,3.79c0-.34-.02-.63-.02-.92-.05-.86-.34-.89-2.09-.89-1.92,0-2.14.1-2.18,1.1,0,.21-.02.44-.02.71h4.32Zm-4.32,1.88v1.73c.34.03,1.06.03,1.78.03,2.33,0,2.5-.08,2.52-.89,0-.26.02-.55.02-.86h-4.32Zm13.01,3.71c-2.9,0-4.82,0-4.9-2.38-.02-.55-.02-1.18-.02-1.8,0-.99.02-2.07.05-3.01.05-1.23.84-2.12,2.04-2.17.46-.03,1.49-.03,2.47-.03.72,0,1.39,0,1.8.03,1.78.1,2.52,1.2,2.52,2.43v2.01c0,4.03.05,7.79.05,11.12,0,1.23.02,2.33.02,3.24,0,1.86-.84,3.48-3.58,3.48-1.68,0-2.54-.24-2.54-1.39,0-.6.34-1.15.94-1.15.07,0,.12.03.19.03.46.08.89.16,1.27.16.79,0,1.39-.31,1.42-1.59.02-1.05.05-2.09.05-3.14,0-1.57-.02-3.16-.02-4.79v-1.1c-.43.03-1.06.05-1.75.05Zm1.7-5.6c0-1.78-.02-1.8-2.26-1.8-1.7,0-2.18.03-2.23.92,0,.26-.02.58-.02.89h4.51Zm.05,1.88h-4.56c0,.31.02.6.02.86.02.84.24.89,2.64.89.79,0,1.56,0,1.9-.03v-1.73Z"/><path class="cls-1" d="m157.97,73.54c.12-.63.58-.92,1.06-.92.6,0,1.22.44,1.22,1.18,0,.29-.38,1.7-.96,3.22,1.06-.03,2.47-.05,3.55-.05,1.2,0,3.55.03,3.72,3.09.05.92.1,2.14.1,3.48,0,6.41-1.03,11.9-6.07,11.9-.72,0-1.49-.13-2.33-.34-.65-.18-.96-.78-.96-1.36,0-.63.36-1.23,1.08-1.23.12,0,.24.03.38.05.67.18,1.3.29,1.82.29,1.58,0,3.72-.89,3.72-9.34,0-3.37-.05-4.24-1.2-4.24h-4.78c-1.3,2.85-1.92,3.35-2.54,3.35-.31,0-.6-.13-.82-.34v2.3c0,2.12-.02,4.21-.05,5.78-.05,2.35-2.11,2.46-3.91,2.46-.55,0-1.1-.03-1.63-.08-1.2-.13-2.06-1.07-2.06-2.41-.02-1.8-.02-4.24-.02-6.54,0-1.67,0-3.27.02-4.47.02-1.31.82-2.17,2.23-2.25h.31c.29-1.02.58-2.28.7-3.22.1-.71.58-1.02,1.08-1.02.62,0,1.3.47,1.3,1.18,0,.39-.46,1.75-.91,3.03,2.47,0,2.88,1.36,2.9,2.17.02.47.02.99.02,1.52,1.39-1.88,2.54-4.97,3.02-7.19Zm-5.18,9.99c0-4.05,0-4.39-.7-4.39-.26-.03-.62-.03-.98-.03s-.72,0-.98.03c-.41,0-.67.37-.67.73-.02.92-.02,2.25-.02,3.66h3.36Zm-3.36,2.07c0,1.59,0,3.14.02,4.24,0,.58.29.79,1.58.79,1.03,0,1.63,0,1.68-.81.05-1.18.1-2.67.1-4.21h-3.38Zm10.46,1.52c-.65-.92-1.73-1.8-2.74-2.35-.43-.24-.6-.6-.6-.94,0-.58.46-1.15,1.13-1.15.82,0,4.27,1.96,4.27,3.53,0,.76-.6,1.39-1.22,1.39-.31,0-.6-.13-.84-.47Z"/><path class="cls-1" d="m174.94,79.64c-1.46-.44-1.01-2.85.7-2.25.79.29,2.04.26,3.29-.08.24-.86.36-1.7.48-2.64.22-1.54,2.33-1.25,2.28.24-.02.39-.17.97-.34,1.6.29-.16.55-.29.77-.45,1.08-.84,2.59.79,1.06,1.99-.6.47-1.58.89-2.57,1.2-1.13,2.96-2.76,6.09-4.3,8.81-.89,1.57-3.19.55-2.14-1.15,1.34-2.17,2.76-4.39,3.94-7.14-1.22.26-2.26.16-3.17-.13Zm4.13,14.72c-2.23-1.23-2.5-4.05-.02-5.26,1.49-.73,3.12-.78,4.61-.5v-.92c0-.65-.05-1.31-.07-1.96-.02-.52.02-1.25.12-1.75.29-1.44,2.4-1.1,2.16.47-.07.39-.14.68-.14,1.23,0,.6,0,1.25.02,2.01.02.5.07,1.05.1,1.62,1.27.58,2.33,1.39,2.93,2.09,1.37,1.65-.58,3.5-1.73,1.99-.36-.47-.82-.94-1.37-1.36-.7,2.09-3.7,3.92-6.6,2.33Zm.77-3.43c-.65.37-.7,1.12.02,1.52,1.44.79,3.38.03,3.65-1.39.02-.08,0-.18.02-.26-1.22-.44-2.52-.5-3.7.13Zm5.35-9.65c-1.32.08-1.42-2.09.12-2.25,1.58-.16,3.26.16,4.42.92,1.63,1.07.38,3.24-.79,2.43-1.13-.78-2.35-1.18-3.75-1.1Z"/><path class="cls-1" d="m197.4,93.45c-1.75.71-2.57-1.86-.77-2.54,4.37-1.65,8.16-5.83,10.06-9.73.22-.45.12-.86-.41-.86-1.51-.03-4.82.1-6.94.16-1.44.05-1.54-2.46,0-2.54,1.75-.08,5.28-.13,7.71-.13,2.16,0,3.38,1.49,2.45,3.27-.82,1.54-1.68,3.03-2.66,4.45,1.99,1.31,5.04,3.5,6.14,5.18.96,1.46-.84,3.5-1.97,1.96-1.18-1.59-3.65-3.97-5.62-5.26-2.11,2.56-4.71,4.68-7.99,6.04Z"/><path class="cls-1" d="m219.82,94.7c-1.92.81-2.86-1.65-1.03-2.3,3.31-1.2,5.98-3.45,8.02-5.96-.86-.58-1.75-1.02-2.52-1.26-1.34-.39-.72-2.62.96-2.09.89.26,1.97.76,3.02,1.36.82-1.25,1.49-2.54,2.02-3.74.46-1.07.36-1.2-.26-1.18-.96.03-3.43.29-4.25.39-1.68,2.41-3.89,5.15-5.5,6.38-1.61,1.2-3.02-1.07-1.39-2.17,2.33-1.57,5.54-5.99,6.41-8.24.84-2.22,3.31-.6,2.47.92-.12.21-.26.44-.43.71,1.18-.1,2.5-.24,3.65-.29,2.47-.08,2.9,1.8,1.97,3.66-.89,1.75-1.78,3.37-2.71,4.86.67.52,1.3,1.07,1.73,1.65.55.71.38,1.54-.05,1.99-.43.44-1.15.58-1.7-.08-.36-.42-.86-.92-1.44-1.41-2.14,2.8-4.82,5.07-8.95,6.8Z"/><path class="cls-1" d="m240.1,87.4c-.34-.73-.84-1.52-1.37-2.01-.98-.92.41-2.56,1.54-1.46.65.63,1.32,1.46,1.78,2.33.77,1.41-1.22,2.69-1.94,1.15Zm-.48,7.09c-.22-.55-.07-1.25.6-1.57,4.01-1.83,6.6-5.52,7.56-9.89.38-1.7,2.71-.92,2.26.68-1.37,4.94-4.03,8.94-8.76,11.27-.82.39-1.42.08-1.66-.5Zm3.7-8.53c-.24-.78-.67-1.62-1.13-2.2-.86-1.05.74-2.48,1.73-1.2.55.73,1.08,1.67,1.44,2.59.58,1.54-1.54,2.48-2.04.81Z"/><path class="cls-1" d="m257.16,91.77c5.3-1.83,8.45-6.59,9.53-10.44.19-.71.12-1.36-.77-1.39-2.35-.08-6.14.08-9.6.21-1.58.05-1.75-2.51-.05-2.59,3.17-.16,7.66-.18,10.71-.13,1.94.03,3.31,1.62,2.62,3.77-1.68,5.23-4.61,10.3-11.33,13.1-2.04.84-2.93-1.91-1.1-2.54Z"/><path class="cls-1" d="m283.06,80.16c2.02-.18,3.55,1.1,3.65,4.03.05,1.83-.19,4.18-.82,5.83-.98,2.59-3.34,3.87-5.64,3.14-1.9-.6-1.13-3.01.34-2.62,1.37.37,2.38.13,3.05-1.41.55-1.28.77-3.14.77-4.52,0-1.6-.5-2.35-1.61-2.25-.36.03-.72.08-1.1.13-1.18,4.05-2.78,7.61-4.66,10.51-1.15,1.78-3.65.26-2.09-1.65,1.66-2.01,3.14-5,4.25-8.5l-.29.05c-1.03.21-1.97.37-2.59.37-1.63,0-1.61-2.35-.07-2.51.74-.08,1.49-.05,2.35-.13l1.2-.13c.29-1.15.6-2.69.74-4.16.17-1.7,2.62-1.54,2.42.21-.1.89-.41,2.46-.7,3.69l.79-.08Zm8.83,5.88c-.58-1.44-1.66-3.43-3.43-4.5-1.18-.71-.12-2.67,1.37-1.73,1.92,1.23,3.62,3.09,4.27,4.97.6,1.73-1.56,2.88-2.21,1.26Zm-2.18-8.06c-1.25-.5-.38-2.12.74-1.73.65.21,1.9.89,2.45,1.46.98,1.02-.31,2.67-1.15,1.7-.34-.39-1.56-1.25-2.04-1.44Zm2.06-2.33c-1.25-.45-.48-2.12.67-1.78.65.18,1.94.81,2.52,1.36,1.01.99-.26,2.69-1.13,1.75-.34-.37-1.56-1.15-2.06-1.33Z"/><path class="cls-1" d="m2.54,130.62c-.74,0-1.13-.58-1.13-1.18s.38-1.15,1.13-1.15l7.32.03v-3.35l-4.54.03c-.72,0-1.08-.58-1.08-1.15s.36-1.12,1.08-1.12l4.54.03v-3.06l-4.32.03c-.72,0-1.08-.58-1.08-1.12v-.05c-1.03.89-1.66,1.36-2.3,1.36-.74,0-1.27-.63-1.27-1.31,0-.45.22-.89.74-1.18,2.62-1.44,5.35-4.45,7.06-6.85.55-.79,1.34-1.23,2.14-1.23s1.63.42,2.35,1.23c2.21,2.54,4.56,4.6,7.25,6.09.46.26.65.65.65,1.07,0,.73-.6,1.49-1.39,1.49-.12,0-.62-.03-1.99-1.1.05.16.1.31.1.47,0,.58-.38,1.12-1.1,1.12l-4.44-.03v3.06l4.39-.03c.72,0,1.1.58,1.1,1.15s-.36,1.12-1.1,1.12l-4.39-.03v3.35l7.3-.03c.7,0,1.08.6,1.08,1.2s-.36,1.12-1.08,1.12H2.54Zm14.3-13.18c-1.78-1.46-3.67-3.43-5.11-5.18-.29-.37-.5-.55-.72-.55s-.41.18-.67.55c-1.22,1.67-2.93,3.58-4.63,5.18h11.14Z"/><path class="cls-1" d="m40.54,114.02c1.78.03,3.07.94,3.19,3.24.02.68.07,1.6.07,2.62,0,6.3-1.08,11.43-6.53,11.43-.86,0-1.8-.13-2.78-.42-.62-.18-.94-.76-.94-1.33,0-.68.41-1.31,1.13-1.31.12,0,.26,0,.41.05.77.24,1.49.37,2.16.37,1.78,0,4.1-.78,4.1-8.68,0-2.8-.05-3.58-1.2-3.58-.43-.03-1.08-.03-1.85-.03s-1.66,0-2.59.03c-.65,6.46-2.81,12.32-9.17,15.17-.19.08-.38.13-.58.13-.74,0-1.25-.73-1.25-1.44,0-.47.24-.97.79-1.2,5.42-2.38,7.2-7.19,7.73-12.63-3.24.03-6.29.08-6.29.08h-.02c-.7,0-1.06-.6-1.06-1.2s.36-1.2,1.08-1.2c0,0,3.12-.03,6.43-.05.05-1.28.05-2.62.05-3.92v-.03c0-.84.65-1.28,1.3-1.28s1.22.42,1.22,1.23c0,1.33,0,2.64-.07,3.98h4.66Z"/><path class="cls-1" d="m55.32,117.94c.24-.5.46-.92.77-1.36.38-.55.26-.52-.19-.37-1.8.63-1.39.63-3.02,1.31-.77.31-1.44.58-2.16.78-2.11.63-2.76-2.38-.84-2.82.5-.13,1.9-.42,2.66-.63,1.18-.31,3.29-.84,5.74-1.6,2.47-.76,4.42-1.39,6.53-1.54,1.49-.1,1.9,1.18,1.63,2.01-.14.45-.67.97-2.35.86-1.22-.08-2.74.42-3.55.73-1.34.52-2.57,2.09-3.1,3.06-2.11,3.84-.5,9.34,4.87,9.13,2.52-.1,2.69,2.98.14,2.96-7.25-.03-9.75-7.27-7.13-12.53Zm7.39,1.73c-1.27-.6-.31-2.22.86-1.75.67.26,1.97.99,2.52,1.65.98,1.15-.5,2.82-1.34,1.75-.34-.42-1.54-1.41-2.04-1.65Zm2.42-2.28c-1.3-.55-.36-2.22.82-1.8.67.24,1.97.94,2.54,1.57,1.01,1.1-.41,2.82-1.27,1.78-.34-.42-1.58-1.33-2.09-1.54Z"/><path class="cls-1" d="m79.37,125.99c-3.58,1.49-6.5,2.25-6.67,2.25-.6,0-.98-.65-.98-1.26,0-.5.24-.94.74-1.07.5-.1,1.03-.24,1.54-.37v-13.68h-.96c-.67,0-1.03-.52-1.03-1.05s.36-1.05,1.03-1.05h9.72c.7,0,1.03.52,1.03,1.05s-.34,1.05-1.03,1.05h-1.18v17.24c.07-.1.17-.18.29-.26,1.68-1.07,3.05-2.38,4.13-3.84-1.92-3.43-2.59-6.9-2.59-7.69,0-.73.6-1.15,1.15-1.15.43,0,.84.24.94.78.36,2.17.91,4.16,1.8,5.91,1.61-3.16,1.99-6.36,1.99-6.88s-.07-.52-2.83-.52c-1.13,0-2.35,0-3.38.05h-.05c-.7,0-1.06-.55-1.06-1.12s.38-1.18,1.1-1.18c.86-.03,1.85-.03,2.81-.03,1.32,0,2.59,0,3.46.03,1.56.03,2.33.78,2.33,2.3,0,1.12-.6,5.49-3,9.57,1.06,1.36,2.4,2.51,4.03,3.35.5.26.7.68.7,1.12,0,.73-.53,1.44-1.3,1.44-.55,0-2.64-1.07-4.78-3.92-1.68,2.17-3.91,4.08-4.71,4.08-.43,0-.82-.26-1.03-.6-.02.76-.58,1.12-1.1,1.12s-1.1-.39-1.1-1.2v-4.47Zm.02-14.12h-3.22v2.85h3.19l.02-2.85Zm-.02,4.84h-3.19v2.67h3.19v-2.67Zm0,4.66h-3.19v3.53c1.1-.37,2.16-.76,3.19-1.15v-2.38Z"/><path class="cls-1" d="m101.78,129.24c3.72-2.64,5.83-8.29,4.18-13.76-.79-2.62-3.07-1.65-3.77-.03-.7,1.6-.74,2.67-.62,4.94.12,2.54-2.47,2.51-2.62.63-.14-2.07.26-4.58.55-6.04.26-1.33.72-3.06.91-4.66.19-1.65,2.52-1.33,2.4.24-.07.89-.36,1.8-.62,2.43-.31.71-.07.37.17.03,1.75-2.46,4.87-1.39,5.86,1.57,1.75,5.28.89,12.16-4.75,16.69-1.94,1.57-3.7-.6-1.68-2.04Z"/><path class="cls-1" d="m116.4,129.92c-.53,0-1.06-.42-1.06-1.02,0-.21.05-.45.19-.68.65-1.15,1.25-3.01,1.39-4.52.07-.63.48-.92.91-.92.53,0,1.06.42,1.06,1.15,0,.79-.74,4.05-1.56,5.41-.24.39-.6.58-.94.58Zm3.02.52l.07-9.08c-1.22.18-2.69.37-2.83.37-.58,0-.89-.52-.89-1.05,0-.47.26-.94.77-.97.29-.03.65-.05,1.06-.08.43-.55.94-1.2,1.42-1.94-.74-.84-2.16-2.01-2.71-2.43-.31-.24-.46-.55-.46-.86,0-.52.41-1.02.96-1.02.14,0,.29.05.65.24.67-1.15,1.51-3.09,1.85-4.47.12-.52.53-.73.96-.73.58,0,1.2.42,1.2,1.07,0,.39-.91,2.96-2.45,5.36.38.34.77.73,1.08,1.05.77-1.36,1.44-2.75,1.82-3.77.17-.47.53-.65.89-.65.58,0,1.2.47,1.2,1.15,0,.86-2.35,4.68-3.82,6.75.91-.1,1.8-.21,2.4-.29-.1-.18-.24-.37-.34-.5-.14-.21-.22-.42-.22-.63,0-.47.43-.84.91-.84,1.18,0,2.38,2.96,2.38,3.64,0,.76-.53,1.25-1.06,1.25-.58,0-.72-.34-.98-1.33-.38.08-1.01.21-1.73.34l.05,9.42c0,.78-.58,1.2-1.13,1.2s-1.06-.39-1.06-1.18v-.03Zm4.73-2.67c-.41,0-.82-.26-.91-.89-.17-1.05-.55-2.07-1.03-2.9-.12-.21-.17-.39-.17-.58,0-.5.41-.84.89-.84,1.42,0,2.33,3.64,2.33,4.03,0,.73-.55,1.18-1.1,1.18Zm.19,2.9c-.7,0-1.03-.55-1.03-1.1s.34-1.12,1.03-1.12h1.94c0-3.92-.05-14.72-.05-16.35,0-2.59,1.7-2.64,4.54-2.64.67,0,1.37.03,1.97.05,1.58.08,2.57.86,2.59,2.59v16.35h.98c.7,0,1.06.58,1.06,1.12s-.36,1.1-1.06,1.1h-11.98Zm8.76-15.14c0-1.54-.02-2.69-.02-3.06-.02-.6-.36-.84-.89-.84-.41-.03-.91-.03-1.42-.03s-1.03,0-1.44.03c-.53,0-.84.24-.86.84-.02.42-.02,1.57-.02,3.06h4.66Zm0,2.22h-4.66v3.95h4.68l-.02-3.95Zm.02,6.17h-4.68v4.52h4.68v-4.52Z"/><path class="cls-1" d="m150.43,126.46c0-1.2.17-1.94.12-3.11-.12-2.9-3.77-.44-4.44.86-.58,1.12-1.25,2.28-1.51,3.56-.43,2.01-.96,2.14-1.44,2.22-.84.13-1.97-.5-1.42-2.01,1.08-2.96,2.45-5.57,3.84-7.92,1.39-2.35,2.64-4.58,3.82-6.62.41-.73,1.06-1.65,1.32-2.17.79-1.54,3.02-.24,2.23,1.41-.19.37-.36.65-.55.92-.19.26-.43.55-.7.89-1.15,1.41-1.92,2.51-2.54,3.48s-1.1,1.8-1.63,2.67c-.17.26-.1.21.07.05.86-.84,5.02-2.07,5.35,2.35.07,1.02-.12,1.91-.12,2.88,0,2.33,2.06,2.04,3.48.65,1.22-1.2,1.75-2.46,2.18-3.66.7-1.94,3.22-.6,2.3,1.36-.67,1.44-1.61,3.14-3.02,4.34-2.59,2.22-7.39,2.8-7.34-2.14Z"/><path class="cls-1" d="m171.96,117.94c.24-.5.46-.92.77-1.36.38-.55.26-.52-.19-.37-1.8.63-1.39.63-3.02,1.31-.77.31-1.44.58-2.16.78-2.11.63-2.76-2.38-.84-2.82.5-.13,1.9-.42,2.66-.63,1.18-.31,3.29-.84,5.74-1.6,2.47-.76,4.42-1.39,6.53-1.54,1.49-.1,1.9,1.18,1.63,2.01-.14.45-.67.97-2.35.86-1.22-.08-2.74.42-3.55.73-1.34.52-2.57,2.09-3.1,3.06-2.11,3.84-.5,9.34,4.87,9.13,2.52-.1,2.69,2.98.14,2.96-7.25-.03-9.75-7.27-7.13-12.53Zm7.39,1.73c-1.27-.6-.31-2.22.86-1.75.67.26,1.97.99,2.52,1.65.98,1.15-.5,2.82-1.34,1.75-.34-.42-1.54-1.41-2.04-1.65Zm2.42-2.28c-1.3-.55-.36-2.22.82-1.8.67.24,1.97.94,2.54,1.57,1.01,1.1-.41,2.82-1.27,1.78-.34-.42-1.58-1.33-2.09-1.54Z"/><path class="cls-1" d="m193.32,127.12c-1.73-2.04-2.52-5.07-2.71-8.37-.1-1.49-.14-1.96-.12-2.9.05-1.65,2.38-1.99,2.45-.03.05,1.02-.05,1.07,0,2.28.1,2.75.55,5.33,1.9,6.75.62.65.94.73,1.46-.05.29-.44.62-1.12.79-1.54.65-1.52,2.64-.42,2.18.94-.24.73-.67,1.54-.94,2.01-1.54,2.72-3.67,2.48-5.02.92Zm12.98-4.6c-.38-2.09-1.37-4.11-2.66-5.07-1.15-.86.14-2.8,1.58-1.62,1.7,1.39,3.36,3.84,3.6,6.07.19,1.91-2.18,2.43-2.52.63Z"/><path class="cls-1" d="m220.92,116c-1.25.21-2.45.34-3.77.31-1.85-.05-1.94-2.77.24-2.48.98.13,2.09.08,3.72-.18-.02-1.39-.02-2.62,0-3.45.05-2.01,2.54-1.54,2.45-.03-.07.94-.12,1.99-.14,3.03.5-.1,1.06-.26,1.63-.39,1.58-.39,2.23,2.04.14,2.41-.65.1-1.25.24-1.8.34,0,.97,0,1.94.02,2.9.58-.18,1.18-.37,1.82-.6,1.78-.63,2.69,1.78.55,2.43-.84.26-1.61.5-2.3.68.05.89.1,1.7.17,2.46.07.71.14,1.65.19,2.59,1.2.5,2.23,1.2,2.98,1.86,1.61,1.44.05,3.82-1.46,2.3-.5-.5-1.1-.99-1.75-1.41-.84,2.22-3.77,3.97-6.72,2.38-2.28-1.23-2.42-4.16.19-5.36,1.46-.68,3.07-.73,4.58-.45-.02-.55-.07-1.1-.12-1.7-.05-.63-.1-1.36-.14-2.17-1.9.39-3.17.47-4.37.29-1.7-.26-1.42-2.96.5-2.51.7.16,1.9.16,3.74-.24-.05-.99-.1-2.01-.12-3.03l-.24.03Zm-3.1,11.67c-.62.29-.74,1.12-.07,1.49,1.46.79,3.34,0,3.7-1.46-1.3-.45-2.57-.52-3.62-.03Z"/><path class="cls-1" d="m241.03,123.43c-.84-2.54.46-4.42,1.92-4.92.7-.24,1.42-.34,2.06-.24-.02-.58-.05-1.36-.07-2.12-2.02.21-4.01.52-5.26.73-1.73.29-2.86.63-3.58.76-1.61.31-2.09-2.3-.19-2.64.96-.18,2.52-.37,3.53-.55,1.2-.21,3.36-.5,5.47-.71v-.47c.02-1.62-.12-1.73-.12-2.56,0-1.91,2.42-1.73,2.52-.08.02.6-.05,1.8-.1,2.51,0,.13-.02.26-.02.39.7-.05,1.32-.08,1.85-.08,1.18,0,2.02-.03,3.65,0,2.02.05,1.92,2.82,0,2.67-1.7-.16-2.28-.16-3.77-.18-.55,0-1.13.03-1.75.05.02.84.05,1.65.05,2.41,0,.37.05.92.07,1.49,2.14,3.66-.41,9.21-2.95,11.43-1.61,1.39-3.7-.47-1.61-2.09,1.15-.89,2.16-2.35,2.74-3.84-1.58.89-3.67.39-4.44-1.96Zm4.03-2.75c-.34-.31-1.03-.37-1.54-.1-.58.29-.96,1.1-.7,1.99.43,1.41,2.52,1.41,2.76-.44.07-.55,0-.78-.14-.99-.12-.16-.24-.31-.38-.45Z"/><path class="cls-1" d="m260.26,131.85c-1.51,0-2.74-1.33-2.74-2.98s1.22-2.98,2.74-2.98,2.74,1.33,2.74,2.98-1.22,2.98-2.74,2.98Zm0-4.94c-1.01,0-1.82.86-1.82,1.96s.82,1.99,1.82,1.99,1.82-.89,1.82-1.99-.82-1.96-1.82-1.96Z"/></svg>