<svg xmlns="http://www.w3.org/2000/svg" width="17.652" height="191.917" viewBox="0 0 17.652 191.917">
  <g id="グループ_125" data-name="グループ 125" transform="translate(-0.5 0.5)">
    <g id="グループ_52" data-name="グループ 52" transform="translate(1)">
      <path id="パス_15" data-name="パス 15" d="M0,0H16" transform="translate(0.5 6.152)" fill="none" stroke="#fff" stroke-width="1"/>
      <path id="パス_12" data-name="パス 12" d="M12.861,4.445h0A.861.861,0,0,1,12,3.584V1.861a.861.861,0,1,1,1.723,0V3.584A.861.861,0,0,1,12.861,4.445Z" transform="translate(-8.842 -1)" fill="none" stroke="#fff" stroke-miterlimit="10" stroke-width="1"/>
      <path id="パス_13" data-name="パス 13" d="M42.861,4.445h0A.861.861,0,0,1,42,3.584V1.861a.861.861,0,0,1,1.723,0V3.584A.861.861,0,0,1,42.861,4.445Z" transform="translate(-30.229 -1)" fill="none" stroke="#fff" stroke-miterlimit="10" stroke-width="1"/>
      <rect id="長方形_35" data-name="長方形 35" width="2" height="2" transform="translate(7.5 9.152)" fill="none" stroke="#fff" stroke-linejoin="round" stroke-width="1"/>
      <rect id="長方形_38" data-name="長方形 38" width="2" height="2" transform="translate(3.5 9.152)" fill="none" stroke="#fff" stroke-linejoin="round" stroke-width="1"/>
      <rect id="長方形_40" data-name="長方形 40" width="2" height="2" transform="translate(11.5 9.152)" fill="none" stroke="#fff" stroke-linejoin="round" stroke-width="1"/>
      <rect id="長方形_36" data-name="長方形 36" width="2" height="2" transform="translate(7.5 13.152)" fill="none" stroke="#fff" stroke-linejoin="round" stroke-width="1"/>
      <rect id="長方形_37" data-name="長方形 37" width="2" height="2" transform="translate(3.5 13.152)" fill="none" stroke="#fff" stroke-linejoin="round" stroke-width="1"/>
      <rect id="長方形_39" data-name="長方形 39" width="2" height="2" transform="translate(11.5 13.152)" fill="none" stroke="#fff" stroke-linejoin="round" stroke-width="1"/>
      <line id="線_14" data-name="線 14" x2="6.878" transform="translate(4.887 1.723)" fill="none" stroke="#fff" stroke-miterlimit="10" stroke-width="1"/>
      <path id="パス_14" data-name="パス 14" d="M14.494,7H16.5a1.206,1.206,0,0,1,1.148,1.256V22.067A1.206,1.206,0,0,1,16.5,23.323H2.148A1.206,1.206,0,0,1,1,22.067V8.256A1.206,1.206,0,0,1,2.148,7h2.01" transform="translate(-1 -5.277)" fill="none" stroke="#fff" stroke-miterlimit="10" stroke-width="1"/>
    </g>
    <g id="グループ_124" data-name="グループ 124" transform="translate(0 24.652)">
      <path id="パス_124" data-name="パス 124" d="M-3.247-10.336c-.085.068-.119.119-.119.17s.034.085.119.136A23.466,23.466,0,0,1-.034-7.888h-4.9c-1.513,0-2.04-.034-2.142-.034-.17,0-.187.017-.187.187v1.326c0,.17.017.187.187.187.1,0,.629-.034,2.142-.034H-.782v5.032c0,.476-.153.612-.646.612q-.79,0-2.091-.1A5.462,5.462,0,0,1-2.941.646c.136.544.136.544.663.544,1.717,0,2.346-.1,2.839-.442C.918.493,1.1.051,1.1-.782c0-.629-.017-1.411-.017-2.652V-6.256H4.794A11.633,11.633,0,0,1,2.516-4.25,5.909,5.909,0,0,1,3.689-3.5c.221.187.323.272.408.272.1,0,.2-.085.391-.255A15.435,15.435,0,0,0,6.817-5.9a2.6,2.6,0,0,1,.629-.629c.17-.119.238-.187.238-.323,0-.187-.034-.289-.561-.714-.544-.459-.714-.493-.85-.493a.564.564,0,0,0-.255.085.659.659,0,0,1-.391.085H1.785l.272-.238c.187-.153.187-.17.051-.289l-.6-.493a24.838,24.838,0,0,0,3.519-2.55,2.011,2.011,0,0,1,.629-.442c.2-.085.306-.17.306-.323,0-.187-.1-.34-.612-.833-.425-.425-.663-.544-.8-.544a.506.506,0,0,0-.238.085,1.282,1.282,0,0,1-.442.051H-3.247c-1.666,0-2.244-.034-2.346-.034-.153,0-.17.017-.17.187v1.275c0,.17.017.187.17.187.1,0,.68-.034,2.346-.034H2.822A16.9,16.9,0,0,1,.085-9.928c-.7-.459-1.411-.867-2.142-1.258-.153-.068-.2-.068-.34.068Zm.425,19.819c-.221.085-.255.119-.17.289.17.34.323.7.476,1.071-.663.051-1.36.085-2.023.119.782-1,1.717-2.312,2.584-3.689a2.023,2.023,0,0,1,.561-.7c.136-.068.187-.136.187-.255,0-.1-.051-.17-.2-.255a15.792,15.792,0,0,0-1.428-.731,8.9,8.9,0,0,1-.527,1.173c-.374.646-.748,1.275-1.139,1.887-.238-.289-.493-.561-.748-.85A27.018,27.018,0,0,0-3.757,5.2a1.037,1.037,0,0,1,.323-.408c.085-.068.153-.136.153-.221,0-.1-.068-.187-.221-.272a14.3,14.3,0,0,0-1.479-.629,5.2,5.2,0,0,1-.391,1.054A16.414,16.414,0,0,1-6.29,6.44L-6.715,6c-.068-.068-.1-.1-.153-.1s-.1.051-.17.153l-.629.833c-.068.1-.119.17-.119.221s.034.085.1.153a24.2,24.2,0,0,1,2.3,2.482l-.952,1.292A13.447,13.447,0,0,1-7.752,11c.085.629.153,1.02.238,1.428.034.17.085.289.2.289a.458.458,0,0,0,.255-.085,1.833,1.833,0,0,1,.629-.136l1.6-.1v4.539c0,1.564-.034,2.125-.034,2.227,0,.17.017.187.187.187h1.292c.17,0,.187-.017.187-.187,0-.085-.034-.663-.034-2.227V12.254c.391-.034.782-.068,1.173-.119l.2.765c.034.153.1.17.289.119l.9-.289c.221-.068.255-.153.2-.34A15.643,15.643,0,0,0-1.717,9.313c-.085-.153-.119-.17-.323-.1ZM5.423,8.106A49.285,49.285,0,0,1,5,16.011c-.17.9-.459,1.462-1.088,1.462a13.186,13.186,0,0,1-2.159-.153,4.994,4.994,0,0,1,.476,1.292c.119.544.119.544.629.578.442.034.918.017,1.275.017,1.6-.034,2.312-.85,2.584-2.584a54.6,54.6,0,0,0,.493-8.517c0-.476,0-.935.034-1.411,0-.17-.034-.2-.2-.2-.1,0-.493.034-1.717.034H2.108c.153-.34.272-.7.391-1.037a2.183,2.183,0,0,1,.476-.867c.153-.153.17-.2.17-.34,0-.119-.136-.2-.357-.272-.34-.085-1-.238-1.649-.357A8.613,8.613,0,0,1,.816,5.1,10.317,10.317,0,0,1-1.615,9.211a3.216,3.216,0,0,1,.918.8c.17.2.272.306.357.306.1,0,.187-.1.374-.306a10.405,10.405,0,0,0,1.326-1.9ZM.391,10.945c-.221.119-.221.17-.1.34a17.81,17.81,0,0,1,1.785,3.281c.068.187.136.221.323.1l1.071-.646c.2-.1.238-.153.153-.323a16.406,16.406,0,0,0-1.938-3.247c-.1-.119-.153-.153-.34-.051Zm-8.126,6.647a3.523,3.523,0,0,1,.9.408.839.839,0,0,0,.391.2c.1,0,.17-.119.238-.374a19.8,19.8,0,0,0,.646-3.264,1.758,1.758,0,0,1,.1-.544.615.615,0,0,0,.1-.255c0-.085-.085-.17-.289-.2-.34-.068-.8-.119-1.309-.187a5.732,5.732,0,0,1-.034.952A12.907,12.907,0,0,1-7.735,17.592Zm5.287-3.978c-.2.068-.221.1-.153.289a26.537,26.537,0,0,1,.765,3.264c.034.17.051.221.306.136l.9-.306c.221-.068.238-.119.2-.306a26.117,26.117,0,0,0-.867-3.213c-.068-.187-.1-.221-.306-.153ZM2.414,31.767a7.094,7.094,0,0,0-1.36-.136c-1.717,0-2.975,1-2.975,2.4,0,1.462,1.088,2.38,3.043,2.38,2.006,0,2.975-.782,3.111-2.21a10.1,10.1,0,0,1,1.836,1.36.235.235,0,0,0,.153.085.206.206,0,0,0,.153-.1,9.184,9.184,0,0,0,.782-1.309c.085-.187.068-.238-.085-.34A11.126,11.126,0,0,0,4.25,32.26c-.085-1.462-.119-2.652-.119-4.556a19.157,19.157,0,0,0,2.618-.357c.119-.017.187-.1.187-.255a6.8,6.8,0,0,0-.1-1.207c-.034-.187-.068-.255-.272-.2-.731.119-1.615.238-2.414.306,0-.782,0-1.224.034-1.8a1.918,1.918,0,0,1,.136-.6.729.729,0,0,0,.1-.289c0-.153-.119-.238-.306-.289a9.464,9.464,0,0,0-2.057-.323,7.008,7.008,0,0,1,.221,1.666c0,.629.017,1.173.017,1.785a24.593,24.593,0,0,1-3.876-.051,10.415,10.415,0,0,0,.119,1.547c.017.17.085.221.306.221a34.377,34.377,0,0,0,3.5.017C2.363,29.217,2.38,30.458,2.414,31.767Zm.034,1.615a2.394,2.394,0,0,1,.017.34c0,.612-.544,1.1-1.394,1.1-1,0-1.377-.323-1.377-.85s.476-.816,1.275-.816A4.735,4.735,0,0,1,2.448,33.382ZM-5.44,22.723a8.555,8.555,0,0,1-.119,2.006,36.927,36.927,0,0,0-.7,6.443,15.836,15.836,0,0,0,.731,5.185c.085.238.153.255.34.2a7.12,7.12,0,0,0,1.275-.289c.153-.051.221-.1.2-.221a3.21,3.21,0,0,1,.017-.9,10.076,10.076,0,0,1,.867-2.584.493.493,0,0,0,.1-.272.367.367,0,0,0-.1-.238,4.521,4.521,0,0,1-.6-1.071c-.357.85-.714,1.581-1.054,2.363-.051-.714-.051-1.5-.051-2.176a33.757,33.757,0,0,1,.85-6.188,3.45,3.45,0,0,1,.306-.935.868.868,0,0,0,.119-.374c0-.136-.068-.238-.255-.34A13.275,13.275,0,0,0-5.44,22.723ZM-4.59,48.1a4.486,4.486,0,0,0-.9,2.431c0,2.21,1.955,3.434,5.763,3.434a25.635,25.635,0,0,0,5.066-.408c.2-.034.306-.1.289-.255a14.214,14.214,0,0,0-.272-1.666c-.034-.153-.119-.2-.357-.153a21.628,21.628,0,0,1-4.607.493c-2.924,0-4.029-.527-4.029-1.6A2.794,2.794,0,0,1-3.2,49.087c.085-.136.068-.221-.085-.306C-3.723,48.543-4.148,48.322-4.59,48.1Zm.374-6.426c-.034.612-.068,1.1-.068,1.513,0,.2.068.272.221.306a21.218,21.218,0,0,0,2.975.289,11.69,11.69,0,0,0,1.394-.051c-.595.357-1.343.833-2.227,1.411a4.062,4.062,0,0,1,1.19.544.714.714,0,0,0,.357.1.724.724,0,0,0,.425-.153,9.9,9.9,0,0,1,4.165-1.683c.2-.017.289-.119.289-.357a11.194,11.194,0,0,0-.085-1.445c-.017-.136-.085-.2-.255-.187-1.088.068-2.363.153-3.6.153A21.446,21.446,0,0,1-4.216,41.675Zm1.071,19.717c-1.309.1-2.363.153-3.689.153.068.561.187,1.275.238,1.479a.29.29,0,0,0,.323.238c.867,0,1.938-.085,2.856-.153-.289,1.7-.527,2.958-.9,4.454-.068.255-.136.51-.221.8a1.16,1.16,0,0,0-.068.34c0,.153.1.221.374.34a4.778,4.778,0,0,0,1.275.374c.153.017.2-.051.323-.255.153-.221.323-.425.476-.646a5.653,5.653,0,0,1,4.471-2.108c1.292,0,1.938.731,1.938,1.615,0,1.071-.629,1.853-1.938,2.4a13.242,13.242,0,0,1-4.879.935,3.244,3.244,0,0,1,.918,1.207c.136.323.255.408.425.408A7.875,7.875,0,0,0,.034,72.85a11.323,11.323,0,0,0,4.335-1.36,3.81,3.81,0,0,0,1.938-3.434c0-1.751-1.53-3.213-3.791-3.213a7.353,7.353,0,0,0-4.879,1.8c.306-1.19.544-2.329.782-3.74,1.428-.187,2.346-.374,3.808-.7.153-.034.2-.085.2-.272a7.693,7.693,0,0,0-.119-1.258c-.034-.221-.119-.238-.357-.17a31.089,31.089,0,0,1-3.2.629c.085-.6.153-.935.238-1.394a1.764,1.764,0,0,1,.289-.629.559.559,0,0,0,.119-.272c0-.136-.119-.238-.34-.306a11.126,11.126,0,0,0-2.04-.357,5.64,5.64,0,0,1,.034,1.649C-2.992,60.236-3.06,60.8-3.145,61.392Zm-.323,16.1A13.56,13.56,0,0,1-.034,79.7c.085.085.136.119.2.119.051,0,.119-.051.187-.136a11.132,11.132,0,0,0,.867-1.19.471.471,0,0,0,.085-.2c0-.068-.034-.119-.119-.187a11.151,11.151,0,0,0-3.332-2.023.284.284,0,0,0-.323.085A9.311,9.311,0,0,0-3.468,77.488Zm-1.19,2.363a10.593,10.593,0,0,1-.153,1.53c-.2,1.513-.425,3.519-.527,5.491,0,.238.068.272.238.34a11.685,11.685,0,0,0,1.156.459c.221.051.289.051.391-.119a4.652,4.652,0,0,1,.731-.935,7.568,7.568,0,0,1,4.9-2.584c1.462,0,2.04.833,2.04,1.751a2.785,2.785,0,0,1-2.006,2.567,14.106,14.106,0,0,1-4.675.952,4.349,4.349,0,0,1,1.156,1.445c.153.255.306.272.68.221A14.74,14.74,0,0,0,3.621,89.8a4.166,4.166,0,0,0,2.567-3.808c0-2.193-1.479-3.638-3.961-3.638a8.288,8.288,0,0,0-5.678,2.686,28.372,28.372,0,0,1,.408-3.094,3.187,3.187,0,0,1,.34-.9.506.506,0,0,0,.085-.255c0-.136-.085-.238-.272-.323A9.564,9.564,0,0,0-4.658,79.851Z" transform="translate(9.5 55.267)" fill="#fff"/>
      <path id="パス_123" data-name="パス 123" d="M-14.781,0a.224.224,0,0,1-.238-.17l-3.094-11.509-.017-.068q0-.153.187-.153h1.666a.224.224,0,0,1,.238.17L-14.1-3.978q.017.051.051.051T-14-3.978l1.853-7.752a.213.213,0,0,1,.221-.17h1.632a.224.224,0,0,1,.238.17l1.972,7.769q.017.051.051.051t.051-.051l1.9-7.769a.224.224,0,0,1,.238-.17h1.581q.238,0,.187.221L-7.012-.17A.224.224,0,0,1-7.25,0H-8.831a.224.224,0,0,1-.238-.17l-1.989-8.109q-.017-.051-.051-.06t-.051.06l-1.9,8.109a.213.213,0,0,1-.221.17ZM6.366-10.4a.2.2,0,0,1-.059.144.2.2,0,0,1-.144.059H.366a.075.075,0,0,0-.085.085v3.179a.075.075,0,0,0,.085.085H4.259a.2.2,0,0,1,.144.059.2.2,0,0,1,.06.145v1.292a.2.2,0,0,1-.06.145.2.2,0,0,1-.144.059H.366a.075.075,0,0,0-.085.085v3.281A.075.075,0,0,0,.366-1.7h5.8a.2.2,0,0,1,.144.059.2.2,0,0,1,.059.145V-.2a.2.2,0,0,1-.059.144A.2.2,0,0,1,6.163,0h-7.65a.2.2,0,0,1-.145-.06A.2.2,0,0,1-1.691-.2V-11.7a.2.2,0,0,1,.059-.144.2.2,0,0,1,.145-.059h7.65a.2.2,0,0,1,.144.059.2.2,0,0,1,.059.144Zm9.5,4.2q-.1.051,0,.1A2.861,2.861,0,0,1,17.6-3.3a2.926,2.926,0,0,1-1.08,2.457A4.446,4.446,0,0,1,13.711,0H9.427a.2.2,0,0,1-.144-.06A.2.2,0,0,1,9.223-.2V-11.7a.2.2,0,0,1,.059-.144.2.2,0,0,1,.144-.059h4.148a4.486,4.486,0,0,1,2.856.8,2.9,2.9,0,0,1,1,2.414A2.5,2.5,0,0,1,15.87-6.2Zm-4.59-4a.075.075,0,0,0-.085.085V-6.97a.075.075,0,0,0,.085.085h2.3a2.146,2.146,0,0,0,1.419-.433,1.478,1.478,0,0,0,.519-1.2,1.548,1.548,0,0,0-.519-1.232,2.091,2.091,0,0,0-1.419-.451Zm2.431,8.483a1.994,1.994,0,0,0,1.4-.476,1.667,1.667,0,0,0,.518-1.292,1.648,1.648,0,0,0-.527-1.3,2.074,2.074,0,0,0-1.428-.467h-2.4a.075.075,0,0,0-.085.085V-1.8a.075.075,0,0,0,.085.085Z" transform="translate(3 19) rotate(90)" fill="#fff"/>
      <g id="グループ_123" data-name="グループ 123" transform="translate(3.25 152.97)">
        <path id="パス_21" data-name="パス 21" d="M361.105,3751.192h-14.25v-13.8h1.5v12.3h12.75Z" transform="translate(-347.606 -3737.397)" fill="#fff"/>
        <path id="パス_22" data-name="パス 22" d="M276.9,3620.581l-1.061-1.061,7.258-7.258,1.061,1.061Z" transform="translate(-270.862 -3612.135)" fill="#fff"/>
        <path id="パス_23" data-name="パス 23" d="M0,0H3.769V3.715Z" transform="translate(9.731)" fill="#fff"/>
      </g>
    </g>
  </g>
</svg>
