<svg xmlns="http://www.w3.org/2000/svg" xmlns:xlink="http://www.w3.org/1999/xlink" width="14.244" height="17.266" viewBox="0 0 14.244 17.266">
  <defs>
    <clipPath id="clip-path">
      <rect id="長方形_131" data-name="長方形 131" width="14.244" height="17.266" fill="#2497c1"/>
    </clipPath>
  </defs>
  <g id="グループ_312" data-name="グループ 312" clip-path="url(#clip-path)">
    <path id="パス_69" data-name="パス 69" d="M143.338,319.5c-.076,0-.194.007-.338.02v1.721c.115,0,.194.007.311.007a.692.692,0,0,0,.638-.307,1.153,1.153,0,0,0,.152-.618c0-.562-.241-.823-.763-.823" transform="translate(-138.885 -310.302)" fill="#2497c1"/>
    <path id="パス_70" data-name="パス 70" d="M67.207,319.5c-.071,0-.178,0-.207.006v.719a1.03,1.03,0,0,0,.176.013c.507,0,.569-.206.569-.385,0-.106,0-.353-.538-.353" transform="translate(-65.072 -310.302)" fill="#2497c1"/>
    <path id="パス_71" data-name="パス 71" d="M9.208,264.9a.88.88,0,0,0-.88-.88H.88a.88.88,0,0,0-.88.88v3.16a.88.88,0,0,0,.88.88H8.328a.88.88,0,0,0,.88-.88Zm-6.273,1.755a1.406,1.406,0,0,1-.87.255c-.043,0-.137,0-.137,0v1.027h-.6v-2.789l.115-.019a4.338,4.338,0,0,1,.7-.066,1.3,1.3,0,0,1,.823.24.8.8,0,0,1,.32.653.844.844,0,0,1-.347.7m2.594.793a1.388,1.388,0,0,1-1.149.473c-.152,0-.381-.018-.72-.054l-.091-.013v-2.709l.091-.013c.416-.047.658-.07.807-.07a1.31,1.31,0,0,1,1.076.44,1.452,1.452,0,0,1,.29.939,1.571,1.571,0,0,1-.3,1.008m2.356-1.817H6.647v.518H7.8v.633H6.647v1.151h-.6v-2.849H7.884Z" transform="translate(0 -256.427)" fill="#2497c1"/>
    <path id="パス_72" data-name="パス 72" d="M52.194,0h-6.3A.9.9,0,0,0,45,.9v6.27h.719V1.317a.6.6,0,0,1,.593-.6h5.881V4.876a.892.892,0,0,0,.892.88h4.143V15.967a.576.576,0,0,1-.582.579H46.313a.586.586,0,0,1-.593-.579V12.949H45v3.44a.884.884,0,0,0,.891.877H57.069a.874.874,0,0,0,.88-.877V5.76Zm1.079,5.065a.386.386,0,0,1-.388-.373V1.668l3.412,3.4Z" transform="translate(-43.705)" fill="#2497c1"/>
  </g>
</svg>
