<svg xmlns="http://www.w3.org/2000/svg" width="239.559" height="72.387" viewBox="0 0 239.559 72.387">
  <g id="グループ_426" data-name="グループ 426" transform="translate(-27.999 -7.817)">
    <g id="グループ_23" data-name="グループ 23" transform="translate(27.26 5.092)">
      <path id="パス_93" data-name="パス 93" d="M6.92-12.7a3.015,3.015,0,0,0,.17-.27,1.792,1.792,0,0,1,.19-.28.222.222,0,0,1,.16-.09q.12,0,.49.32a6.742,6.742,0,0,1,.69.69q.32.37.32.51-.06.32-.5.32H5.78v2.68A5.929,5.929,0,0,1,7.96-7.45a2.223,2.223,0,0,1,.7,1.43.9.9,0,0,1-.19.59A.587.587,0,0,1,8-5.2a1.089,1.089,0,0,1-.6-.24A5.13,5.13,0,0,0,6.8-6.9,13.144,13.144,0,0,0,5.78-8.42V-3.7q.04,2.48.16,4.7a1.1,1.1,0,0,1-.53.44,1.876,1.876,0,0,1-.83.2.574.574,0,0,1-.37-.12.352.352,0,0,1-.15-.28Q4.14.06,4.2-1.05t.08-2.91V-7.62A15.512,15.512,0,0,1,1.16-3L.9-3.22A16.984,16.984,0,0,0,2.8-7a28.222,28.222,0,0,0,1.22-4.5h-.9a5.246,5.246,0,0,0-1.52.28l-.52-1.02q.9.12,2.16.16H4.28v-.82A26.164,26.164,0,0,0,4.02-17a14.224,14.224,0,0,1,1.76.53q.5.21.5.35,0,.1-.16.2l-.34.24v3.6h.78Zm8.22-2.52a10.755,10.755,0,0,0,1.54,3.25,10.226,10.226,0,0,0,2.46,2.53l-.06.24a1.981,1.981,0,0,0-.88.56,2.357,2.357,0,0,0-.56.94,14.128,14.128,0,0,1-2.98-7.64h-1.1a8.564,8.564,0,0,0-1.92.28l-.54-1.02a21.015,21.015,0,0,0,2.12.16h1l.62-1,1.74,1.24A2.211,2.211,0,0,1,15.14-15.22Zm-3.76.9q.92.2.92.38,0,.1-.22.2l-.36.16a15.817,15.817,0,0,1-1.59,3.38A10.09,10.09,0,0,1,8-7.74l-.26-.2a13.063,13.063,0,0,0,1.38-2.58,13.323,13.323,0,0,0,.66-2.18,11.233,11.233,0,0,0,.3-2.08Zm-.74,13.1q2.16-.16,5.66-.5a23.278,23.278,0,0,0-1.92-3.44l.24-.12a10.742,10.742,0,0,1,3.1,2.88A4.932,4.932,0,0,1,18.7.22a1.549,1.549,0,0,1-.21.86.65.65,0,0,1-.57.32,1.131,1.131,0,0,1-.7-.32,10.5,10.5,0,0,0-.74-2.36Q13.1-.38,8.86.6a.619.619,0,0,1-.48.42L7.36-1q1.02-.04,2.74-.18.66-2.26,1.14-4.8.2-1.04.33-2.12a13.233,13.233,0,0,0,.11-1.88l2.62.64q-.1.4-.72.46-.5,1.74-1.28,3.81T10.64-1.22ZM25.98-14.5a20.266,20.266,0,0,0-3,.28l-.52-1q1.1.12,2.66.16H36.5l.5-.7q.06-.1.21-.31a2.579,2.579,0,0,1,.25-.31.276.276,0,0,1,.18-.1,1.818,1.818,0,0,1,.61.36,9.309,9.309,0,0,1,.91.76q.42.4.42.54-.06.32-.52.32Zm.26,8.44a12.825,12.825,0,0,1-1.11,4.33,8.331,8.331,0,0,1-3.01,3.39l-.22-.22a9.716,9.716,0,0,0,2.25-4.2,21.924,21.924,0,0,0,.57-5.22v-2.3a16.567,16.567,0,0,0-.14-2.4l2,.94h9.14l.36-.48q.06-.08.17-.22a1.486,1.486,0,0,1,.18-.2.227.227,0,0,1,.15-.06,1.537,1.537,0,0,1,.55.3,7.646,7.646,0,0,1,.8.64q.37.34.37.48a1.414,1.414,0,0,1-.8.4v1.94q.06,2.44.14,3.76a1.507,1.507,0,0,1-.62.35,2.528,2.528,0,0,1-.88.19q-.32,0-.32-.4,0-.04.08-.54v-.48ZM26.32-8q0,.9-.04,1.36H35.9v-4.52H26.32Zm24.12-5.68a2.272,2.272,0,0,0,.19-.24q.13-.18.25-.18.2,0,.77.5t.57.72a.789.789,0,0,1-.25.19.994.994,0,0,1-.37.11v.8l.04.64q0,.26.04.82-.06.18-.46.37a1.706,1.706,0,0,1-.72.19h-.2v-.54H48.48v.66l.02-.02a6.7,6.7,0,0,1,1.94.41,2.7,2.7,0,0,1,1.1.73,1.3,1.3,0,0,1,.34.8.72.72,0,0,1-.18.5.591.591,0,0,1-.46.2,1,1,0,0,1-.44-.12,4.669,4.669,0,0,0-.97-1.21,7.643,7.643,0,0,0-1.35-1.03v1.02l.02.62q.02.7.08,1.32a.9.9,0,0,1-.46.39,1.649,1.649,0,0,1-.74.19.339.339,0,0,1-.29-.12A.454.454,0,0,1,47-6.24q.06-.52.08-1l.02-.46v-.94a13.13,13.13,0,0,1-3.96,2.76l-.18-.32a10.981,10.981,0,0,0,2.13-1.84,11.468,11.468,0,0,0,1.59-2.26H45.36v.24q0,.1-.37.26a1.874,1.874,0,0,1-.75.16.235.235,0,0,1-.2-.12.493.493,0,0,1-.08-.28q.04-.22.1-1.02v-.72A14.3,14.3,0,0,0,43.92-14l1.54.74H47.1V-14.5H45.86a10.809,10.809,0,0,0-2.2.28l-.5-1.02q1.1.12,2.66.16H47.1A13.174,13.174,0,0,0,46.98-17a14.691,14.691,0,0,1,1.56.51q.44.19.44.31,0,.1-.16.2l-.34.22v.68h1.74l.38-.56q.08-.1.19-.25a2.046,2.046,0,0,1,.19-.23.23.23,0,0,1,.16-.08,1.318,1.318,0,0,1,.51.29,6.506,6.506,0,0,1,.72.62q.33.33.33.47-.08.32-.5.32H48.48v1.24h1.66Zm8.38-.88a3.144,3.144,0,0,1,.19-.27q.13-.17.21-.26a.222.222,0,0,1,.16-.09,1.338,1.338,0,0,1,.52.32,7.359,7.359,0,0,1,.75.69q.35.37.35.51-.08.32-.5.32H59.28A9.636,9.636,0,0,1,57.12-9.4a11.123,11.123,0,0,0,4,1.9l-.04.22A1.578,1.578,0,0,0,60-5.94,9.641,9.641,0,0,1,56.28-8.6,13.145,13.145,0,0,1,51.4-6.08l-.12-.28a11.722,11.722,0,0,0,4.36-3.1,14.374,14.374,0,0,1-1.48-3.08,9.4,9.4,0,0,1-1.8,1.94l-.26-.2a13.285,13.285,0,0,0,1.08-1.94,12.667,12.667,0,0,0,.7-2.13,11.287,11.287,0,0,0,.34-2.07q2.18.64,2.18.9,0,.08-.18.16l-.36.14q-.46,1.12-.82,1.8H58.4Zm-4.14,1.22-.22.38a9.85,9.85,0,0,0,1.76,2.74,9.413,9.413,0,0,0,1.38-3.12Zm-7.58.64H45.36v1.82H47.1Zm3.2,1.82V-12.7H48.48v1.82Zm6,7.72q.1-.12.2-.26a2.733,2.733,0,0,1,.2-.25.269.269,0,0,1,.18-.11,1.461,1.461,0,0,1,.54.31,6.873,6.873,0,0,1,.78.67q.36.36.36.5-.06.32-.52.32H52.76V.52H58l.44-.64a3.554,3.554,0,0,0,.22-.3,2.583,2.583,0,0,1,.2-.27.222.222,0,0,1,.16-.09,1.551,1.551,0,0,1,.56.33,7.642,7.642,0,0,1,.82.71q.38.38.38.52-.08.3-.5.3H46.6a20.266,20.266,0,0,0-3,.28l-.52-1q1.1.12,2.64.16h1.24a25.768,25.768,0,0,0-.26-4.08,16.815,16.815,0,0,1,1.72.51q.48.19.48.33,0,.06-.14.16l-.32.2V.52h2.8V-4.66h-3.4a20.266,20.266,0,0,0-3,.28l-.5-1q1.1.12,2.66.16h9.76l.42-.6a3.145,3.145,0,0,1,.19-.27q.13-.17.21-.26a.222.222,0,0,1,.16-.09,1.4,1.4,0,0,1,.53.31,8.182,8.182,0,0,1,.77.66q.36.35.36.49-.08.32-.52.32H52.76v2.1h3.12ZM80.66-15.88q.86.44.86.64,0,.08-.22.12l-.36.04a18.75,18.75,0,0,1-2.89,2.66,19.418,19.418,0,0,1-3.43,2.06l-.22-.32a18.284,18.284,0,0,0,2.84-2.52,13.736,13.736,0,0,0,1.3-1.74,11.478,11.478,0,0,0,.96-1.78Zm-7.32,6.1a3.552,3.552,0,0,0,.22-.3,2.583,2.583,0,0,1,.2-.27.222.222,0,0,1,.16-.09,1.374,1.374,0,0,1,.53.34,8.776,8.776,0,0,1,.77.72q.36.38.36.52-.08.32-.52.32h-2.7v4.7q.04,2.48.16,4.7a1.734,1.734,0,0,1-.54.41,1.82,1.82,0,0,1-.86.19.544.544,0,0,1-.35-.12.352.352,0,0,1-.15-.28q.08-1.18.14-2.29t.08-2.91v-4.4H68.12a26.158,26.158,0,0,1-.3,3.87,11.74,11.74,0,0,1-1.11,3.41A8.9,8.9,0,0,1,64.3,1.68l-.24-.22a10.935,10.935,0,0,0,2.01-4.41,29.216,29.216,0,0,0,.55-5.59h-.8a4.271,4.271,0,0,0-1.36.28l-.5-1.02a15.017,15.017,0,0,0,1.8.16h.86v-5.42h-.68a2.948,2.948,0,0,0-1.08.28l-.5-1.02q1.1.12,2.66.16h5.36l.44-.64a3.555,3.555,0,0,0,.22-.3,2.584,2.584,0,0,1,.2-.27.222.222,0,0,1,.16-.09,1.493,1.493,0,0,1,.55.33,8.231,8.231,0,0,1,.81.71q.38.38.38.52-.08.32-.52.32H72.36v5.42h.54Zm-5.22-4.76v5.42h2.72v-5.42Zm12.6,3.78q.9.44.9.62,0,.08-.24.12l-.36.04a16.724,16.724,0,0,1-3.23,2.97,18.754,18.754,0,0,1-3.97,2.13l-.16-.28a17.044,17.044,0,0,0,3.56-2.92A11.727,11.727,0,0,0,78.58-9.8a9.576,9.576,0,0,0,.96-1.78Zm.36,5.04q.94.38.94.58,0,.1-.22.14l-.38.04a15.649,15.649,0,0,1-3.69,3.95,18.779,18.779,0,0,1-4.89,2.57l-.14-.32a16.376,16.376,0,0,0,4.98-3.98,11.123,11.123,0,0,0,1.26-1.85A9.926,9.926,0,0,0,79.8-6.5ZM93.3-13.86q.08-.1.25-.3t.29-.2q.12,0,.51.33a8.065,8.065,0,0,1,.73.7q.34.37.34.51a.681.681,0,0,1-.28.2,2.253,2.253,0,0,1-.48.1,30.123,30.123,0,0,1-1.58,5.78,16.029,16.029,0,0,1-2.92,4.76A14.779,14.779,0,0,1,85.3,1.58l-.2-.26Q91.58-2.86,93-12.8H89.96a20.355,20.355,0,0,1-1.38,2.96A5.326,5.326,0,0,1,90.69-8.6a2.1,2.1,0,0,1,.67,1.4.977.977,0,0,1-.2.63.635.635,0,0,1-.52.25,1.041,1.041,0,0,1-.62-.24A6.8,6.8,0,0,0,88.3-9.32,14.942,14.942,0,0,1,85.26-5.7L85-5.9a21.6,21.6,0,0,0,3.26-6.52,17.572,17.572,0,0,0,.56-2.31,12.633,12.633,0,0,0,.24-2.13q2.34.58,2.34.86,0,.1-.16.16l-.36.18q-.26,1.06-.7,2.3H92.9Zm3.86,1.32a26.165,26.165,0,0,0-.26-4.1,16.06,16.06,0,0,1,1.83.55q.51.21.51.35,0,.1-.16.2l-.34.22v7.96a12.135,12.135,0,0,0,4.56,2.32l-.04.22a1.533,1.533,0,0,0-.83.48,2.121,2.121,0,0,0-.49.96,10.914,10.914,0,0,1-3.2-2.06v2.18q.06,2.72.14,4.22a1.216,1.216,0,0,1-.55.43,1.926,1.926,0,0,1-.85.21.605.605,0,0,1-.39-.12.352.352,0,0,1-.15-.28q.08-1.18.14-2.29T97.16-4V-7.2a15.3,15.3,0,0,1-2.2-4.64l.28-.14A12.105,12.105,0,0,0,97.16-8.9Zm15.18,1.1a3.146,3.146,0,0,1,.19-.27q.13-.17.21-.26a.222.222,0,0,1,.16-.09q.12,0,.49.32a7.388,7.388,0,0,1,.69.68q.32.36.32.5-.06.32-.48.32h-2.76v1.3a5.7,5.7,0,0,1,2.16,1.33A2.166,2.166,0,0,1,114-6.22a.887.887,0,0,1-.18.58.568.568,0,0,1-.46.22.906.906,0,0,1-.56-.22,5.477,5.477,0,0,0-.63-1.37,12.7,12.7,0,0,0-1.01-1.41v4.74q.04,2.48.16,4.7a1.465,1.465,0,0,1-.54.41,1.9,1.9,0,0,1-.86.19.5.5,0,0,1-.34-.12.36.36,0,0,1-.14-.28q.08-1.18.14-2.29t.08-2.91v-2.8a16.655,16.655,0,0,1-3.54,4.58l-.26-.26a16.683,16.683,0,0,0,2.07-3.55,27.265,27.265,0,0,0,1.45-4.23h-.98a7.1,7.1,0,0,0-1.76.28l-.52-1.02q1,.12,2.4.16h1.14V-14.2a29.72,29.72,0,0,1-3.3.52l-.1-.3a29.018,29.018,0,0,0,3.37-1.29,17.4,17.4,0,0,0,2.75-1.49q1.6,1.36,1.6,1.6,0,.14-.3.1l-.5-.04q-.84.26-2.02.58v3.7h.78Zm9.88,5.32q.06-.12.16-.34a2.842,2.842,0,0,1,.17-.33q.07-.11.15-.11a1.474,1.474,0,0,1,.53.27,6.708,6.708,0,0,1,.76.58q.35.31.35.45a.341.341,0,0,1-.13.27.71.71,0,0,1-.31.15l-2.7.54v1.88q.06,2.36.14,3.64a1.2,1.2,0,0,1-.53.46,1.7,1.7,0,0,1-.81.22.46.46,0,0,1-.34-.12.384.384,0,0,1-.12-.28q.12-1.74.16-3.52V-4.34l-6.48,1.3-.26-.52,6.74-1.36v-7.5a26.165,26.165,0,0,0-.26-4.1,14.925,14.925,0,0,1,1.77.53q.51.21.51.35,0,.1-.18.2l-.34.24v9.98l.68-.14Zm-7.2-8.6a5.56,5.56,0,0,1,2.6,1.11,2.076,2.076,0,0,1,.84,1.49.9.9,0,0,1-.2.61.657.657,0,0,1-.52.23.985.985,0,0,1-.58-.2,5.216,5.216,0,0,0-.92-1.62,9.263,9.263,0,0,0-1.42-1.46Zm-.44,4.78a5.659,5.659,0,0,1,2.68,1.05,2.006,2.006,0,0,1,.86,1.47.878.878,0,0,1-.21.6.674.674,0,0,1-.53.24,1.013,1.013,0,0,1-.6-.2,4.751,4.751,0,0,0-.92-1.57,8.249,8.249,0,0,0-1.46-1.41ZM14.04,14.98a2.686,2.686,0,0,1,1.77.54,2.086,2.086,0,0,1,.65,1.7,3.939,3.939,0,0,1-.78,2.22,6.828,6.828,0,0,1-1.96,1.9,4.221,4.221,0,0,1-2.28.76,1.829,1.829,0,0,1-1.27-.44,1.581,1.581,0,0,1-.49-1.24,5.025,5.025,0,0,1,1-2.62q.18-.24.26-.24t.08.1a1.934,1.934,0,0,1-.2.52,5.222,5.222,0,0,0-.26.79,3.533,3.533,0,0,0-.12.87q0,.94.66.94a3.106,3.106,0,0,0,1.66-.63,6.509,6.509,0,0,0,1.61-1.53,2.839,2.839,0,0,0,.67-1.64q0-1.3-1.46-1.3a8.906,8.906,0,0,0-3.48.98A16.2,16.2,0,0,0,8,17.82l.06,1.12q.06.96.06,1.3a6.68,6.68,0,0,1-.09,1.1,2.6,2.6,0,0,1-.19.72,1.376,1.376,0,0,1-.38.42.788.788,0,0,1-.38.2q-.38,0-.54-.46a4.982,4.982,0,0,0-.68-1.24,1.727,1.727,0,0,0-.42-.4q-.26-.18-.68-.42l-.54.4q-.3.22-.47.32a.682.682,0,0,1-.35.1,1.139,1.139,0,0,1-.89-.47,1.553,1.553,0,0,1-.39-1.01.752.752,0,0,1,.23-.6.679.679,0,0,1,.43-.2,1.291,1.291,0,0,1,.41.12,1.4,1.4,0,0,0,.37.12l.16-.02a27.468,27.468,0,0,0,3.32-1.58q0-2.14-.02-3.06-.82.3-1.48.48-.42.06-.5.06a1.913,1.913,0,0,1-1.12-.32A5.041,5.041,0,0,1,2.7,13.36a.437.437,0,0,1-.16-.26q0-.08.1-.08a.839.839,0,0,1,.28.09q.2.09.3.13a3.821,3.821,0,0,0,.71.21,4.333,4.333,0,0,0,.89.09,2.759,2.759,0,0,0,.4-.02,10.873,10.873,0,0,0,1.8-.48,8.573,8.573,0,0,0-.34-2.74,1.128,1.128,0,0,0-.41-.5,2.862,2.862,0,0,0-.52-.28q-.25-.1-.33-.14l-.19-.06q-.13-.04-.13-.1,0-.14.38-.3a2.3,2.3,0,0,1,.7-.14,2.587,2.587,0,0,1,.93.18,2.264,2.264,0,0,1,.73.42,1,1,0,0,1,.3.8,1.854,1.854,0,0,1-.04.36l-.06.3a.279.279,0,0,1-.02.12,3.257,3.257,0,0,0,1.54.98,1.744,1.744,0,0,1,.58.21.416.416,0,0,1,.2.37.711.711,0,0,1-.12.45,1.018,1.018,0,0,1-.4.27l-1.06.42q-.24.08-.45.16l-.37.14v1.08q0,.62.04,1.82,1.4-.7,1.88-.88A12.266,12.266,0,0,1,14.04,14.98ZM8,11.34q-.04.56-.04.88l-.02.44a.642.642,0,0,0,.22-.12l.19-.13a.256.256,0,0,0,.13-.21.583.583,0,0,0-.12-.3Q8.32,11.82,8,11.34Zm8.66.38a2.479,2.479,0,0,1,1.16.27,2.18,2.18,0,0,1,.81.69,1.471,1.471,0,0,1,.29.84.858.858,0,0,1-.24.65.808.808,0,0,1-.58.23.783.783,0,0,1-.68-.34,2.619,2.619,0,0,0-1.88-1.24,1.477,1.477,0,0,0-.86.34,2.785,2.785,0,0,0-.4.28.76.76,0,0,1-.28.18.106.106,0,0,1-.12-.12.433.433,0,0,1,.1-.22,4.181,4.181,0,0,1,1.3-1.22A2.9,2.9,0,0,1,16.66,11.72ZM7,20.32q.04-.28.04-1.86-.64.44-1.92,1.4a10.135,10.135,0,0,0,.94.47,3.083,3.083,0,0,0,.72.27Q6.98,20.6,7,20.32Zm28.04-5.34a2.686,2.686,0,0,1,1.77.54,2.086,2.086,0,0,1,.65,1.7,3.939,3.939,0,0,1-.78,2.22,6.828,6.828,0,0,1-1.96,1.9,4.221,4.221,0,0,1-2.28.76,1.829,1.829,0,0,1-1.27-.44,1.581,1.581,0,0,1-.49-1.24,5.025,5.025,0,0,1,1-2.62q.18-.24.26-.24t.08.1a1.934,1.934,0,0,1-.2.52,5.222,5.222,0,0,0-.26.79,3.533,3.533,0,0,0-.12.87q0,.94.66.94a3.106,3.106,0,0,0,1.66-.63,6.509,6.509,0,0,0,1.61-1.53,2.839,2.839,0,0,0,.67-1.64q0-1.3-1.46-1.3a8.906,8.906,0,0,0-3.48.98A16.2,16.2,0,0,0,29,17.82l.06,1.12q.06.96.06,1.3a6.68,6.68,0,0,1-.09,1.1,2.6,2.6,0,0,1-.19.72,1.376,1.376,0,0,1-.38.42.788.788,0,0,1-.38.2q-.38,0-.54-.46a4.982,4.982,0,0,0-.68-1.24,1.727,1.727,0,0,0-.42-.4q-.26-.18-.68-.42l-.54.4q-.3.22-.47.32a.682.682,0,0,1-.35.1,1.139,1.139,0,0,1-.89-.47,1.553,1.553,0,0,1-.39-1.01.752.752,0,0,1,.23-.6.679.679,0,0,1,.43-.2,1.291,1.291,0,0,1,.41.12,1.4,1.4,0,0,0,.37.12l.16-.02a27.468,27.468,0,0,0,3.32-1.58q0-2.14-.02-3.06-.82.3-1.48.48-.42.06-.5.06a1.913,1.913,0,0,1-1.12-.32,5.041,5.041,0,0,1-1.22-1.14.437.437,0,0,1-.16-.26q0-.08.1-.08a.839.839,0,0,1,.28.09q.2.09.3.13a3.821,3.821,0,0,0,.71.21,4.333,4.333,0,0,0,.89.09,2.759,2.759,0,0,0,.4-.02,10.873,10.873,0,0,0,1.8-.48,8.573,8.573,0,0,0-.34-2.74,1.128,1.128,0,0,0-.41-.5,2.862,2.862,0,0,0-.52-.28q-.25-.1-.33-.14l-.19-.06q-.13-.04-.13-.1,0-.14.38-.3a2.3,2.3,0,0,1,.7-.14,2.587,2.587,0,0,1,.93.18,2.264,2.264,0,0,1,.73.42,1,1,0,0,1,.3.8,1.854,1.854,0,0,1-.04.36l-.06.3a.279.279,0,0,1-.02.12,3.257,3.257,0,0,0,1.54.98,1.744,1.744,0,0,1,.58.21.416.416,0,0,1,.2.37.711.711,0,0,1-.12.45,1.018,1.018,0,0,1-.4.27l-1.06.42q-.24.08-.45.16l-.37.14v1.08q0,.62.04,1.82,1.4-.7,1.88-.88A12.266,12.266,0,0,1,35.04,14.98ZM29,11.34q-.04.56-.04.88l-.02.44a.642.642,0,0,0,.22-.12l.19-.13a.256.256,0,0,0,.13-.21.583.583,0,0,0-.12-.3Q29.32,11.82,29,11.34Zm8.66.38a2.479,2.479,0,0,1,1.16.27,2.18,2.18,0,0,1,.81.69,1.471,1.471,0,0,1,.29.84.858.858,0,0,1-.24.65.808.808,0,0,1-.58.23.783.783,0,0,1-.68-.34,2.619,2.619,0,0,0-1.88-1.24,1.477,1.477,0,0,0-.86.34,2.785,2.785,0,0,0-.4.28.76.76,0,0,1-.28.18.106.106,0,0,1-.12-.12.433.433,0,0,1,.1-.22,4.181,4.181,0,0,1,1.3-1.22A2.9,2.9,0,0,1,37.66,11.72ZM28,20.32q.04-.28.04-1.86-.64.44-1.92,1.4a10.135,10.135,0,0,0,.94.47,3.083,3.083,0,0,0,.72.27Q27.98,20.6,28,20.32Zm23.56-9.54q0,.34-.52.74a12.167,12.167,0,0,1-2.62,1.52q-.06.34-.22,1.02-1.46,7.02-1.7,7.78a3.581,3.581,0,0,1-.45.99.672.672,0,0,1-.55.31.957.957,0,0,1-.96-1,2.3,2.3,0,0,1,.24-.88,34.873,34.873,0,0,0,2.46-7.82,5.763,5.763,0,0,1-1.58.24,2.777,2.777,0,0,1-2.08-1.2.383.383,0,0,1-.14-.24.106.106,0,0,1,.12-.12,1.189,1.189,0,0,1,.3.1,3.672,3.672,0,0,0,1.32.28,4.591,4.591,0,0,0,1.08-.16,10.944,10.944,0,0,0,1.24-.4q.1-.66.26-1.9a3.955,3.955,0,0,0,.04-.56,1.688,1.688,0,0,0-.24-.98,2.973,2.973,0,0,0-.84-.72q-.16-.1-.16-.18,0-.06.15-.1a1.366,1.366,0,0,1,.35-.04,3.06,3.06,0,0,1,.63.08,3.16,3.16,0,0,1,.67.22,2.222,2.222,0,0,1,.67.42.954.954,0,0,1,.25.72,1.124,1.124,0,0,1-.02.22q-.02.1-.04.18a2.73,2.73,0,0,0,.74.56,4.277,4.277,0,0,0,.78.28,3.317,3.317,0,0,1,.62.26A.411.411,0,0,1,51.56,10.78Zm-2.78.58q.92-.52.92-.8a.612.612,0,0,0-.13-.36q-.13-.18-.43-.52Zm9.26.3a1.929,1.929,0,0,1,.7.71,1.618,1.618,0,0,1,.24.77q0,.54-.92.68-.12.02-.53.07a3.537,3.537,0,0,0-.75.17,4.594,4.594,0,0,0-.71.28,5,5,0,0,0-.55.3.506.506,0,0,1-.24.08q-.1,0-.1-.08a.32.32,0,0,1,.08-.2q.12-.1.24-.21t.28-.25q.56-.44.87-.73a.783.783,0,0,0,.31-.51q0-.16-.3-.4a2.843,2.843,0,0,0-1.8-.56,3.509,3.509,0,0,0-.49.03q-.21.03-.25.03-.28,0-.28-.16,0-.12.26-.24a5.407,5.407,0,0,1,1.8-.34,4.51,4.51,0,0,1,1.19.15A3.35,3.35,0,0,1,58.04,11.66Zm-.82,9.76q.92,0,1.16.4a.645.645,0,0,1,.14.44.8.8,0,0,1-.61.81,5.388,5.388,0,0,1-1.69.21,7.106,7.106,0,0,1-3.56-.8,2.628,2.628,0,0,1-1.4-2.44,3.228,3.228,0,0,1,.08-.74,2.1,2.1,0,0,1,.18-.52q.12-.22.24-.4t.22-.18q.08,0,.08.12a.971.971,0,0,1-.04.23q-.04.15-.06.27a1.873,1.873,0,0,0-.02.3,2.49,2.49,0,0,0,.17.86,2.059,2.059,0,0,0,.61.84,2.8,2.8,0,0,0,1.05.51,5.677,5.677,0,0,0,1.61.21q.2,0,.47-.02l.53-.04A8.127,8.127,0,0,1,57.22,21.42Zm15.88-9.4q2.4,0,2.4,3.18a13.339,13.339,0,0,1-.23,2.14,14.871,14.871,0,0,1-.71,2.64,5.652,5.652,0,0,1-1.16,2,3.339,3.339,0,0,1-.73.59,1.381,1.381,0,0,1-.67.23q-.58,0-.92-.96a6.217,6.217,0,0,0-.98-1.7.984.984,0,0,1-.2-.36q0-.04.06-.04a1.134,1.134,0,0,1,.38.19q.3.19.46.27.14.08.39.24a3.362,3.362,0,0,0,.43.24.839.839,0,0,0,.34.08q.66,0,1.19-1.1a10.706,10.706,0,0,0,.82-2.55,12.552,12.552,0,0,0,.29-2.35,2.985,2.985,0,0,0-.28-1.45.977.977,0,0,0-.92-.49,5.82,5.82,0,0,0-2.32.72,24.413,24.413,0,0,1-2.98,7.56,2.794,2.794,0,0,1-.62.76,1.034,1.034,0,0,1-.64.28.606.606,0,0,1-.46-.19.711.711,0,0,1-.18-.51,2.8,2.8,0,0,1,.74-1.58,16.219,16.219,0,0,0,2.84-5.7q-.92.44-1.51.68a2.655,2.655,0,0,1-.91.24,1.562,1.562,0,0,1-.86-.29,2.539,2.539,0,0,1-.73-.73,1.589,1.589,0,0,1-.29-.88q0-.2.1-.2a.567.567,0,0,1,.24.09q.16.09.24.13a2.909,2.909,0,0,0,1.24.26,7.217,7.217,0,0,0,1.37-.16,10.067,10.067,0,0,0,1.41-.44A10.811,10.811,0,0,0,70,10.74a2.36,2.36,0,0,0-.42-1.54,3.3,3.3,0,0,0-.45-.48q-.27-.24-.27-.32,0-.12.2-.19a1.606,1.606,0,0,1,.52-.07,3.456,3.456,0,0,1,.8.1,1.591,1.591,0,0,1,.64.28.987.987,0,0,1,.52.88,4.99,4.99,0,0,1-.16.92,4.52,4.52,0,0,0-.18.76l-.22,1.34A6.557,6.557,0,0,1,73.1,12.02Zm4.16-.06a6.011,6.011,0,0,1,2.69.6,3.98,3.98,0,0,1,1.53,1.31,2.645,2.645,0,0,1,.48,1.41,1.847,1.847,0,0,1-.21.89,1.7,1.7,0,0,1-.53.61,1.1,1.1,0,0,1-.62.22.683.683,0,0,1-.34-.09q-.16-.09-.4-.25a4.587,4.587,0,0,0-2.08-.58q-.28-.04-.28-.12t.3-.12l.86-.1.48-.06a3.078,3.078,0,0,0,.81-.24.462.462,0,0,0,.21-.44,2.29,2.29,0,0,0-.9-1.73,5.165,5.165,0,0,0-2.06-1.11q-.18-.06-.18-.12Q77.02,11.96,77.26,11.96ZM94.34,9.02a8.917,8.917,0,0,1,3.42.7,6.625,6.625,0,0,1,2.84,2.24,6.414,6.414,0,0,1,1.14,3.92A5.97,5.97,0,0,1,100,20.43a9.078,9.078,0,0,1-3.95,2.24,15.683,15.683,0,0,1-4.01.59,1.07,1.07,0,0,1-.26-.03q-.12-.03-.12-.07,0-.08.26-.15a4.816,4.816,0,0,1,.52-.11,11.432,11.432,0,0,0,5.49-2.31,5.888,5.888,0,0,0,2.13-4.81,6.227,6.227,0,0,0-.94-3.59,5.3,5.3,0,0,0-2.3-1.95,6.841,6.841,0,0,0-2.7-.58,3.673,3.673,0,0,0-.46.02,6.061,6.061,0,0,1,.4,1.28,6.833,6.833,0,0,1,.16,1.4,8.964,8.964,0,0,1-.18,1.69,10.6,10.6,0,0,1-.54,1.85,14.8,14.8,0,0,1-1.49,2.98,9.385,9.385,0,0,1-1.65,1.96,2.293,2.293,0,0,1-1.3.68,1.858,1.858,0,0,1-1.39-.74,5.476,5.476,0,0,1-1.04-1.92,7.6,7.6,0,0,1-.39-2.4,6.712,6.712,0,0,1,1.17-3.9,7.816,7.816,0,0,1,3.04-2.62A8.708,8.708,0,0,1,94.34,9.02Zm-.8,2.2a5.173,5.173,0,0,0-.22-1.52,6.651,6.651,0,0,0-2.88,1.08,6.531,6.531,0,0,0-2.1,2.27,6.165,6.165,0,0,0-.78,3.07,5.63,5.63,0,0,0,.29,1.93,3.316,3.316,0,0,0,.66,1.17q.37.38.59.38a1.8,1.8,0,0,0,1.15-.72,12.079,12.079,0,0,0,1.29-1.68,13.7,13.7,0,0,0,1.54-3.09A9.261,9.261,0,0,0,93.54,11.22Zm27.04-3.24.2-.27a2.586,2.586,0,0,1,.23-.28.252.252,0,0,1,.17-.09,1.493,1.493,0,0,1,.55.33,8.123,8.123,0,0,1,.8.7q.37.37.37.51-.06.32-.52.32h-6.04a12.81,12.81,0,0,0,3.22,2.27,17.8,17.8,0,0,0,3.92,1.49l-.02.22a1.424,1.424,0,0,0-.75.41,1.717,1.717,0,0,0-.45.85,14.654,14.654,0,0,1-3.69-2.15,11.927,11.927,0,0,1-2.79-3.09h-.1V11q.04,2.18.12,3.46a1.047,1.047,0,0,1-.54.35,2.426,2.426,0,0,1-.88.17.394.394,0,0,1-.42-.4q.1-1.08.14-2.88V10.06a13.364,13.364,0,0,1-3.13,2.62,19.738,19.738,0,0,1-4.13,1.9l-.18-.32a16.34,16.34,0,0,0,3.54-2.22,14.316,14.316,0,0,0,2.66-2.84H110.6a20.266,20.266,0,0,0-3,.28l-.54-1.02q1.1.12,2.66.16h4.38a15.863,15.863,0,0,0-.16-2.54,14.38,14.38,0,0,1,1.74.53q.5.21.5.35,0,.08-.16.18l-.34.22V8.62h4.46Zm1.02,8.26q.06-.08.18-.27a1.673,1.673,0,0,1,.21-.28.252.252,0,0,1,.17-.09,1.329,1.329,0,0,1,.52.33,8.313,8.313,0,0,1,.75.7q.35.37.35.51-.06.32-.48.32h-3.48a9.235,9.235,0,0,0,1.85,2.58,8.819,8.819,0,0,0,2.45,1.76l-.02.2a1.254,1.254,0,0,0-.72.42,2.291,2.291,0,0,0-.46.9,9.181,9.181,0,0,1-2.02-2.34,13.3,13.3,0,0,1-1.42-3.24v2.14q.06,2.68.14,4.16a1.008,1.008,0,0,1-.53.38,2.145,2.145,0,0,1-.83.18.432.432,0,0,1-.32-.12.384.384,0,0,1-.12-.28q.12-1.62.16-3.26V19.1a13.8,13.8,0,0,1-5.16,4.46l-.2-.32a12.909,12.909,0,0,0,2.72-2.57,14.762,14.762,0,0,0,1.94-3.21H114.8l-.06-.3q-.08.3-.5.3h-3v.62a4.844,4.844,0,0,1,2.2.94,1.705,1.705,0,0,1,.7,1.22.788.788,0,0,1-.19.55.631.631,0,0,1-.49.21.959.959,0,0,1-.56-.2,3.951,3.951,0,0,0-.63-1.18,9.2,9.2,0,0,0-1.03-1.18v1.9q.06,2.38.14,3.66a1.04,1.04,0,0,1-.51.39,1.839,1.839,0,0,1-.77.19.394.394,0,0,1-.42-.4q.1-1.08.14-2.88V19.64a12.914,12.914,0,0,1-3.64,3.68l-.22-.3a13.8,13.8,0,0,0,3.38-5.56h-.98a6.614,6.614,0,0,0-1.72.28l-.52-1.02q1.06.12,2.52.16h1.18a20.093,20.093,0,0,0-.18-2.92,12.974,12.974,0,0,1,1.63.53q.47.21.47.35,0,.08-.16.18l-.34.22v1.64h1.12l.86-1.16q.94.82,1.5,1.4l-.06-.24h3.32A19.256,19.256,0,0,0,117.8,14a12.678,12.678,0,0,1,1.67.53q.47.21.47.35,0,.08-.14.18l-.32.22v1.6h1.7Zm18.92-5.94a1.65,1.65,0,0,1,.73.3,4.262,4.262,0,0,1,.87.7,1.123,1.123,0,0,1,.38.72.554.554,0,0,1-.15.41,3.143,3.143,0,0,1-.49.37,4.738,4.738,0,0,0-.49.33,1.475,1.475,0,0,0-.33.37,23.608,23.608,0,0,1-5.86,6.26,19.43,19.43,0,0,1-7.06,3.28l-.22.02q-.18,0-.18-.12,0-.08.28-.2a24.738,24.738,0,0,0,6.49-3.94,24.734,24.734,0,0,0,5.31-6.64.806.806,0,0,0,.12-.36q0-.18-.22-.18a1.175,1.175,0,0,0-.28.04q-.82.24-1.37.36a4.846,4.846,0,0,1-1.03.12,3.106,3.106,0,0,1-1.02-.18,23.7,23.7,0,0,1-3.25,2.94,13.772,13.772,0,0,1-3.03,1.86,1.672,1.672,0,0,1-.28.08q-.08,0-.08-.06a.188.188,0,0,1,.08-.13,1.376,1.376,0,0,1,.22-.15,16.242,16.242,0,0,0,2.44-2.17,24.225,24.225,0,0,0,2.28-2.75,4.222,4.222,0,0,0,.94-1.96q0-.58-.8-.88-.22-.08-.22-.18t.22-.2a2.064,2.064,0,0,1,.76-.12,2.124,2.124,0,0,1,1.02.27,2.873,2.873,0,0,1,.82.64,1.069,1.069,0,0,1,.32.65,1.171,1.171,0,0,1-.2.52,9.01,9.01,0,0,1-.72,1.02h.16a8,8,0,0,0,1.55-.16,3.945,3.945,0,0,0,1.27-.44q.12-.06.34-.2a1.668,1.668,0,0,1,.38-.19A1.008,1.008,0,0,1,140.52,10.3Zm11.74,13.68q-.1,0-.1-.08t.34-.26a13.264,13.264,0,0,0,4.08-3.21,9.6,9.6,0,0,0,1.89-3.82,21.957,21.957,0,0,0,.49-4.99q0-.72-.08-1.88a1.662,1.662,0,0,0-.5-1.3,2.1,2.1,0,0,0-.43-.26q-.19-.08-.27-.12a.143.143,0,0,1-.08-.14q0-.16.33-.26a2.51,2.51,0,0,1,.73-.1,3.692,3.692,0,0,1,.52.04,3.314,3.314,0,0,1,1.17.63q.59.47.59.81a1.094,1.094,0,0,1-.14.46q-.08.18-.15.39a1.293,1.293,0,0,0-.07.41q0,.82-.04,1.98a18.613,18.613,0,0,1-.77,5.22,8.673,8.673,0,0,1-2.4,3.71,13.988,13.988,0,0,1-4.81,2.71A1.16,1.16,0,0,1,152.26,23.98Zm2.42-6.76q-.28,0-.59-.43a1.681,1.681,0,0,1-.31-1.01q0-.12.08-.9a14.022,14.022,0,0,0,.08-1.42,14.814,14.814,0,0,0-.18-2.74,1.266,1.266,0,0,0-.7-.94,1.177,1.177,0,0,1-.26-.13.191.191,0,0,1-.1-.15q0-.14.35-.33a1.548,1.548,0,0,1,.75-.19,1.081,1.081,0,0,1,.44.08,2.927,2.927,0,0,1,1.02.53.849.849,0,0,1,.28.63,1.634,1.634,0,0,1-.04.33q-.04.19-.06.29a15.387,15.387,0,0,0-.08,1.9l.02,1.58q0,.08.06.92.04.6.04.82a1.5,1.5,0,0,1-.22.8A.66.66,0,0,1,154.68,17.22Zm20.62-3.4a4,4,0,0,0-.47.13,1.45,1.45,0,0,1-.43.09,1.491,1.491,0,0,1-1.2-.84,2.37,2.37,0,0,1-.26-.52,1.411,1.411,0,0,1-.1-.44q0-.12.1-.12.06,0,.22.14a1.871,1.871,0,0,0,1.12.36q.36,0,1.46-.1t2.1-.24q1.22-.18,1.46-.24a2.169,2.169,0,0,0,.68-.3,2.146,2.146,0,0,1,.35-.19,1.149,1.149,0,0,1,.39-.05,2.381,2.381,0,0,1,.77.17,2.854,2.854,0,0,1,.82.45.781.781,0,0,1,.35.6.508.508,0,0,1-.17.43,1.047,1.047,0,0,1-.61.13q-.26,0-.7-.04l-.58-.02a22.931,22.931,0,0,0-2.66.22Q176.2,13.66,175.3,13.82Zm-2.26,5.82a2.136,2.136,0,0,1-.8.18,1.892,1.892,0,0,1-1.44-.84,2.331,2.331,0,0,1-.39-.68,1.841,1.841,0,0,1-.13-.6q0-.24.14-.24a.414.414,0,0,1,.22.11,1.754,1.754,0,0,0,.3.19,3.944,3.944,0,0,0,1.78.44q.5,0,3.32-.27t4.68-.47a4.427,4.427,0,0,0,.96-.17,6.334,6.334,0,0,0,.62-.25,1.105,1.105,0,0,1,.22-.1.817.817,0,0,1,.26-.04,3.97,3.97,0,0,1,1.13.25,5.506,5.506,0,0,1,1.32.63q.57.38.57.8,0,.56-.78.56a9.087,9.087,0,0,1-1.68-.28,9.54,9.54,0,0,0-1.84-.14q-.88,0-2.08.07t-1.62.09l-.5.04q-1.42.12-2.55.32A12.04,12.04,0,0,0,173.04,19.64Zm25.7-3.78a.6.6,0,0,1-.48-.25,1.509,1.509,0,0,1-.28-.67,4.166,4.166,0,0,0-.37-1.13,3.918,3.918,0,0,0-.79-1.01q-.2-.16-.2-.26,0-.12.18-.12a2.555,2.555,0,0,1,1.05.34,4.083,4.083,0,0,1,1.18.9,1.757,1.757,0,0,1,.51,1.2,1.131,1.131,0,0,1-.22.72A.7.7,0,0,1,198.74,15.86Zm-4.68,7.74a.284.284,0,0,1-.16-.04q-.06-.04-.06-.08,0-.1.38-.24a11.309,11.309,0,0,0,3.54-2.04,15.047,15.047,0,0,0,2.91-3.18,10.455,10.455,0,0,0,1.57-3.32,4.362,4.362,0,0,0,.14-.86.877.877,0,0,0-.32-.72q-.08-.06-.22-.16t-.14-.18q0-.2.34-.2a2.585,2.585,0,0,1,.86.14,2.292,2.292,0,0,1,.96.71,1.655,1.655,0,0,1,.48,1.07.447.447,0,0,1-.06.25,1.554,1.554,0,0,1-.22.24,1.027,1.027,0,0,0-.22.27,5.339,5.339,0,0,0-.3.54,27.835,27.835,0,0,1-1.84,2.95,13.728,13.728,0,0,1-2.86,2.84,10.773,10.773,0,0,1-4.38,1.95A1.386,1.386,0,0,1,194.06,23.6Zm1.66-5.9q-.62,0-.82-.92a5.655,5.655,0,0,0-.36-1.17,2.345,2.345,0,0,0-.8-.91q-.2-.14-.2-.24,0-.14.2-.14a2.727,2.727,0,0,1,.97.31,4.191,4.191,0,0,1,1.21.85,1.684,1.684,0,0,1,.54,1.22,1.294,1.294,0,0,1-.19.69A.608.608,0,0,1,195.72,17.7Zm28.8-7.4a1.65,1.65,0,0,1,.73.3,4.262,4.262,0,0,1,.87.7,1.123,1.123,0,0,1,.38.72.554.554,0,0,1-.15.41,3.143,3.143,0,0,1-.49.37,4.738,4.738,0,0,0-.49.33,1.475,1.475,0,0,0-.33.37,23.608,23.608,0,0,1-5.86,6.26,19.43,19.43,0,0,1-7.06,3.28l-.22.02q-.18,0-.18-.12,0-.08.28-.2a24.738,24.738,0,0,0,6.49-3.94,24.734,24.734,0,0,0,5.31-6.64.806.806,0,0,0,.12-.36q0-.18-.22-.18a1.175,1.175,0,0,0-.28.04q-.82.24-1.37.36a4.846,4.846,0,0,1-1.03.12,3.106,3.106,0,0,1-1.02-.18,23.7,23.7,0,0,1-3.25,2.94,13.772,13.772,0,0,1-3.03,1.86,1.672,1.672,0,0,1-.28.08q-.08,0-.08-.06a.188.188,0,0,1,.08-.13,1.376,1.376,0,0,1,.22-.15,16.242,16.242,0,0,0,2.44-2.17,24.225,24.225,0,0,0,2.28-2.75,4.222,4.222,0,0,0,.94-1.96q0-.58-.8-.88-.22-.08-.22-.18t.22-.2a2.064,2.064,0,0,1,.76-.12,2.124,2.124,0,0,1,1.02.27,2.873,2.873,0,0,1,.82.64,1.069,1.069,0,0,1,.32.65,1.171,1.171,0,0,1-.2.52,9.01,9.01,0,0,1-.72,1.02h.16a8,8,0,0,0,1.55-.16,3.945,3.945,0,0,0,1.27-.44q.12-.06.34-.2a1.668,1.668,0,0,1,.38-.19A1.008,1.008,0,0,1,224.52,10.3Z" transform="translate(-0.161 37.042)" fill="#fff"/>
      <path id="パス_94" data-name="パス 94" d="M8.668-8.723q.055-.066.115-.149A1.76,1.76,0,0,1,8.9-9.02a.162.162,0,0,1,.1-.066.912.912,0,0,1,.319.187,5,5,0,0,1,.473.4q.22.209.22.286-.044.165-.286.165H2.178V-.187H8.712l.275-.385q.033-.055.116-.17a1.418,1.418,0,0,1,.137-.17.152.152,0,0,1,.1-.055.965.965,0,0,1,.33.2,5.016,5.016,0,0,1,.5.423q.231.226.231.3-.033.176-.275.176H2.178V.638q0,.033-.093.1a.81.81,0,0,1-.259.121,1.259,1.259,0,0,1-.363.049A.278.278,0,0,1,1.276.847.2.2,0,0,1,1.2.693q.044-.649.077-1.26t.044-1.6V-6.589a14.39,14.39,0,0,0-.143-2.255L2.31-8.36H8.415ZM8.6-4.818l.11-.148a1.423,1.423,0,0,1,.127-.154.139.139,0,0,1,.094-.049.853.853,0,0,1,.308.181,4.2,4.2,0,0,1,.451.391q.209.209.209.286-.044.176-.3.176H6.413a4.652,4.652,0,0,1-.165.671,6.223,6.223,0,0,1,1.639.61,2.97,2.97,0,0,1,.924.759,1.242,1.242,0,0,1,.286.709.471.471,0,0,1-.1.319.352.352,0,0,1-.281.121.71.71,0,0,1-.275-.066,4.582,4.582,0,0,0-.913-1.139A9.683,9.683,0,0,0,6.171-3.234,3.171,3.171,0,0,1,5.055-1.782,7.061,7.061,0,0,1,2.728-.77l-.11-.176a6.294,6.294,0,0,0,1.639-.841,3.092,3.092,0,0,0,.908-1.034,4,4,0,0,0,.39-1.314H4.5a11.146,11.146,0,0,0-1.65.154l-.275-.572q.605.066,1.463.088H5.6q.033-.583.033-1.221.011-.121.011-.4H4.455A5.519,5.519,0,0,1,2.948-4.7l-.121-.132A6.572,6.572,0,0,0,3.5-5.742a6.069,6.069,0,0,0,.517-1.133A4.947,4.947,0,0,0,4.29-7.986q1.188.44,1.188.583,0,.033-.1.077L5.17-7.26a5.558,5.558,0,0,1-.484.858h3.1l.231-.352q.044-.055.115-.154t.116-.148a.122.122,0,0,1,.088-.05.821.821,0,0,1,.3.182,5.01,5.01,0,0,1,.445.385q.209.2.209.281-.044.176-.275.176H6.534q-.022.99-.088,1.617h1.9ZM20.68-5.269a6.2,6.2,0,0,0,1.914.792l-.011.121a.751.751,0,0,0-.4.242,1.061,1.061,0,0,0-.231.473,5.648,5.648,0,0,1-.946-.517V-3.4q.022.924.066,1.463a.571.571,0,0,1-.292.192,1.191,1.191,0,0,1-.434.093h-.132V-2H19.129V-.209a1.609,1.609,0,0,1-.082.566.689.689,0,0,1-.336.352,1.983,1.983,0,0,1-.748.182A.786.786,0,0,0,17.754.33,1.553,1.553,0,0,0,16.94.055V-.11q.957.077,1.155.077a.212.212,0,0,0,.16-.044.215.215,0,0,0,.038-.143V-2H17.16v.242q0,.044-.138.115a.953.953,0,0,1-.335.094l.5.363q.407.2.407.308,0,.044-.132.066l-.2.011a5.558,5.558,0,0,1-1.183.847,7.087,7.087,0,0,1-1.5.627L14.487.528q.308-.176.693-.451A5.778,5.778,0,0,0,16-.7a3.722,3.722,0,0,0,.577-.841h-.055a.189.189,0,0,1-.154-.066.233.233,0,0,1-.055-.154q.044-.561.077-1.54v-.88a5.77,5.77,0,0,1-1.3.693,7.508,7.508,0,0,1-.616,2.436A4.909,4.909,0,0,1,12.892.858l-.143-.11A5.646,5.646,0,0,0,13.9-1.265a9.92,9.92,0,0,0,.434-2.486q-.748.891-1.1,1.265a.407.407,0,0,1-.05.193.331.331,0,0,1-.127.138l-.484-1.012q.407-.2,1.782-1,.011-.286.011-.847v-1.76a12.167,12.167,0,0,0-.11-1.815l1.045.5h2.475a7.775,7.775,0,0,0-.077-1.21,8.649,8.649,0,0,1,.9.28q.253.1.253.182,0,.044-.088.1l-.176.121V-8.1h2.4l.231-.341q.044-.055.115-.154t.116-.148a.122.122,0,0,1,.088-.05.821.821,0,0,1,.3.182,4.468,4.468,0,0,1,.44.385q.2.2.2.28a.169.169,0,0,1-.088.132.371.371,0,0,1-.187.044h-4q.858.209.858.319,0,.044-.11.077l-.2.066q-.1.264-.275.638h2.5l.22-.319q.044-.055.1-.149a.871.871,0,0,1,.1-.137.127.127,0,0,1,.088-.044.718.718,0,0,1,.281.165,3.727,3.727,0,0,1,.4.357q.187.192.187.27a.236.236,0,0,1-.264.176h-.99q1.067.638.726.638h-.143A5.978,5.978,0,0,1,20.68-5.269ZM16.8-5.313a8.137,8.137,0,0,0,.638-1.034h-.671a6.153,6.153,0,0,0-1.232.154l-.275-.561q.605.066,1.463.088h.858a8.069,8.069,0,0,0,.374-1.1H15.158v2.739q0,.7-.044,1.287a6.185,6.185,0,0,0,1.441-1.265.618.618,0,0,1-.143.022.515.515,0,0,1-.3-.1A1.72,1.72,0,0,0,15.89-5.6a2.227,2.227,0,0,0-.358-.451l.088-.077a1.844,1.844,0,0,1,.929.325A.554.554,0,0,1,16.8-5.313Zm-3.509.22a3.5,3.5,0,0,0-.11-1.067A4.743,4.743,0,0,0,12.8-7.194l.132-.066a2.933,2.933,0,0,1,.869.858,1.629,1.629,0,0,1,.275.836.8.8,0,0,1-.126.468.373.373,0,0,1-.314.181A.482.482,0,0,1,13.288-5.093Zm6.864.33.066-.066a4.939,4.939,0,0,1-.979-1.518h-.924A7.022,7.022,0,0,1,17.16-4.818l.121.055Zm-.66-1.584a3.967,3.967,0,0,0,.935.913,7.451,7.451,0,0,0,.649-.913ZM17.16-3.564h3.058v-.88H17.16Zm0,1.243h3.058v-.924H17.16Zm2.574,1.012a5.18,5.18,0,0,1,1.369.4,2.2,2.2,0,0,1,.77.556A.911.911,0,0,1,22.11.2a.376.376,0,0,1-.1.27.333.333,0,0,1-.253.1.693.693,0,0,1-.264-.066,3.943,3.943,0,0,0-.775-.885,7.149,7.149,0,0,0-1.073-.809ZM33.374-4.62q.033-.044.11-.154a1.819,1.819,0,0,1,.126-.165.135.135,0,0,1,.094-.055.841.841,0,0,1,.308.192,4.8,4.8,0,0,1,.451.407q.209.215.209.292-.044.176-.275.176H31.273a19.7,19.7,0,0,1-.946,1.788A12.962,12.962,0,0,1,29.26-.583l2.871-.2.913-.066a18.572,18.572,0,0,0-1.309-1.892l.132-.066a7.291,7.291,0,0,1,1.54,1.083A4.386,4.386,0,0,1,34.265-.66a1.917,1.917,0,0,1,.264.88.681.681,0,0,1-.11.412.351.351,0,0,1-.3.149.687.687,0,0,1-.4-.165,6.8,6.8,0,0,0-.539-1.221Q31.24-.121,28.215.473A.416.416,0,0,1,27.94.7L27.434-.5,28.9-.561a16.94,16.94,0,0,0,.665-1.612q.336-.929.556-1.754h-.836a9.512,9.512,0,0,0-1.518.154l-.286-.561q.605.066,1.463.088h1.507V-6.457h-.77a7.857,7.857,0,0,0-1.386.154l-.275-.561q.605.066,1.463.088h.968v-.176a14.39,14.39,0,0,0-.143-2.255,8.423,8.423,0,0,1,1,.291q.286.116.286.193,0,.055-.088.11l-.187.121v1.716H32.78l.253-.363q.044-.055.115-.16a1.128,1.128,0,0,1,.121-.154.139.139,0,0,1,.093-.049.815.815,0,0,1,.3.187,5.122,5.122,0,0,1,.445.4q.209.209.209.286-.044.176-.286.176H31.317v2.211h1.8ZM25.718-9.086a2.717,2.717,0,0,1,1.381.467.99.99,0,0,1,.445.753.505.505,0,0,1-.121.346.392.392,0,0,1-.308.137.577.577,0,0,1-.308-.088,2.306,2.306,0,0,0-.462-.8,4.975,4.975,0,0,0-.726-.72Zm-.187,6.853a.266.266,0,0,0,.154-.033.616.616,0,0,0,.121-.2q.154-.3.594-1.309t1.584-3.663l.187.055L27.687-5.94q-.9,2.662-1.023,3.146a4.278,4.278,0,0,0-.187,1,2.953,2.953,0,0,0,.132.6q.1.352.149.633A3.178,3.178,0,0,1,26.8.088a1,1,0,0,1-.2.589.58.58,0,0,1-.473.215.32.32,0,0,1-.269-.143.87.87,0,0,1-.138-.407,9.785,9.785,0,0,0,.088-1.177,3.312,3.312,0,0,0-.055-.66.492.492,0,0,0-.165-.33,1.065,1.065,0,0,0-.539-.165v-.242Zm-.638-4.389a2.612,2.612,0,0,1,1.331.418.919.919,0,0,1,.429.715.483.483,0,0,1-.115.33.383.383,0,0,1-.3.132.559.559,0,0,1-.3-.088,2.171,2.171,0,0,0-.44-.753,3.973,3.973,0,0,0-.693-.654ZM41.646-8.965q.572.011.572.121,0,.055-.11.132l-.187.121a17.231,17.231,0,0,0,.572,3.779,7.31,7.31,0,0,0,1.463,2.755A7.826,7.826,0,0,0,46.739-.066l-.022.121a.98.98,0,0,0-.869.8A7.034,7.034,0,0,1,43.67-1.007,7.876,7.876,0,0,1,42.427-3.47a15.869,15.869,0,0,1-.583-3.162,12,12,0,0,1-.528,2.855,7.463,7.463,0,0,1-1.43,2.5A9.364,9.364,0,0,1,37.081.88L36.938.7a9.259,9.259,0,0,0,2.4-2.266,7.9,7.9,0,0,0,1.21-2.508,13.493,13.493,0,0,0,.424-2.838q.011-.165.011-.495A10.682,10.682,0,0,0,40.865-9.1Zm9.922,6.919q.022,1.364.088,2.585a.8.8,0,0,1-.292.242,1.016,1.016,0,0,1-.49.11.278.278,0,0,1-.187-.066.2.2,0,0,1-.077-.154q.044-.649.077-1.26t.044-1.6v-1.7a9.54,9.54,0,0,1-1.771,1.353l-.132-.132a10.785,10.785,0,0,0,1.782-1.908,9.966,9.966,0,0,0,1.265-2.194h-.924a11.146,11.146,0,0,0-1.65.154l-.3-.572a11.559,11.559,0,0,0,1.166.088h.55a14.486,14.486,0,0,0-.132-2.145q1.232.308,1.232.473,0,.055-.1.11l-.2.121v1.441h.4l.242-.253a1.708,1.708,0,0,0,.154-.148.267.267,0,0,1,.165-.1q.1,0,.434.374t.336.5a.767.767,0,0,1-.473.121A8.239,8.239,0,0,1,51.623-4.84a2.768,2.768,0,0,1,1.139.589,1.007,1.007,0,0,1,.368.7.418.418,0,0,1-.1.292.335.335,0,0,1-.258.115.506.506,0,0,1-.286-.088,2.229,2.229,0,0,0-.341-.649,6.129,6.129,0,0,0-.572-.682ZM57.3-5.753a1.955,1.955,0,0,0,.121-.165,1.42,1.42,0,0,1,.11-.149.122.122,0,0,1,.088-.049.815.815,0,0,1,.3.187,4.174,4.174,0,0,1,.44.4q.2.215.2.292-.033.176-.275.176H55.935V.066h1.386l.242-.374q.044-.055.115-.165A1.39,1.39,0,0,1,57.8-.638a.135.135,0,0,1,.094-.055A.841.841,0,0,1,58.2-.5a4.393,4.393,0,0,1,.451.412q.209.22.209.3-.044.176-.275.176H54.131a11.146,11.146,0,0,0-1.65.154l-.275-.561q.6.066,1.463.088h1.4V-5.06h-.682a6.153,6.153,0,0,0-1.232.154l-.275-.572q.6.066,1.463.088h.726V-6.974a14.39,14.39,0,0,0-.143-2.255,8.423,8.423,0,0,1,1,.292q.286.116.286.193,0,.055-.088.11l-.187.132V-5.39h1.122ZM62.568.561q0,.1-.215.22A.935.935,0,0,1,61.886.9a.3.3,0,0,1-.193-.066.193.193,0,0,1-.083-.154q.044-.649.077-1.259t.044-1.6v-4.5a14.391,14.391,0,0,0-.143-2.255l1.056.495H69.3l.2-.264.093-.121a.88.88,0,0,1,.1-.116.134.134,0,0,1,.088-.038.812.812,0,0,1,.3.165,4.063,4.063,0,0,1,.429.352q.2.187.2.264a.955.955,0,0,1-.451.231v5.819q.022,1.364.088,2.585a.828.828,0,0,1-.336.248,1.081,1.081,0,0,1-.467.127q-.176,0-.176-.22L69.41.33V.077H62.568Zm0-8.69V-.242H69.41V-8.129ZM68.09-6.193q.033-.044.094-.137a1.223,1.223,0,0,1,.1-.143.122.122,0,0,1,.088-.049q.066,0,.258.17A4.239,4.239,0,0,1,69-5.99q.171.193.171.27-.044.176-.275.176H67.485v3.663a1.562,1.562,0,0,1-.088.572.7.7,0,0,1-.368.358,2.539,2.539,0,0,1-.831.192,1.633,1.633,0,0,0-.088-.346.506.506,0,0,0-.176-.225,2.41,2.41,0,0,0-1.045-.3v-.165q1.3.1,1.54.1a.3.3,0,0,0,.209-.055.259.259,0,0,0,.055-.187V-5.544H64.8a11.146,11.146,0,0,0-1.65.154l-.275-.561q.6.066,1.463.088h2.354a12.823,12.823,0,0,0-.11-1.859q1.166.308,1.166.473,0,.044-.088.1l-.176.121v1.166h.4ZM63.976-5.038a3.109,3.109,0,0,1,1.171.825,1.438,1.438,0,0,1,.368.88.664.664,0,0,1-.121.412.371.371,0,0,1-.308.16.53.53,0,0,1-.363-.165,3.008,3.008,0,0,0-.291-1.045,5.156,5.156,0,0,0-.589-.99ZM80.685-7.326q.044-.055.116-.148a1.46,1.46,0,0,1,.116-.137A.127.127,0,0,1,81-7.656a.772.772,0,0,1,.292.17,4.5,4.5,0,0,1,.423.363q.2.193.2.269-.044.176-.275.176H78.507v1H81.4l.242-.352q.044-.055.116-.154t.116-.149a.122.122,0,0,1,.088-.049.821.821,0,0,1,.3.181,5.01,5.01,0,0,1,.446.385q.209.2.209.281-.033.176-.275.176H75.229a11.146,11.146,0,0,0-1.65.154l-.286-.561q.6.066,1.463.088h2.9v-1H76.3a11.146,11.146,0,0,0-1.65.154l-.286-.561q.6.066,1.463.088H77.66v-.946H75.823a11.146,11.146,0,0,0-1.65.154l-.275-.55q.605.066,1.463.088h2.3a7.627,7.627,0,0,0-.066-1.067q1.2.308,1.2.473,0,.055-.1.11l-.187.121v.363h2.387l.242-.352.11-.148a1.423,1.423,0,0,1,.126-.154.139.139,0,0,1,.093-.05.828.828,0,0,1,.3.176,4.423,4.423,0,0,1,.445.38q.209.2.209.28-.044.176-.286.176h-3.63V-7h1.947ZM76.175-.7l.011.4q.011.451.044.825a.538.538,0,0,1-.27.242,1,1,0,0,1-.479.121.243.243,0,0,1-.17-.066A.2.2,0,0,1,75.24.66q.077-.968.1-2.156V-2.7A14.391,14.391,0,0,0,75.2-4.95l1.045.473h3.806l.176-.253q.033-.044.116-.148t.148-.1a.856.856,0,0,1,.3.16,3.737,3.737,0,0,1,.44.346q.2.187.2.264a.421.421,0,0,1-.165.127,1.154,1.154,0,0,1-.275.093V-.231A1.562,1.562,0,0,1,80.9.341.7.7,0,0,1,80.542.7a2.477,2.477,0,0,1-.825.192A1.316,1.316,0,0,0,79.64.544a.628.628,0,0,0-.165-.236A2.252,2.252,0,0,0,78.518,0V-.165q1.144.088,1.386.088a.259.259,0,0,0,.187-.055.259.259,0,0,0,.055-.187V-1.353H76.175ZM80.146-3.08V-4.158H76.175V-3.08Zm-3.971.308v1.1h3.971v-1.1Zm10.3-1.705a6.184,6.184,0,0,1-1.122.858l-.121-.121A7.614,7.614,0,0,0,86.339-5.1a7.17,7.17,0,0,0,.49-.864,4.842,4.842,0,0,0,.335-.9.712.712,0,0,1-.258.132,1.165,1.165,0,0,1-.38.066q-.2,0-.2-.22.022-.22.022-.286l.022-.242V-7.8a9.156,9.156,0,0,0-.066-1.188q1.177.3,1.177.462,0,.055-.1.11l-.2.121v.781h2.563a11.94,11.94,0,0,0-.11-1.8q.693.187.962.292t.27.182q0,.055-.088.11l-.187.121v1.1h2.6A9.626,9.626,0,0,0,93.1-8.987a9.794,9.794,0,0,1,.951.28q.269.1.27.182,0,.055-.1.11l-.2.121v.275l.022.407q0,.165.022.517-.033.1-.258.192a1.237,1.237,0,0,1-.479.094h-.143v-.374H87.186v.242q.022-.077.044-.187l1.309.451a.215.215,0,0,1-.115.148.71.71,0,0,1-.281.061,3.549,3.549,0,0,1,1.358.7,1.111,1.111,0,0,1,.424.765.456.456,0,0,1-.11.319.356.356,0,0,1-.275.121.381.381,0,0,1-.264-.1,4.009,4.009,0,0,0-.479-.852,4.54,4.54,0,0,0-.765-.831,9.4,9.4,0,0,1-1.507,1.826q.473.055,1.045.077h.539l.2-.286q.044-.055.088-.121a1.057,1.057,0,0,1,.093-.121.135.135,0,0,1,.094-.055q.1,0,.424.3t.324.424q-.033.176-.264.176H87.428a2.1,2.1,0,0,0-.7.154ZM94.16-6.842a.741.741,0,0,1,.286.17,4.357,4.357,0,0,1,.412.363q.193.192.192.269a.163.163,0,0,1-.088.121.348.348,0,0,1-.176.044H92.8a8.065,8.065,0,0,1-.616.913h1.265l.187-.264q.022-.033.077-.11a.685.685,0,0,1,.1-.115.134.134,0,0,1,.088-.039.666.666,0,0,1,.27.16,3.75,3.75,0,0,1,.38.341q.176.181.176.259a.471.471,0,0,1-.148.11.78.78,0,0,1-.236.077v1.2q.033,1.5.077,2.321a.754.754,0,0,1-.313.209,1.1,1.1,0,0,1-.435.11h-.132v-.374H91.245v.209q0,.077-.22.176a1.064,1.064,0,0,1-.44.1.189.189,0,0,1-.154-.066.233.233,0,0,1-.055-.154q.044-.539.077-1.474v-.858A14.391,14.391,0,0,0,90.31-5.4l.99.44h.506q.066-.385.121-.913h-.66a5.945,5.945,0,0,0-1.21.154l-.286-.55q.605.066,1.463.088h2.409l.22-.33q.044-.055.1-.148a.871.871,0,0,1,.1-.138A.127.127,0,0,1,94.16-6.842Zm-.627,3.025v-.836H91.245v.836ZM89.672-1.2a1.829,1.829,0,0,1-.066.539.593.593,0,0,1-.28.335,1.606,1.606,0,0,1-.633.17,1.29,1.29,0,0,0-.154-.572.993.993,0,0,0-.6-.253v-.176q.682.055.814.055a.194.194,0,0,0,.149-.044.236.236,0,0,0,.038-.154v-1.65H87.791v1.2q.033,1.507.077,2.332A.675.675,0,0,1,87.6.765a1.113,1.113,0,0,1-.451.082.224.224,0,0,1-.165-.066.211.211,0,0,1-.066-.154q.077-1.045.1-2.31V-2.948H86.57a2.477,2.477,0,0,0-.77.154l-.3-.572q.6.066,1.463.088h1.87l.154-.242.071-.1a.816.816,0,0,1,.088-.11.116.116,0,0,1,.082-.038.68.68,0,0,1,.27.149,3.22,3.22,0,0,1,.38.324q.176.176.176.253a.6.6,0,0,1-.385.209Zm1.573-1.419h2.288V-3.5H91.245Zm0,1.221h2.288v-.9H91.245Zm.7.836q.407.22.407.319,0,.066-.165.066l-.253.011a5.11,5.11,0,0,1-1.215.627A8.058,8.058,0,0,1,89.166.88L89.1.715a4.5,4.5,0,0,0,.649-.286A4.641,4.641,0,0,0,90.7-.226a3.433,3.433,0,0,0,.688-.786Zm.814-.165a4.336,4.336,0,0,1,1.644.512q.512.336.512.676a.4.4,0,0,1-.127.3A.409.409,0,0,1,94.5.88.482.482,0,0,1,94.149.7,2.622,2.622,0,0,0,93.6.033a3.834,3.834,0,0,0-.9-.605Zm9.823-7.854A9.068,9.068,0,0,1,100.436-6.3,12.375,12.375,0,0,1,97.46-4.543L97.383-4.7a10.277,10.277,0,0,0,1.8-1.3,12.548,12.548,0,0,0,1.6-1.694,5.887,5.887,0,0,0,.94-1.611l1.5.374q-.044.187-.462.22a7.035,7.035,0,0,0,1.914,1.727,11.555,11.555,0,0,0,2.574,1.243l-.022.165a.983.983,0,0,0-.5.319,1.222,1.222,0,0,0-.275.528,8.667,8.667,0,0,1-2.31-1.65A7.234,7.234,0,0,1,102.586-8.58Zm-1.21,3.443a9.089,9.089,0,0,0-1.5.154l-.275-.561q.605.066,1.463.088h2.222l.264-.363q.055-.066.116-.149a1.76,1.76,0,0,1,.121-.148.162.162,0,0,1,.1-.066.879.879,0,0,1,.313.187,5.435,5.435,0,0,1,.467.4q.22.209.22.286-.033.176-.286.176Zm-1.034,4.7q1.518-.077,4.334-.275a9.663,9.663,0,0,0-1.331-1.595l.121-.088a6.874,6.874,0,0,1,1.59.9,3.48,3.48,0,0,1,.891.963,1.754,1.754,0,0,1,.27.847.683.683,0,0,1-.121.424.371.371,0,0,1-.308.16A.705.705,0,0,1,105.4.737a4.307,4.307,0,0,0-.583-1.21q-2.112.44-5.841,1.023a.426.426,0,0,1-.286.231L98.175-.341q.836-.022,1.727-.077.264-.583.539-1.342t.451-1.408H99.781a11.146,11.146,0,0,0-1.65.154l-.286-.561q.605.066,1.463.088h5.753l.275-.374q.044-.055.126-.165t.132-.165a.135.135,0,0,1,.093-.055.965.965,0,0,1,.33.2,6.144,6.144,0,0,1,.495.412q.231.214.231.292-.044.176-.3.176h-4.411q-.374.7-.825,1.441T100.342-.44Z" transform="translate(0.839 12.042)" fill="#fff"/>
    </g>
    <path id="パス_92" data-name="パス 92" d="M.572,0V-4.858h.462L3.092-1.475H2.781L4.839-4.858H5.3V0h-.66V-3.7l.151.04L3.168-1H2.706L1.081-3.663l.151-.04V0ZM8.186,0,10.18-4.858h.472L12.632,0h-.712L10.286-4.111h.247L8.887,0Zm.947-1.1v-.576h2.558V-1.1ZM16.1,0V-4.72h.66V0ZM14.45-4.256v-.6H18.4v.6ZM22.332.07a2.1,2.1,0,0,1-.978-.211,2.217,2.217,0,0,1-.719-.608l.45-.448a1.578,1.578,0,0,0,.528.487,1.527,1.527,0,0,0,.744.166,1.171,1.171,0,0,0,.7-.189.607.607,0,0,0,.263-.521.7.7,0,0,0-.129-.437.993.993,0,0,0-.34-.278,3.327,3.327,0,0,0-.464-.2q-.253-.086-.506-.187a2.146,2.146,0,0,1-.464-.255,1.142,1.142,0,0,1-.34-.4,1.309,1.309,0,0,1-.129-.617,1.21,1.21,0,0,1,.2-.7,1.3,1.3,0,0,1,.548-.449,1.875,1.875,0,0,1,.781-.157,1.9,1.9,0,0,1,.851.185,1.789,1.789,0,0,1,.617.488l-.45.448a1.55,1.55,0,0,0-.464-.381,1.231,1.231,0,0,0-.57-.127,1.018,1.018,0,0,0-.622.171.564.564,0,0,0-.23.48.6.6,0,0,0,.129.4,1.028,1.028,0,0,0,.34.256,4.011,4.011,0,0,0,.464.19q.253.087.506.192a2.046,2.046,0,0,1,.464.267,1.2,1.2,0,0,1,.34.416,1.417,1.417,0,0,1,.129.641,1.232,1.232,0,0,1-.444,1.007A1.838,1.838,0,0,1,22.332.07Zm6.545,0a1.912,1.912,0,0,1-.965-.243,1.79,1.79,0,0,1-.672-.666,1.867,1.867,0,0,1-.246-.956V-4.858h.66v3.047a1.314,1.314,0,0,0,.161.663,1.116,1.116,0,0,0,.439.434,1.273,1.273,0,0,0,.623.153A1.247,1.247,0,0,0,29.5-.714a1.113,1.113,0,0,0,.43-.434,1.314,1.314,0,0,0,.159-.656V-4.858h.66v3.069a1.863,1.863,0,0,1-.244.953,1.79,1.79,0,0,1-.665.663A1.887,1.887,0,0,1,28.877.07ZM34.366,0V-.6h1.353a1.869,1.869,0,0,0,.943-.233,1.647,1.647,0,0,0,.636-.646,1.939,1.939,0,0,0,.228-.954A1.892,1.892,0,0,0,37.3-3.38a1.665,1.665,0,0,0-.639-.642,1.864,1.864,0,0,0-.938-.232H34.373v-.6h1.361a2.577,2.577,0,0,1,.98.183,2.4,2.4,0,0,1,.785.511,2.325,2.325,0,0,1,.521.77,2.468,2.468,0,0,1,.185.965,2.469,2.469,0,0,1-.185.961,2.354,2.354,0,0,1-.517.774,2.357,2.357,0,0,1-.781.512A2.559,2.559,0,0,1,35.749,0Zm-.434,0V-4.858h.66V0Zm9.49.07a2.4,2.4,0,0,1-.965-.193,2.435,2.435,0,0,1-.783-.537,2.5,2.5,0,0,1-.524-.8,2.53,2.53,0,0,1-.188-.976,2.519,2.519,0,0,1,.187-.975A2.5,2.5,0,0,1,41.67-4.2a2.394,2.394,0,0,1,.777-.533,2.408,2.408,0,0,1,.962-.191,2.415,2.415,0,0,1,.963.191,2.412,2.412,0,0,1,.78.533,2.483,2.483,0,0,1,.523.8,2.535,2.535,0,0,1,.188.978,2.54,2.54,0,0,1-.187.976,2.465,2.465,0,0,1-.521.8,2.446,2.446,0,0,1-.776.534A2.361,2.361,0,0,1,43.423.07Zm-.014-.632a1.738,1.738,0,0,0,.92-.241,1.713,1.713,0,0,0,.626-.664,2.005,2.005,0,0,0,.228-.969,2.051,2.051,0,0,0-.131-.746,1.783,1.783,0,0,0-.369-.591,1.648,1.648,0,0,0-.561-.388,1.813,1.813,0,0,0-.713-.136,1.747,1.747,0,0,0-.914.238,1.688,1.688,0,0,0-.626.657,1.991,1.991,0,0,0-.227.965,2.1,2.1,0,0,0,.131.752,1.772,1.772,0,0,0,.367.595A1.657,1.657,0,0,0,42.7-.7,1.784,1.784,0,0,0,43.409-.562ZM54.632.07a2.4,2.4,0,0,1-.965-.193,2.435,2.435,0,0,1-.783-.537,2.5,2.5,0,0,1-.524-.8,2.53,2.53,0,0,1-.188-.976,2.519,2.519,0,0,1,.187-.975,2.5,2.5,0,0,1,.521-.794,2.394,2.394,0,0,1,.777-.533,2.408,2.408,0,0,1,.962-.191,2.415,2.415,0,0,1,.963.191,2.412,2.412,0,0,1,.78.533,2.483,2.483,0,0,1,.523.8,2.535,2.535,0,0,1,.188.978,2.541,2.541,0,0,1-.187.976,2.465,2.465,0,0,1-.521.8,2.446,2.446,0,0,1-.776.534A2.361,2.361,0,0,1,54.632.07Zm-.014-.632a1.738,1.738,0,0,0,.92-.241,1.713,1.713,0,0,0,.627-.664,2.005,2.005,0,0,0,.228-.969,2.051,2.051,0,0,0-.131-.746,1.783,1.783,0,0,0-.369-.591,1.648,1.648,0,0,0-.561-.388,1.813,1.813,0,0,0-.713-.136,1.747,1.747,0,0,0-.914.238,1.688,1.688,0,0,0-.626.657,1.991,1.991,0,0,0-.227.965,2.1,2.1,0,0,0,.131.752,1.772,1.772,0,0,0,.367.595,1.657,1.657,0,0,0,.561.389A1.784,1.784,0,0,0,54.618-.562Zm5.9-1.554v-.549h1.318a.916.916,0,0,0,.654-.217.774.774,0,0,0,.23-.592.788.788,0,0,0-.228-.579.877.877,0,0,0-.651-.229H60.517v-.576h1.34a1.725,1.725,0,0,1,.807.178,1.3,1.3,0,0,1,.529.488,1.344,1.344,0,0,1,.186.707,1.361,1.361,0,0,1-.186.72,1.258,1.258,0,0,1-.529.478,1.791,1.791,0,0,1-.807.171ZM60.074,0V-4.858h.66V0Zm2.8,0-1.76-2.177.623-.215L63.711,0Zm4.637,0V-4.72h.66V0ZM65.865-4.256v-.6h3.953v.6ZM72.7,0V-4.858h.66V0Zm3.136,0V-4.858h.66V0Zm-2.69-2.21v-.6H76v.6ZM81.956.07a2.4,2.4,0,0,1-.965-.193,2.435,2.435,0,0,1-.783-.537,2.5,2.5,0,0,1-.524-.8,2.53,2.53,0,0,1-.188-.976,2.519,2.519,0,0,1,.187-.975A2.5,2.5,0,0,1,80.2-4.2a2.394,2.394,0,0,1,.777-.533,2.408,2.408,0,0,1,.962-.191,2.415,2.415,0,0,1,.962.191,2.412,2.412,0,0,1,.78.533,2.483,2.483,0,0,1,.523.8,2.535,2.535,0,0,1,.188.978,2.541,2.541,0,0,1-.187.976,2.465,2.465,0,0,1-.521.8,2.446,2.446,0,0,1-.776.534A2.361,2.361,0,0,1,81.956.07Zm-.014-.632a1.738,1.738,0,0,0,.92-.241,1.713,1.713,0,0,0,.626-.664,2.005,2.005,0,0,0,.228-.969,2.051,2.051,0,0,0-.131-.746,1.783,1.783,0,0,0-.369-.591,1.648,1.648,0,0,0-.561-.388,1.813,1.813,0,0,0-.713-.136,1.747,1.747,0,0,0-.914.238A1.688,1.688,0,0,0,80.4-3.4a1.991,1.991,0,0,0-.228.965,2.1,2.1,0,0,0,.131.752,1.772,1.772,0,0,0,.367.595,1.657,1.657,0,0,0,.561.389A1.784,1.784,0,0,0,81.942-.562Zm5.9-1.328v-.576h1.321a1.051,1.051,0,0,0,.488-.11.831.831,0,0,0,.337-.314.917.917,0,0,0,.123-.484.917.917,0,0,0-.123-.484.831.831,0,0,0-.337-.314,1.051,1.051,0,0,0-.488-.11H87.841v-.576H89.2a1.717,1.717,0,0,1,.8.184,1.413,1.413,0,0,1,.561.516,1.454,1.454,0,0,1,.206.783,1.459,1.459,0,0,1-.206.784,1.41,1.41,0,0,1-.561.517,1.717,1.717,0,0,1-.8.184ZM87.4,0V-4.858h.66V0Zm5.52,0,1.993-4.858h.473L97.363,0h-.712L95.018-4.111h.247L93.618,0Zm.947-1.1v-.576h2.559V-1.1ZM100.193,0V-4.858h.66V0Zm.446,0V-.6h2.788V0Zm0-2.194v-.579H103.2v.579Zm0-2.062v-.6h2.751v.6ZM106.853,0V-.6h1.353a1.869,1.869,0,0,0,.943-.233,1.647,1.647,0,0,0,.636-.646,1.939,1.939,0,0,0,.228-.954,1.892,1.892,0,0,0-.231-.944,1.665,1.665,0,0,0-.639-.642,1.864,1.864,0,0,0-.938-.232H106.86v-.6h1.361a2.577,2.577,0,0,1,.98.183,2.4,2.4,0,0,1,.785.511,2.325,2.325,0,0,1,.521.77,2.468,2.468,0,0,1,.186.965,2.469,2.469,0,0,1-.186.961,2.354,2.354,0,0,1-.517.774,2.357,2.357,0,0,1-.781.512,2.558,2.558,0,0,1-.973.183Zm-.434,0V-4.858h.66V0ZM113.7,0V-4.858h.66V0Zm6.109.07a2.451,2.451,0,0,1-.972-.191,2.362,2.362,0,0,1-.78-.535,2.43,2.43,0,0,1-.514-.8,2.616,2.616,0,0,1-.181-.977,2.625,2.625,0,0,1,.18-.977,2.379,2.379,0,0,1,.512-.794,2.424,2.424,0,0,1,.777-.533,2.406,2.406,0,0,1,.969-.193,2.44,2.44,0,0,1,1.01.2,2.5,2.5,0,0,1,.768.536l-.45.45a1.619,1.619,0,0,0-.567-.4A1.893,1.893,0,0,0,119.8-4.3a1.787,1.787,0,0,0-.706.136,1.643,1.643,0,0,0-.558.388,1.75,1.75,0,0,0-.366.593,2.11,2.11,0,0,0-.129.748,2.1,2.1,0,0,0,.13.749,1.777,1.777,0,0,0,.366.6,1.624,1.624,0,0,0,.559.389,1.8,1.8,0,0,0,.708.137,1.941,1.941,0,0,0,.791-.149,1.653,1.653,0,0,0,.569-.408l.45.45a2.4,2.4,0,0,1-.782.542A2.533,2.533,0,0,1,119.805.07Zm10.477,0a2.4,2.4,0,0,1-.965-.193,2.435,2.435,0,0,1-.783-.537,2.5,2.5,0,0,1-.524-.8,2.53,2.53,0,0,1-.188-.976,2.519,2.519,0,0,1,.187-.975,2.5,2.5,0,0,1,.521-.794,2.394,2.394,0,0,1,.777-.533,2.408,2.408,0,0,1,.962-.191,2.415,2.415,0,0,1,.962.191,2.412,2.412,0,0,1,.78.533,2.483,2.483,0,0,1,.523.8,2.535,2.535,0,0,1,.188.978,2.541,2.541,0,0,1-.187.976,2.465,2.465,0,0,1-.521.8,2.446,2.446,0,0,1-.776.534A2.361,2.361,0,0,1,130.282.07Zm-.014-.632a1.738,1.738,0,0,0,.92-.241,1.713,1.713,0,0,0,.627-.664,2.005,2.005,0,0,0,.228-.969,2.051,2.051,0,0,0-.131-.746,1.783,1.783,0,0,0-.369-.591,1.648,1.648,0,0,0-.561-.388,1.813,1.813,0,0,0-.713-.136,1.747,1.747,0,0,0-.914.238,1.688,1.688,0,0,0-.626.657,1.991,1.991,0,0,0-.227.965,2.1,2.1,0,0,0,.131.752,1.772,1.772,0,0,0,.367.595,1.657,1.657,0,0,0,.561.389A1.784,1.784,0,0,0,130.268-.562ZM136.658,0V-4.72h.66V0Zm-1.647-4.256v-.6h3.953v.6ZM140.782,0l1.993-4.858h.472L145.227,0h-.712l-1.633-4.111h.247L141.482,0Zm.947-1.1v-.576h2.559V-1.1ZM151.063,0l-2.45-2.532,2.4-2.326h.857l-2.6,2.5.005-.368L151.938,0Zm-3.007,0V-4.858h.66V0Zm6.134,0,1.993-4.858h.472L158.636,0h-.712l-1.633-4.111h.247L154.891,0Zm.947-1.1v-.576H157.7V-1.1ZM161.465,0V-4.858h.462l.2.766V0Zm3.363,0-2.987-3.979.086-.878,2.987,3.979Zm0,0-.2-.719V-4.858h.66V0Zm5.92.07a2.4,2.4,0,0,1-.965-.193A2.435,2.435,0,0,1,169-.661a2.5,2.5,0,0,1-.524-.8,2.53,2.53,0,0,1-.188-.976,2.519,2.519,0,0,1,.187-.975A2.5,2.5,0,0,1,169-4.2a2.394,2.394,0,0,1,.777-.533,2.408,2.408,0,0,1,.962-.191,2.415,2.415,0,0,1,.962.191,2.412,2.412,0,0,1,.78.533,2.483,2.483,0,0,1,.523.8,2.535,2.535,0,0,1,.188.978,2.541,2.541,0,0,1-.187.976,2.465,2.465,0,0,1-.521.8,2.446,2.446,0,0,1-.776.534A2.361,2.361,0,0,1,170.749.07Zm-.014-.632a1.738,1.738,0,0,0,.92-.241,1.713,1.713,0,0,0,.627-.664,2.005,2.005,0,0,0,.228-.969,2.051,2.051,0,0,0-.131-.746,1.783,1.783,0,0,0-.369-.591,1.648,1.648,0,0,0-.561-.388,1.813,1.813,0,0,0-.713-.136,1.747,1.747,0,0,0-.914.238,1.688,1.688,0,0,0-.626.657,1.991,1.991,0,0,0-.227.965,2.1,2.1,0,0,0,.131.752,1.772,1.772,0,0,0,.367.595,1.657,1.657,0,0,0,.561.389A1.784,1.784,0,0,0,170.735-.562ZM176.192,0V-4.858h.462l2.058,3.383H178.4l2.058-3.383h.462V0h-.66V-3.7l.15.04L178.787-1h-.462L176.7-3.663l.15-.04V0Zm10.187.07a2.4,2.4,0,0,1-.965-.193,2.435,2.435,0,0,1-.783-.537,2.5,2.5,0,0,1-.524-.8,2.53,2.53,0,0,1-.188-.976,2.519,2.519,0,0,1,.187-.975,2.5,2.5,0,0,1,.521-.794,2.394,2.394,0,0,1,.777-.533,2.408,2.408,0,0,1,.962-.191,2.415,2.415,0,0,1,.962.191,2.412,2.412,0,0,1,.78.533,2.483,2.483,0,0,1,.523.8,2.535,2.535,0,0,1,.188.978,2.541,2.541,0,0,1-.187.976,2.465,2.465,0,0,1-.521.8,2.446,2.446,0,0,1-.776.534A2.361,2.361,0,0,1,186.378.07Zm-.014-.632a1.738,1.738,0,0,0,.92-.241,1.713,1.713,0,0,0,.627-.664,2.005,2.005,0,0,0,.228-.969,2.051,2.051,0,0,0-.131-.746,1.783,1.783,0,0,0-.369-.591,1.648,1.648,0,0,0-.561-.388,1.813,1.813,0,0,0-.713-.136,1.747,1.747,0,0,0-.914.238,1.688,1.688,0,0,0-.626.657,1.991,1.991,0,0,0-.227.965,2.1,2.1,0,0,0,.131.752,1.772,1.772,0,0,0,.367.595,1.657,1.657,0,0,0,.561.389A1.784,1.784,0,0,0,186.365-.562Zm5.9-1.554v-.549h1.318a.916.916,0,0,0,.654-.217.774.774,0,0,0,.23-.592.788.788,0,0,0-.228-.579.877.877,0,0,0-.651-.229h-1.323v-.576h1.34a1.725,1.725,0,0,1,.807.178,1.3,1.3,0,0,1,.529.488,1.344,1.344,0,0,1,.186.707,1.361,1.361,0,0,1-.186.72,1.258,1.258,0,0,1-.529.478,1.791,1.791,0,0,1-.807.171ZM191.821,0V-4.858h.66V0Zm2.8,0-1.76-2.177.623-.215L195.458,0Zm3.614,0V-4.858h.66V0ZM207.9.07a2.451,2.451,0,0,1-.972-.191,2.362,2.362,0,0,1-.78-.535,2.43,2.43,0,0,1-.514-.8,2.616,2.616,0,0,1-.181-.977,2.625,2.625,0,0,1,.18-.977,2.379,2.379,0,0,1,.512-.794,2.424,2.424,0,0,1,.777-.533,2.406,2.406,0,0,1,.969-.193,2.44,2.44,0,0,1,1.01.2,2.5,2.5,0,0,1,.768.536l-.45.45a1.619,1.619,0,0,0-.567-.4,1.893,1.893,0,0,0-.761-.145,1.787,1.787,0,0,0-.706.136,1.644,1.644,0,0,0-.558.388,1.75,1.75,0,0,0-.366.593,2.11,2.11,0,0,0-.129.748,2.1,2.1,0,0,0,.13.749,1.777,1.777,0,0,0,.366.6,1.624,1.624,0,0,0,.559.389,1.8,1.8,0,0,0,.708.137,1.941,1.941,0,0,0,.791-.149,1.653,1.653,0,0,0,.569-.408l.45.45a2.4,2.4,0,0,1-.782.542A2.533,2.533,0,0,1,207.9.07ZM212.607,0V-4.858h.66V0Zm.446,0V-.6h2.608V0Zm5.518,0V-4.858h.66V0Zm3.9,0V-4.858h.462l.2.766V0Zm3.363,0-2.987-3.979.086-.878,2.987,3.979Zm0,0-.2-.719V-4.858h.66V0Zm3.706,0V-4.858h.66V0Zm6.109.07a2.451,2.451,0,0,1-.972-.191,2.362,2.362,0,0,1-.78-.535,2.43,2.43,0,0,1-.514-.8,2.616,2.616,0,0,1-.181-.977,2.625,2.625,0,0,1,.18-.977A2.379,2.379,0,0,1,233.9-4.2a2.424,2.424,0,0,1,.777-.533,2.406,2.406,0,0,1,.969-.193,2.44,2.44,0,0,1,1.01.2,2.5,2.5,0,0,1,.768.536l-.45.45a1.619,1.619,0,0,0-.567-.4,1.893,1.893,0,0,0-.761-.145,1.787,1.787,0,0,0-.706.136,1.644,1.644,0,0,0-.558.388,1.75,1.75,0,0,0-.366.593,2.11,2.11,0,0,0-.129.748,2.1,2.1,0,0,0,.13.749,1.777,1.777,0,0,0,.366.6,1.624,1.624,0,0,0,.559.389,1.8,1.8,0,0,0,.708.137,1.941,1.941,0,0,0,.791-.149,1.653,1.653,0,0,0,.569-.408l.45.45a2.4,2.4,0,0,1-.782.542A2.533,2.533,0,0,1,235.655.07Z" transform="translate(30.099 80.134)" fill="#fff"/>
  </g>
</svg>
