<svg xmlns="http://www.w3.org/2000/svg" width="80.374" height="17.259" viewBox="0 0 80.374 17.259">
  <g id="グループ_209" data-name="グループ 209" transform="translate(-17.412 1.004)">
    <path id="パス_80" data-name="パス 80" d="M5.265-5.73c-1.455,0-1.95-.03-2.04-.03-.15,0-.165.015-.165.165V-4.5c0,.15.015.165.165.165.06,0,.4-.015.96-.015a9.828,9.828,0,0,0,2.01,2.61A18.316,18.316,0,0,1,.825-.375,4.986,4.986,0,0,1,1.425.69c.12.3.165.39.33.39a1.355,1.355,0,0,0,.315-.03A18.35,18.35,0,0,0,7.545-.72,15.239,15.239,0,0,0,13.14,1.1c.12.015.225.03.285.03.2,0,.225-.09.345-.42A5.656,5.656,0,0,1,14.34-.42,17.313,17.313,0,0,1,8.97-1.65a11,11,0,0,0,2.2-2.28,1.96,1.96,0,0,1,.495-.51c.12-.075.18-.135.18-.24s-.06-.27-.435-.63c-.435-.435-.57-.525-.7-.525a.572.572,0,0,0-.2.06,1.43,1.43,0,0,1-.4.045Zm4.35,1.365A7.8,7.8,0,0,1,7.56-2.475,6.833,6.833,0,0,1,5.8-4.365ZM3.33-9.645c-.21.075-.21.105-.12.24a8.072,8.072,0,0,1,.57,1.14H3.24c-1.38,0-1.875-.03-1.965-.03-.15,0-.165.015-.165.165,0,.1.03.345.03.855v.75c0,.975-.03,1.32-.03,1.41,0,.15.015.165.165.165h1.2c.15,0,.165-.015.165-.165v-1.74h9.72v1.74c0,.15.015.165.165.165H13.74c.15,0,.165-.015.165-.165,0-.09-.03-.435-.03-1.395v-.87c0-.4.03-.66.03-.75,0-.15-.015-.165-.165-.165-.09,0-.585.03-1.965.03H11.13c.18-.3.33-.585.48-.87a1.772,1.772,0,0,1,.33-.465c.09-.09.165-.165.165-.255s-.075-.165-.225-.225c-.375-.15-.8-.3-1.305-.45a3.256,3.256,0,0,1-.225.735,12.575,12.575,0,0,1-.87,1.53H8.475a9.554,9.554,0,0,0-.63-1.845c-.075-.15-.135-.135-.3-.09l-.915.285c-.18.06-.21.12-.15.255a9.567,9.567,0,0,1,.51,1.395H5.325A11.854,11.854,0,0,0,4.515-9.9c-.075-.135-.135-.165-.315-.09Zm8.415-2.925a9.972,9.972,0,0,1-1.26.33c-.84.15-1.86.285-3.36.42-1.755.15-3.72.255-5.625.27a4.622,4.622,0,0,1,.465.945c.15.465.15.465.48.45,1.74-.06,3.555-.18,5.145-.33,1.815-.165,2.97-.33,4.44-.54a4.62,4.62,0,0,1,.72-.06c.165,0,.24-.06.24-.15a.5.5,0,0,0-.165-.315A6.407,6.407,0,0,0,11.745-12.57Zm14.3,4.8v6.7c0,.36-.15.5-.57.5-.45.015-1.14-.015-1.725-.06a3.889,3.889,0,0,1,.45,1.17c.1.465.1.465.57.465,1.455,0,2.085-.09,2.4-.345.39-.315.495-.63.495-1.395,0-.825-.045-1.83-.045-2.88V-7.77c1.29,0,1.755.03,1.845.03.15,0,.165-.015.165-.165V-9.09c0-.15-.015-.165-.165-.165-.09,0-.555.03-1.845.03V-10.4a4.647,4.647,0,0,1,.105-1.485.778.778,0,0,0,.1-.33c0-.075-.09-.15-.24-.165-.54-.06-1.095-.09-1.65-.105a13.775,13.775,0,0,1,.105,2.13v1.125H22.875c-1.44,0-1.95-.03-2.04-.03-.15,0-.165.015-.165.165v1.185c0,.15.015.165.165.165.09,0,.6-.03,2.04-.03Zm-8,6.51c0,1.455-.03,2.175-.03,2.265,0,.15.015.165.165.165h1.305c.15,0,.165-.015.165-.165,0-.075-.03-.81-.03-2.265V-9c.33-.66.615-1.32.885-1.995a1.228,1.228,0,0,1,.3-.6c.12-.1.165-.165.165-.27s-.075-.165-.24-.225a12.232,12.232,0,0,0-1.515-.465,5.384,5.384,0,0,1-.255,1.08,13.981,13.981,0,0,1-3.015,5.1,4.781,4.781,0,0,1,.6,1.335c.06.165.1.24.18.24.06,0,.135-.06.255-.2.39-.465.75-.93,1.08-1.41-.015.615-.015,1.2-.015,1.74Zm6.24-2.04c.165-.105.21-.135.135-.27A15.707,15.707,0,0,0,22.6-6.42c-.1-.105-.135-.135-.285-.045l-.945.54c-.195.12-.21.135-.1.27A16.138,16.138,0,0,1,23.01-2.7c.045.09.075.135.12.135a.464.464,0,0,0,.18-.09Zm11.88-5.25c0-2.2.03-2.94.03-3.03,0-.15-.015-.165-.165-.165-.1,0-.39.03-1.29.03H33.45c-.9,0-1.185-.03-1.29-.03-.15,0-.165.015-.165.165,0,.09.03.885.03,3.6v3.27C32.025-.945,32-.18,32-.09c0,.15.015.165.165.165h1.11c.135,0,.15-.015.15-.165V-1.275H34.8v.66c0,.15.015.165.15.165h1.08c.15,0,.165-.015.165-.165,0-.09-.03-.765-.03-4.5ZM33.42-2.64V-5.88H34.8v3.24Zm1.38-7.71v3.105H33.42V-10.35Zm8.175,3.72c1.425,0,1.92.03,2.01.03.165,0,.18-.015.18-.18V-7.815c0-.15-.015-.165-.18-.165-.09,0-.585.03-2.01.03h-1.59V-9.495h1c1.365,0,1.815.03,1.9.03.15,0,.165-.015.165-.165v-1.05c0-.165-.015-.18-.165-.18-.09,0-.54.03-1.9.03h-1a3.484,3.484,0,0,1,.075-1.125.834.834,0,0,0,.09-.315c0-.075-.09-.135-.24-.15-.555-.06-.96-.09-1.545-.1a12.566,12.566,0,0,1,.1,1.695h-.7c-1.335,0-1.8-.03-1.89-.03-.165,0-.18.015-.18.18v1.05c0,.15.015.165.18.165.09,0,.555-.03,1.89-.03h.7V-7.95H38.79c-1.425,0-1.92-.03-2.01-.03-.165,0-.18.015-.18.165V-6.78c0,.165.015.18.18.18.09,0,.585-.03,2.01-.03Zm-1.17,2.82V-.825c0,.345-.135.465-.5.465-.495,0-.945-.015-1.47-.06a3.343,3.343,0,0,1,.45,1.1c.1.45.12.45.57.45A3.461,3.461,0,0,0,42.81.8,1.4,1.4,0,0,0,43.335-.48c0-.51-.015-1.155-.015-1.845V-3.81c1.02.015,1.425.03,1.5.03.165,0,.18-.015.18-.165v-1.05c0-.15-.015-.165-.18-.165-.075,0-.48.03-1.5.03a1.9,1.9,0,0,1,.075-.765.506.506,0,0,0,.075-.255c0-.075-.09-.135-.255-.165-.4-.06-.945-.105-1.515-.135a11.14,11.14,0,0,1,.1,1.32H38.85c-1.425,0-1.9-.03-1.995-.03-.165,0-.18.015-.18.165v1.05c0,.15.015.165.18.165.09,0,.57-.03,1.995-.03Zm-4.05.945c-.18.105-.18.15-.075.27A12.559,12.559,0,0,1,39-.75c.045.075.075.1.12.1s.09-.03.18-.09l.915-.63c.15-.1.165-.15.075-.285a12,12,0,0,0-1.38-1.725c-.12-.105-.165-.105-.315-.015ZM59.88-9.96c0-1.275.03-1.89.03-1.98,0-.165-.015-.18-.165-.18-.09,0-.495.03-1.665.03H55.875c-1.17,0-1.56-.03-1.65-.03-.15,0-.165.015-.165.18,0,.09.03.45.03,1.32v2.07c0,.885-.03,1.23-.03,1.32,0,.165.015.18.165.18.09,0,.48-.03,1.65-.03h2.46V-1.1c0,.45-.12.585-.615.585a10.34,10.34,0,0,1-1.26-.075,4.687,4.687,0,0,1,.36,1.1c.09.48.09.465.54.465,1.41,0,1.83-.12,2.145-.4A1.63,1.63,0,0,0,59.94-.81c0-.735-.06-1.935-.06-2.985Zm-4.32,1.8v-.9h2.775v.9Zm2.775-2.8v.885H55.56v-.885ZM49.29-12.09c-1.1,0-1.665-.03-1.77-.03-.15,0-.165.015-.165.18,0,.09.03,1.14.03,3.225V-2.22c0,2.07-.03,3.09-.03,3.195,0,.15.015.165.165.165h1.275c.15,0,.165-.015.165-.165,0-.1-.03-1.125-.03-3.195V-7.08h2.43c.975,0,1.425.03,1.515.03.135,0,.15-.015.15-.18,0-.09-.03-.51-.03-1.425v-1.86c0-.9.03-1.335.03-1.425,0-.165-.015-.18-.15-.18-.09,0-.54.03-1.515.03Zm2.235,3.93h-2.6v-.9h2.6Zm0-2.8v.885h-2.6v-.885ZM52.02.105c.165,0,.18-.015.18-.18V-.69h2.745v.465c0,.15.015.165.165.165h1.08c.15,0,.165-.015.165-.165,0-.075-.03-.48-.03-2.655V-4.365c0-1.08.03-1.53.03-1.62,0-.15-.015-.165-.165-.165-.105,0-.465.03-1.605.03H52.56c-1.14,0-1.5-.03-1.6-.03-.15,0-.165.015-.165.165,0,.105.03.555.03,1.875v1.32c0,2.22-.03,2.625-.03,2.715,0,.165.015.18.165.18ZM52.2-1.83V-2.88h2.745v1.05Zm0-3.135h2.745V-3.96H52.2Z" transform="translate(37.846 13.747)" fill="#fff"/>
    <g id="Icon_feather-clock" data-name="Icon feather-clock" transform="translate(15.162 -3.254)">
      <path id="パス_80-2" data-name="パス 80" d="M10.88,2.25a8.63,8.63,0,1,1-8.63,8.63A8.64,8.64,0,0,1,10.88,2.25Zm0,15.759a7.13,7.13,0,1,0-7.13-7.13A7.138,7.138,0,0,0,10.88,18.009Z" fill="#fff"/>
      <path id="パス_81" data-name="パス 81" d="M21.151,16.054a.747.747,0,0,1-.335-.079L17.665,14.4a.75.75,0,0,1-.415-.671V9a.75.75,0,0,1,1.5,0v4.264l2.737,1.369a.75.75,0,0,1-.336,1.421Z" transform="translate(-7.12 -2.848)" fill="#fff"/>
    </g>
  </g>
</svg>
