<svg xmlns="http://www.w3.org/2000/svg" width="101.058" height="17.045" viewBox="0 0 101.058 17.045">
  <g id="グループ_211" data-name="グループ 211" transform="translate(0.5 0.5)">
    <g id="グループ_123" data-name="グループ 123" transform="translate(89.109 2.536)">
      <path id="パス_21" data-name="パス 21" d="M347.606,3737.4v11.064h11.449" transform="translate(-347.606 -3737.397)" fill="none" stroke="#fff" stroke-width="1.5"/>
      <path id="パス_22" data-name="パス 22" d="M276.372,3618.948l6.155-6.155" transform="translate(-271.699 -3612.235)" fill="none" stroke="#fff" stroke-width="1.5"/>
      <path id="パス_23" data-name="パス 23" d="M0,0H3.2V3.151Z" transform="translate(8.252)" fill="#fff"/>
    </g>
    <g id="グループ_210" data-name="グループ 210">
      <g id="グループ_52" data-name="グループ 52">
        <path id="パス_15" data-name="パス 15" d="M0,0H14.227" transform="translate(0.445 5.47)" fill="none" stroke="#fff" stroke-width="1"/>
        <path id="パス_12" data-name="パス 12" d="M12.766,4.063h0A.766.766,0,0,1,12,3.3V1.766a.766.766,0,1,1,1.532,0V3.3A.766.766,0,0,1,12.766,4.063Z" transform="translate(-9.192 -1)" fill="none" stroke="#fff" stroke-miterlimit="10" stroke-width="1"/>
        <path id="パス_13" data-name="パス 13" d="M42.766,4.063h0A.766.766,0,0,1,42,3.3V1.766a.766.766,0,0,1,1.532,0V3.3A.766.766,0,0,1,42.766,4.063Z" transform="translate(-31.534 -1)" fill="none" stroke="#fff" stroke-miterlimit="10" stroke-width="1"/>
        <rect id="長方形_35" data-name="長方形 35" width="1.778" height="1.778" transform="translate(6.669 8.137)" fill="none" stroke="#fff" stroke-linejoin="round" stroke-width="1"/>
        <rect id="長方形_38" data-name="長方形 38" width="1.778" height="1.778" transform="translate(3.112 8.137)" fill="none" stroke="#fff" stroke-linejoin="round" stroke-width="1"/>
        <rect id="長方形_40" data-name="長方形 40" width="1.778" height="1.778" transform="translate(10.225 8.137)" fill="none" stroke="#fff" stroke-linejoin="round" stroke-width="1"/>
        <rect id="長方形_36" data-name="長方形 36" width="1.778" height="1.778" transform="translate(6.669 11.694)" fill="none" stroke="#fff" stroke-linejoin="round" stroke-width="1"/>
        <rect id="長方形_37" data-name="長方形 37" width="1.778" height="1.778" transform="translate(3.112 11.694)" fill="none" stroke="#fff" stroke-linejoin="round" stroke-width="1"/>
        <rect id="長方形_39" data-name="長方形 39" width="1.778" height="1.778" transform="translate(10.225 11.694)" fill="none" stroke="#fff" stroke-linejoin="round" stroke-width="1"/>
        <line id="線_14" data-name="線 14" x2="6.116" transform="translate(4.345 1.532)" fill="none" stroke="#fff" stroke-miterlimit="10" stroke-width="1"/>
        <path id="パス_14" data-name="パス 14" d="M13,7h1.787a1.072,1.072,0,0,1,1.021,1.116V20.4a1.072,1.072,0,0,1-1.021,1.116H2.021A1.072,1.072,0,0,1,1,20.4V8.116A1.072,1.072,0,0,1,2.021,7H3.808" transform="translate(-1 -5.468)" fill="none" stroke="#fff" stroke-miterlimit="10" stroke-width="1"/>
      </g>
      <path id="パス_87" data-name="パス 87" d="M13.365-11.61H11.43l-.9,5.445c-.225,1.44-.36,2.625-.585,4.185h-.21c-.165-1.545-.345-2.775-.57-4.095L8.19-11.61h-2.6L4.65-6.255c-.255,1.395-.405,2.82-.615,4.275h-.21C3.645-3.465,3.45-4.875,3.24-6.3L2.4-11.61H.345L2.61.03H5.1l.945-5.475c.27-1.485.435-2.775.645-4.3H6.9c.21,1.515.36,2.8.645,4.365L8.55.03h2.49Zm9.8,0H15.48V.03h7.8v-1.6H17.505v-3.75H21.78V-6.93H17.505v-3.075H23.16Zm2.415,0V.03H29.94c2.655,0,4.125-1.245,4.125-3.3a2.78,2.78,0,0,0-2.67-2.8V-6.18a2.535,2.535,0,0,0,2.31-2.535c0-1.83-1.065-2.9-3.975-2.9Zm1.98,1.515h1.95c1.62,0,2.19.54,2.19,1.575s-.78,1.7-2.37,1.7h-1.77Zm0,4.785h1.9c1.62,0,2.565.7,2.565,1.89,0,1.215-.765,1.935-2.31,1.935h-2.16Zm12.27-3.81c-.075.06-.1.1-.1.15s.03.075.1.12A20.705,20.705,0,0,1,42.66-6.96H38.34c-1.335,0-1.8-.03-1.89-.03-.15,0-.165.015-.165.165v1.17c0,.15.015.165.165.165.09,0,.555-.03,1.89-.03H42v4.44c0,.42-.135.54-.57.54q-.7,0-1.845-.09a4.82,4.82,0,0,1,.51,1.2c.12.48.12.48.585.48,1.515,0,2.07-.09,2.5-.39.315-.225.48-.615.48-1.35,0-.555-.015-1.245-.015-2.34V-5.52h3.27a10.265,10.265,0,0,1-2.01,1.77,5.214,5.214,0,0,1,1.035.66c.195.165.285.24.36.24s.18-.075.345-.225A13.619,13.619,0,0,0,48.7-5.2a2.3,2.3,0,0,1,.555-.555c.15-.105.21-.165.21-.285,0-.165-.03-.255-.5-.63-.48-.405-.63-.435-.75-.435A.5.5,0,0,0,48-7.035a.581.581,0,0,1-.345.075h-3.39l.24-.21c.165-.135.165-.15.045-.255l-.525-.435a21.915,21.915,0,0,0,3.1-2.25,1.774,1.774,0,0,1,.555-.39c.18-.075.27-.15.27-.285,0-.165-.09-.3-.54-.735-.375-.375-.585-.48-.705-.48a.447.447,0,0,0-.21.075,1.131,1.131,0,0,1-.39.045H39.825c-1.47,0-1.98-.03-2.07-.03-.135,0-.15.015-.15.165v1.125c0,.15.015.165.15.165.09,0,.6-.03,2.07-.03H45.18A14.909,14.909,0,0,1,42.765-8.76c-.615-.4-1.245-.765-1.89-1.11-.135-.06-.18-.06-.3.06Zm15.75,1.605c-.195.075-.225.105-.15.255.15.3.285.615.42.945-.585.045-1.2.075-1.785.105.69-.885,1.515-2.04,2.28-3.255a1.785,1.785,0,0,1,.5-.615c.12-.06.165-.12.165-.225s-.045-.15-.18-.225a13.934,13.934,0,0,0-1.26-.645,7.849,7.849,0,0,1-.465,1.035c-.33.57-.66,1.125-1,1.665-.21-.255-.435-.495-.66-.75a23.841,23.841,0,0,0,1.32-2.07.915.915,0,0,1,.285-.36c.075-.06.135-.12.135-.2,0-.09-.06-.165-.195-.24a12.622,12.622,0,0,0-1.305-.555,4.585,4.585,0,0,1-.345.93,14.482,14.482,0,0,1-.81,1.515l-.375-.39c-.06-.06-.09-.09-.135-.09s-.09.045-.15.135L51.3-9.81c-.06.09-.1.15-.1.195s.03.075.09.135A21.356,21.356,0,0,1,53.31-7.29l-.84,1.14a11.865,11.865,0,0,1-1.245-.03c.075.555.135.9.21,1.26.03.15.075.255.18.255a.4.4,0,0,0,.225-.075,1.617,1.617,0,0,1,.555-.12l1.41-.09V-.945c0,1.38-.03,1.875-.03,1.965,0,.15.015.165.165.165h1.14c.15,0,.165-.015.165-.165,0-.075-.03-.585-.03-1.965V-5.07c.345-.03.69-.06,1.035-.105l.18.675c.03.135.09.15.255.105l.8-.255c.195-.06.225-.135.18-.3a13.8,13.8,0,0,0-1.11-2.715c-.075-.135-.1-.15-.285-.09ZM62.85-8.73a43.487,43.487,0,0,1-.375,6.975c-.15.795-.4,1.29-.96,1.29A11.635,11.635,0,0,1,59.61-.6,4.407,4.407,0,0,1,60.03.54c.1.48.1.48.555.51.39.03.81.015,1.125.015,1.41-.03,2.04-.75,2.28-2.28a48.181,48.181,0,0,0,.435-7.515c0-.42,0-.825.03-1.245,0-.15-.03-.18-.18-.18-.09,0-.435.03-1.515.03H59.925c.135-.3.24-.615.345-.915a1.926,1.926,0,0,1,.42-.765c.135-.135.15-.18.15-.3s-.12-.18-.315-.24c-.3-.075-.885-.21-1.455-.315a7.6,7.6,0,0,1-.285,1.275,9.1,9.1,0,0,1-2.145,3.63,2.837,2.837,0,0,1,.81.7c.15.18.24.27.315.27s.165-.09.33-.27a9.181,9.181,0,0,0,1.17-1.68ZM58.41-6.225c-.2.105-.2.15-.09.3A15.714,15.714,0,0,1,59.895-3.03c.06.165.12.2.285.09l.945-.57c.18-.09.21-.135.135-.285A14.476,14.476,0,0,0,59.55-6.66c-.09-.105-.135-.135-.3-.045ZM51.24-.36a3.109,3.109,0,0,1,.8.36.74.74,0,0,0,.345.18c.09,0,.15-.105.21-.33a17.468,17.468,0,0,0,.57-2.88,1.551,1.551,0,0,1,.09-.48.543.543,0,0,0,.09-.225c0-.075-.075-.15-.255-.18-.3-.06-.705-.1-1.155-.165a5.057,5.057,0,0,1-.03.84A11.388,11.388,0,0,1,51.24-.36ZM55.9-3.87c-.18.06-.195.09-.135.255a23.414,23.414,0,0,1,.675,2.88c.03.15.045.195.27.12l.795-.27c.195-.06.21-.105.18-.27a23.044,23.044,0,0,0-.765-2.835c-.06-.165-.09-.2-.27-.135Z" transform="translate(20.654 14.045)" fill="#fff"/>
    </g>
  </g>
</svg>
