<svg xmlns="http://www.w3.org/2000/svg" width="590" height="278" viewBox="0 0 590 278">
  <g id="グループ_223" data-name="グループ 223" transform="translate(-718 -2132)">
    <rect id="長方形_157" data-name="長方形 157" width="590" height="278" transform="translate(718 2132)" fill="#fff"/>
    <g id="グループ_91" data-name="グループ 91" transform="translate(-9)">
      <g id="グループ_82" data-name="グループ 82" transform="translate(-9 -11)">
        <text id="_" data-name="※" transform="translate(777 2379)" fill="#242424" font-size="14" font-family="DNPShueiGoGinStd-M, DNP ShueiGoGinStd" letter-spacing="0.05em"><tspan x="0" y="0">※</tspan></text>
        <text id="土曜" transform="translate(808 2379)" fill="#242424" font-size="14" font-family="DNPShueiGoGinStd-M, DNP ShueiGoGinStd" letter-spacing="0.05em"><tspan x="0" y="0">土曜</tspan></text>
        <text id="_14:30-16:30" data-name="14:30-16:30" transform="translate(841 2379)" fill="#242424" font-size="14" font-family="Outfit" letter-spacing="0.05em"><tspan x="0" y="0">14:30-16:30</tspan></text>
        <path id="多角形_2" data-name="多角形 2" d="M6,0l6,12H0Z" transform="translate(794 2368)" fill="#9194af"/>
      </g>
      <g id="グループ_89" data-name="グループ 89" transform="translate(-7.5 -17)">
        <g id="グループ_88" data-name="グループ 88" transform="translate(0 6)">
          <path id="線_22" data-name="線 22" d="M508,1H0V-1H508Z" transform="translate(776.5 2349)" fill="#e6e6e6"/>
          <g id="グループ_87" data-name="グループ 87">
            <g id="グループ_81" data-name="グループ 81" transform="translate(-43 63)">
              <text id="_14:30-17:00" data-name="14:30-17:00" transform="translate(831 2260)" fill="#242424" font-size="16" font-family="Outfit" letter-spacing="0.05em"><tspan x="0" y="0">14:30-17:00</tspan></text>
            </g>
            <circle id="楕円形_15" data-name="楕円形 15" cx="5.5" cy="5.5" r="5.5" transform="translate(951 2312)" fill="#9194af"/>
            <circle id="楕円形_17" data-name="楕円形 17" cx="5.5" cy="5.5" r="5.5" transform="translate(1003 2312)" fill="#9194af"/>
            <circle id="楕円形_19" data-name="楕円形 19" cx="5.5" cy="5.5" r="5.5" transform="translate(1052 2312)" fill="#9194af"/>
            <circle id="楕円形_23" data-name="楕円形 23" cx="5.5" cy="5.5" r="5.5" transform="translate(1153 2312)" fill="#9194af"/>
            <path id="多角形_1" data-name="多角形 1" d="M6,0l6,11H0Z" transform="translate(1201 2312)" fill="#9194af"/>
            <text id="休診" transform="translate(1243 2323)" fill="#222" font-size="16" font-family="DNPShueiGoGinStd-B, DNP ShueiGoGinStd" letter-spacing="0.025em"><tspan x="0" y="0">休診</tspan></text>
            <text id="休診-2" data-name="休診" transform="translate(1093 2323)" fill="#222" font-size="16" font-family="DNPShueiGoGinStd-B, DNP ShueiGoGinStd" letter-spacing="0.025em"><tspan x="0" y="0">休診</tspan></text>
          </g>
        </g>
        <g id="グループ_86" data-name="グループ 86" transform="translate(0 2)">
          <path id="線_21" data-name="線 21" d="M508,1H0V-1H508Z" transform="translate(776.5 2289)" fill="#e6e6e6"/>
          <g id="グループ_85" data-name="グループ 85">
            <g id="グループ_80" data-name="グループ 80" transform="translate(-43 3)">
              <text id="_9:00-12:00" data-name="9:00-12:00" transform="translate(831 2260)" fill="#242424" font-size="16" font-family="Outfit" letter-spacing="0.05em"><tspan x="0" y="0">9:00-12:00</tspan></text>
            </g>
            <circle id="楕円形_14" data-name="楕円形 14" cx="5.5" cy="5.5" r="5.5" transform="translate(951 2252)" fill="#9194af"/>
            <circle id="楕円形_16" data-name="楕円形 16" cx="5.5" cy="5.5" r="5.5" transform="translate(1003 2252)" fill="#9194af"/>
            <circle id="楕円形_18" data-name="楕円形 18" cx="5.5" cy="5.5" r="5.5" transform="translate(1052 2252)" fill="#9194af"/>
            <circle id="楕円形_22" data-name="楕円形 22" cx="5.5" cy="5.5" r="5.5" transform="translate(1153 2252)" fill="#9194af"/>
            <circle id="楕円形_24" data-name="楕円形 24" cx="5.5" cy="5.5" r="5.5" transform="translate(1202 2252)" fill="#9194af"/>
            <text id="休診-3" data-name="休診" transform="translate(1243 2263)" fill="#222" font-size="16" font-family="DNPShueiGoGinStd-B, DNP ShueiGoGinStd" letter-spacing="0.025em"><tspan x="0" y="0">休診</tspan></text>
            <text id="休診-4" data-name="休診" transform="translate(1093 2263)" fill="#222" font-size="16" font-family="DNPShueiGoGinStd-B, DNP ShueiGoGinStd" letter-spacing="0.025em"><tspan x="0" y="0">休診</tspan></text>
          </g>
        </g>
        <g id="グループ_84" data-name="グループ 84">
          <path id="線_20" data-name="線 20" d="M508,1H0V-1H508Z" transform="translate(776.5 2227)" fill="#e6e6e6"/>
          <g id="グループ_83" data-name="グループ 83">
            <text id="受付時間" transform="translate(788 2203)" fill="#222" font-size="16" font-family="DNPShueiGoGinStd-B, DNP ShueiGoGinStd" letter-spacing="0.025em"><tspan x="0" y="0">受付時間</tspan></text>
            <g id="グループ_79" data-name="グループ 79" transform="translate(6)">
              <text id="日" transform="translate(1245 2203)" fill="#222" font-size="16" font-family="DNPShueiGoGinStd-B, DNP ShueiGoGinStd" letter-spacing="0.025em"><tspan x="0" y="0">日</tspan></text>
              <text id="土" transform="translate(1195 2203)" fill="#222" font-size="16" font-family="DNPShueiGoGinStd-B, DNP ShueiGoGinStd" letter-spacing="0.025em"><tspan x="0" y="0">土</tspan></text>
              <text id="金" transform="translate(1145 2203)" fill="#222" font-size="16" font-family="DNPShueiGoGinStd-B, DNP ShueiGoGinStd" letter-spacing="0.025em"><tspan x="0" y="0">金</tspan></text>
              <text id="木" transform="translate(1095 2203)" fill="#222" font-size="16" font-family="DNPShueiGoGinStd-B, DNP ShueiGoGinStd" letter-spacing="0.025em"><tspan x="0" y="0">木</tspan></text>
              <text id="水" transform="translate(1045 2203)" fill="#222" font-size="16" font-family="DNPShueiGoGinStd-B, DNP ShueiGoGinStd" letter-spacing="0.025em"><tspan x="0" y="0">水</tspan></text>
              <text id="火" transform="translate(995 2203)" fill="#222" font-size="16" font-family="DNPShueiGoGinStd-B, DNP ShueiGoGinStd" letter-spacing="0.025em"><tspan x="0" y="0">火</tspan></text>
              <text id="月" transform="translate(945 2203)" fill="#222" font-size="16" font-family="DNPShueiGoGinStd-B, DNP ShueiGoGinStd" letter-spacing="0.025em"><tspan x="0" y="0">月</tspan></text>
            </g>
          </g>
        </g>
      </g>
    </g>
    <text id="_祝日_年末年始は休診です_" data-name="※祝日・年末年始は休診です。" transform="translate(915 2368)" fill="#242424" font-size="14" font-family="DNPShueiGoGinStd-M, DNP ShueiGoGinStd" letter-spacing="0.05em"><tspan x="0" y="0">※祝日・年末年始は休診です。</tspan></text>
  </g>
</svg>
