<svg xmlns="http://www.w3.org/2000/svg" width="256.303" height="55.317" viewBox="0 0 256.303 55.317">
  <g id="グループ_24" data-name="グループ 24" transform="translate(-28.34 -27.753)">
    <g id="グループ_23" data-name="グループ 23" transform="translate(28.34 27.753)">
      <path id="パス_7" data-name="パス 7" d="M7.919-15.515a3.426,3.426,0,0,0,.193-.307,2.036,2.036,0,0,1,.216-.318.252.252,0,0,1,.182-.1q.136,0,.557.364a7.659,7.659,0,0,1,.784.784q.364.42.364.579-.068.364-.568.364H6.624v3.045A6.736,6.736,0,0,1,9.1-9.55a2.526,2.526,0,0,1,.8,1.625,1.018,1.018,0,0,1-.216.67.667.667,0,0,1-.534.261,1.237,1.237,0,0,1-.682-.273,5.828,5.828,0,0,0-.682-1.659,14.933,14.933,0,0,0-1.159-1.727V-5.29Q6.67-2.472,6.806.05a1.254,1.254,0,0,1-.6.5,2.131,2.131,0,0,1-.943.227A.652.652,0,0,1,4.84.64.4.4,0,0,1,4.67.322q.091-1.341.159-2.6T4.92-5.585V-9.743A17.623,17.623,0,0,1,1.375-4.495l-.3-.25A19.3,19.3,0,0,0,3.239-9.039a32.063,32.063,0,0,0,1.386-5.112H3.6a5.959,5.959,0,0,0-1.727.318l-.591-1.159q1.022.136,2.454.182H4.92v-.932a29.725,29.725,0,0,0-.3-4.658,16.16,16.16,0,0,1,2,.6q.568.239.568.4,0,.114-.182.227l-.386.273v4.09H7.51Zm9.339-2.863a12.219,12.219,0,0,0,1.75,3.692A11.617,11.617,0,0,0,21.8-11.811l-.068.273a2.25,2.25,0,0,0-1,.636A2.678,2.678,0,0,0,20.1-9.834q-2.658-3.045-3.386-8.68h-1.25a9.73,9.73,0,0,0-2.181.318l-.613-1.159a23.875,23.875,0,0,0,2.409.182h1.136l.7-1.136L18.894-18.9A2.512,2.512,0,0,1,17.258-18.378Zm-4.272,1.022q1.045.227,1.045.432,0,.114-.25.227l-.409.182a17.969,17.969,0,0,1-1.806,3.84A11.463,11.463,0,0,1,9.146-9.88l-.3-.227a14.841,14.841,0,0,0,1.568-2.931,15.136,15.136,0,0,0,.75-2.477,12.762,12.762,0,0,0,.341-2.363ZM12.146-2.472q2.454-.182,6.43-.568a26.447,26.447,0,0,0-2.181-3.908l.273-.136a12.2,12.2,0,0,1,3.522,3.272A5.6,5.6,0,0,1,21.3-.836a1.76,1.76,0,0,1-.239.977A.738.738,0,0,1,20.416.5a1.285,1.285,0,0,1-.8-.364,11.934,11.934,0,0,0-.841-2.681Q14.94-1.518,10.123-.4a.7.7,0,0,1-.545.477L8.419-2.222q1.159-.045,3.113-.2.75-2.568,1.3-5.453.227-1.182.375-2.409a15.034,15.034,0,0,0,.125-2.136L16.3-11.7q-.114.454-.818.523Q14.918-9.2,14.031-6.846T12.146-2.472ZM29.573-17.56a23.024,23.024,0,0,0-3.408.318l-.591-1.136q1.25.136,3.022.182H41.525l.568-.8q.068-.114.239-.352a2.93,2.93,0,0,1,.284-.352.314.314,0,0,1,.2-.114,2.066,2.066,0,0,1,.693.409,10.576,10.576,0,0,1,1.034.863q.477.454.477.613-.068.364-.591.364Zm.3,9.589a14.57,14.57,0,0,1-1.261,4.919A9.465,9.465,0,0,1,25.188.8l-.25-.25a11.038,11.038,0,0,0,2.556-4.772,24.908,24.908,0,0,0,.648-5.93v-2.613a18.821,18.821,0,0,0-.159-2.727l2.272,1.068H40.639l.409-.545q.068-.091.193-.25a1.688,1.688,0,0,1,.2-.227.258.258,0,0,1,.17-.068,1.747,1.747,0,0,1,.625.341,8.686,8.686,0,0,1,.909.727q.42.386.42.545a1.607,1.607,0,0,1-.909.454v2.2q.068,2.772.159,4.272a1.712,1.712,0,0,1-.7.4,2.872,2.872,0,0,1-1,.216q-.364,0-.364-.454,0-.045.091-.613v-.545Zm.091-2.2q0,1.022-.045,1.545H40.843v-5.135H29.96Zm27.4-6.453a2.581,2.581,0,0,0,.216-.273q.148-.2.284-.2.227,0,.875.568t.648.818a.9.9,0,0,1-.284.216,1.129,1.129,0,0,1-.42.125v.909l.045.727q0,.3.045.932-.068.2-.523.42a1.939,1.939,0,0,1-.818.216H57.2v-.613H55.135v.75l.023-.023a7.617,7.617,0,0,1,2.2.466,3.067,3.067,0,0,1,1.25.829A1.473,1.473,0,0,1,59-9.857a.817.817,0,0,1-.2.568.672.672,0,0,1-.523.227,1.131,1.131,0,0,1-.5-.136,5.3,5.3,0,0,0-1.1-1.375,8.684,8.684,0,0,0-1.534-1.17v1.159l.023.7q.023.8.091,1.5a1.02,1.02,0,0,1-.523.443,1.874,1.874,0,0,1-.841.216.385.385,0,0,1-.329-.136.516.516,0,0,1-.1-.318q.068-.591.091-1.136l.023-.523V-10.9a14.917,14.917,0,0,1-4.5,3.136l-.2-.364a12.475,12.475,0,0,0,2.42-2.09,13.028,13.028,0,0,0,1.806-2.568h-1.5v.273q0,.114-.42.3a2.129,2.129,0,0,1-.852.182.267.267,0,0,1-.227-.136A.56.56,0,0,1,50-12.493q.045-.25.114-1.159v-.818a16.244,16.244,0,0,0-.159-2.522l1.75.841h1.863V-17.56H52.159a12.28,12.28,0,0,0-2.5.318L49.091-18.4q1.25.136,3.022.182h1.454a14.967,14.967,0,0,0-.136-2.181,16.692,16.692,0,0,1,1.772.579q.5.216.5.352,0,.114-.182.227l-.386.25v.773h1.977l.432-.636q.091-.114.216-.284a2.324,2.324,0,0,1,.216-.261.262.262,0,0,1,.182-.091,1.5,1.5,0,0,1,.579.329,7.392,7.392,0,0,1,.818.7q.375.375.375.534-.091.364-.568.364H55.135v1.409h1.886Zm9.52-1a3.575,3.575,0,0,1,.216-.307q.148-.193.239-.3a.252.252,0,0,1,.182-.1,1.52,1.52,0,0,1,.591.364,8.361,8.361,0,0,1,.852.784q.4.42.4.579-.091.364-.568.364H67.405a10.947,10.947,0,0,1-2.454,4.476A12.637,12.637,0,0,0,69.5-9.607l-.045.25a1.792,1.792,0,0,0-1.227,1.522A10.953,10.953,0,0,1,64-10.857a14.934,14.934,0,0,1-5.544,2.863l-.136-.318a13.318,13.318,0,0,0,4.953-3.522,16.329,16.329,0,0,1-1.681-3.5,10.682,10.682,0,0,1-2.045,2.2l-.3-.227a15.093,15.093,0,0,0,1.227-2.2,14.391,14.391,0,0,0,.8-2.42,12.822,12.822,0,0,0,.386-2.352q2.477.727,2.477,1.022,0,.091-.2.182l-.409.159Q63-17.7,62.588-16.924h3.817Zm-4.7,1.386-.25.432a11.19,11.19,0,0,0,2,3.113A10.7,10.7,0,0,0,65.5-16.242Zm-8.612.727H51.591v2.068h1.977ZM57.2-13.447v-2.068H55.135v2.068ZM64.02-4.676q.114-.136.227-.3a3.1,3.1,0,0,1,.227-.284.306.306,0,0,1,.2-.125,1.66,1.66,0,0,1,.613.352,7.808,7.808,0,0,1,.886.761q.409.409.409.568-.068.364-.591.364H60V-.5h5.953l.5-.727a4.039,4.039,0,0,0,.25-.341,2.935,2.935,0,0,1,.227-.307.252.252,0,0,1,.182-.1,1.763,1.763,0,0,1,.636.375,8.682,8.682,0,0,1,.932.807q.432.432.432.591-.091.341-.568.341H53a23.024,23.024,0,0,0-3.408.318L49-.677q1.25.136,3,.182h1.409a29.275,29.275,0,0,0-.3-4.635,19.1,19.1,0,0,1,1.954.579q.545.216.545.375,0,.068-.159.182l-.364.227V-.5h3.181V-6.381H54.408A23.024,23.024,0,0,0,51-6.062L50.432-7.2q1.25.136,3.022.182H64.542l.477-.682a3.574,3.574,0,0,1,.216-.307q.148-.193.239-.3a.252.252,0,0,1,.182-.1,1.6,1.6,0,0,1,.6.352,9.3,9.3,0,0,1,.875.75q.409.4.409.557-.091.364-.591.364H60v2.386h3.545ZM91.695-19.128q.977.5.977.727,0,.091-.25.136l-.409.045A21.3,21.3,0,0,1,88.73-15.2a22.061,22.061,0,0,1-3.9,2.34l-.25-.364a20.773,20.773,0,0,0,3.227-2.863,15.607,15.607,0,0,0,1.477-1.977,13.039,13.039,0,0,0,1.091-2.022ZM83.379-12.2a4.039,4.039,0,0,0,.25-.341,2.934,2.934,0,0,1,.227-.307.252.252,0,0,1,.182-.1,1.561,1.561,0,0,1,.6.386,9.97,9.97,0,0,1,.875.818q.409.432.409.591-.091.364-.591.364H82.265v5.34q.045,2.818.182,5.34a1.97,1.97,0,0,1-.613.466,2.067,2.067,0,0,1-.977.216.618.618,0,0,1-.4-.136.4.4,0,0,1-.17-.318q.091-1.341.159-2.6t.091-3.306v-5h-3.09a29.716,29.716,0,0,1-.341,4.4,13.338,13.338,0,0,1-1.261,3.874A10.111,10.111,0,0,1,73.108.822l-.273-.25a12.424,12.424,0,0,0,2.284-5.01,33.193,33.193,0,0,0,.625-6.351h-.909a4.852,4.852,0,0,0-1.545.318l-.568-1.159a17.061,17.061,0,0,0,2.045.182h.977v-6.158h-.773a3.349,3.349,0,0,0-1.227.318l-.568-1.159q1.25.136,3.022.182h6.089l.5-.727a4.039,4.039,0,0,0,.25-.341,2.935,2.935,0,0,1,.227-.307.252.252,0,0,1,.182-.1,1.7,1.7,0,0,1,.625.375,9.35,9.35,0,0,1,.92.807q.432.432.432.591-.091.364-.591.364H82.265v6.158h.613Zm-5.93-5.408v6.158h3.09v-6.158Zm14.315,4.294q1.022.5,1.022.7,0,.091-.273.136l-.409.045a19,19,0,0,1-3.67,3.374,21.307,21.307,0,0,1-4.51,2.42l-.182-.318a19.363,19.363,0,0,0,4.045-3.317,13.323,13.323,0,0,0,1.545-1.954,10.878,10.878,0,0,0,1.091-2.022Zm.409,5.726q1.068.432,1.068.659,0,.114-.25.159l-.432.045a17.778,17.778,0,0,1-4.192,4.488A21.335,21.335,0,0,1,82.811.686L82.652.322A18.6,18.6,0,0,0,88.309-4.2a12.637,12.637,0,0,0,1.431-2.1,11.276,11.276,0,0,0,.977-2.17Zm13.883-9.248q.091-.114.284-.341t.329-.227q.136,0,.579.375a9.161,9.161,0,0,1,.829.8q.386.42.386.579a.774.774,0,0,1-.318.227,2.56,2.56,0,0,1-.545.114,34.222,34.222,0,0,1-1.8,6.567,18.211,18.211,0,0,1-3.317,5.408A16.79,16.79,0,0,1,96.966.709l-.227-.3q7.362-4.749,8.975-16.042h-3.454a23.125,23.125,0,0,1-1.568,3.363,6.05,6.05,0,0,1,2.4,1.409,2.39,2.39,0,0,1,.761,1.591,1.11,1.11,0,0,1-.227.716.721.721,0,0,1-.591.284,1.183,1.183,0,0,1-.7-.273,7.72,7.72,0,0,0-1.954-3.136,16.975,16.975,0,0,1-3.454,4.113l-.3-.227a24.537,24.537,0,0,0,3.7-7.407,19.962,19.962,0,0,0,.636-2.624,14.352,14.352,0,0,0,.273-2.42q2.658.659,2.658.977,0,.114-.182.182l-.409.2q-.3,1.2-.8,2.613h3.09Zm4.385,1.5a29.725,29.725,0,0,0-.3-4.658,18.244,18.244,0,0,1,2.079.625q.579.239.579.4,0,.114-.182.227l-.386.25v9.043a13.786,13.786,0,0,0,5.181,2.636l-.045.25a1.742,1.742,0,0,0-.943.545,2.41,2.41,0,0,0-.557,1.091,12.4,12.4,0,0,1-3.635-2.34V-4.79Q112.3-1.7,112.395,0a1.382,1.382,0,0,1-.625.489,2.188,2.188,0,0,1-.966.239A.688.688,0,0,1,110.361.6a.4.4,0,0,1-.17-.318q.091-1.341.159-2.6t.091-3.306V-9.266a17.379,17.379,0,0,1-2.5-5.271l.318-.159a13.753,13.753,0,0,0,2.181,3.5Zm17.246,1.25a3.575,3.575,0,0,1,.216-.307q.148-.193.239-.3a.252.252,0,0,1,.182-.1q.136,0,.557.364a8.4,8.4,0,0,1,.784.773q.364.409.364.568-.068.364-.545.364h-3.136v1.477A6.472,6.472,0,0,1,128.8-9.732a2.461,2.461,0,0,1,.773,1.579,1.008,1.008,0,0,1-.2.659.646.646,0,0,1-.523.25,1.029,1.029,0,0,1-.636-.25,6.222,6.222,0,0,0-.716-1.556,14.431,14.431,0,0,0-1.147-1.6v5.385q.045,2.818.182,5.34a1.665,1.665,0,0,1-.613.466,2.155,2.155,0,0,1-.977.216.573.573,0,0,1-.386-.136A.409.409,0,0,1,124.392.3q.091-1.341.159-2.6t.091-3.306V-8.789a18.922,18.922,0,0,1-4.022,5.2l-.3-.3a18.953,18.953,0,0,0,2.352-4.033,30.976,30.976,0,0,0,1.647-4.806H123.21a8.061,8.061,0,0,0-2,.318l-.591-1.159q1.136.136,2.727.182h1.3v-3.84a33.764,33.764,0,0,1-3.749.591l-.114-.341a32.968,32.968,0,0,0,3.829-1.466,19.766,19.766,0,0,0,3.124-1.693q1.818,1.545,1.818,1.818,0,.159-.341.114l-.568-.045q-.954.3-2.295.659v4.2h.886Zm11.225,6.044q.068-.136.182-.386a3.229,3.229,0,0,1,.193-.375q.08-.125.17-.125a1.675,1.675,0,0,1,.6.307,7.623,7.623,0,0,1,.863.659q.4.352.4.511a.387.387,0,0,1-.148.307.806.806,0,0,1-.352.17l-3.067.613v2.136q.068,2.681.159,4.135a1.364,1.364,0,0,1-.6.523,1.935,1.935,0,0,1-.92.25A.522.522,0,0,1,136,.55a.436.436,0,0,1-.136-.318q.136-1.977.182-4V-6.017L128.686-4.54l-.3-.591,7.657-1.545V-15.2a29.726,29.726,0,0,0-.3-4.658,16.956,16.956,0,0,1,2.011.6q.579.239.579.4,0,.114-.2.227l-.386.273V-7.017l.773-.159Zm-8.18-9.77a6.317,6.317,0,0,1,2.954,1.261,2.358,2.358,0,0,1,.954,1.693,1.019,1.019,0,0,1-.227.693.746.746,0,0,1-.591.261,1.119,1.119,0,0,1-.659-.227,5.925,5.925,0,0,0-1.045-1.84,10.525,10.525,0,0,0-1.613-1.659Zm-.5,5.431a6.43,6.43,0,0,1,3.045,1.193,2.28,2.28,0,0,1,.977,1.67,1,1,0,0,1-.239.682.766.766,0,0,1-.6.273,1.151,1.151,0,0,1-.682-.227,5.4,5.4,0,0,0-1.045-1.784,9.372,9.372,0,0,0-1.659-1.6Zm29.47-3.136a1.875,1.875,0,0,1,.829.341,4.843,4.843,0,0,1,.988.8,1.275,1.275,0,0,1,.432.818.629.629,0,0,1-.17.466,3.57,3.57,0,0,1-.557.42,5.38,5.38,0,0,0-.557.375,1.675,1.675,0,0,0-.375.42,26.822,26.822,0,0,1-6.658,7.112,22.074,22.074,0,0,1-8.021,3.726l-.25.023q-.2,0-.2-.136,0-.091.318-.227a28.1,28.1,0,0,0,7.373-4.476,28.1,28.1,0,0,0,6.033-7.544.916.916,0,0,0,.136-.409q0-.2-.25-.2a1.335,1.335,0,0,0-.318.045q-.932.273-1.556.409a5.505,5.505,0,0,1-1.17.136,3.529,3.529,0,0,1-1.159-.2,26.929,26.929,0,0,1-3.692,3.34,15.647,15.647,0,0,1-3.442,2.113,1.9,1.9,0,0,1-.318.091q-.091,0-.091-.068a.214.214,0,0,1,.091-.148,1.563,1.563,0,0,1,.25-.17,18.451,18.451,0,0,0,2.772-2.465,27.521,27.521,0,0,0,2.59-3.124,4.8,4.8,0,0,0,1.068-2.227q0-.659-.909-1-.25-.091-.25-.2t.25-.227a2.345,2.345,0,0,1,.863-.136,2.413,2.413,0,0,1,1.159.307,3.264,3.264,0,0,1,.932.727,1.214,1.214,0,0,1,.364.738,1.33,1.33,0,0,1-.227.591,10.235,10.235,0,0,1-.818,1.159h.182a9.091,9.091,0,0,0,1.761-.182,4.481,4.481,0,0,0,1.443-.5q.136-.068.386-.227a1.9,1.9,0,0,1,.432-.216A1.146,1.146,0,0,1,159.7-15.515ZM173.039.027q-.114,0-.114-.091t.386-.3a15.07,15.07,0,0,0,4.635-3.647,10.91,10.91,0,0,0,2.147-4.34,24.946,24.946,0,0,0,.557-5.669q0-.818-.091-2.136a1.888,1.888,0,0,0-.568-1.477,2.39,2.39,0,0,0-.489-.3q-.216-.091-.307-.136a.163.163,0,0,1-.091-.159q0-.182.375-.3a2.852,2.852,0,0,1,.829-.114,4.2,4.2,0,0,1,.591.045,3.765,3.765,0,0,1,1.329.716q.67.534.67.92a1.243,1.243,0,0,1-.159.523q-.091.2-.17.443a1.468,1.468,0,0,0-.08.466q0,.932-.045,2.249a21.147,21.147,0,0,1-.875,5.93,9.853,9.853,0,0,1-2.727,4.215A15.891,15.891,0,0,1,173.38-.041,1.318,1.318,0,0,1,173.039.027Zm2.749-7.68q-.318,0-.67-.489a1.91,1.91,0,0,1-.352-1.147q0-.136.091-1.022a15.924,15.924,0,0,0,.091-1.613,16.832,16.832,0,0,0-.2-3.113,1.438,1.438,0,0,0-.8-1.068,1.337,1.337,0,0,1-.3-.148.217.217,0,0,1-.114-.17q0-.159.4-.375a1.759,1.759,0,0,1,.852-.216,1.228,1.228,0,0,1,.5.091,3.325,3.325,0,0,1,1.159.6.964.964,0,0,1,.318.716,1.856,1.856,0,0,1-.045.375q-.045.216-.068.329a17.476,17.476,0,0,0-.091,2.159l.023,1.8q0,.091.068,1.045.045.682.045.932a1.709,1.709,0,0,1-.25.909A.749.749,0,0,1,175.789-7.653Zm23.426-3.863a4.548,4.548,0,0,0-.534.148,1.648,1.648,0,0,1-.489.1,1.694,1.694,0,0,1-1.363-.954,2.693,2.693,0,0,1-.3-.591,1.6,1.6,0,0,1-.114-.5q0-.136.114-.136.068,0,.25.159a2.126,2.126,0,0,0,1.272.409q.409,0,1.659-.114t2.386-.273q1.386-.2,1.659-.273a2.464,2.464,0,0,0,.773-.341,2.438,2.438,0,0,1,.4-.216,1.306,1.306,0,0,1,.443-.057,2.7,2.7,0,0,1,.875.193,3.243,3.243,0,0,1,.932.511.888.888,0,0,1,.4.682.577.577,0,0,1-.193.489,1.189,1.189,0,0,1-.693.148q-.3,0-.8-.045l-.659-.023a26.052,26.052,0,0,0-3.022.25Q200.237-11.7,199.215-11.516ZM196.647-4.9a2.427,2.427,0,0,1-.909.2,2.149,2.149,0,0,1-1.636-.954,2.649,2.649,0,0,1-.443-.773,2.092,2.092,0,0,1-.148-.682q0-.273.159-.273a.47.47,0,0,1,.25.125,1.992,1.992,0,0,0,.341.216,4.48,4.48,0,0,0,2.022.5q.568,0,3.772-.307t5.317-.534a5.029,5.029,0,0,0,1.091-.193,7.2,7.2,0,0,0,.7-.284,1.256,1.256,0,0,1,.25-.114.929.929,0,0,1,.3-.045A4.51,4.51,0,0,1,209-7.733a6.256,6.256,0,0,1,1.5.716q.648.432.648.909,0,.636-.886.636a10.324,10.324,0,0,1-1.909-.318,10.839,10.839,0,0,0-2.09-.159q-1,0-2.363.08t-1.84.1l-.568.045q-1.613.136-2.9.364A13.679,13.679,0,0,0,196.647-4.9Zm29.2-4.294a.679.679,0,0,1-.545-.284,1.715,1.715,0,0,1-.318-.761,4.733,4.733,0,0,0-.42-1.284,4.451,4.451,0,0,0-.9-1.147q-.227-.182-.227-.3,0-.136.2-.136a2.9,2.9,0,0,1,1.193.386,4.639,4.639,0,0,1,1.341,1.022,2,2,0,0,1,.579,1.363,1.284,1.284,0,0,1-.25.818A.8.8,0,0,1,225.845-9.2ZM220.528-.4a.323.323,0,0,1-.182-.045q-.068-.045-.068-.091,0-.114.432-.273a12.848,12.848,0,0,0,4.022-2.318,17.094,17.094,0,0,0,3.306-3.613,11.877,11.877,0,0,0,1.784-3.772,4.957,4.957,0,0,0,.159-.977,1,1,0,0,0-.364-.818q-.091-.068-.25-.182t-.159-.2q0-.227.386-.227a2.937,2.937,0,0,1,.977.159,2.6,2.6,0,0,1,1.091.807,1.88,1.88,0,0,1,.545,1.216.508.508,0,0,1-.068.284,1.767,1.767,0,0,1-.25.273,1.167,1.167,0,0,0-.25.307,6.066,6.066,0,0,0-.341.613,31.624,31.624,0,0,1-2.09,3.351,15.6,15.6,0,0,1-3.249,3.227,12.239,12.239,0,0,1-4.976,2.215A1.574,1.574,0,0,1,220.528-.4Zm1.886-6.7q-.7,0-.932-1.045a6.424,6.424,0,0,0-.409-1.329,2.664,2.664,0,0,0-.909-1.034q-.227-.159-.227-.273,0-.159.227-.159a3.1,3.1,0,0,1,1.1.352,4.761,4.761,0,0,1,1.375.966,1.913,1.913,0,0,1,.613,1.386,1.471,1.471,0,0,1-.216.784A.691.691,0,0,1,222.414-7.108Zm32.72-8.407a1.875,1.875,0,0,1,.829.341,4.843,4.843,0,0,1,.988.8,1.276,1.276,0,0,1,.432.818.629.629,0,0,1-.17.466,3.571,3.571,0,0,1-.557.42,5.383,5.383,0,0,0-.557.375,1.675,1.675,0,0,0-.375.42,26.822,26.822,0,0,1-6.658,7.112,22.074,22.074,0,0,1-8.021,3.726l-.25.023q-.2,0-.2-.136,0-.091.318-.227a28.1,28.1,0,0,0,7.373-4.476,28.1,28.1,0,0,0,6.033-7.544.916.916,0,0,0,.136-.409q0-.2-.25-.2a1.335,1.335,0,0,0-.318.045q-.932.273-1.556.409a5.505,5.505,0,0,1-1.17.136,3.529,3.529,0,0,1-1.159-.2,26.928,26.928,0,0,1-3.692,3.34,15.647,15.647,0,0,1-3.442,2.113,1.9,1.9,0,0,1-.318.091q-.091,0-.091-.068a.214.214,0,0,1,.091-.148,1.564,1.564,0,0,1,.25-.17,18.451,18.451,0,0,0,2.772-2.465,27.519,27.519,0,0,0,2.59-3.124,4.8,4.8,0,0,0,1.068-2.227q0-.659-.909-1-.25-.091-.25-.2t.25-.227a2.345,2.345,0,0,1,.863-.136,2.413,2.413,0,0,1,1.159.307,3.265,3.265,0,0,1,.932.727,1.214,1.214,0,0,1,.364.738,1.33,1.33,0,0,1-.227.591,10.24,10.24,0,0,1-.818,1.159h.182a9.091,9.091,0,0,0,1.761-.182,4.482,4.482,0,0,0,1.443-.5q.136-.068.386-.227a1.9,1.9,0,0,1,.432-.216A1.146,1.146,0,0,1,255.133-15.515Z" transform="translate(-1.08 38.33)" fill="#fff"/>
      <path id="パス_8" data-name="パス 8" d="M8.917-.372c.5,0,.844,0,.844-.167,0-.208-.729-.75-.885-.75-.094,0-.146.042-.333.406-.115.24-.187.24-.646.24H2.283c-.115,0-.281,0-.323-.177a16.245,16.245,0,0,1-.073-1.8c0-.8.042-4.343.042-5.061,0-.489,0-.6.333-.6H8.771c.4,0,.646,0,.646-.146,0-.177-.812-.844-.958-.844-.125,0-.385.531-.458.614s-.135.1-.531.1H2.429a1.113,1.113,0,0,1-.583-.135c-.073-.042-.729-.354-.75-.354a.066.066,0,0,0-.073.073c0,.083.083.406.094.469a28.769,28.769,0,0,1,.125,3.218c0,.854,0,3.8-.052,4.593-.01.073-.031.385-.031.583,0,.375.24.385.364.385.406,0,.448-.229.479-.448.031-.2.229-.2.292-.2ZM4.751-6.735c-.135,0-.24,0-.24-.094a1.756,1.756,0,0,1,.4-.687c.177-.094.2-.1.2-.187,0-.115-.115-.156-.187-.187a5.15,5.15,0,0,0-.75-.229c-.031,0-.052,0-.062.062a6.443,6.443,0,0,1-.9,2.364c-.052.094-.354.531-.354.562s.01.021.031.021A4.281,4.281,0,0,0,4.033-6.183a.524.524,0,0,1,.552-.281h.729c.156,0,.323.01.323.333a8.273,8.273,0,0,1-.115,1.458.27.27,0,0,1-.281.135h-.75c-.479,0-.916-.01-1.427-.042-.062,0-.385-.031-.458-.031-.021,0-.031.01-.031.021s0,.021.042.073l.2.24c.042.042.062.062.094.062s.187-.021.219-.021c.1-.01.406-.031,1.323-.031h.729c.094,0,.219,0,.219.177A4.641,4.641,0,0,1,2.721-1.2c-.042.021-.2.094-.2.125s.021.031.052.031a4.474,4.474,0,0,0,3.478-2.9c.083-.26.094-.292.146-.292s.062.031.177.281A5.22,5.22,0,0,0,8.823-1.372a.129.129,0,0,0,.083-.042,2.062,2.062,0,0,1,.614-.5,2.719,2.719,0,0,0,.4-.146c0-.01-.01-.01-.146-.031C8.25-2.3,6.553-3.809,6.553-4.194c0-.073.062-.073.125-.073H8.969c.354,0,.552,0,.552-.146S8.573-5.236,8.5-5.236c-.1,0-.406.51-.489.6-.073.073-.146.094-.542.094H6.584c-.167,0-.323,0-.323-.187v-.083a12.5,12.5,0,0,0,.146-1.385c.021-.26.2-.271.333-.271H8.167c.437,0,.781,0,.781-.2s-.7-.76-.854-.76c-.1,0-.25.281-.312.437-.115.25-.187.25-.635.25Zm11.966,4.28c.292,0,.292.083.292.875,0,.542-.031.906-.167.948a3.027,3.027,0,0,1-.677.031c-.094,0-.146.021-.146.052s.073.062.2.083c.2.031.271.219.292.427s.042.323.25.323c.031,0,.958-.01.958-1.26,0-.115-.042-1.156-.042-1.239,0-.229.125-.24.281-.24h.4c.125,0,.229.01.26.146s.062.26.3.26a.517.517,0,0,0,.489-.344,6.826,6.826,0,0,0,.042-1.489c0-.354,0-.4.083-.4s.854.656.979.656c.062,0,.271-.2.323-.229.094-.052.614-.292.614-.312a2.521,2.521,0,0,0-.469-.146,3.592,3.592,0,0,1-1.52-.823c0-.125.7-.3.812-.323.323-.052.323-.094.323-.146,0-.177-.75-.594-.781-.594-.052,0-.281.437-.333.521-.177.281-.2.312-.312.312a2.3,2.3,0,0,1-.833-.9c0-.062.062-.062.125-.062H20.6c.344,0,.552,0,.552-.146a2.3,2.3,0,0,0-.791-.687c-.1,0-.437.406-.521.479s-.135.073-.562.073h-1.8c-.052,0-.125,0-.125-.083a.538.538,0,0,1,.25-.354c.208-.1.26-.125.26-.229s-.135-.135-.2-.146c-.115-.021-.667-.167-.719-.167a.093.093,0,0,0-.1.062c-.01.042-.052.26-.062.3-.167.573-.3.614-.5.614-.458,0-1.177-.021-1.385-.031-.062-.01-.375-.042-.437-.042-.031,0-.042.01-.042.031s.01.021.042.062l.208.24c.031.042.052.073.094.073a1.84,1.84,0,0,0,.219-.031c.052,0,.375-.021,1.125-.021.052,0,.146,0,.146.094a2.858,2.858,0,0,1-.635.854c-.042,0-.167-.167-.2-.2a1.941,1.941,0,0,0-.937-.312c-.094,0-.135.021-.135.052,0,.01.333.385.385.458a3.092,3.092,0,0,1,.344.614c0,.125-.781.844-.781,1,0,.01.01.031.021.031.156,0,.823-.614.906-.614.021,0,.062.021.062.1,0,.271-.073,1.562-.073,1.739,0,.094,0,.312.292.312a.415.415,0,0,0,.385-.177.276.276,0,0,1,.25-.094Zm-.489-1.427c-.281,0-.281-.125-.281-.427,0-.229,0-.364.281-.364h2.2c.281,0,.281.125.281.427,0,.229,0,.364-.281.364ZM16.1-4.944c-.042,0-.1,0-.1-.052s.771-.864.9-1.031c.177-.25.219-.292.427-.292h.489a.3.3,0,0,1,.208.052,5.5,5.5,0,0,1,.323.552c.062.1.437.656.437.677,0,.094-.135.094-.208.094Zm.135,2.208c-.3,0-.3-.073-.3-.458,0-.323,0-.417.3-.417h2.145c.167,0,.3.021.3.25,0,.625-.073.625-.323.625ZM14.395-7.954a.83.83,0,0,1-.594-.2,1.764,1.764,0,0,0-.562-.25c-.062,0-.083.042-.083.094s.083.354.094.427a15.56,15.56,0,0,1,.125,2.645c0,.333-.052.375-.5.8-.364.344-.573.542-.76.542-.042,0-.125-.01-.156-.01a.055.055,0,0,0-.062.062c.073.2.448,1.031.594,1.031.083,0,.1-.042.229-.437a3.059,3.059,0,0,1,.594-1.093c.062,0,.062.167.062.219a6.9,6.9,0,0,1-.719,3.26c-.073.135-.5.781-.5.823s.031.042.052.042A3.826,3.826,0,0,0,13.572-1.83c.479-1.166.469-1.885.469-5.4,0-.354.042-.448.4-.448H20.82c.5,0,.552,0,.552-.146a2.709,2.709,0,0,0-.9-.739c-.083,0-.115.031-.344.3-.26.312-.281.312-.76.312H17.488c-.167,0-.344,0-.344-.271a.364.364,0,0,1,.083-.25c.135-.115.208-.167.208-.219,0-.208-.875-.417-1.01-.417-.062,0-.135.021-.135.083a1.714,1.714,0,0,0,.073.208,1.439,1.439,0,0,1,.031.364c0,.364,0,.5-.312.5ZM13.031-6a1.558,1.558,0,0,0-.531-1.01,1.371,1.371,0,0,0-.427-.24c-.052,0-.062.021-.062.052s.115.229.125.271a3.976,3.976,0,0,1,.187.771c.052.448.073.6.354.6C12.906-5.548,13.031-5.694,13.031-6Zm2.7,4.124a2.26,2.26,0,0,0-.417-.177c-.052,0-.083.052-.1.094A7.482,7.482,0,0,1,13.145-.091a1.765,1.765,0,0,0-.3.229c0,.021.021.021.042.021a9.572,9.572,0,0,0,2.26-1.031c.167-.1.521-.333.771-.51.2-.031.26-.031.26-.125C16.176-1.643,16.03-1.716,15.728-1.872ZM20.987-.258a.589.589,0,0,0-.083-.26,2.442,2.442,0,0,0-1.041-.916,4.563,4.563,0,0,0-1.312-.458c-.031,0-.073,0-.073.042,0,.021.042.094.229.24A11.427,11.427,0,0,1,19.727-.529c.354.458.542.708.854.708A.448.448,0,0,0,20.987-.258ZM24.143-8.7a3.508,3.508,0,0,1,.864,1.041c.146.26.208.354.375.354.229,0,.344-.24.344-.469a.979.979,0,0,0-.687-.844,4.142,4.142,0,0,0-.844-.167c-.031,0-.083,0-.083.042C24.111-8.735,24.132-8.714,24.143-8.7Zm-.906,2.333c.01.01.156.135.177.146a2.762,2.762,0,0,1,.677.885c.146.3.219.427.364.427a.454.454,0,0,0,.406-.479c0-.573-.75-1.031-1.458-1.031C23.351-6.423,23.247-6.413,23.236-6.371Zm5.093,2.26c.125,0,.312,0,.312.177a11.154,11.154,0,0,1-.854,1.885c-.417.8-.469.9-.719.9a5.713,5.713,0,0,1-.708-.042c-.073-.01-.417-.073-.5-.073-.01,0-.042,0-.042.031s.292,1.093.448,1.093a1.394,1.394,0,0,0,.24-.135,2.748,2.748,0,0,1,.521-.2c.364-.094,2.187-.344,2.6-.417.26-.042,1.573-.323,1.677-.323.219,0,.271.167.333.427.177.791.2.885.417.885a.542.542,0,0,0,.51-.6,4.084,4.084,0,0,0-1.77-2.52l-.01.021c.021.125.594,1.3.594,1.51,0,.125-.094.156-.354.167-.469.021-3.01.167-3.291.167-.021,0-.062-.01-.062-.052s.01-.042.156-.219a13.618,13.618,0,0,0,1.093-1.458c.26-.417.292-.458.4-.489.208-.042.281-.062.281-.146,0-.1-.4-.531-.4-.552s.042-.031.052-.031H32.2c.354,0,.562,0,.562-.146,0-.125-.708-.667-.791-.667s-.354.4-.437.458c-.083.083-.135.083-.573.083h-.979c-.167,0-.292-.021-.333-.2-.01-.062-.01-1.531-.01-1.708,0-.281.219-.281.333-.281h1.812c.354,0,.562,0,.562-.146a2.782,2.782,0,0,0-.812-.656c-.083,0-.323.385-.4.448-.094.083-.146.083-.583.083h-.583c-.1,0-.333,0-.323-.292,0,0,.031-.781.031-.937a.839.839,0,0,1,.042-.344c.01-.052.2-.24.2-.292,0-.167-.969-.333-1.031-.333s-.052.031-.052.073c0,.021.062.427.073.51.031.344.031.948.031,1.312,0,.3-.208.3-.3.3h-.229c-.489,0-.958-.021-1.427-.042-.073,0-.4-.031-.469-.031-.021,0-.031,0-.031.021s0,.021.042.073l.208.24c.031.042.052.062.083.062s.187-.021.229-.021c.364-.031,1.073-.031,1.312-.031h.292c.24,0,.292.156.292.312,0,.24,0,1.51-.021,1.656-.031.187-.146.219-.323.219h-.771c-.489,0-.958-.021-1.427-.042-.073,0-.4-.031-.469-.031-.021,0-.031,0-.031.021s0,.021.042.073l.2.24c.042.042.062.062.094.062s.187-.021.219-.021c.364-.031,1.083-.031,1.323-.031Zm-4.7,1.864c0,.052.271.2.312.24a1.724,1.724,0,0,1,.385,1.4c0,.333.125.708.5.708a.509.509,0,0,0,.458-.5,1.28,1.28,0,0,0-.094-.406,3.163,3.163,0,0,1-.323-1.364A2.639,2.639,0,0,1,25.2-3.351c.125-.333,1.135-3.072,1.135-3.166a.06.06,0,0,0-.062-.062c-.062,0-.062.021-.135.177-.094.219-.271.552-.364.771C24.924-3.726,24.4-2.58,24.038-2.393,23.986-2.361,23.632-2.32,23.632-2.247ZM39.826-8.256c.031-.042.083-.052.167-.062s.177-.052.177-.167c0-.187-.208-.25-.708-.385-.094-.021-.542-.167-.6-.167a.089.089,0,0,0-.083.083,1.475,1.475,0,0,0,.042.208,2.856,2.856,0,0,1,.042.635,13.1,13.1,0,0,1-1.187,5.353A7.723,7.723,0,0,1,35.2-.081c-.083.052-.135.094-.135.125S35.1.1,35.13.1A5.756,5.756,0,0,0,38.16-2.382,12.007,12.007,0,0,0,39.493-6.84c.042-.375.042-.417.1-.417.042,0,.042.01.052.125a11.249,11.249,0,0,0,1,4.03A6.708,6.708,0,0,0,43.023-.07c.031,0,.062-.031.26-.177A2.074,2.074,0,0,1,44-.56c.333-.073.364-.073.364-.125s-.073-.062-.1-.073c-1.6-.417-2.781-2.322-2.958-2.6a11.326,11.326,0,0,1-1.51-4.77A.2.2,0,0,1,39.826-8.256ZM49.959-.122c.042.052.062.073.094.073s.187-.031.219-.031C50.636-.112,51.334-.1,51.584-.1h3.7c.344,0,.562,0,.562-.146,0-.177-.916-.854-1.01-.854-.125,0-.156.042-.437.406a.647.647,0,0,1-.614.312H53.4c-.271,0-.271-.187-.271-.573,0-.7-.031-3.749-.031-4.374,0-.187.021-.344.3-.344h1.448c.333,0,.552,0,.552-.135,0-.2-.729-.875-.875-.875-.094,0-.125.042-.427.448-.219.292-.271.292-.76.292-.25,0-.25-.2-.25-.323,0-.281.031-2.01.094-2.156.021-.052.229-.229.229-.281,0-.177-.219-.229-.312-.26-.073-.021-.719-.219-.75-.219-.062,0-.083.021-.083.073,0,.083.062.448.062.531.052.781.073,1.25.073,2.208,0,.292-.021.427-.271.427-.354,0-1.2-.042-1.3-.042-.052,0-.427-.031-.437-.031s-.031,0-.031.021,0,.021.042.073l.2.24c.042.042.062.062.094.062s.187-.021.219-.021c.364-.031.969-.031,1.229-.031s.25.219.25.323c0,.542-.021,4.551-.042,4.738-.021.229-.208.229-.3.229h-.406c-.583,0-1.125-.021-1.427-.031-.073,0-.4-.042-.458-.042a.033.033,0,0,0-.031.031c0,.01,0,.01.042.062ZM46.554-6.5c.031.042.052.062.094.062s.187-.021.219-.021c.364-.021.8-.031,1.208-.031H48.8c.094,0,.167.01.167.1A12.825,12.825,0,0,1,47.085-3.83a10.48,10.48,0,0,0-.906.927c0,.031.031.031.052.031.271,0,1.625-1.177,1.729-1.177s.1.177.1.292c0,1.229-.042,2.312-.062,3.083,0,.115-.042.594-.042.7,0,.146.062.25.312.25a.5.5,0,0,0,.552-.479c0-.146-.052-.791-.052-.927,0-.427-.01-2.354-.01-2.749,0-.125,0-.271.094-.271.2,0,.542.531.6.646.271.552.385.76.635.76.187,0,.364-.156.364-.479,0-.791-.979-1.073-1.333-1.156-.25-.052-.344-.073-.344-.292,0-.187.031-.219.333-.531a11.986,11.986,0,0,1,.969-1.041c.031-.01.177-.042.208-.052a.157.157,0,0,0,.115-.135c0-.062-.021-.083-.25-.3-.031-.021-.25-.281-.375-.406a.2.2,0,0,0-.146-.073c-.094,0-.4.312-.469.354a.371.371,0,0,1-.25.073c-.1,0-.167-.021-.167-.167v-.875c0-.437,0-.489.052-.583.021-.042.208-.2.208-.24,0-.073-.062-.115-.115-.146a8.006,8.006,0,0,0-.937-.281c-.01,0-.042,0-.042.021,0,.062.052.3.052.354.031.4.042,1.01.042,1.166,0,.7,0,.771-.292.771-.219,0-1.177-.062-1.375-.062-.01,0-.042,0-.042.021s.01.021.052.073Zm13.091-2.02a1.645,1.645,0,0,1-.542-.073c-.042-.01-.646-.208-.667-.208a.1.1,0,0,0-.1.115c0,.062.083.354.094.417.01.219.052,2.166.052,3.895,0,1.083-.021,3-.083,3.53a5.018,5.018,0,0,0-.042.552c0,.3.156.406.364.406A.444.444,0,0,0,59.186-.3c.042-.135.083-.135.271-.135h6.186c.062,0,.187,0,.219.125.052.26.073.344.271.344.052,0,.51,0,.51-.646,0-1.073-.062-5.78-.062-6.738,0-.562.042-.687.156-.8.156-.167.167-.177.167-.229,0-.219-.542-.573-.677-.573s-.177.073-.333.312c-.083.125-.146.125-.646.125Zm1.916,2.6c-.583,0-1.125-.021-1.427-.042-.073,0-.385-.031-.458-.031-.01,0-.031,0-.031.021s0,.021.042.073l.2.24c.042.042.062.062.094.062s.187-.021.219-.021c.364-.031,1.073-.031,1.323-.031h1.573c.24,0,.292.125.292.333,0,.635,0,1.812-.01,2.468-.021.833-.052,1.093-.458,1.093-.094,0-.7-.062-.75-.062-.021,0-.083,0-.083.031,0,.073.562.3.656.375a2.108,2.108,0,0,1,.219.323.235.235,0,0,0,.229.1.932.932,0,0,0,.583-.208,1.037,1.037,0,0,0,.312-.916c0-.906-.01-2.343,0-3.249,0-.292.177-.292.312-.292h.562c.562,0,.625,0,.625-.146,0-.167-.625-.635-.729-.635-.073,0-.094.031-.312.333-.083.1-.146.156-.219.156-.24,0-.24-.229-.24-.323a6.645,6.645,0,0,1,.062-1.052c.021-.052.2-.25.2-.3s-.031-.135-.094-.146-.875-.187-.9-.187a.077.077,0,0,0-.083.083c0,.073.1.375.1.437.01.177.021.385.021.552,0,.948,0,.958-.333.958ZM59.52-.716c-.344,0-.385-.042-.385-.583,0-.583.021-3.468.021-4.124,0-.344.021-2.041.021-2.427,0-.281.042-.385.333-.385H65.56c.1,0,.24,0,.3.135.042.1.062,2.01.062,2.27,0,.417-.01,4.832-.083,4.988-.062.125-.187.125-.292.125Zm1.125-4.1c-.01.01,0,.052.021.073a3.973,3.973,0,0,1,.573,1.406c.156.812.177.906.448.906a.517.517,0,0,0,.427-.531A2.4,2.4,0,0,0,60.644-4.819ZM75.766-1.705c.25,0,.292.115.292.333,0,.385,0,.51-.031.552-.052.073-.167.083-.552.083-.094,0-.583-.021-.7-.021-.052,0-.083.01-.083.052s.115.073.156.094c.635.24.771.406.833.573s.1.271.24.271a1.24,1.24,0,0,0,.7-.427,1.1,1.1,0,0,0,.219-.75c0-.3-.052-2.01-.052-2.385,0-.458,0-.51.135-.6.115-.083.219-.156.219-.208,0-.1-.552-.7-.708-.7-.052,0-.083,0-.333.271a.4.4,0,0,1-.354.167H72.329a1.612,1.612,0,0,1-.458-.052,5.583,5.583,0,0,0-.677-.26c-.042,0-.083.021-.083.094s.031.51.042.6c.031.635.042,1.739.042,2.416,0,.26-.073,1.479-.073,1.6,0,.219.073.271.229.271.094,0,.521-.062.583-.333.01-.073.01-.927.01-1.021,0-.531,0-.625.323-.625Zm.01-2.416c.292,0,.292.2.292.406,0,.323,0,.469-.333.469H72.308c-.312,0-.354-.1-.354-.385,0-.385.031-.489.354-.489ZM72.3-1.976c-.344,0-.344-.125-.344-.573,0-.281.021-.417.333-.417h3.468c.281,0,.312.115.312.417,0,.4,0,.573-.292.573Zm5.78-3.437c.354,0,.542,0,.542-.135s-.739-.708-.844-.708-.115.042-.354.375c-.135.2-.146.2-.448.2h-2.3c-.344,0-.344-.177-.344-.385,0-.489,0-.6.323-.6H76.87a1.5,1.5,0,0,0,.458-.031c.052-.021.094-.052.094-.1,0-.135-.7-.625-.833-.625-.062,0-.146.021-.271.24s-.208.24-.542.24H74.662c-.323,0-.323-.062-.323-.687,0-.271.208-.271.354-.271h2.749c.365,0,.552,0,.552-.135s-.7-.625-.844-.625c-.062,0-.135.021-.26.24s-.219.24-.552.24H74.693c-.062,0-.333,0-.333-.2a.321.321,0,0,1,.031-.135c.021-.052.26-.26.26-.323,0-.146-.875-.354-1.062-.354-.062,0-.083,0-.083.052s.042.24.052.292v.4c0,.271-.208.271-.323.271H71.923c-.489,0-.916-.01-1.427-.031-.073,0-.4-.042-.458-.042-.031,0-.042.01-.042.031s0,.021.042.062l.208.24c.031.042.052.073.083.073a1.729,1.729,0,0,0,.229-.031c.094,0,.4-.021,1.312-.021h1.385c.292,0,.333.1.333.437,0,.417,0,.521-.3.521h-.771c-.489,0-.916-.01-1.427-.031-.062,0-.385-.031-.458-.031-.021,0-.031,0-.031.021a.158.158,0,0,0,.042.062l.2.24c.042.052.052.073.094.073s.187-.021.219-.021c.1-.01.406-.031,1.323-.031H73.3c.3,0,.3.177.3.427,0,.417,0,.562-.281.562H71.277c-.489,0-.927-.021-1.427-.042-.073,0-.4-.031-.469-.031-.021,0-.031,0-.031.021s0,.021.042.073l.208.24c.031.042.052.062.083.062s.187-.021.229-.021c.125-.01.4-.031,1.312-.031Zm9.144.021c-.042,0-.1-.01-.1-.083a4.775,4.775,0,0,1,.5-.667.517.517,0,0,1,.448-.187H89.45c.323,0,.552,0,.552-.135s-.667-.677-.771-.677-.125.042-.375.354c-.146.177-.2.177-.667.177H86.628c-.594,0-1.135-.021-1.437-.031-.073,0-.385-.042-.458-.042a.033.033,0,0,0-.031.031c0,.01,0,.021.042.062l.208.24c.031.052.052.073.083.073s.271-.031.312-.031c.417-.021.927-.021,1.229-.021h.187c.1,0,.208.052.208.156a4.054,4.054,0,0,1-.2.7c-.062.083-.1.083-.3.083a.978.978,0,0,1-.323-.083,2.936,2.936,0,0,0-.5-.2c-.052,0-.094.021-.094.1,0,.062.073.344.083.4.052.51.073,1.958.073,2.208,0,.219-.042,1.187-.042,1.385a.288.288,0,0,0,.323.312c.208,0,.25-.062.437-.3a.269.269,0,0,1,.229-.1h1.562a.236.236,0,0,1,.24.125c.073.125.1.167.25.167a.484.484,0,0,0,.51-.5c0-.135-.062-.739-.062-.854-.031-.635-.042-1.729-.042-2.02,0-.146.021-.167.187-.271.042-.031.1-.073.1-.115a2.359,2.359,0,0,0-.719-.594c-.062,0-.219.208-.25.24a.5.5,0,0,1-.333.1ZM86.69-3.163c-.156,0-.333-.021-.333-.312,0-.448,0-.573.323-.573h1.479c.312,0,.312.156.312.562,0,.312-.177.323-.344.323ZM86.68-4.33c-.323,0-.323-.167-.323-.5,0-.292.24-.292.333-.292h1.458c.3,0,.3.177.3.5,0,.292-.2.292-.333.292Zm.031,2.385c-.281,0-.344-.083-.344-.667a.27.27,0,0,1,.312-.271h1.479c.3,0,.3.167.3.229,0,.6,0,.708-.312.708ZM86.17-7.683c-.281,0-.323-.146-.323-.312a2.493,2.493,0,0,1,.052-.573c.01-.042.135-.208.135-.24,0-.156-.76-.323-.937-.354-.083,0-.1.031-.1.083,0,.073.062.385.073.458.021.271.021.573.021.625,0,.146-.021.312-.312.312H83.087c-.208,0-.312-.062-.312-.292,0-.312,0-.354.083-.406.1-.083.125-.094.125-.167,0-.2-.864-.406-.906-.406-.083,0-.094.042-.094.1s.052.552.052.656v1.1a.22.22,0,0,0,.25.2c.25,0,.489-.187.5-.292a.223.223,0,0,1,.25-.219h4.874a.226.226,0,0,1,.24.167c.052.187.062.219.219.219.3,0,.542-.115.542-.4,0-.125-.01-.656,0-.76,0-.073.219-.333.219-.4,0-.187-.927-.354-.937-.354-.052,0-.083.021-.083.083s.062.344.062.406c0,.156.01.417.01.469,0,.281-.2.281-.323.281ZM82.806-4.371a4.668,4.668,0,0,1-.614-.042,2.321,2.321,0,0,0-.281-.031c-.021,0-.031,0-.031.021s0,.021.042.073l.2.229c.042.052.062.073.094.073s.469-.052.552-.052h.927c.354,0,.562,0,.562-.146s-.583-.562-.667-.562c-.062,0-.115.062-.219.26-.073.156-.146.177-.2.177Zm1.156,1.385c.083,0,.333.01.333.26,0,.989,0,1.052-.333,1.052-.042,0-.552-.031-.573-.031s-.083,0-.083.031c0,.052.219.156.26.177a1.357,1.357,0,0,1,.406.521c.042.073.073.125.146.125a1,1,0,0,0,.531-.3,1.54,1.54,0,0,0,.281-.989,5.064,5.064,0,0,1,.031-.708c.031-.052.229-.24.229-.3,0-.115-.594-.448-.687-.448-.052,0-.073.021-.26.187a.585.585,0,0,1-.417.156h-1c-.594,0-1.135-.021-1.437-.042-.073,0-.385-.031-.458-.031,0,0-.031,0-.031.021s0,.021.042.073l.2.24c.042.042.062.062.094.062.094,0,.729-.042.844-.042a.265.265,0,0,1,.312.281c0,.187-.021.646-.021.854-.01.271-.052,1.437-.052,1.677,0,.187.031.271.271.271a.457.457,0,0,0,.5-.479c0-.292-.052-1.541-.052-1.8,0-.094,0-.594.01-.635a.283.283,0,0,1,.3-.177Zm3.687,1.541c0,.031.219.135.25.156A5.485,5.485,0,0,1,89.054-.143c.24.354.26.385.417.385a.334.334,0,0,0,.3-.375c0-1.031-2.031-1.333-2.062-1.333A.112.112,0,0,0,87.648-1.445ZM80.9-4.049a10.6,10.6,0,0,0,2.083-1.781.309.309,0,0,1,.24-.125c.24,0,.844.708.906.791.229.3.3.364.417.364s.292-.177.292-.406c0-.375-.385-.635-1.26-.9-.073-.021-.125-.042-.125-.1,0-.021,0-.052.031-.062.115-.052.146-.062.146-.125,0-.156-.791-.51-.916-.552-.031.01-.031.031-.1.25A8.781,8.781,0,0,1,81.254-4.58c-.031.042-.4.5-.4.51C80.858-4.038,80.879-4.038,80.9-4.049Zm5.759,2.572c-.031.01-.062.021-.26.24a7.135,7.135,0,0,1-1.323.948c-.146.083-.916.458-.916.5,0,.021.021.021.031.021a7.594,7.594,0,0,0,2.156-.677c.094-.042.594-.292.708-.333.25-.094.281-.115.281-.167C87.336-1.07,86.763-1.5,86.659-1.476Zm5.509-3.1A10.327,10.327,0,0,0,96.73-7.923c.083-.1.25-.312.292-.312s.062.031.177.25a9.792,9.792,0,0,0,3.624,3.676c.062,0,.094-.031.135-.1a1.221,1.221,0,0,1,.667-.427c.26-.083.292-.094.292-.156s0-.052-.292-.135a7.7,7.7,0,0,1-4.311-3.333c0-.042.01-.073.073-.1.1-.073.125-.083.125-.135,0-.177-.969-.635-.979-.635-.125,0-.125.042-.208.364a8.53,8.53,0,0,1-2.489,2.989c-.677.573-1.531,1.177-1.6,1.229-.125.083-.156.1-.156.146S92.137-4.569,92.168-4.58Zm3.426,1.4c.177,0,.312,0,.312.177a7.286,7.286,0,0,1-.542,1.375c-.427.854-.5.854-1.083.854a5.519,5.519,0,0,1-.614-.042c-.062-.01-.385-.073-.458-.073-.031,0-.083,0-.083.073A8.228,8.228,0,0,0,93.7.284a.118.118,0,0,0,.1.073,2.177,2.177,0,0,0,.3-.167,45.589,45.589,0,0,1,4.832-.958c.146,0,.24.031.437.385s.406.729.708.729c.2,0,.406-.229.406-.562,0-.656-.646-1.031-.927-1.2a9.687,9.687,0,0,0-1.323-.646c-.031,0-.073.01-.073.062,0,.125.614.656.614.812,0,.1-.083.115-.833.187-1.156.115-2.135.177-2.27.177-.042,0-.187-.01-.187-.1s.1-.2.146-.25c.062-.062.489-.573.708-.864.26-.344.281-.375.365-.406.312-.083.312-.083.312-.177,0-.115-.489-.531-.489-.531,0-.031.042-.031.146-.031h3.187c.489,0,.542,0,.542-.135,0-.094,0-.1-.531-.542-.24-.2-.271-.219-.354-.219s-.135.062-.292.281c-.25.344-.365.344-.8.344H94.99c-.364,0-.916-.021-1.427-.042-.062,0-.385-.031-.458-.031-.021,0-.042,0-.042.021s.031.042.052.073l.2.24c.042.042.052.062.094.062s.187-.021.219-.021c.281-.021.542-.031,1.312-.031Zm.479-1.937c-.417,0-.916-.01-1.427-.042-.062,0-.385-.031-.458-.031-.021,0-.031.01-.031.021s0,.031.042.073l.2.24c.042.042.062.062.094.062s.187-.021.219-.021c.385-.031.687-.031,1.323-.031h2.4c.5,0,.552,0,.552-.115a2.824,2.824,0,0,0-.791-.781c-.052,0-.177.156-.344.354-.208.25-.229.271-.739.271Z" transform="translate(-0.13 9.339)" fill="#fff"/>
    </g>
    <path id="パス_9" data-name="パス 9" d="M.736-.337V-6.251H1.3L3.8-2.133H3.424L5.929-6.251h.562V-.337h-.8V-4.845l.183.049L3.895-1.549H3.332L1.356-4.8l.183-.049V-.337Zm11.612,0,2.426-5.913h.575L17.758-.337h-.867l-1.987-5h.3l-2,5ZM13.5-1.675v-.7h3.114v.7ZM24.319-.337V-6.083h.8V-.337Zm-2-5.181v-.733h4.812v.733ZM34.252-.252a2.555,2.555,0,0,1-1.191-.257,2.7,2.7,0,0,1-.876-.74l.547-.545a1.921,1.921,0,0,0,.643.592,1.859,1.859,0,0,0,.905.2,1.425,1.425,0,0,0,.849-.23.739.739,0,0,0,.321-.635.853.853,0,0,0-.157-.531,1.209,1.209,0,0,0-.413-.339,4.05,4.05,0,0,0-.564-.238q-.308-.1-.616-.228a2.612,2.612,0,0,1-.564-.31,1.39,1.39,0,0,1-.413-.481,1.594,1.594,0,0,1-.157-.751,1.473,1.473,0,0,1,.245-.856,1.579,1.579,0,0,1,.667-.546,2.282,2.282,0,0,1,.95-.191,2.308,2.308,0,0,1,1.036.226,2.178,2.178,0,0,1,.751.594l-.547.545a1.887,1.887,0,0,0-.564-.463,1.5,1.5,0,0,0-.694-.154,1.24,1.24,0,0,0-.757.209.686.686,0,0,0-.28.584.727.727,0,0,0,.157.486A1.251,1.251,0,0,0,33.942-4a4.883,4.883,0,0,0,.565.231q.308.105.616.233a2.491,2.491,0,0,1,.564.325A1.454,1.454,0,0,1,36.1-2.7a1.725,1.725,0,0,1,.157.781A1.5,1.5,0,0,1,35.715-.7,2.238,2.238,0,0,1,34.252-.252Zm10.31,0a2.327,2.327,0,0,1-1.175-.3,2.179,2.179,0,0,1-.818-.811,2.273,2.273,0,0,1-.3-1.164V-6.251h.8v3.709a1.6,1.6,0,0,0,.2.807,1.358,1.358,0,0,0,.534.528,1.549,1.549,0,0,0,.758.186,1.518,1.518,0,0,0,.757-.185,1.355,1.355,0,0,0,.523-.528,1.6,1.6,0,0,0,.193-.8V-6.251h.8v3.736a2.267,2.267,0,0,1-.3,1.16,2.179,2.179,0,0,1-.809.807A2.3,2.3,0,0,1,44.562-.252Zm9.026-.085v-.735h1.647a2.275,2.275,0,0,0,1.148-.283,2.005,2.005,0,0,0,.774-.786A2.36,2.36,0,0,0,57.435-3.3a2.3,2.3,0,0,0-.281-1.149,2.026,2.026,0,0,0-.778-.782,2.269,2.269,0,0,0-1.142-.282H53.6v-.735h1.657a3.137,3.137,0,0,1,1.193.223,2.925,2.925,0,0,1,.955.622,2.83,2.83,0,0,1,.634.937,3,3,0,0,1,.226,1.175,3.006,3.006,0,0,1-.226,1.169,2.866,2.866,0,0,1-.629.942,2.869,2.869,0,0,1-.951.623,3.114,3.114,0,0,1-1.184.223Zm-.528,0V-6.251h.8V-.337Zm13.9.085A2.927,2.927,0,0,1,65.78-.488a2.964,2.964,0,0,1-.953-.654,3.038,3.038,0,0,1-.638-.972A3.08,3.08,0,0,1,63.959-3.3a3.066,3.066,0,0,1,.228-1.187,3.037,3.037,0,0,1,.634-.966,2.915,2.915,0,0,1,.946-.649,2.932,2.932,0,0,1,1.171-.232,2.939,2.939,0,0,1,1.172.232,2.936,2.936,0,0,1,.949.649,3.022,3.022,0,0,1,.637.97,3.085,3.085,0,0,1,.229,1.191A3.092,3.092,0,0,1,69.7-2.105a3,3,0,0,1-.634.968,2.977,2.977,0,0,1-.945.65A2.874,2.874,0,0,1,66.954-.252Zm-.017-.769a2.115,2.115,0,0,0,1.119-.294,2.085,2.085,0,0,0,.763-.808A2.441,2.441,0,0,0,69.1-3.3a2.5,2.5,0,0,0-.16-.907,2.17,2.17,0,0,0-.449-.719,2.006,2.006,0,0,0-.683-.472,2.207,2.207,0,0,0-.868-.166,2.127,2.127,0,0,0-1.113.29,2.054,2.054,0,0,0-.762.8A2.424,2.424,0,0,0,64.786-3.3a2.557,2.557,0,0,0,.16.915,2.157,2.157,0,0,0,.446.724,2.017,2.017,0,0,0,.683.473A2.172,2.172,0,0,0,66.937-1.021Zm18.347.769A2.927,2.927,0,0,1,84.11-.488a2.964,2.964,0,0,1-.953-.654,3.038,3.038,0,0,1-.638-.972A3.08,3.08,0,0,1,82.29-3.3a3.066,3.066,0,0,1,.228-1.187,3.037,3.037,0,0,1,.634-.966A2.915,2.915,0,0,1,84.1-6.1a2.932,2.932,0,0,1,1.171-.232,2.939,2.939,0,0,1,1.172.232,2.935,2.935,0,0,1,.949.649,3.022,3.022,0,0,1,.637.97,3.086,3.086,0,0,1,.229,1.191,3.093,3.093,0,0,1-.228,1.189,3,3,0,0,1-.634.968,2.977,2.977,0,0,1-.945.65A2.874,2.874,0,0,1,85.285-.252Zm-.017-.769a2.115,2.115,0,0,0,1.119-.294,2.085,2.085,0,0,0,.763-.808A2.441,2.441,0,0,0,87.428-3.3a2.5,2.5,0,0,0-.16-.907,2.17,2.17,0,0,0-.449-.719,2.006,2.006,0,0,0-.683-.472,2.207,2.207,0,0,0-.868-.166,2.127,2.127,0,0,0-1.113.29,2.054,2.054,0,0,0-.762.8A2.424,2.424,0,0,0,83.116-3.3a2.556,2.556,0,0,0,.16.915,2.157,2.157,0,0,0,.446.724,2.017,2.017,0,0,0,.683.473A2.172,2.172,0,0,0,85.268-1.021Zm9.524-1.892v-.669h1.6a1.115,1.115,0,0,0,.8-.264.942.942,0,0,0,.28-.72.96.96,0,0,0-.277-.705A1.067,1.067,0,0,0,96.4-5.55h-1.61v-.7h1.632a2.1,2.1,0,0,1,.982.217,1.588,1.588,0,0,1,.644.594,1.636,1.636,0,0,1,.227.861,1.656,1.656,0,0,1-.227.877,1.531,1.531,0,0,1-.644.582,2.18,2.18,0,0,1-.982.208ZM94.253-.337V-6.251h.8V-.337Zm3.408,0-2.143-2.65.758-.262,2.4,2.912Zm7.988,0V-6.083h.8V-.337Zm-2-5.181v-.733h4.812v.733ZM114.31-.337V-6.251h.8V-.337Zm3.817,0V-6.251h.8V-.337Zm-3.274-2.69v-.733h3.468v.733ZM127.918-.252a2.927,2.927,0,0,1-1.175-.235,2.964,2.964,0,0,1-.953-.654,3.038,3.038,0,0,1-.638-.972,3.08,3.08,0,0,1-.229-1.189,3.066,3.066,0,0,1,.228-1.187,3.037,3.037,0,0,1,.634-.966,2.915,2.915,0,0,1,.946-.649,2.932,2.932,0,0,1,1.171-.232,2.939,2.939,0,0,1,1.172.232,2.935,2.935,0,0,1,.949.649,3.022,3.022,0,0,1,.637.97,3.085,3.085,0,0,1,.229,1.191,3.092,3.092,0,0,1-.228,1.189,3,3,0,0,1-.634.968,2.977,2.977,0,0,1-.945.65A2.874,2.874,0,0,1,127.918-.252Zm-.017-.769a2.115,2.115,0,0,0,1.119-.294,2.085,2.085,0,0,0,.763-.808,2.441,2.441,0,0,0,.278-1.179,2.5,2.5,0,0,0-.16-.907,2.171,2.171,0,0,0-.449-.719,2.006,2.006,0,0,0-.683-.472,2.207,2.207,0,0,0-.868-.166,2.127,2.127,0,0,0-1.113.29,2.054,2.054,0,0,0-.762.8,2.424,2.424,0,0,0-.277,1.175,2.557,2.557,0,0,0,.16.915,2.157,2.157,0,0,0,.446.724,2.017,2.017,0,0,0,.683.473A2.172,2.172,0,0,0,127.9-1.021Zm9.524-1.617v-.7h1.608a1.279,1.279,0,0,0,.594-.134,1.012,1.012,0,0,0,.41-.382,1.116,1.116,0,0,0,.15-.59,1.116,1.116,0,0,0-.15-.59,1.012,1.012,0,0,0-.41-.382,1.279,1.279,0,0,0-.594-.134h-1.608v-.7h1.657a2.09,2.09,0,0,1,.977.224,1.72,1.72,0,0,1,.683.628,1.769,1.769,0,0,1,.251.953,1.776,1.776,0,0,1-.251.954,1.717,1.717,0,0,1-.683.629,2.09,2.09,0,0,1-.977.224Zm-.539,2.3V-6.251h.8V-.337Zm9.062,0,2.426-5.913h.575l2.409,5.913h-.867l-1.987-5h.3l-2,5ZM147.1-1.675v-.7h3.114v.7ZM157.146-.337V-6.251h.8V-.337Zm.543,0V-1.07h3.393v.733Zm0-2.671v-.705H160.8v.705Zm0-2.509v-.733h3.349v.733ZM167.6-.337v-.735h1.647a2.275,2.275,0,0,0,1.148-.283,2.005,2.005,0,0,0,.774-.786,2.36,2.36,0,0,0,.278-1.161,2.3,2.3,0,0,0-.281-1.149,2.026,2.026,0,0,0-.778-.782,2.269,2.269,0,0,0-1.142-.282h-1.638v-.735h1.657a3.137,3.137,0,0,1,1.193.223,2.925,2.925,0,0,1,.955.622,2.83,2.83,0,0,1,.634.937,3,3,0,0,1,.226,1.175,3.006,3.006,0,0,1-.226,1.169,2.866,2.866,0,0,1-.629.942,2.869,2.869,0,0,1-.951.623,3.114,3.114,0,0,1-1.184.223Zm-.528,0V-6.251h.8V-.337Zm11.2,0V-6.251h.8V-.337Zm9.78.085a2.984,2.984,0,0,1-1.183-.232,2.875,2.875,0,0,1-.949-.651,2.958,2.958,0,0,1-.625-.972,3.184,3.184,0,0,1-.22-1.189,3.2,3.2,0,0,1,.219-1.19,2.9,2.9,0,0,1,.623-.966,2.951,2.951,0,0,1,.946-.649,2.928,2.928,0,0,1,1.179-.235,2.97,2.97,0,0,1,1.229.239,3.046,3.046,0,0,1,.935.652l-.547.547a1.97,1.97,0,0,0-.69-.492,2.3,2.3,0,0,0-.927-.177,2.175,2.175,0,0,0-.86.166,2,2,0,0,0-.68.472,2.131,2.131,0,0,0-.445.722,2.568,2.568,0,0,0-.157.911,2.561,2.561,0,0,0,.158.912,2.163,2.163,0,0,0,.445.724,1.977,1.977,0,0,0,.681.473,2.19,2.19,0,0,0,.862.166,2.363,2.363,0,0,0,.963-.181,2.013,2.013,0,0,0,.692-.5l.547.547a2.924,2.924,0,0,1-.952.659A3.083,3.083,0,0,1,188.049-.252Zm17.429,0a2.984,2.984,0,0,1-1.183-.232,2.875,2.875,0,0,1-.949-.651,2.958,2.958,0,0,1-.625-.972A3.184,3.184,0,0,1,202.5-3.3a3.2,3.2,0,0,1,.219-1.19,2.9,2.9,0,0,1,.623-.966,2.951,2.951,0,0,1,.946-.649,2.928,2.928,0,0,1,1.179-.235A2.97,2.97,0,0,1,206.7-6.1a3.046,3.046,0,0,1,.935.652l-.547.547a1.97,1.97,0,0,0-.69-.492,2.3,2.3,0,0,0-.927-.177,2.175,2.175,0,0,0-.86.166,2,2,0,0,0-.68.472,2.131,2.131,0,0,0-.445.722,2.568,2.568,0,0,0-.157.911,2.561,2.561,0,0,0,.158.912,2.163,2.163,0,0,0,.445.724,1.977,1.977,0,0,0,.681.473,2.191,2.191,0,0,0,.862.166,2.363,2.363,0,0,0,.963-.181,2.013,2.013,0,0,0,.692-.5l.547.547a2.923,2.923,0,0,1-.952.659A3.083,3.083,0,0,1,205.478-.252Zm8.078-.085V-6.251h.8V-.337Zm.543,0V-1.07h3.174v.733Zm9.06,0V-6.251h.8V-.337Zm7.1,0V-6.251h.562l.241.933v4.98Zm4.094,0-3.636-4.844.1-1.069,3.636,4.844Zm0,0-.241-.876V-6.251h.8V-.337Zm6.855,0V-6.251h.8V-.337Zm9.78.085A2.984,2.984,0,0,1,249.8-.484a2.875,2.875,0,0,1-.949-.651,2.957,2.957,0,0,1-.625-.972A3.184,3.184,0,0,1,248-3.3a3.2,3.2,0,0,1,.219-1.19,2.9,2.9,0,0,1,.623-.966,2.951,2.951,0,0,1,.946-.649,2.928,2.928,0,0,1,1.179-.235A2.97,2.97,0,0,1,252.2-6.1a3.046,3.046,0,0,1,.935.652l-.547.547a1.97,1.97,0,0,0-.69-.492,2.3,2.3,0,0,0-.927-.177,2.175,2.175,0,0,0-.86.166,2,2,0,0,0-.68.472,2.131,2.131,0,0,0-.445.722,2.568,2.568,0,0,0-.157.911,2.562,2.562,0,0,0,.158.912,2.163,2.163,0,0,0,.445.724,1.977,1.977,0,0,0,.681.473,2.191,2.191,0,0,0,.862.166,2.363,2.363,0,0,0,.963-.181,2.013,2.013,0,0,0,.692-.5l.547.547a2.924,2.924,0,0,1-.952.659A3.083,3.083,0,0,1,250.983-.252Z" transform="translate(30.119 83.322)" fill="#fff"/>
  </g>
</svg>
